<svg xmlns="http://www.w3.org/2000/svg" width="35.317" height="33.737" viewBox="0 0 35.317 33.737">
  <g id="Group_485" data-name="Group 485" transform="translate(-5676.137 -906.814)">
    <path id="Path_1132" data-name="Path 1132" d="M855.974,13.456a11.354,11.354,0,0,1-2.812,6.4A12.862,12.862,0,0,1,849,22.8c-.632.291-1.287.532-1.934.792a1.29,1.29,0,0,1-.943,0,16.977,16.977,0,0,1-4.43-2.261,10.721,10.721,0,0,1-4.231-6.557,22.791,22.791,0,0,1-.432-5.16c.011-1.238.028-2.475.043-3.713a.718.718,0,0,1,.736-.732c.825-.038,1.655-.044,2.474-.144a9.179,9.179,0,0,0,5.284-2.491c.158-.148.313-.3.468-.452a.721.721,0,0,1,1.127,0,10.928,10.928,0,0,0,2.182,1.739,9.3,9.3,0,0,0,3.781,1.232c.728.076,1.463.086,2.2.11a.73.73,0,0,1,.81.817c0,1.009.044,6-.154,7.471M845.488,12.9c-.441-.441-.883-.886-1.33-1.328a.65.65,0,0,0-.982,0q-.44.433-.872.871a.643.643,0,0,0,0,1q1.355,1.346,2.713,2.689a.64.64,0,0,0,.979,0q2.455-2.449,4.908-4.9a.642.642,0,0,0,0-.98c-.283-.291-.566-.579-.851-.868a.652.652,0,0,0-1.041,0c-.637.641-1.271,1.285-1.911,1.923-.531.531-1.069,1.055-1.615,1.593" transform="translate(4847.174 905)" fill="#4f9d73"/>
    <path id="Path_1133" data-name="Path 1133" d="M845.179,35.55h-8.674c0-.076-.01-.144-.01-.212,0-.663,0-1.326,0-1.989a.453.453,0,0,0-.144-.355c-1.994-1.989-3.979-3.986-5.978-5.971A4.4,4.4,0,0,1,829,24.414a8.036,8.036,0,0,1-.01-1.472c.061-1.036.151-2.07.23-3.1q.133-1.737.268-3.473c.039-.515.083-1.029.115-1.544a1.861,1.861,0,1,1,3.711.286c-.089,1.146-.154,2.294-.23,3.441q-.109,1.659-.22,3.318a2.014,2.014,0,0,0,.58,1.6c.984,1,1.98,1.987,2.973,2.977a.606.606,0,0,0,.755.128.555.555,0,0,0,.281-.627.928.928,0,0,0-.229-.382c-.828-.84-1.668-1.668-2.5-2.506a1.837,1.837,0,0,1-.341-2.186,1.776,1.776,0,0,1,2.8-.417c1.07,1.045,2.119,2.112,3.176,3.171.824.827,1.671,1.633,2.462,2.491a8.473,8.473,0,0,1,2.3,5.369c.068,1.135.038,2.276.052,3.414,0,.21,0,.42,0,.648" transform="translate(4847.174 905)" fill="#4f9d73"/>
    <path id="Path_1134" data-name="Path 1134" d="M856.728,35.549h-8.683c0-.059-.009-.116-.008-.172.007-1.1.007-2.195.023-3.292a8.721,8.721,0,0,1,2.531-6.173c1.775-1.819,3.583-3.6,5.383-5.4a1.722,1.722,0,0,1,1.843-.459,1.67,1.67,0,0,1,1.2,1.423,1.813,1.813,0,0,1-.565,1.629c-.832.827-1.66,1.66-2.491,2.488a.62.62,0,0,0-.215.566.6.6,0,0,0,.95.381,1.449,1.449,0,0,0,.168-.155c.9-.906,1.793-1.826,2.714-2.713a2.447,2.447,0,0,0,.758-2.114c-.1-1.175-.163-2.352-.242-3.529-.066-.965-.123-1.932-.2-2.9a1.868,1.868,0,1,1,3.723-.286c.118,1.632.249,3.263.374,4.895.095,1.24.2,2.479.277,3.72a4.237,4.237,0,0,1-1.231,3.35c-2.036,2.063-4.092,4.106-6.144,6.154a.525.525,0,0,0-.172.414c.009.645,0,1.291,0,1.936Z" transform="translate(4847.174 905)" fill="#4f9d73"/>
  </g>
</svg>
