<svg xmlns="http://www.w3.org/2000/svg" width="35.317" height="33.736" viewBox="0 0 35.317 33.736">
  <g id="Group_35" data-name="Group 35" transform="translate(-510.33 -2805.352)">
    <path id="Path_156" data-name="Path 156" d="M537.341,2816.994a11.367,11.367,0,0,1-2.812,6.4,12.871,12.871,0,0,1-4.164,2.949c-.632.291-1.288.532-1.934.792a1.285,1.285,0,0,1-.943,0,16.989,16.989,0,0,1-4.431-2.261,10.719,10.719,0,0,1-4.23-6.556,22.739,22.739,0,0,1-.432-5.16c.011-1.238.028-2.476.043-3.714a.718.718,0,0,1,.736-.732c.825-.038,1.655-.044,2.473-.143a9.192,9.192,0,0,0,5.284-2.491c.159-.148.313-.3.469-.453a.721.721,0,0,1,1.127.006,10.933,10.933,0,0,0,2.182,1.739,9.273,9.273,0,0,0,3.781,1.231c.728.076,1.463.087,2.2.11a.731.731,0,0,1,.81.818C537.5,2810.533,537.539,2815.519,537.341,2816.994Zm-10.486-.56c-.441-.441-.884-.887-1.33-1.328a.65.65,0,0,0-.983,0q-.438.432-.871.871a.642.642,0,0,0,0,1q1.355,1.347,2.713,2.69a.64.64,0,0,0,.978,0q2.457-2.448,4.909-4.9a.643.643,0,0,0,0-.981q-.423-.435-.85-.867a.652.652,0,0,0-1.041,0c-.638.64-1.272,1.284-1.911,1.923C527.938,2815.371,527.4,2815.9,526.855,2816.434Z" fill="#4170ff"/>
    <path id="Path_157" data-name="Path 157" d="M526.545,2839.088h-8.674c0-.076-.009-.144-.01-.212,0-.663,0-1.326,0-1.989a.452.452,0,0,0-.144-.355c-1.994-1.989-3.979-3.987-5.978-5.971a4.414,4.414,0,0,1-1.374-2.609,8.127,8.127,0,0,1-.009-1.472c.061-1.036.15-2.07.23-3.1q.132-1.737.267-3.474c.04-.514.083-1.028.116-1.544a1.862,1.862,0,1,1,3.711.287c-.09,1.146-.155,2.294-.231,3.441-.073,1.106-.148,2.212-.219,3.318a2.014,2.014,0,0,0,.58,1.6c.984,1,1.979,1.987,2.972,2.977a.607.607,0,0,0,.756.128.556.556,0,0,0,.28-.627.92.92,0,0,0-.229-.382c-.828-.84-1.668-1.668-2.5-2.506a1.837,1.837,0,0,1-.341-2.187,1.776,1.776,0,0,1,2.8-.416c1.07,1.045,2.12,2.112,3.176,3.171.825.827,1.671,1.633,2.463,2.491a8.472,8.472,0,0,1,2.3,5.369c.068,1.135.039,2.275.052,3.413C526.547,2838.649,526.545,2838.86,526.545,2839.088Z" fill="#4170ff"/>
    <path id="Path_158" data-name="Path 158" d="M538.094,2839.087h-8.682c0-.059-.009-.116-.009-.172.007-1.1.007-2.2.023-3.292a8.726,8.726,0,0,1,2.532-6.173c1.774-1.819,3.583-3.6,5.383-5.4a1.72,1.72,0,0,1,1.843-.46,1.669,1.669,0,0,1,1.2,1.423,1.813,1.813,0,0,1-.565,1.629q-1.248,1.242-2.491,2.489a.618.618,0,0,0-.215.566.6.6,0,0,0,.95.38,1.559,1.559,0,0,0,.169-.155c.9-.905,1.792-1.826,2.713-2.713a2.451,2.451,0,0,0,.759-2.114c-.1-1.174-.163-2.352-.243-3.529-.065-.965-.122-1.932-.2-2.9a1.867,1.867,0,1,1,3.722-.286c.118,1.632.25,3.264.374,4.9.1,1.24.205,2.479.278,3.72a4.24,4.24,0,0,1-1.231,3.35c-2.036,2.063-4.093,4.106-6.145,6.154a.522.522,0,0,0-.171.414c.009.645,0,1.291,0,1.937Z" fill="#4170ff"/>
  </g>
</svg>
