<svg xmlns="http://www.w3.org/2000/svg" width="32.668" height="29.401" viewBox="0 0 32.668 29.401">
  <path id="Path_163" data-name="Path 163" d="M15.746,2836.92v-29.4H32.08v6.534H48.414v22.867Zm3.267-3.266H22.28v-3.267H19.013Zm0-6.534H22.28v-3.267H19.013Zm0-6.533H22.28v-3.267H19.013Zm0-6.534H22.28v-3.267H19.013Zm6.534,19.6h3.266v-3.267H25.547Zm0-6.534h3.266v-3.267H25.547Zm0-6.533h3.266v-3.267H25.547Zm0-6.534h3.266v-3.267H25.547Zm6.533,19.6H45.147V2817.32H32.08v3.267h3.267v3.266H32.08v3.267h3.267v3.267H32.08Zm6.534-9.8v-3.266h3.267v3.266Zm0,6.534v-3.267h3.267v3.267Z" transform="translate(-15.746 -2807.519)" fill="#4170ff"/>
</svg>
