<svg xmlns="http://www.w3.org/2000/svg" width="32.668" height="29.401" viewBox="0 0 32.668 29.401">
  <path id="Path_1127" data-name="Path 1127" d="M22.867,28.32h3.267V25.053H22.867Zm0-6.533h3.267V18.52H22.867ZM3.267,28.32H6.534v3.267H3.267Zm6.533,0h3.267v3.267H9.8ZM3.267,21.787H6.534v3.266H3.267Zm6.533,0h3.267v3.266H9.8ZM3.267,15.253H6.534V18.52H3.267Zm6.533,0h3.267V18.52H9.8Zm6.534,0H29.4V31.587H16.334V28.32H19.6V25.053H16.334V21.787H19.6V18.52H16.334ZM3.267,8.719H6.534v3.267H3.267Zm6.533,0h3.267v3.267H9.8ZM0,5.453v29.4H32.668V11.986H16.334V5.453Z" transform="translate(0 -5.453)" fill="#4c6ff5"/>
</svg>
