<svg xmlns="http://www.w3.org/2000/svg" width="33.44" height="33.44" viewBox="0 0 33.44 33.44">
  <path id="Path_162" data-name="Path 162" d="M132.08,2824.078a6.5,6.5,0,1,0-4.6-1.9A6.263,6.263,0,0,0,132.08,2824.078Zm-13,14.862a3.726,3.726,0,0,1-3.716-3.716v-26.009a3.727,3.727,0,0,1,3.716-3.715h26.009a3.725,3.725,0,0,1,3.715,3.715v26.009a3.725,3.725,0,0,1-3.715,3.716Zm0-3.716h26.009v-2.136a18.724,18.724,0,0,0-5.829-3.878,18.876,18.876,0,0,0-14.351,0,18.724,18.724,0,0,0-5.829,3.878Z" transform="translate(-115.36 -2805.5)" fill="#4170ff"/>
</svg>
