<svg xmlns="http://www.w3.org/2000/svg" width="33.441" height="33.441" viewBox="0 0 33.441 33.441">
  <path id="Path_1128" data-name="Path 1128" d="M183.149,21.035a6.5,6.5,0,0,0,6.5-6.5,6.5,6.5,0,0,0-13.005,0,6.5,6.5,0,0,0,6.5,6.5M170.144,35.9a3.728,3.728,0,0,1-3.716-3.716V6.173a3.575,3.575,0,0,1,1.092-2.624,3.577,3.577,0,0,1,2.624-1.092h26.009a3.575,3.575,0,0,1,2.624,1.092,3.575,3.575,0,0,1,1.092,2.624V32.182a3.728,3.728,0,0,1-3.716,3.716Zm0-3.716h26.009V30.046a18.723,18.723,0,0,0-5.829-3.879,18.889,18.889,0,0,0-14.351,0,18.723,18.723,0,0,0-5.829,3.879Z" transform="translate(-166.428 -2.457)" fill="#4f9d73"/>
</svg>
