<svg xmlns="http://www.w3.org/2000/svg" width="34.431" height="34.431" viewBox="0 0 34.431 34.431">
  <path id="Path_1130" data-name="Path 1130" d="M508.509,27.95l2.678-2.726-4.16-4.161,4.16-4.16-2.678-2.726-6.886,6.886Zm9.182,0,6.886-6.887-6.886-6.886L515.013,16.9l4.16,4.16-4.16,4.161ZM499.71,38.279a3.838,3.838,0,0,1-3.826-3.826V7.674a3.683,3.683,0,0,1,1.124-2.7,3.681,3.681,0,0,1,2.7-1.124h26.78a3.683,3.683,0,0,1,2.7,1.124,3.682,3.682,0,0,1,1.123,2.7V34.453a3.836,3.836,0,0,1-3.825,3.826Z" transform="translate(-495.884 -3.848)" fill="#78797c"/>
</svg>
