<svg xmlns="http://www.w3.org/2000/svg" width="33.469" height="35.561" viewBox="0 0 33.469 35.561">
  <path id="Path_1129" data-name="Path 1129" d="M344.913,36.416V29.555l12.3-12.216a3.4,3.4,0,0,1,1.108-.753,3.369,3.369,0,0,1,2.552,0,3.391,3.391,0,0,1,1.109.753l2.05,2.091a3.759,3.759,0,0,1,.711,1.109,3.192,3.192,0,0,1,.251,1.234,2.974,2.974,0,0,1-.272,1.234,4.122,4.122,0,0,1-.732,1.109l-12.216,12.3Zm1.255-21.337-2.343-2.384,3.054-3.054h-5.606a4.889,4.889,0,0,1-3.054,3.054V26.668a5.176,5.176,0,0,1,2.406,1.82,4.776,4.776,0,0,1,.941,2.908,5.021,5.021,0,1,1-10.041,0,4.681,4.681,0,0,1,.942-2.887,5.219,5.219,0,0,1,2.4-1.8V12.695a5.168,5.168,0,0,1-2.4-1.82,4.771,4.771,0,0,1-.942-2.908,4.843,4.843,0,0,1,1.465-3.556,4.841,4.841,0,0,1,3.556-1.464,4.771,4.771,0,0,1,2.907.941,5.169,5.169,0,0,1,1.82,2.406h5.606L343.825,3.24,346.168.855l7.112,7.112ZM359.974,2.947a4.841,4.841,0,0,1,3.556,1.464,4.842,4.842,0,0,1,1.464,3.556,4.841,4.841,0,0,1-1.464,3.556,5.048,5.048,0,0,1-7.112,0,4.841,4.841,0,0,1-1.464-3.556,4.842,4.842,0,0,1,1.464-3.556,4.841,4.841,0,0,1,3.556-1.464" transform="translate(-331.525 -0.855)" fill="#d4a73b"/>
</svg>
