<svg xmlns="http://www.w3.org/2000/svg" width="34.431" height="34.431" viewBox="0 0 34.431 34.431">
  <path id="Path_160" data-name="Path 160" d="M325.489,2829.106l2.678-2.726-4.16-4.16,4.16-4.161-2.678-2.725-6.886,6.886Zm9.182,0,6.886-6.886-6.886-6.886-2.678,2.725,4.161,4.161-4.161,4.16Zm-17.981,10.329a3.834,3.834,0,0,1-3.825-3.825v-26.78A3.836,3.836,0,0,1,316.69,2805h26.78a3.838,3.838,0,0,1,3.826,3.826v26.78a3.836,3.836,0,0,1-3.826,3.825Z" transform="translate(-312.865 -2805.004)" fill="#4170ff"/>
</svg>
