<svg xmlns="http://www.w3.org/2000/svg" width="33.469" height="35.56" viewBox="0 0 33.469 35.56">
  <path id="Path_161" data-name="Path 161" d="M227.733,2840v-6.861l12.3-12.216a3.388,3.388,0,0,1,1.109-.753,3.369,3.369,0,0,1,2.552,0,3.4,3.4,0,0,1,1.109.753l2.05,2.092a3.784,3.784,0,0,1,.711,1.108,3.211,3.211,0,0,1,.251,1.235,3,3,0,0,1-.272,1.234,4.139,4.139,0,0,1-.732,1.108L234.6,2840Zm1.255-21.336-2.342-2.385,3.054-3.054h-5.606a4.89,4.89,0,0,1-3.054,3.054v13.973a5.175,5.175,0,0,1,2.405,1.82,4.77,4.77,0,0,1,.941,2.908,5.02,5.02,0,1,1-10.04,0,4.686,4.686,0,0,1,.941-2.887,5.234,5.234,0,0,1,2.406-1.8v-14.015a5.169,5.169,0,0,1-2.406-1.82,4.774,4.774,0,0,1-.941-2.907,5,5,0,0,1,5.02-5.021,4.771,4.771,0,0,1,2.908.942,5.177,5.177,0,0,1,1.82,2.405H229.7l-3.054-3.054,2.342-2.384,7.113,7.112Zm13.806-12.133a5,5,0,1,1-3.556,1.465A4.838,4.838,0,0,1,242.794,2806.531Z" transform="translate(-214.346 -2804.44)" fill="#4170ff"/>
</svg>
