<svg xmlns="http://www.w3.org/2000/svg" width="27.156" height="30.551" viewBox="0 0 27.156 30.551">
  <path id="Path_182" data-name="Path 182" d="M316.5,2244.983V2236.5a3.4,3.4,0,0,1,3.395-3.394h20.367a3.4,3.4,0,0,1,3.394,3.394v8.487Zm8.487-13.578a8.487,8.487,0,1,1,0-16.973h10.183a8.487,8.487,0,1,1,0,16.973Zm0-6.789a1.667,1.667,0,1,0-1.21-.488A1.644,1.644,0,0,0,324.989,2224.616Zm10.183,0a1.667,1.667,0,1,0-1.209-.488A1.642,1.642,0,0,0,335.172,2224.616Z" transform="translate(-316.502 -2214.432)" fill="#4170ff"/>
</svg>
