<svg xmlns="http://www.w3.org/2000/svg" width="33.032" height="32.867" viewBox="0 0 33.032 32.867">
  <path id="Path_184" data-name="Path 184" d="M127.561,2246.141l-.657-5.259a6.213,6.213,0,0,1-1.007-.493q-.473-.286-.924-.616l-4.889,2.054-4.52-7.806,4.232-3.2a3.988,3.988,0,0,1-.041-.555v-1.109a3.994,3.994,0,0,1,.041-.555l-4.232-3.2,4.52-7.806,4.889,2.055q.452-.328.924-.617a6.314,6.314,0,0,1,1.007-.493l.657-5.258H136.6l.657,5.258a6.3,6.3,0,0,1,1.006.493q.473.288.925.617l4.889-2.055,4.519,7.806-3.04,2.3a12.4,12.4,0,0,0-2.547-.945,11.152,11.152,0,0,0-2.712-.328,8.575,8.575,0,0,0-1.582.143q-.759.144-1.54.35a5.921,5.921,0,0,0-2.116-2.157,5.737,5.737,0,0,0-8.648,4.95,5.64,5.64,0,0,0,.76,2.876,5.742,5.742,0,0,0,2.074,2.1,9.967,9.967,0,0,0-.349,1.705,15.187,15.187,0,0,0-.1,1.746,11.581,11.581,0,0,0,.924,4.375,10.8,10.8,0,0,0,2.527,3.636Zm11.421-.164a7.887,7.887,0,0,1-4.5-2.3,8.028,8.028,0,0,1-2.28-4.519h2.424a5.715,5.715,0,0,0,4.354,4.355Zm2.466.041v-2.506a5.82,5.82,0,0,0,3.245-1.972,5.767,5.767,0,0,0,0-7.231,5.808,5.808,0,0,0-3.245-1.972v-2.506a8.076,8.076,0,0,1,4.971,2.732,8.146,8.146,0,0,1,0,10.723A8.076,8.076,0,0,1,141.448,2246.018Zm-9.244-9.326a8.029,8.029,0,0,1,2.28-4.52,7.884,7.884,0,0,1,4.5-2.3v2.465a5.711,5.711,0,0,0-4.354,4.355Zm6.368,4.519v-6.574l5.094,3.287Z" transform="translate(-115.564 -2213.274)" fill="#4170ff"/>
</svg>
