<svg xmlns="http://www.w3.org/2000/svg" width="40.179" height="29.221" viewBox="0 0 40.179 29.221">
  <path id="Path_174" data-name="Path 174" d="M1121.911,2244.318h-8.218a9.792,9.792,0,0,1-7.1-2.877,9.452,9.452,0,0,1-2.945-7.031,10.123,10.123,0,0,1,2.146-6.346,9.5,9.5,0,0,1,5.616-3.562,12.777,12.777,0,0,1,25.112,3.379,8.243,8.243,0,0,1-.913,16.437h-10.045V2231.26l2.922,2.83,2.557-2.556-7.3-7.306-7.306,7.306,2.557,2.556,2.922-2.83Z" transform="translate(-1103.648 -2215.097)" fill="#4170ff"/>
</svg>
