<svg xmlns="http://www.w3.org/2000/svg" width="39.403" height="37.613" viewBox="0 0 39.403 37.613">
  <path id="Path_175" data-name="Path 175" d="M1007.946,2239.872l-2.91-2.1,8.955-14.328,5.373,6.268,7.165-11.642,4.88,7.3a11.429,11.429,0,0,0-1.947.246,11.593,11.593,0,0,0-1.814.56l-.985-1.478-6.806,11.06-5.418-6.313Zm33.941,8.642-5.6-5.6a6.638,6.638,0,0,1-1.992.94,8.2,8.2,0,0,1-2.262.313,8.074,8.074,0,1,1,8.06-8.06,8.2,8.2,0,0,1-.313,2.262,7.235,7.235,0,0,1-.941,2.037l5.6,5.552Zm-9.851-7.926a4.432,4.432,0,1,0-3.179-1.3A4.324,4.324,0,0,0,1032.036,2240.588Zm3.985-14.328a11.722,11.722,0,0,0-1.768-.583,9.962,9.962,0,0,0-1.9-.268l9.179-14.508,2.91,2.105Z" transform="translate(-1005.036 -2210.901)" fill="#4170ff"/>
</svg>
