<svg xmlns="http://www.w3.org/2000/svg" width="38.991" height="35.092" viewBox="0 0 38.991 35.092">
  <path id="Path_178" data-name="Path 178" d="M712.6,2247.253a5.849,5.849,0,1,1,0-11.7h27.293a5.849,5.849,0,1,1,0,11.7Zm0-3.9h27.293a1.95,1.95,0,1,0,0-3.9H712.6a1.95,1.95,0,1,0,0,3.9Zm9.747-11.7a1.915,1.915,0,0,1-1.949-1.95v-15.6a1.915,1.915,0,0,1,1.949-1.95h15.6a1.915,1.915,0,0,1,1.949,1.95v15.6a1.915,1.915,0,0,1-1.949,1.95Zm-15.6-4v-3.753h9.6v3.753Zm19.495-5.751h7.8v-3.85h-7.8Zm-15.6,0h5.7v-3.85h-5.7Z" transform="translate(-706.75 -2212.161)" fill="#4170ff"/>
</svg>
