<svg xmlns="http://www.w3.org/2000/svg" width="37.728" height="26.449" viewBox="0 0 37.728 26.449">
  <path id="Path_185" data-name="Path 185" d="M18,2242.932a4.479,4.479,0,0,1-3.731-1.677,5.185,5.185,0,0,1-.992-4.085L15.266,2223a7.5,7.5,0,0,1,2.527-4.676,7.249,7.249,0,0,1,4.936-1.842h18.7a7.253,7.253,0,0,1,4.936,1.842A7.5,7.5,0,0,1,48.894,2223l1.984,14.169a5.177,5.177,0,0,1-.992,4.085,4.476,4.476,0,0,1-3.731,1.677,4.744,4.744,0,0,1-1.842-.354,4.826,4.826,0,0,1-1.559-1.063l-4.25-4.251H25.657l-4.251,4.251a4.815,4.815,0,0,1-1.559,1.063A4.737,4.737,0,0,1,18,2242.932ZM41.526,2231.6a1.857,1.857,0,1,0-1.346-.544A1.827,1.827,0,0,0,41.526,2231.6Zm-3.778-5.668a1.855,1.855,0,1,0-1.346-.543A1.828,1.828,0,0,0,37.748,2225.929Zm-13.7,5.668h2.834v-3.307h3.306v-2.833H26.885v-3.307H24.051v3.307H20.745v2.833h3.306Z" transform="translate(-13.216 -2216.483)" fill="#4170ff"/>
</svg>
