<svg xmlns="http://www.w3.org/2000/svg" width="34.961" height="34.961" viewBox="0 0 34.961 34.961">
  <path id="Path_179" data-name="Path 179" d="M625.789,2232.621a4.312,4.312,0,1,0-3.108-1.263A4.22,4.22,0,0,0,625.789,2232.621Zm9.371,7.769-5.1-5.1a7.154,7.154,0,0,1-2.064.923,8.553,8.553,0,0,1-2.209.291,8.312,8.312,0,1,1,7.939-6.045,7.706,7.706,0,0,1-.947,2.064l5.147,5.147Zm-21.511,6.8a3.9,3.9,0,0,1-3.884-3.885v-7.769h3.884v7.769h7.77v3.885Zm19.423,0V2243.3h7.769v-7.769h3.885v7.769a3.9,3.9,0,0,1-3.885,3.885Zm-23.307-23.307v-7.77a3.9,3.9,0,0,1,3.884-3.884h7.77v3.884h-7.77v7.77Zm31.076,0v-7.77h-7.769v-3.884h7.769a3.9,3.9,0,0,1,3.885,3.884v7.77Z" transform="translate(-609.765 -2212.227)" fill="#4170ff"/>
</svg>
