<svg xmlns="http://www.w3.org/2000/svg" width="37.457" height="32.493" viewBox="0 0 37.457 32.493">
  <path id="Path_187" data-name="Path 187" d="M635.414,2109.254l-.542-2.708q-.542-.225-1.015-.474a7.738,7.738,0,0,1-.97-.609l-2.618.812-1.8-3.069,2.076-1.805a7.692,7.692,0,0,1,0-2.346l-2.076-1.806,1.8-3.068,2.618.812a7.763,7.763,0,0,1,.97-.609q.474-.249,1.015-.474l.542-2.708h3.61l.542,2.708q.542.225,1.015.474a7.768,7.768,0,0,1,.97.609l2.618-.812,1.8,3.068-2.076,1.806a7.692,7.692,0,0,1,0,2.346l2.076,1.805-1.8,3.069-2.618-.812a7.743,7.743,0,0,1-.97.609q-.474.249-1.015.474l-.542,2.708Zm1.8-5.416a3.619,3.619,0,1,0-2.55-1.06A3.476,3.476,0,0,0,637.219,2103.838Zm-25.092,1.805a3.619,3.619,0,0,1-3.61-3.61v-21.662a3.619,3.619,0,0,1,3.61-3.61H641.01a3.619,3.619,0,0,1,3.61,3.61v9.612a12.373,12.373,0,0,0-1.715-1.038,13.227,13.227,0,0,0-1.9-.767v-4.2H612.127v7.221h16.247a12.638,12.638,0,0,0-2.776,4.039,12.32,12.32,0,0,0-1.015,4.987,12.536,12.536,0,0,0,.316,2.82,12.263,12.263,0,0,0,.9,2.595Z" transform="translate(-608.517 -2076.761)" fill="#4170ff"/>
</svg>
