<svg xmlns="http://www.w3.org/2000/svg" width="42.706" height="25.236" viewBox="0 0 42.706 25.236">
  <path id="Path_190" data-name="Path 190" d="M308.727,2105.625v-7.765a3.713,3.713,0,0,1,1.141-2.766,3.779,3.779,0,0,1,2.741-1.116h6.358a3.746,3.746,0,0,1,1.844.485,3.91,3.91,0,0,1,1.407,1.31,10.02,10.02,0,0,0,3.47,2.961,9.426,9.426,0,0,0,4.392,1.067,9.609,9.609,0,0,0,7.862-4.028,4.959,4.959,0,0,1,1.48-1.31,3.527,3.527,0,0,1,1.772-.485h6.357a3.812,3.812,0,0,1,3.882,3.882v7.765H337.845v-4.416a13.211,13.211,0,0,1-7.765,2.475,12.97,12.97,0,0,1-4.076-.655,13.666,13.666,0,0,1-3.689-1.869v4.465Zm5.824-13.588a5.76,5.76,0,1,1,4.149-1.7A5.617,5.617,0,0,1,314.551,2092.037Zm31.059,0a5.76,5.76,0,1,1,4.149-1.7A5.617,5.617,0,0,1,345.61,2092.037Z" transform="translate(-308.727 -2080.389)" fill="#4170ff"/>
</svg>
