<svg xmlns="http://www.w3.org/2000/svg" width="40.076" height="38.312" viewBox="0 0 40.076 38.312">
  <path id="Path_189" data-name="Path 189" d="M436.487,2112.163l-.6-3.025q-.606-.252-1.135-.529a8.876,8.876,0,0,1-1.084-.68l-2.923.907-2.017-3.428,2.319-2.016a8.558,8.558,0,0,1,0-2.622l-2.319-2.016,2.017-3.428,2.923.907a8.936,8.936,0,0,1,1.084-.68q.53-.278,1.135-.529l.6-3.025h4.033l.605,3.025c.4.168.782.344,1.134.529a8.859,8.859,0,0,1,1.084.68l2.924-.907,2.016,3.428-2.318,2.016a8.644,8.644,0,0,1,0,2.622l2.318,2.016-2.016,3.428-2.924-.907a8.8,8.8,0,0,1-1.084.68c-.352.185-.731.361-1.134.529l-.605,3.025Zm-24.247-2.016a4.046,4.046,0,0,1-4.033-4.033v-28.23a4.046,4.046,0,0,1,4.033-4.033h28.23a4.046,4.046,0,0,1,4.033,4.033v11.393a12.04,12.04,0,0,0-1.966-.731,16.725,16.725,0,0,0-2.067-.429v-10.233H412.24v18.148h8.469a5.734,5.734,0,0,0,1.512,2.369,5.948,5.948,0,0,0,2.37,1.412,14.175,14.175,0,0,0,.126,5.393,13.3,13.3,0,0,0,2.193,4.941Zm26.264-4.033a4.046,4.046,0,1,0-2.848-1.185A3.883,3.883,0,0,0,438.5,2106.114Z" transform="translate(-408.207 -2073.851)" fill="#4170ff"/>
</svg>
