<svg xmlns="http://www.w3.org/2000/svg" width="38.481" height="38.574" viewBox="0 0 38.481 38.574">
  <path id="Path_188" data-name="Path 188" d="M516.076,2092.089l-.551-2.755c-.367-.154-.711-.314-1.033-.483a7.972,7.972,0,0,1-.987-.62l-2.664.827-1.836-3.123,2.112-1.836a7.794,7.794,0,0,1,0-2.388l-2.112-1.837,1.836-3.123,2.664.827a8,8,0,0,1,.987-.62q.483-.252,1.033-.482l.551-2.756h3.674l.551,2.756q.551.229,1.033.482a7.934,7.934,0,0,1,.988.62l2.663-.827,1.837,3.123-2.113,1.837a7.792,7.792,0,0,1,0,2.388l2.113,1.836-1.837,3.123-2.663-.827a7.909,7.909,0,0,1-.988.62c-.321.169-.666.329-1.033.483l-.551,2.755Zm1.837-5.511a3.684,3.684,0,1,0-2.594-1.079A3.537,3.537,0,0,0,517.913,2086.578Zm14.6,25.716-.827-3.858a8.326,8.326,0,0,1-1.446-.665,11.8,11.8,0,0,1-1.309-.9l-3.673,1.194-2.572-4.408,2.939-2.572a14.9,14.9,0,0,1,0-3.306l-2.939-2.572,2.572-4.408,3.673,1.194a11.768,11.768,0,0,1,1.309-.9,8.308,8.308,0,0,1,1.446-.665l.827-3.858h5.143l.827,3.858a8.31,8.31,0,0,1,1.446.665,11.774,11.774,0,0,1,1.309.9l3.674-1.194,2.571,4.408-2.939,2.572a14.9,14.9,0,0,1,0,3.306l2.939,2.572-2.571,4.408-3.674-1.194a11.808,11.808,0,0,1-1.309.9,8.328,8.328,0,0,1-1.446.665l-.827,3.858Zm2.572-7.347a5.488,5.488,0,1,0-3.9-1.608A5.315,5.315,0,0,0,535.088,2104.947Z" transform="translate(-509.005 -2073.72)" fill="#4170ff"/>
</svg>
