<svg xmlns="http://www.w3.org/2000/svg" width="30.541" height="30.54" viewBox="0 0 30.541 30.54">
  <path id="Path_186" data-name="Path 186" d="M714.369,2108.277a3.4,3.4,0,0,1-3.394-3.393V2081.13a3.4,3.4,0,0,1,3.394-3.393h18.663l8.484,8.483v18.664a3.4,3.4,0,0,1-3.394,3.393Zm5.09-6.786a1.667,1.667,0,1,0-1.209-.488A1.646,1.646,0,0,0,719.459,2101.491Zm0-6.787a1.667,1.667,0,1,0-1.209-.488A1.646,1.646,0,0,0,719.459,2094.7Zm0-6.787a1.667,1.667,0,1,0-1.209-.488A1.642,1.642,0,0,0,719.459,2087.917Zm11.876,0h6.787l-6.787-6.787Z" transform="translate(-710.975 -2077.737)" fill="#4170ff"/>
</svg>
