<svg xmlns="http://www.w3.org/2000/svg" width="40.183" height="33.028" viewBox="0 0 40.183 33.028">
  <path id="Path_191" data-name="Path 191" d="M210.989,2109.521v-5.138a5.539,5.539,0,0,1,.779-2.844,5.089,5.089,0,0,1,2.156-2.018,28.706,28.706,0,0,1,5.276-2.018,25.735,25.735,0,0,1,12.935,0,28.705,28.705,0,0,1,5.276,2.018,5.081,5.081,0,0,1,2.155,2.018,5.531,5.531,0,0,1,.78,2.844v5.138Zm14.678-14.679a7.361,7.361,0,0,1-7.339-7.339h-.459a.918.918,0,1,1,0-1.835h.459a6.983,6.983,0,0,1,1.009-3.716,7.523,7.523,0,0,1,2.661-2.615v1.744a.918.918,0,1,0,1.835,0V2078.6a5.164,5.164,0,0,1,.871-.207,6.753,6.753,0,0,1,1.927,0,5.164,5.164,0,0,1,.871.207v2.477a.918.918,0,1,0,1.835,0v-1.744a7.523,7.523,0,0,1,2.661,2.615,6.992,6.992,0,0,1,1.009,3.716h.459a.918.918,0,1,1,0,1.835h-.459a7.361,7.361,0,0,1-7.34,7.339Zm0-3.67a3.681,3.681,0,0,0,3.67-3.669H222a3.681,3.681,0,0,0,3.669,3.669Zm13.762,7.34-.275-1.376a5.381,5.381,0,0,1-.528-.207,1.645,1.645,0,0,1-.482-.344l-1.284.459-.917-1.652,1.009-.917v-1.1l-1.009-.917.917-1.652,1.284.459a1.78,1.78,0,0,1,.459-.321,4.117,4.117,0,0,1,.551-.229l.275-1.377h1.835l.275,1.377a4.106,4.106,0,0,1,.55.229,1.746,1.746,0,0,1,.459.321l1.285-.459.917,1.652-1.009.917v1.1l1.009.917-.917,1.652-1.285-.459a1.632,1.632,0,0,1-.482.344,5.463,5.463,0,0,1-.527.207l-.275,1.376Zm.917-3.211a1.412,1.412,0,1,0-.963-.413A1.324,1.324,0,0,0,240.346,2095.3Zm3.3-5.964-.367-1.926a3.854,3.854,0,0,1-.757-.344,3.184,3.184,0,0,1-.619-.482l-1.927.642-1.284-2.2,1.56-1.377a1.038,1.038,0,0,1-.092-.367v-.734a1.045,1.045,0,0,1,.092-.367l-1.56-1.376,1.284-2.2,1.927.642a3.2,3.2,0,0,1,.619-.482,3.826,3.826,0,0,1,.757-.344l.367-1.927h2.569l.367,1.927a3.825,3.825,0,0,1,.757.344,3.225,3.225,0,0,1,.619.482l1.927-.642,1.284,2.2-1.56,1.376a1.045,1.045,0,0,1,.092.367v.734a1.038,1.038,0,0,1-.092.367l1.56,1.377-1.284,2.2-1.927-.642a3.215,3.215,0,0,1-.619.482,3.853,3.853,0,0,1-.757.344l-.367,1.926Zm1.284-4.128a2.271,2.271,0,1,0-1.628-.665A2.217,2.217,0,0,0,244.933,2085.209Z" transform="translate(-210.989 -2076.493)" fill="#4170ff"/>
</svg>
