<svg xmlns="http://www.w3.org/2000/svg" width="33.5" height="33.5" viewBox="0 0 33.5 33.5">
  <path id="Path_167" data-name="Path 167" d="M115.33,2653.351v-4.937a5.263,5.263,0,0,1,2.821-4.673,26.172,26.172,0,0,1,5.554-2.049,24.247,24.247,0,0,1,5.731-.684q.88,0,1.763.067t1.763.2a9.383,9.383,0,0,0,.926,4.827,9.478,9.478,0,0,0,3.217,3.724v3.527Zm28.211,5.289L140.9,2656v-8.2a6.08,6.08,0,0,1-3.174-2.182,6.178,6.178,0,1,1,11.108-3.725,5.83,5.83,0,0,1-1.124,3.526,6.226,6.226,0,0,1-2.843,2.2l2.2,2.2-2.645,2.645,2.645,2.645Zm-14.1-19.395a7.073,7.073,0,1,1,4.98-2.071A6.791,6.791,0,0,1,129.436,2639.245Zm13.223,3.527a1.732,1.732,0,1,0-1.256-.507A1.7,1.7,0,0,0,142.659,2642.772Z" transform="translate(-115.33 -2625.14)" fill="#4170ff"/>
</svg>
