<svg xmlns="http://www.w3.org/2000/svg" width="35.761" height="28.61" viewBox="0 0 35.761 28.61">
  <path id="Path_168" data-name="Path 168" d="M32.08,2650.83a1.756,1.756,0,1,0-1.274-.514A1.727,1.727,0,0,0,32.08,2650.83Zm0-7.152a1.756,1.756,0,1,0-1.274-.514A1.727,1.727,0,0,0,32.08,2643.678Zm0-7.152a1.756,1.756,0,1,0-1.274-.514A1.731,1.731,0,0,0,32.08,2636.526Zm14.3,19.669H17.776a3.587,3.587,0,0,1-3.576-3.577v-7.152a3.576,3.576,0,0,0,0-7.152v-7.152a3.587,3.587,0,0,1,3.576-3.577H46.385a3.588,3.588,0,0,1,3.576,3.577v7.152a3.576,3.576,0,0,0,0,7.152v7.152a3.588,3.588,0,0,1-3.576,3.577Z" transform="translate(-14.2 -2627.585)" fill="#4170ff"/>
</svg>
