<svg xmlns="http://www.w3.org/2000/svg" width="38.159" height="30.604" viewBox="0 0 38.159 30.604">
  <path id="Path_164" data-name="Path 164" d="M436.853,2637.586a2.856,2.856,0,1,1,2.032-.836A2.772,2.772,0,0,1,436.853,2637.586Zm-17.215,0a2.856,2.856,0,1,1,2.032-.836A2.769,2.769,0,0,1,419.638,2637.586Zm8.607,5.26a2.854,2.854,0,1,1,2.033-.836A2.769,2.769,0,0,1,428.245,2642.846Zm0-10.52a2.854,2.854,0,1,1,2.033-.836A2.765,2.765,0,0,1,428.245,2632.326Zm0,24.866a13.311,13.311,0,0,1-1.936-.144,17.212,17.212,0,0,1-1.889-.382v-6.838a4.126,4.126,0,0,1,1.124-2.893,3.6,3.6,0,0,1,5.4,0,4.125,4.125,0,0,1,1.124,2.893v6.838a17.262,17.262,0,0,1-1.889.382A13.324,13.324,0,0,1,428.245,2657.192Zm-6.694-1.531a17.548,17.548,0,0,1-1.841-.86,16.887,16.887,0,0,1-1.7-1.052,6.878,6.878,0,0,1-2.127-2.487,7,7,0,0,1-.789-3.251,9.777,9.777,0,0,0-.263-2.32,6.041,6.041,0,0,0-.933-2.032,20.134,20.134,0,0,0-1.793-1.889q-1.315-1.266-2.415-2.367a1.894,1.894,0,0,1,2.678-2.677l7.316,6.933a5.261,5.261,0,0,1,1.411,2.032,6.647,6.647,0,0,1,.454,2.415Zm13.389,0v-7.555a6.506,6.506,0,0,1,.478-2.438,5.285,5.285,0,0,1,1.387-2.009l7.316-6.933a1.947,1.947,0,0,1,1.363-.526,1.783,1.783,0,0,1,1.315.526,1.966,1.966,0,0,1,0,2.677q-1.1,1.1-2.415,2.344a15.1,15.1,0,0,0-1.793,1.912,6.023,6.023,0,0,0-.933,2.032,9.777,9.777,0,0,0-.263,2.32,7.139,7.139,0,0,1-.789,3.275,6.658,6.658,0,0,1-2.175,2.511,18.468,18.468,0,0,1-1.65,1A17.643,17.643,0,0,1,434.94,2655.661Z" transform="translate(-409.166 -2626.588)" fill="#4170ff"/>
</svg>
