<svg xmlns="http://www.w3.org/2000/svg" width="31.706" height="35.67" viewBox="0 0 31.706 35.67">
  <path id="Path_166" data-name="Path 166" d="M229.1,2659.725l-2.22-2.259,2.893-2.893h-5.31a4.906,4.906,0,0,1-1.724,2.278,4.518,4.518,0,0,1-2.755.892,4.736,4.736,0,0,1-4.756-4.756,4.518,4.518,0,0,1,.892-2.754,4.891,4.891,0,0,1,2.279-1.724v-13.238a4.891,4.891,0,0,1-2.279-1.724,4.518,4.518,0,0,1-.892-2.754,4.736,4.736,0,0,1,4.756-4.756,4.518,4.518,0,0,1,2.755.892,4.906,4.906,0,0,1,1.724,2.278h5.31l-2.893-2.893,2.22-2.259,6.737,6.738-6.737,6.737-2.22-2.259,2.893-2.893h-5.31a4.626,4.626,0,0,1-2.894,2.893v13.238a4.626,4.626,0,0,1,2.894,2.893h5.31l-2.893-2.893,2.22-2.259,6.737,6.737Zm13.078-1.982a4.773,4.773,0,0,1-3.864-7.55,4.65,4.65,0,0,1,2.279-1.684v-13.238a4.65,4.65,0,0,1-2.279-1.684,4.756,4.756,0,1,1,7.729,0,4.65,4.65,0,0,1-2.279,1.684v13.238a4.9,4.9,0,0,1,2.279,1.724,4.524,4.524,0,0,1,.891,2.754,4.736,4.736,0,0,1-4.756,4.756Z" transform="translate(-215.227 -2624.055)" fill="#4170ff"/>
</svg>
