<svg xmlns="http://www.w3.org/2000/svg" width="36.532" height="36.742" viewBox="0 0 36.532 36.742">
  <path id="Path_27" data-name="Path 27" d="M26.885,6381.915a16.862,16.862,0,0,1-7.056-6.054,16.054,16.054,0,0,1-2.714-9.144q0-1.084.1-2.129a14.344,14.344,0,0,1,.355-2.046l-1.92,1.128-1.67-2.881,7.974-4.593,4.593,7.933-2.923,1.67-2.254-3.925a12.155,12.155,0,0,0-.689,2.338,13.438,13.438,0,0,0-.23,2.5,13,13,0,0,0,2.213,7.37,13.242,13.242,0,0,0,5.887,4.906Zm12.776-20.25v-3.34h4.551a13.4,13.4,0,0,0-4.635-3.7,13.428,13.428,0,0,0-10.1-.6,13.566,13.566,0,0,0-3.757,2l-1.67-2.923a17.919,17.919,0,0,1,4.551-2.3,16.134,16.134,0,0,1,5.219-.835,16.445,16.445,0,0,1,6.3,1.232,16.616,16.616,0,0,1,5.386,3.569v-2.3h3.34v9.185Zm-1.086,25.052-7.974-4.593,4.593-7.933,2.88,1.67-2.379,4.092a13.372,13.372,0,0,0,11.481-13.277c0-.306-.007-.592-.021-.856a5.491,5.491,0,0,0-.1-.814h3.382q.042.417.063.814c.014.264.02.55.02.856a16.659,16.659,0,0,1-12.108,16.074l1.837,1.086Z" transform="translate(-13.984 -6349.975)" fill="#4170ff"/>
</svg>
