<svg xmlns="http://www.w3.org/2000/svg" width="29.41" height="43.044" viewBox="0 0 29.41 43.044">
  <path id="Path_25" data-name="Path 25" d="M245.955,6357.864a10.371,10.371,0,0,1-.056,1.072c-.021.205-.049.41-.083.613h-4.072a.572.572,0,0,0-.572.572,1.369,1.369,0,1,1-2.739,0,.573.573,0,0,0-.573-.572h-3.314v-2.811a2.513,2.513,0,0,0,0-4.894v-5.02a12.419,12.419,0,0,1,7.919,3.237A10.616,10.616,0,0,1,245.955,6357.864Zm-24.066,22.329v2.14a2.147,2.147,0,0,0,2.139,2.139h10.083a2.148,2.148,0,0,0,2.14-2.139v-2.14Zm3.4,8.151a1.53,1.53,0,0,0,1.526,1.524h4.507a1.53,1.53,0,0,0,1.521-1.524v-1.526h-7.554Zm12.043-22.03a2.512,2.512,0,0,1-4.223-1.205H230.3v3.317a.573.573,0,0,1-.572.573h0a1.369,1.369,0,1,0-.051,2.738h.051a.573.573,0,0,1,.572.573h0v5.537h6.612a20.514,20.514,0,0,1,.39-4.511,12.478,12.478,0,0,1,2.32-4.818,10.825,10.825,0,0,0,1.16-1.964,10.494,10.494,0,0,0,.533-1.446h-3.31A2.5,2.5,0,0,1,237.335,6366.314Zm-9.38,6.5a2.513,2.513,0,0,1,0-4.894v-2.811h-3.317a.573.573,0,0,1-.573-.572h0a1.369,1.369,0,1,0-2.739,0,.572.572,0,0,1-.572.572h-3.816c.041.147.086.293.135.437a10.667,10.667,0,0,0,1.558,2.973,12.491,12.491,0,0,1,2.32,4.818,20.517,20.517,0,0,1,.39,4.512h6.614Zm-7.034-11.256a2.515,2.515,0,0,1,4.224,1.205h2.81v-3.317a.573.573,0,0,1,.573-.572h0a1.37,1.37,0,0,0,0-2.739.573.573,0,0,1-.573-.573h0v-5.524a12.413,12.413,0,0,0-7.919,3.238,10.613,10.613,0,0,0-3.491,7.8,10.346,10.346,0,0,0,.138,1.685h3.566A2.509,2.509,0,0,1,220.921,6361.558Z" transform="translate(-216.545 -6346.824)" fill="#4170ff" fill-rule="evenodd"/>
</svg>
