<svg xmlns="http://www.w3.org/2000/svg" width="35.024" height="34.94" viewBox="0 0 35.024 34.94">
  <path id="Path_26" data-name="Path 26" d="M135.619,6385.816a2.484,2.484,0,0,1-2.5-2.5v-11.647a2.483,2.483,0,0,1,2.5-2.495h11.647a2.485,2.485,0,0,1,2.5,2.495v11.647a2.486,2.486,0,0,1-2.5,2.5Zm0-2.5h11.647v-1.331a7.8,7.8,0,0,0-2.537-2.059,7.4,7.4,0,0,0-6.572,0,7.808,7.808,0,0,0-2.538,2.059Zm5.824-5.823a2.486,2.486,0,1,0-1.768-.728A2.407,2.407,0,0,0,141.443,6377.5Zm-9.9-15.807a5.865,5.865,0,0,0-4.7,9.318,5.792,5.792,0,0,0,2.953,2.08v-3.744a2.507,2.507,0,0,1-.541-.853,2.629,2.629,0,0,1-.208-.977,2.486,2.486,0,0,1,2.5-2.5,2.291,2.291,0,0,1,1.04.229,2.589,2.589,0,0,1,.79.6h3.744a5.738,5.738,0,0,0-2.059-3A5.618,5.618,0,0,0,131.543,6361.69Zm-4.659,22.462-.665-5.324a6.321,6.321,0,0,1-1.019-.5q-.479-.292-.936-.624l-4.95,2.08-4.576-7.9,4.285-3.244a3.939,3.939,0,0,1-.042-.562v-1.123a3.925,3.925,0,0,1,.042-.561l-4.285-3.245,4.576-7.9,4.95,2.08a11.3,11.3,0,0,1,.956-.624,8.354,8.354,0,0,1,1-.5l.665-5.324h9.151l.666,5.324a6.321,6.321,0,0,1,1.019.5q.479.291.936.624l4.95-2.08,4.575,7.9-3.536,2.7h-4.2c-.027-.139-.055-.284-.083-.437a2.24,2.24,0,0,0-.125-.436l3.578-2.7-1.623-2.829-4.118,1.747a9.152,9.152,0,0,0-4.409-2.579l-.54-4.409h-3.287l-.582,4.409a9.343,9.343,0,0,0-2.392.978,9.983,9.983,0,0,0-2.017,1.56l-4.118-1.706-1.622,2.829,3.577,2.662a6.706,6.706,0,0,0-.291,1.248,9.986,9.986,0,0,0-.083,1.331,9.653,9.653,0,0,0,.083,1.289,6.7,6.7,0,0,0,.291,1.248l-3.577,2.7,1.622,2.828,4.118-1.747a9.772,9.772,0,0,0,2.246,1.747,7.614,7.614,0,0,0,2.7.916v7.653Z" transform="translate(-114.738 -6350.876)" fill="#4170ff"/>
</svg>
