<svg xmlns="http://www.w3.org/2000/svg" width="34.69" height="34.982" viewBox="0 0 34.69 34.982">
  <path id="Path_24" data-name="Path 24" d="M312.9,6362.515v-9.994h3.331v3.914a14.558,14.558,0,0,1,5.185-4.123,14.885,14.885,0,0,1,6.476-1.457,14.929,14.929,0,0,1,14.992,14.992h-3.331a11.627,11.627,0,0,0-17.033-10.328,12.378,12.378,0,0,0-4.206,3.665H322.9v3.331Zm.083,5H316.4a11,11,0,0,0,3.186,6.559,11.346,11.346,0,0,0,6.434,3.269l2,3.5a14.788,14.788,0,0,1-10.078-3.81A14.35,14.35,0,0,1,312.988,6367.513Zm17.158,2.915-3.915-3.915v-9h3.332v7.663l2.332,2.332Zm7.7,15.409-.5-2.5q-.5-.208-.937-.437a7.262,7.262,0,0,1-.895-.562l-2.415.749-1.666-2.832,1.916-1.666a7.019,7.019,0,0,1,0-2.165l-1.916-1.666,1.666-2.832,2.415.75a7.2,7.2,0,0,1,.895-.562q.438-.23.937-.438l.5-2.5h3.332l.5,2.5a7.835,7.835,0,0,1,.957.479,7.66,7.66,0,0,1,.875.6l2.415-.833,1.666,2.915-1.915,1.666a6.569,6.569,0,0,1,0,2.082l1.915,1.666-1.666,2.832-2.415-.749a7.26,7.26,0,0,1-.9.562q-.438.229-.937.437l-.5,2.5Zm1.666-5a3.341,3.341,0,1,0-2.353-.978A3.208,3.208,0,0,0,339.516,6380.839Z" transform="translate(-312.905 -6350.855)" fill="#4170ff"/>
</svg>
