<svg xmlns="http://www.w3.org/2000/svg" width="34.69" height="34.982" viewBox="0 0 34.69 34.982">
  <path id="Path_4" data-name="Path 4" d="M114.9,7363.346v-10h3.331v3.914a14.547,14.547,0,0,1,5.185-4.123,14.885,14.885,0,0,1,6.476-1.457,14.929,14.929,0,0,1,14.992,14.992h-3.331a11.627,11.627,0,0,0-17.033-10.328,12.373,12.373,0,0,0-4.206,3.665H124.9v3.332Zm.083,5H118.4a11.006,11.006,0,0,0,3.186,6.559,11.346,11.346,0,0,0,6.434,3.269l2,3.5a14.788,14.788,0,0,1-10.078-3.81A14.348,14.348,0,0,1,114.988,7368.343Zm17.158,2.915-3.915-3.915v-8.995h3.332v7.663l2.332,2.332Zm7.7,15.409-.5-2.5q-.5-.209-.937-.437a7.261,7.261,0,0,1-.895-.562l-2.415.749-1.666-2.832,1.916-1.665a7.024,7.024,0,0,1,0-2.166l-1.916-1.666,1.666-2.832,2.415.75a7.261,7.261,0,0,1,.895-.562q.438-.229.937-.438l.5-2.5h3.332l.5,2.5a7.837,7.837,0,0,1,.957.479,7.66,7.66,0,0,1,.875.6l2.415-.833,1.666,2.915-1.915,1.666a6.575,6.575,0,0,1,0,2.083l1.915,1.665-1.666,2.832-2.415-.749a7.262,7.262,0,0,1-.9.562q-.438.228-.937.437l-.5,2.5Zm1.666-5a3.341,3.341,0,1,0-2.353-.978A3.21,3.21,0,0,0,141.516,7381.669Z" transform="translate(-114.905 -7351.685)" fill="#4170ff"/>
</svg>
