<svg xmlns="http://www.w3.org/2000/svg" width="35.23" height="35.229" viewBox="0 0 35.23 35.229">
  <g id="Group_1" data-name="Group 1" transform="translate(-213.635 -7351.561)">
    <path id="Path_3" data-name="Path 3" d="M222.443,7379.745a1.732,1.732,0,0,1-1.762-1.762v-3.523h22.9v-15.853H247.1a1.73,1.73,0,0,1,1.762,1.761v26.422l-7.046-7.045Zm-8.808-1.762v-24.66a1.732,1.732,0,0,1,1.762-1.762h22.9a1.73,1.73,0,0,1,1.761,1.762v15.853a1.728,1.728,0,0,1-1.761,1.761H220.681Zm22.9-10.569v-12.33H217.158v12.33Zm-19.376,0v0Z" fill="#4170ff"/>
  </g>
</svg>
