<svg xmlns="http://www.w3.org/2000/svg" width="38.19" height="38.191" viewBox="0 0 38.19 38.191">
  <path id="Path_1" data-name="Path 1" d="M413.393,7386.271a3.829,3.829,0,0,1-3.819-3.819v-22.914a3.827,3.827,0,0,1,3.819-3.819h7.638V7351.9a3.831,3.831,0,0,1,3.819-3.82h7.638a3.831,3.831,0,0,1,3.819,3.82v3.819h7.638a3.828,3.828,0,0,1,3.819,3.819v22.914a3.831,3.831,0,0,1-3.819,3.819Zm0-3.819h30.552v-22.914H413.393Zm11.457-26.733h7.638V7351.9H424.85Zm-11.457,26.733v0Zm13.366-9.548v5.729h3.819V7372.9h5.729v-3.819h-5.729v-5.728h-3.819v5.728h-5.728v3.819Z" transform="translate(-409.574 -7348.08)" fill="#4170ff"/>
</svg>
