<svg xmlns="http://www.w3.org/2000/svg" width="36.904" height="38" viewBox="0 0 36.904 38">
  <path id="Path_2" data-name="Path 2" d="M311.8,7380.651v-3.809h5.238l-.762-.667a12.03,12.03,0,0,1-3.476-5,16.78,16.78,0,0,1-1-5.666,15.234,15.234,0,0,1,11.429-14.857v4a11.518,11.518,0,0,0-7.619,10.857,10.96,10.96,0,0,0,3.333,7.9l.476.477v-4.667h3.81v11.428Zm34.142-17.142h-3.857a9.989,9.989,0,0,0-1.024-3.191,12.31,12.31,0,0,0-2.119-2.9l-.476-.476v4.666h-3.809v-11.428h11.428v3.809h-5.238l.762.667a15.459,15.459,0,0,1,3,4.238A15.068,15.068,0,0,1,345.94,7363.509Zm-10.5,24.667-.68-3.4q-.679-.283-1.275-.595a9.881,9.881,0,0,1-1.218-.765l-3.287,1.02-2.267-3.854,2.607-2.267a9.655,9.655,0,0,1,0-2.946l-2.607-2.267,2.267-3.854,3.287,1.02a9.823,9.823,0,0,1,1.218-.765q.6-.311,1.275-.595l.68-3.4h4.534l.68,3.4a11.425,11.425,0,0,1,1.275.624,8.815,8.815,0,0,1,1.218.85l3.287-1.134,2.267,3.967-2.607,2.267a8.934,8.934,0,0,1,0,2.833l2.607,2.267-2.267,3.854-3.287-1.02a9.881,9.881,0,0,1-1.218.765q-.6.311-1.275.595l-.68,3.4Zm2.267-6.8a4.548,4.548,0,1,0-3.2-1.332A4.365,4.365,0,0,0,337.708,7381.376Z" transform="translate(-311.798 -7350.176)" fill="#4170ff"/>
</svg>
