<svg xmlns="http://www.w3.org/2000/svg" width="35.912" height="35.913" viewBox="0 0 35.912 35.913">
  <path id="Path_5" data-name="Path 5" d="M14.505,7363.9a14.561,14.561,0,0,1,14.576-12.676,14.417,14.417,0,0,1,5.836,1.189,14.807,14.807,0,0,1,4.727,3.248v-4.437h4.225V7363.9H31.194v-4.226h6.337a12.07,12.07,0,0,0-3.67-3.063,9.856,9.856,0,0,0-4.78-1.162A10.568,10.568,0,0,0,18.73,7363.9Zm32.744,23.237-9.3-9.295a14.876,14.876,0,0,1-4.146,2.192,14.939,14.939,0,0,1-10.563-.423,14.78,14.78,0,0,1-4.726-3.248v4.437H14.294V7368.12H26.969v4.225H20.631a12.088,12.088,0,0,0,3.671,3.063,9.855,9.855,0,0,0,4.779,1.162,10.569,10.569,0,0,0,10.352-8.45h4.225a14.533,14.533,0,0,1-.951,3.564,15.532,15.532,0,0,1-1.8,3.2l9.3,9.295Z" transform="translate(-14.294 -7351.219)" fill="#4170ff"/>
</svg>
