<svg xmlns="http://www.w3.org/2000/svg" width="36.168" height="37" viewBox="0 0 36.168 37">
  <path id="Path_231" data-name="Path 231" d="M730.112,732.511l-7.862-7.862,2.59-2.59,5.272,5.272,10.453-10.452,2.59,2.59Zm10.175-18.361h-3.7V704.9h-3.7v5.55h-18.5V704.9h-3.7v25.9h11.1v3.7h-11.1a3.711,3.711,0,0,1-3.7-3.7V704.9a3.711,3.711,0,0,1,3.7-3.7h7.724a5.039,5.039,0,0,1,1.989-2.659,5.662,5.662,0,0,1,6.544,0,5.078,5.078,0,0,1,1.966,2.659h7.677a3.711,3.711,0,0,1,3.7,3.7Zm-16.65-9.25a1.817,1.817,0,1,0-1.318-.532A1.786,1.786,0,0,0,723.637,704.9Z" transform="translate(-706.987 -697.5)" fill="#4170ff"/>
</svg>
