<svg xmlns="http://www.w3.org/2000/svg" width="32.697" height="32.698" viewBox="0 0 32.697 32.698">
  <path id="Path_238" data-name="Path 238" d="M26.9,722.539,20.356,716l6.539-6.539,2.543,2.588L25.487,716l3.951,3.951Zm12.352,0L36.7,719.951,40.655,716,36.7,712.049l2.543-2.588L45.787,716Zm-18.891,9.81a3.645,3.645,0,0,1-3.633-3.633V721.45h3.633v7.266h7.266v3.633Zm18.165,0v-3.633h7.266V721.45H49.42v7.266a3.646,3.646,0,0,1-3.633,3.633Zm-21.8-21.8v-7.266a3.645,3.645,0,0,1,3.633-3.633h7.266v3.633H20.356v7.266Zm29.064,0v-7.266H38.521v-3.633h7.266a3.646,3.646,0,0,1,3.633,3.633v7.266Z" transform="translate(-16.723 -699.651)" fill="#4170ff"/>
</svg>
