<svg xmlns="http://www.w3.org/2000/svg" width="26.4" height="33" viewBox="0 0 26.4 33">
  <path id="Path_234" data-name="Path 234" d="M429.071,732.5a16.447,16.447,0,0,1-9.467-6.579,18.948,18.948,0,0,1-3.733-11.406V704.45l13.2-4.95,13.2,4.95v10.065a18.806,18.806,0,0,1-.681,5.053,20.175,20.175,0,0,1-1.959,4.682l-4.867-4.868a6.644,6.644,0,0,0,.907-3.382,6.592,6.592,0,1,0-6.6,6.6,6.589,6.589,0,0,0,1.712-.227,6.024,6.024,0,0,0,1.588-.68l5.321,5.279a18.993,18.993,0,0,1-3.9,3.466A14.662,14.662,0,0,1,429.071,732.5Zm0-13.2a3.308,3.308,0,1,1,2.331-.969A3.181,3.181,0,0,1,429.071,719.3Z" transform="translate(-415.871 -699.5)" fill="#4170ff"/>
</svg>
