<svg xmlns="http://www.w3.org/2000/svg" width="36.202" height="36.202" viewBox="0 0 36.202 36.202">
  <path id="Path_232" data-name="Path 232" d="M612.59,734.1a3.631,3.631,0,0,1-3.62-3.62V705.139a3.633,3.633,0,0,1,3.62-3.62h1.81V697.9h3.621v3.62H632.5V697.9h3.621v3.62h1.81a3.633,3.633,0,0,1,3.62,3.62v9.051h-3.62v-1.81H612.59v18.1h12.671v3.62Zm16.291,0v-5.566l10-9.956a2.478,2.478,0,0,1,.9-.588,2.89,2.89,0,0,1,1-.181,2.707,2.707,0,0,1,1.945.815L644.4,720.3a3.141,3.141,0,0,1,.565.9,2.61,2.61,0,0,1,.2,1,3.084,3.084,0,0,1-.181,1.018,2.432,2.432,0,0,1-.588.927l-9.956,9.956Zm11.9-10.137,1.674-1.764-1.674-1.675-1.72,1.72Z" transform="translate(-608.97 -697.899)" fill="#4170ff"/>
</svg>
