<svg xmlns="http://www.w3.org/2000/svg" width="37" height="37" viewBox="0 0 37 37">
  <path id="Path_230" data-name="Path 230" d="M810.561,719.99a4,4,0,1,1,2.818-1.172A3.845,3.845,0,0,1,810.561,719.99Zm2.993,9.976-2.539-2.54,7.889-7.889,2.54,2.539Zm5.441-17.593-7.89-7.89,2.54-2.539,7.889,7.889Zm6.076,22.127a4,4,0,1,1,2.818-1.172A3.843,3.843,0,0,1,825.071,734.5Zm0-29.02a4,4,0,1,1,2.818-1.172A3.839,3.839,0,0,1,825.071,705.48Zm6.076,6.983-2.539-2.63,7.98-7.889,2.539,2.539Zm5.441,17.5-7.889-7.89,2.539-2.539,7.889,7.889Zm2.993-9.976a4,4,0,1,1,2.818-1.172A3.843,3.843,0,0,1,839.581,719.99Z" transform="translate(-806.571 -697.5)" fill="#4170ff"/>
</svg>
