<svg xmlns="http://www.w3.org/2000/svg" width="36.904" height="38" viewBox="0 0 36.904 38">
  <path id="Path_229" data-name="Path 229" d="M906.619,727.476v-3.81h5.238l-.762-.666a12.046,12.046,0,0,1-3.476-5,16.81,16.81,0,0,1-1-5.667,15.233,15.233,0,0,1,11.429-14.857v4a11.517,11.517,0,0,0-7.619,10.857,10.959,10.959,0,0,0,3.333,7.9l.476.476v-4.667h3.81v11.429Zm34.142-17.143H936.9a10,10,0,0,0-1.023-3.19,12.367,12.367,0,0,0-2.119-2.905l-.477-.476v4.666h-3.809V697H940.9v3.809h-5.238l.762.667a15.46,15.46,0,0,1,3,4.238A15.043,15.043,0,0,1,940.761,710.333ZM930.262,735l-.68-3.4q-.679-.283-1.275-.595a9.928,9.928,0,0,1-1.218-.765l-3.287,1.02-2.267-3.854,2.607-2.266a9.661,9.661,0,0,1,0-2.947l-2.607-2.267,2.267-3.854,3.287,1.021a9.81,9.81,0,0,1,1.218-.766q.6-.311,1.275-.6l.68-3.4H934.8l.68,3.4a11.444,11.444,0,0,1,1.275.624,8.928,8.928,0,0,1,1.218.85l3.287-1.134,2.267,3.967-2.607,2.267a8.862,8.862,0,0,1,0,2.834l2.607,2.266-2.267,3.854-3.287-1.02a9.846,9.846,0,0,1-1.218.765q-.6.312-1.275.595l-.68,3.4Zm2.267-6.8a4.546,4.546,0,1,0-3.2-1.332A4.365,4.365,0,0,0,932.529,728.2Z" transform="translate(-906.619 -697)" fill="#4170ff"/>
</svg>
