<svg xmlns="http://www.w3.org/2000/svg" width="41" height="33.546" viewBox="0 0 41 33.546">
  <path id="Path_237" data-name="Path 237" d="M133.071,712.273l-6.523-6.523,6.523-6.523,6.523,6.523Zm-20.5,20.5v-7.455a3.569,3.569,0,0,1,1.1-2.656,3.629,3.629,0,0,1,2.632-1.071h6.1a3.587,3.587,0,0,1,1.77.466,3.744,3.744,0,0,1,1.351,1.258,9.627,9.627,0,0,0,3.332,2.842,9.044,9.044,0,0,0,4.216,1.025,9.232,9.232,0,0,0,7.548-3.867,4.736,4.736,0,0,1,1.421-1.258,3.373,3.373,0,0,1,1.7-.466h6.1a3.659,3.659,0,0,1,3.727,3.727v7.455H140.526v-4.24a12.69,12.69,0,0,1-7.455,2.376,12.449,12.449,0,0,1-3.914-.629,13.091,13.091,0,0,1-3.54-1.794v4.287Zm5.591-13.046a5.527,5.527,0,1,1,3.984-1.63A5.391,5.391,0,0,1,118.162,719.727Zm29.818,0a5.527,5.527,0,1,1,3.984-1.63A5.391,5.391,0,0,1,147.98,719.727Z" transform="translate(-112.571 -699.227)" fill="#4170ff"/>
</svg>
