<svg xmlns="http://www.w3.org/2000/svg" width="34.716" height="34.716" viewBox="0 0 34.716 34.716">
  <path id="Path_228" data-name="Path 228" d="M33.071,913.358a16.893,16.893,0,0,1-6.77-1.367,17.329,17.329,0,0,1-9.221-9.221,17.448,17.448,0,0,1,0-13.54,17.329,17.329,0,0,1,9.221-9.221,17.558,17.558,0,0,1,12.108-.543,17.856,17.856,0,0,1,4.643,2.3l-2.517,2.561A14.917,14.917,0,0,0,37.02,882.7a13.126,13.126,0,0,0-3.949-.586,13.887,13.887,0,1,0,0,27.774A13.855,13.855,0,0,0,46.958,896a14.1,14.1,0,0,0-.087-1.562,12.972,12.972,0,0,0-.26-1.519l2.82-2.821a18.883,18.883,0,0,1,.738,2.864,17.42,17.42,0,0,1,.26,3.038,16.893,16.893,0,0,1-1.367,6.77,17.328,17.328,0,0,1-9.221,9.221A16.893,16.893,0,0,1,33.071,913.358Zm-2.43-9.373-7.377-7.377,2.43-2.431,4.947,4.947L48,881.723l2.43,2.43Z" transform="translate(-15.713 -878.642)" fill="#4170ff"/>
</svg>
