<svg xmlns="http://www.w3.org/2000/svg" width="29.593" height="36.99" viewBox="0 0 29.593 36.99">
  <path id="Path_127" data-name="Path 127" d="M319.233,3714.071a3.709,3.709,0,0,1-3.7-3.7V3680.78a3.709,3.709,0,0,1,3.7-3.7h14.8l11.1,11.1v22.194a3.709,3.709,0,0,1-3.7,3.7Zm9.248-5.548h3.7v-1.85h1.849a1.817,1.817,0,0,0,1.85-1.849v-5.549a1.817,1.817,0,0,0-1.85-1.85h-5.548v-1.849h7.4v-3.7h-3.7v-1.85h-3.7v1.85h-1.85a1.816,1.816,0,0,0-1.849,1.849v5.549a1.816,1.816,0,0,0,1.849,1.85h5.549v1.849h-7.4v3.7h3.7Zm4.022-20.345h7.4l-7.4-7.4Z" transform="translate(-315.534 -3677.081)" fill="#4170ff"/>
</svg>
