<svg xmlns="http://www.w3.org/2000/svg" width="34.3" height="41.478" viewBox="0 0 34.3 41.478">
  <g id="Group_27" data-name="Group 27" transform="translate(-15.18 -3674.837)">
    <g id="Group_26" data-name="Group 26">
      <path id="Path_130" data-name="Path 130" d="M19.277,3708.851a17.209,17.209,0,0,1-3.025-5.121,16.911,16.911,0,0,1-1.072-6.027,16.54,16.54,0,0,1,5-12.147,16.539,16.539,0,0,1,12.148-5h.381l-3.048-3.048,2.667-2.668,7.622,7.622-7.622,7.622-2.715-2.715,3-3H32.33A13.338,13.338,0,0,0,18.991,3697.7a13.184,13.184,0,0,0,.786,4.574,12.923,12.923,0,0,0,2.216,3.858Zm10.939,1.653a4.534,4.534,0,0,0-.883-2.593q-.884-1.282-1.967-2.679a27.034,27.034,0,0,1-1.966-2.907,6.272,6.272,0,0,1-.883-3.22,7.977,7.977,0,0,1,7.979-7.98,7.979,7.979,0,0,1,7.98,7.98,6.282,6.282,0,0,1-.883,3.22,26.9,26.9,0,0,1-1.967,2.907q-1.083,1.4-1.966,2.679a4.535,4.535,0,0,0-.884,2.593Zm15.167-1.653-2.715-2.716a12.92,12.92,0,0,0,2.215-3.858,13.673,13.673,0,0,0-.524-10.409,12.794,12.794,0,0,0-3.6-4.5l2.716-2.716a17.567,17.567,0,0,1,4.383,5.741,16.618,16.618,0,0,1,1.619,7.312,16.889,16.889,0,0,1-1.072,6.027A17.188,17.188,0,0,1,45.383,3708.851Z" fill="#4170ff"/>
    </g>
    <rect id="Rectangle_124" data-name="Rectangle 124" width="6.011" height="4.208" transform="translate(29.429 3712.107)" fill="#4170ff"/>
  </g>
</svg>
