<svg xmlns="http://www.w3.org/2000/svg" width="37.749" height="38.066" viewBox="0 0 37.749 38.066">
  <path id="Path_129" data-name="Path 129" d="M113.456,3689.232v-10.877h3.625v4.26a15.835,15.835,0,0,1,5.642-4.486,16.2,16.2,0,0,1,7.047-1.586,16.245,16.245,0,0,1,16.314,16.314h-3.625a12.653,12.653,0,0,0-18.535-11.239,13.474,13.474,0,0,0-4.577,3.988h4.985v3.626Zm.09,5.438h3.716a11.98,11.98,0,0,0,3.467,7.137,12.349,12.349,0,0,0,7,3.557l2.175,3.807a16.092,16.092,0,0,1-10.967-4.146A15.617,15.617,0,0,1,113.546,3694.67Zm18.671,3.172-4.26-4.26v-9.788h3.626v8.338l2.537,2.538Zm8.384,16.767-.544-2.719q-.545-.226-1.02-.476a7.835,7.835,0,0,1-.974-.612l-2.629.816-1.812-3.081,2.084-1.813a7.762,7.762,0,0,1,0-2.357l-2.084-1.812,1.812-3.082,2.629.816a7.835,7.835,0,0,1,.974-.612q.476-.249,1.02-.476l.544-2.719h3.625l.544,2.719a8.451,8.451,0,0,1,1.042.521,8.275,8.275,0,0,1,.952.658l2.628-.907,1.813,3.172-2.085,1.813a7.1,7.1,0,0,1,0,2.266l2.085,1.813-1.813,3.081-2.628-.816a7.844,7.844,0,0,1-.975.612q-.476.249-1.019.476l-.544,2.719Zm1.812-5.438a3.636,3.636,0,1,0-2.56-1.065A3.492,3.492,0,0,0,142.413,3709.171Z" transform="translate(-113.456 -3676.543)" fill="#4170ff"/>
</svg>
