<svg xmlns="http://www.w3.org/2000/svg" width="44.807" height="22.404" viewBox="0 0 44.807 22.404">
  <path id="Path_126" data-name="Path 126" d="M406.092,3706.778v-2.941a3.741,3.741,0,0,1,2.053-3.267,10.258,10.258,0,0,1,5.415-1.26q.606,0,1.166.023a7.931,7.931,0,0,1,1.074.117,7.756,7.756,0,0,0-.98,2.054,7.64,7.64,0,0,0-.327,2.24v3.034Zm11.2,0v-3.034a4.857,4.857,0,0,1,.816-2.731,7.419,7.419,0,0,1,2.311-2.17,11.406,11.406,0,0,1,3.57-1.4,20.54,20.54,0,0,1,4.5-.467,20.768,20.768,0,0,1,4.551.467,11.412,11.412,0,0,1,3.571,1.4,7.163,7.163,0,0,1,2.287,2.17,4.955,4.955,0,0,1,.793,2.731v3.034Zm25.2,0v-3.034a8.347,8.347,0,0,0-.3-2.287,7.279,7.279,0,0,0-.91-2.007,7.86,7.86,0,0,1,1.05-.117q.537-.022,1.1-.023a10.4,10.4,0,0,1,5.414,1.237,3.722,3.722,0,0,1,2.054,3.29v2.941Zm-28.938-9.335a3.746,3.746,0,0,1-2.637-6.394,3.746,3.746,0,0,1,5.3,5.3A3.574,3.574,0,0,1,413.56,3697.443Zm29.871,0a3.746,3.746,0,0,1-2.637-6.394,3.746,3.746,0,0,1,5.3,5.3A3.577,3.577,0,0,1,443.431,3697.443Zm-14.936-1.867a5.539,5.539,0,1,1,3.991-1.634A5.4,5.4,0,0,1,428.495,3695.576Z" transform="translate(-406.092 -3684.374)" fill="#4170ff"/>
</svg>
