<svg xmlns="http://www.w3.org/2000/svg" width="39.167" height="38.972" viewBox="0 0 39.167 38.972">
  <path id="Path_128" data-name="Path 128" d="M241.073,3711.165l5.846-5.846-5.846-5.846-1.364,1.364,3.508,3.508h-7.989v1.948h7.94l-3.459,3.508Zm0,3.9a9.729,9.729,0,1,1,6.894-2.85A9.39,9.39,0,0,1,241.073,3715.062Zm-15.1,0-.78-6.235a7.443,7.443,0,0,1-1.193-.585q-.561-.341-1.1-.731l-5.8,2.436-5.358-9.256,5.017-3.8a4.708,4.708,0,0,1-.048-.657v-1.316a4.707,4.707,0,0,1,.048-.657l-5.017-3.8,5.358-9.256,5.8,2.436q.537-.39,1.1-.731a7.484,7.484,0,0,1,1.193-.585l.78-6.235h10.717l.779,6.235a7.494,7.494,0,0,1,1.194.585q.56.341,1.1.731l5.8-2.436,5.359,9.256-3.6,2.728a14.718,14.718,0,0,0-3.02-1.121,13.251,13.251,0,0,0-3.216-.389,10.126,10.126,0,0,0-1.875.17q-.9.171-1.827.414a7.014,7.014,0,0,0-2.509-2.557,6.8,6.8,0,0,0-10.254,5.87,6.691,6.691,0,0,0,.9,3.41,6.824,6.824,0,0,0,2.46,2.485,11.7,11.7,0,0,0-.414,2.021,17.969,17.969,0,0,0-.122,2.071,13.761,13.761,0,0,0,1.1,5.188,12.8,12.8,0,0,0,3,4.311Z" transform="translate(-211.747 -3676.09)" fill="#4170ff"/>
</svg>
