<svg xmlns="http://www.w3.org/2000/svg" width="23" height="33.12" viewBox="0 0 23 33.12">
  <g id="Group_17" data-name="Group 17" transform="translate(-517.491 -177.44)">
    <path id="Path_133" data-name="Path 133" d="M537.731,177.44h-17.48a2.76,2.76,0,0,0-2.76,2.76v27.6a2.76,2.76,0,0,0,2.76,2.76h17.48a2.76,2.76,0,0,0,2.76-2.76V180.2A2.76,2.76,0,0,0,537.731,177.44ZM524.77,200.82a1.831,1.831,0,1,1,.541-1.3A1.771,1.771,0,0,1,524.77,200.82Zm0-5.521a1.83,1.83,0,1,1,.541-1.3A1.768,1.768,0,0,1,524.77,195.3Zm0-5.52a1.831,1.831,0,1,1,.541-1.3A1.768,1.768,0,0,1,524.77,189.779Zm5.52,11.041a1.831,1.831,0,1,1,.541-1.3A1.771,1.771,0,0,1,530.29,200.82Zm0-5.521a1.83,1.83,0,1,1,.541-1.3A1.768,1.768,0,0,1,530.29,195.3Zm0-5.52a1.831,1.831,0,1,1,.541-1.3A1.768,1.768,0,0,1,530.29,189.779Zm5.52,11.041a1.831,1.831,0,1,1,.541-1.3A1.771,1.771,0,0,1,535.81,200.82Zm0-5.521a1.83,1.83,0,1,1,.541-1.3A1.768,1.768,0,0,1,535.81,195.3Zm0-5.52a1.831,1.831,0,1,1,.541-1.3A1.768,1.768,0,0,1,535.81,189.779Z" fill="#4170ff"/>
  </g>
</svg>
