<?xml version="1.0" encoding="UTF-8"?>
<svg id="Layer_1" data-name="Layer 1" xmlns="http://www.w3.org/2000/svg" viewBox="0 0 64 64">
  <defs>
    <style>
      .cls-1 {
        fill: none;
      }

      .cls-1, .cls-2 {
        stroke-width: 0px;
      }

      .cls-2 {
        fill: #4170ff;
      }
    </style>
  </defs>
  <rect class="cls-1" width="64" height="64"/>
  <g>
    <polygon class="cls-2" points="47.56 33.62 41.01 26.24 36.86 26.24 39.88 33.62 47.56 33.62"/>
    <path class="cls-2" d="m32,33.62h5.85l-3-7.37h-5.68l-1.6,3.89c-.14.36-.49.59-.87.58-.12,0-.24-.02-.35-.07-.48-.2-.71-.74-.51-1.22,0,0,0,0,0,0l1.3-3.18h-4.16l-6.55,7.37h15.56Z"/>
    <polygon class="cls-2" points="39.95 35.5 34.62 48.98 47.58 35.5 39.95 35.5"/>
    <polygon class="cls-2" points="32 35.5 32 35.5 26.06 35.5 32 50.5 37.94 35.5 32 35.5"/>
    <polygon class="cls-2" points="16.42 35.5 29.37 48.98 24.04 35.5 16.42 35.5"/>
    <path class="cls-2" d="m32,19.63c.52,0,.94-.43.94-.94v-4.25c0-.52-.42-.94-.94-.94s-.94.42-.94.94v4.25c0,.52.42.94.94.94Z"/>
    <path class="cls-2" d="m21,20.65c.18.23.46.36.75.35.21,0,.42-.07.58-.21.4-.32.47-.9.15-1.3,0,0,0,0-.01-.01l-2.82-3.51c-.32-.41-.92-.49-1.34-.16s-.49.92-.16,1.34l2.85,3.51Z"/>
    <path class="cls-2" d="m41.68,20.8c.16.14.37.21.58.21.29,0,.57-.12.75-.35l2.81-3.51c.32-.41.25-1.01-.16-1.34-.41-.32-1.01-.25-1.34.16l-2.82,3.51c-.32.41-.24,1,.17,1.31,0,0,0,0,0,0Z"/>
  </g>
</svg>