<?xml version="1.0" encoding="UTF-8"?>
<svg id="Layer_1" data-name="Layer 1" xmlns="http://www.w3.org/2000/svg" xmlns:xlink="http://www.w3.org/1999/xlink" viewBox="0 0 64 64">
  <defs>
    <style>
      .cls-1 {
        fill: none;
      }

      .cls-1, .cls-2, .cls-3 {
        stroke-width: 0px;
      }

      .cls-2 {
        fill: url(#linear-gradient);
      }

      .cls-3 {
        fill: #4170ff;
      }
    </style>
    <linearGradient id="linear-gradient" x1="54.2" y1="54.35" x2="21.8" y2="21.74" gradientUnits="userSpaceOnUse">
      <stop offset="0" stop-color="#0d0027"/>
      <stop offset="1" stop-color="#032094"/>
    </linearGradient>
  </defs>
  <g>
    <path class="cls-3" d="m31.92,42.37c-5.63.03-10.3-4.64-10.33-10.32-.04-5.49,4.37-10.36,10.29-10.43,5.76-.06,10.49,4.62,10.51,10.33.03,5.76-4.63,10.39-10.47,10.42Zm.06-1.47h0c.46,0,.93-.03,1.39,0,.35.03.57-.13.71-.39.09-.17.11-.4.13-.6.03-.31-.07-.72.09-.92.17-.22.58-.27.9-.35.12-.03.29,0,.39.08.22.16.4.37.6.55.34.3.68.34,1,.03.73-.69,1.43-1.4,2.12-2.13.31-.33.27-.65-.03-1-.18-.2-.39-.39-.55-.6-.07-.1-.1-.27-.08-.39.06-.25.18-.49.26-.75.05-.16.14-.22.32-.22.31,0,.62,0,.93-.04.53-.07.69-.25.71-.78.02-.94.03-1.88.04-2.81,0-.43-.29-.76-.72-.79-.33-.02-.66-.02-.98-.02-.15,0-.23-.05-.28-.19-.1-.27-.2-.55-.32-.81-.07-.15-.03-.25.08-.36.21-.2.42-.4.61-.62.29-.33.33-.66.02-.98-.7-.73-1.41-1.44-2.15-2.13-.32-.3-.64-.26-.98.04-.18.16-.37.33-.54.51-.16.16-.32.21-.54.11-.22-.1-.46-.18-.69-.26-.16-.05-.2-.14-.2-.3,0-.35,0-.71-.04-1.06-.03-.31-.37-.62-.63-.62-.95,0-1.9,0-2.84.05-1.04.06-.89.16-.95.98-.02.3.07.67-.08.86-.16.21-.55.24-.84.36-.18.07-.33.05-.47-.09-.18-.18-.37-.35-.56-.52-.37-.33-.7-.36-1.04-.03-.71.68-1.41,1.37-2.08,2.09-.32.34-.3.67.02,1.02.2.22.43.42.63.65.06.06.08.2.06.28-.09.28-.23.56-.33.84-.05.14-.13.19-.28.19-.35,0-.69,0-1.04.03-.3.02-.66.35-.66.6,0,1.05.03,2.09.04,3.14,0,.33.19.52.5.6.17.04.34.06.51.08.29.03.66-.05.85.1.2.16.24.53.34.81,0,.03.03.05.02.08-.02.12,0,.26-.07.34-.17.22-.38.41-.57.63-.3.34-.34.68-.04,1,.7.73,1.42,1.44,2.15,2.14.3.28.62.26.94-.01.24-.2.44-.44.68-.64.08-.06.23-.1.32-.07.28.08.54.21.82.3.14.05.19.13.19.28,0,.36,0,.73.04,1.09.04.36.38.63.73.63.48,0,.97,0,1.45,0Z"/>
    <path class="cls-3" d="m53.89,32c-4.04,3.97-8.59,7.03-13.87,8.96l-.08-.09c.13-.15.26-.31.4-.45.87-.88,1.62-1.85,2.19-2.96,1.73-3.37,1.71-6.79.26-10.24-.63-1.5-1.62-2.78-2.79-3.91-.09-.09-.21-.14-.32-.21.04-.04.07-.09.11-.13,5.38,1.92,9.99,5.03,14.09,9.03Z"/>
    <path class="cls-3" d="m23.96,40.95c-5.28-1.93-9.84-4.98-13.85-8.94,4.01-4,8.63-7.02,13.92-8.99.02.02.04.04.06.07-.17.19-.32.38-.5.56-1.46,1.45-2.51,3.16-3.02,5.15-1.14,4.41-.13,8.28,3.02,11.59.15.16.3.32.45.49-.02.03-.05.06-.07.09Z"/>
    <path class="cls-3" d="m39.43,31.26c0,.49,0,.91,0,1.34,0,.05-.12.14-.19.15-.22.02-.44,0-.66.01-.35,0-.59.17-.73.48-.28.66-.56,1.32-.84,1.98-.13.3-.07.57.14.81.2.23.41.46.6.67-.35.35-.69.68-1.05,1.03-.21-.18-.45-.39-.68-.6-.23-.21-.48-.24-.78-.12-.63.27-1.27.5-1.9.75-.39.15-.61.41-.6.85,0,.25,0,.51,0,.78h-1.47c0-.07-.02-.15-.02-.23,0-.21,0-.42-.02-.63-.03-.37-.18-.62-.58-.76-.61-.21-1.2-.48-1.79-.75-.33-.15-.62-.14-.89.09-.24.21-.48.42-.7.61-.34-.35-.68-.68-1.03-1.04.16-.18.34-.4.53-.6.29-.3.33-.6.14-.99-.29-.6-.54-1.22-.77-1.84-.15-.38-.4-.54-.79-.54-.25,0-.51,0-.78,0v-1.5c.22,0,.43,0,.65,0,.52.02.83-.22,1.01-.7.21-.56.45-1.11.7-1.66.17-.37.14-.68-.13-.98-.2-.21-.39-.43-.57-.63.35-.35.68-.68,1.04-1.04.16.15.36.3.53.48.34.35.69.38,1.13.17.55-.27,1.12-.49,1.69-.69.4-.14.57-.4.59-.79.02-.27,0-.54,0-.85.5,0,.94,0,1.38,0,.05,0,.12.12.13.18.03.28.03.56.04.84.01.21.12.36.32.44.4.16.81.33,1.21.5.28.12.56.26.84.4.31.16.6.14.86-.09.24-.21.48-.42.7-.62.34.35.67.7,1.02,1.06-.15.17-.34.39-.54.6-.26.28-.3.56-.14.92.27.6.49,1.21.74,1.82.15.38.41.61.85.6.25,0,.51,0,.8,0Zm-7.43,4.13c2.08-.02,3.41-1.43,3.39-3.59-.02-1.76-1.57-3.22-3.43-3.21-1.88,0-3.42,1.56-3.41,3.44.01,1.85,1.64,3.54,3.45,3.37Z"/>
    <path class="cls-2" d="m33.9,32c.09-1.1-.79-1.94-2.03-1.94-.92,0-1.86,1-1.83,1.85.04,1.17.83,2.04,1.94,2.04,1.1,0,1.93-.84,1.93-1.95Z"/>
    <path class="cls-3" d="m33.9,32c0,1.11-.83,1.96-1.93,1.95-1.11,0-1.9-.88-1.94-2.04-.03-.85.92-1.85,1.83-1.85,1.24,0,2.12.84,2.03,1.94Z"/>
  </g>
  <rect class="cls-1" width="64" height="64"/>
</svg>