<?xml version="1.0" encoding="UTF-8"?>
<svg id="Layer_1" data-name="Layer 1" xmlns="http://www.w3.org/2000/svg" viewBox="0 0 64 64">
  <defs>
    <style>
      .cls-1, .cls-2 {
        fill: none;
      }

      .cls-1, .cls-3, .cls-4 {
        stroke-width: 0px;
      }

      .cls-2 {
        stroke: #4170ff;
        stroke-miterlimit: 10;
      }

      .cls-3 {
        fill-rule: evenodd;
      }

      .cls-3, .cls-4 {
        fill: #4170ff;
      }
    </style>
  </defs>
  <g>
    <g>
      <path class="cls-3" d="m35.45,20.51c1.53.52,2.92,1.33,4.11,2.38.32.28.75.33,1.13.14l2.34-1.23c.48-.25,1.06-.08,1.33.38l2.11,3.66c.27.46.12,1.06-.33,1.35l-2,1.26h-1.82c-.47,0-.9.26-1.12.67l-.79,1.49h-1.24c-.29-1.57-1.05-2.98-2.14-4.07-1.4-1.4-3.33-2.26-5.47-2.26s-4.07.87-5.47,2.26-2.26,3.33-2.26,5.47.87,4.07,2.26,5.47c1.4,1.4,3.33,2.26,5.47,2.26s4.07-.87,5.47-2.26c1.09-1.09,1.85-2.5,2.14-4.07h1.24l.79,1.49c.22.42.65.67,1.12.67h1.82l2,1.26c.45.29.6.88.33,1.35l-2.11,3.66c-.27.46-.86.64-1.33.38l-2.34-1.23c-.37-.2-.81-.15-1.13.14-1.19,1.04-2.58,1.86-4.11,2.38-.4.14-.66.49-.68.91l-.1,2.64c-.02.54-.46.96-1,.96h-4.22c-.54,0-.98-.42-1-.96l-.1-2.63c-.02-.42-.28-.77-.68-.91-1.53-.52-2.92-1.34-4.11-2.38-.32-.28-.75-.33-1.13-.14l-2.34,1.23c-.48.25-1.06.08-1.33-.38l-2.11-3.66c-.27-.46-.12-1.06.33-1.35l2.23-1.41c.36-.23.53-.63.45-1.04-.15-.77-.23-1.56-.23-2.38s.08-1.61.23-2.38c.08-.41-.09-.82-.45-1.04l-2.23-1.41c-.45-.29-.6-.88-.33-1.35l2.11-3.66c.27-.46.86-.64,1.33-.38l2.34,1.23c.37.2.81.15,1.13-.14,1.19-1.04,2.58-1.86,4.11-2.38.4-.14.66-.49.68-.91l.1-2.63c.02-.54.46-.96,1-.96h4.22c.54,0,.98.42,1,.96l.1,2.64c.01.42.28.77.68.91h0Z"/>
      <line class="cls-2" x1="45.05" y1="32" x2="32.04" y2="32"/>
      <path class="cls-4" d="m33.58,31.99c0,1.21-.9,2.12-2.09,2.12-1.2,0-2.06-.95-2.1-2.22-.03-.92.99-2.01,1.99-2.01,1.35,0,2.3.92,2.21,2.11Z"/>
      <path class="cls-3" d="m34.69,33.14c-.45,1.36-1.67,2.29-3.21,2.29-1.95,0-3.34-1.54-3.41-3.6-.05-1.49,1.62-3.26,3.23-3.26,1.73,0,3.05.94,3.45,2.29h2.49c-.53-2.61-2.83-4.57-5.6-4.57-3.16,0-5.71,2.56-5.71,5.71s2.56,5.71,5.71,5.71c2.76,0,5.07-1.96,5.6-4.57h-2.55Z"/>
    </g>
    <path class="cls-3" d="m47.45,33.87l-.88-1.93.88-1.67c.05-.09.05-.19,0-.28-.05-.09-.14-.14-.24-.14h-3.94c-.11,0-.2.06-.25.15l-.86,1.61v.9l.86,1.61c.05.1.14.15.25.15h3.94c.1,0,.19-.05.24-.14s.06-.19,0-.28Z"/>
  </g>
  <rect class="cls-1" width="64" height="64"/>
</svg>