<svg xmlns="http://www.w3.org/2000/svg" width="23" height="33.12" viewBox="0 0 23 33.12">
  <g id="Group_40" data-name="Group 40" transform="translate(-713.571 -365.44)">
    <path id="Path_244" data-name="Path 244" d="M733.811,365.44h-17.48a2.76,2.76,0,0,0-2.76,2.76v27.6a2.76,2.76,0,0,0,2.76,2.76h17.48a2.76,2.76,0,0,0,2.76-2.76V368.2A2.76,2.76,0,0,0,733.811,365.44Zm-12.96,23.38a1.834,1.834,0,1,1,.54-1.3A1.775,1.775,0,0,1,720.851,388.82Zm0-5.521a1.832,1.832,0,1,1,.54-1.3A1.772,1.772,0,0,1,720.851,383.3Zm0-5.52a1.834,1.834,0,1,1,.54-1.3A1.772,1.772,0,0,1,720.851,377.779Zm5.52,11.041a1.834,1.834,0,1,1,.54-1.3A1.775,1.775,0,0,1,726.371,388.82Zm0-5.521a1.832,1.832,0,1,1,.54-1.3A1.772,1.772,0,0,1,726.371,383.3Zm0-5.52a1.834,1.834,0,1,1,.54-1.3A1.772,1.772,0,0,1,726.371,377.779Zm5.52,11.041a1.834,1.834,0,1,1,.54-1.3A1.775,1.775,0,0,1,731.891,388.82Zm0-5.521a1.832,1.832,0,1,1,.54-1.3A1.772,1.772,0,0,1,731.891,383.3Zm0-5.52a1.834,1.834,0,1,1,.54-1.3A1.772,1.772,0,0,1,731.891,377.779Z" fill="#4170ff"/>
  </g>
</svg>
