<svg xmlns="http://www.w3.org/2000/svg" width="36.479" height="29.184" viewBox="0 0 36.479 29.184">
  <path id="Path_251" data-name="Path 251" d="M14.832,396.592v-5.107a5.457,5.457,0,0,1,.775-2.85,5.089,5.089,0,0,1,2.143-1.984,27.393,27.393,0,0,1,5.677-2.1,24.78,24.78,0,0,1,6-.73,16.335,16.335,0,0,1,2.28.16q1.14.159,2.28.387v2.873a9.1,9.1,0,0,0-3.306,2.645,6.869,6.869,0,0,0-1.254,4.286v2.417Zm18.239,0v-2.554a3.827,3.827,0,0,1,.57-2.029,3.21,3.21,0,0,1,1.619-1.345,17.517,17.517,0,0,1,3.4-1.026,18.429,18.429,0,0,1,7.068,0,17.517,17.517,0,0,1,3.4,1.026,3.21,3.21,0,0,1,1.619,1.345,3.827,3.827,0,0,1,.57,2.029v2.554Zm9.12-9.12a4.516,4.516,0,1,1,3.237-1.322A4.406,4.406,0,0,1,42.191,387.472ZM29.423,382a7.3,7.3,0,1,1,5.153-12.449A7.3,7.3,0,0,1,29.423,382Z" transform="translate(-14.832 -367.408)" fill="#4170ff"/>
</svg>
