<svg xmlns="http://www.w3.org/2000/svg" width="36.322" height="34.304" viewBox="0 0 36.322 34.304">
  <path id="Path_242" data-name="Path 242" d="M931.73,379.478l7.113-7.164L937.43,370.9l-5.7,5.7-2.875-2.875-1.413,1.463Zm-24.82,19.674v-4.036h24.215v4.036Zm26.232-14.125a10.075,10.075,0,1,1,7.139-2.951A9.726,9.726,0,0,1,933.142,385.027Zm-26.232-2.018v-4.036h12.713a19.624,19.624,0,0,0,.807,2.119,10.932,10.932,0,0,0,1.11,1.917Zm0,8.071v-4.035h18.968a14,14,0,0,0,2.472,1.185,13.332,13.332,0,0,0,2.775.681v2.169Z" transform="translate(-906.91 -364.848)" fill="#4170ff"/>
</svg>
