<svg xmlns="http://www.w3.org/2000/svg" width="24.67" height="33.92" viewBox="0 0 24.67 33.92">
  <path id="Path_248" data-name="Path 248" d="M325.829,389.092,318.736,382l7.093-7.092,2.158,2.235L323.131,382l4.856,4.857Zm-5.551.617h3.084v1.542H338.78v-1.542h3.084v6.168a3.093,3.093,0,0,1-3.084,3.083H323.362a3.093,3.093,0,0,1-3.084-3.083Zm3.084-15.418h-3.084v-6.168a3.093,3.093,0,0,1,3.084-3.083H338.78a3.093,3.093,0,0,1,3.084,3.083v6.168H338.78v-1.542H323.362Zm12.951,14.8-2.158-2.235L339.012,382l-4.857-4.857,2.158-2.235L343.406,382Z" transform="translate(-318.736 -365.04)" fill="#4170ff"/>
</svg>
