<svg xmlns="http://www.w3.org/2000/svg" width="29" height="38.062" viewBox="0 0 29 38.062">
  <path id="Path_243" data-name="Path 243" d="M825.071,382.906a5.415,5.415,0,1,1,3.852-1.586A5.24,5.24,0,0,1,825.071,382.906ZM814.2,401.031v-14a13.965,13.965,0,0,1-2.673-4.35,14.242,14.242,0,0,1-.952-5.211,14.5,14.5,0,1,1,29,0,14.262,14.262,0,0,1-.951,5.211,13.987,13.987,0,0,1-2.674,4.35v14l-10.875-3.625Zm10.875-12.687a10.83,10.83,0,1,0-7.7-3.172A10.488,10.488,0,0,0,825.071,388.344Z" transform="translate(-810.571 -362.969)" fill="#4170ff"/>
</svg>
