<svg xmlns="http://www.w3.org/2000/svg" width="35.164" height="28.132" viewBox="0 0 35.164 28.132">
  <path id="Path_247" data-name="Path 247" d="M436.1,379.539l7.033-4.044-7.033-4.044-7.033,4.044Zm0,5.362,4.835-2.813V378.4l-4.835,2.813-4.835-2.813v3.692Zm-24.615,11.165v-5.275a5.253,5.253,0,0,1,5.275,5.275Zm8.791,0a8.778,8.778,0,0,0-8.791-8.791v-3.517A12.232,12.232,0,0,1,423.8,396.066Zm7.033,0a15.311,15.311,0,0,0-1.253-6.176,15.89,15.89,0,0,0-8.395-8.4,15.3,15.3,0,0,0-6.176-1.253v-3.517a18.772,18.772,0,0,1,7.516,1.517,19.493,19.493,0,0,1,10.308,10.307,18.78,18.78,0,0,1,1.516,7.517Zm7.033,0a22.126,22.126,0,0,0-1.8-8.9,23.037,23.037,0,0,0-12.154-12.154,22.126,22.126,0,0,0-8.9-1.8v-1.758a3.527,3.527,0,0,1,3.516-3.517h28.132a3.527,3.527,0,0,1,3.516,3.517v21.1a3.527,3.527,0,0,1-3.516,3.517Z" transform="translate(-411.489 -367.934)" fill="#4170ff"/>
</svg>
