<svg xmlns="http://www.w3.org/2000/svg" width="32.449" height="32.449" viewBox="0 0 32.449 32.449">
  <path id="Path_196" data-name="Path 196" d="M119.461,1974.522a3.616,3.616,0,0,1-3.6-3.6v-22.489a3.694,3.694,0,0,1,.2-1.217,3.519,3.519,0,0,1,.609-1.082l2.253-2.749a3.272,3.272,0,0,1,1.24-.969,3.718,3.718,0,0,1,1.554-.338h20.732a3.723,3.723,0,0,1,1.555.338,3.261,3.261,0,0,1,1.239.969l2.254,2.749a3.516,3.516,0,0,1,.608,1.082,3.7,3.7,0,0,1,.2,1.217v22.489a3.616,3.616,0,0,1-3.6,3.6Zm.721-27.041h23.8l-1.532-1.8H121.714Zm19.109,3.606H124.869v14.422l7.211-3.606,7.211,3.606Z" transform="translate(-115.856 -1942.073)" fill="#4170ff"/>
</svg>
