<svg xmlns="http://www.w3.org/2000/svg" width="35.496" height="36.429" viewBox="0 0 35.496 36.429">
  <path id="Path_194" data-name="Path 194" d="M314.3,1976.512v-5.9h6.1l-5.02-16.437a5.892,5.892,0,0,1-2.189-2.166,5.8,5.8,0,0,1-.862-3.051,5.881,5.881,0,0,1,5.906-5.905,5.615,5.615,0,0,1,3.42,1.107,5.774,5.774,0,0,1,2.092,2.83h6.3v-1.969a1.932,1.932,0,0,1,1.968-1.968,2.006,2.006,0,0,1,.862.2,1.9,1.9,0,0,1,.713.591l3.347-3.15a2.028,2.028,0,0,1,1.058-.566,1.828,1.828,0,0,1,1.206.173l7.677,3.543a1.6,1.6,0,0,1,.812.861,1.371,1.371,0,0,1-.025,1.107,1.4,1.4,0,0,1-.861.763,1.52,1.52,0,0,1-1.107-.074l-7.087-3.248-4.626,4.331v2.756l4.626,4.232,7.087-3.248a1.5,1.5,0,0,1,1.132-.049,1.34,1.34,0,0,1,.836.738,1.257,1.257,0,0,1,.049,1.132,1.73,1.73,0,0,1-.836.837l-7.677,3.642a1.834,1.834,0,0,1-1.206.172,2.028,2.028,0,0,1-1.058-.566l-3.347-3.15a3.539,3.539,0,0,1-.713.542,1.68,1.68,0,0,1-.862.246,1.934,1.934,0,0,1-1.968-1.969v-1.968h-6.3a7.867,7.867,0,0,1-.32.738,4.924,4.924,0,0,1-.468.738l9.843,18.209h7.087v5.9Zm3.937-25.59a1.934,1.934,0,1,0-1.4-.566A1.9,1.9,0,0,0,318.238,1950.922Z" transform="translate(-312.332 -1940.083)" fill="#4170ff"/>
</svg>
