<svg xmlns="http://www.w3.org/2000/svg" width="36.904" height="38" viewBox="0 0 36.904 38">
  <path id="Path_195" data-name="Path 195" d="M212.628,1969.773v-3.809h5.238l-.761-.667a12.032,12.032,0,0,1-3.477-5,16.805,16.805,0,0,1-1-5.666,15.233,15.233,0,0,1,11.429-14.857v4a11.517,11.517,0,0,0-7.619,10.857,10.959,10.959,0,0,0,3.333,7.9l.476.477v-4.667h3.81v11.428Zm34.143-17.142h-3.857a10.013,10.013,0,0,0-1.024-3.191,12.337,12.337,0,0,0-2.119-2.9l-.476-.476v4.666h-3.81V1939.3h11.428v3.809h-5.238l.762.667a15.461,15.461,0,0,1,3,4.238A15.074,15.074,0,0,1,246.771,1952.631Zm-10.5,24.667-.68-3.4q-.681-.283-1.276-.595a10,10,0,0,1-1.218-.765l-3.287,1.02-2.267-3.854,2.607-2.267a9.657,9.657,0,0,1,0-2.946l-2.607-2.267,2.267-3.854,3.287,1.02a10,10,0,0,1,1.218-.765q.6-.312,1.276-.595l.68-3.4H240.8l.68,3.4a11.424,11.424,0,0,1,1.275.624,8.9,8.9,0,0,1,1.219.85l3.286-1.134,2.267,3.967-2.607,2.267a8.857,8.857,0,0,1,0,2.833l2.607,2.267-2.267,3.854-3.286-1.02a9.933,9.933,0,0,1-1.219.765q-.6.311-1.275.595l-.68,3.4Zm2.266-6.8a4.544,4.544,0,1,0-3.2-1.331A4.365,4.365,0,0,0,238.538,1970.5Z" transform="translate(-212.628 -1939.298)" fill="#4170ff"/>
</svg>
