<svg xmlns="http://www.w3.org/2000/svg" width="35.403" height="25.748" viewBox="0 0 35.403 25.748">
  <path id="Path_220" data-name="Path 220" d="M15.37,1241.874v-6.437a3.08,3.08,0,0,1,.945-2.293,3.133,3.133,0,0,1,2.273-.926h5.27a3.105,3.105,0,0,1,1.529.4,3.238,3.238,0,0,1,1.167,1.086,8.3,8.3,0,0,0,2.876,2.454,7.812,7.812,0,0,0,3.641.885,7.969,7.969,0,0,0,6.517-3.339,4.1,4.1,0,0,1,1.227-1.086,2.925,2.925,0,0,1,1.469-.4h5.27a3.163,3.163,0,0,1,3.219,3.219v6.437H39.508v-3.661a10.946,10.946,0,0,1-6.437,2.052,10.708,10.708,0,0,1-3.379-.544,11.33,11.33,0,0,1-3.058-1.548v3.7Zm17.7-6.437a6.243,6.243,0,0,1-2.9-.7,6.573,6.573,0,0,1-2.294-1.951,5.085,5.085,0,0,0-1.709-1.589,4.442,4.442,0,0,0-2.233-.584q.885-1.488,3.741-2.353a18.614,18.614,0,0,1,5.391-.865,18.614,18.614,0,0,1,5.391.865q2.856.864,3.741,2.353a4.473,4.473,0,0,0-2.212.584,5.013,5.013,0,0,0-1.73,1.589,5.9,5.9,0,0,1-2.253,1.971A6.478,6.478,0,0,1,33.071,1235.437ZM20.2,1230.609a4.828,4.828,0,1,1,3.44-8.267,4.838,4.838,0,0,1-3.44,8.267Zm25.748,0a4.774,4.774,0,1,1,3.44-1.408A4.656,4.656,0,0,1,45.945,1230.609Zm-12.874-4.827a4.776,4.776,0,1,1,3.44-1.409A4.653,4.653,0,0,1,33.071,1225.782Z" transform="translate(-15.37 -1216.126)" fill="#4170ff"/>
</svg>
