<svg xmlns="http://www.w3.org/2000/svg" width="27" height="33.75" viewBox="0 0 27 33.75">
  <path id="Path_217" data-name="Path 217" d="M328.54,1234.063H333.6l-.97-5.443a3.183,3.183,0,0,0,1.329-1.223,3.362,3.362,0,0,0,.485-1.772,3.375,3.375,0,0,0-6.75,0,3.362,3.362,0,0,0,.485,1.772,3.2,3.2,0,0,0,1.329,1.223Zm2.531,11.812a16.81,16.81,0,0,1-9.682-6.729,19.38,19.38,0,0,1-3.818-11.665v-10.293l13.5-5.063,13.5,5.063v10.293a19.38,19.38,0,0,1-3.818,11.665A16.81,16.81,0,0,1,331.071,1245.875Z" transform="translate(-317.571 -1212.125)" fill="#4170ff"/>
</svg>
