<svg xmlns="http://www.w3.org/2000/svg" width="32.22" height="35.442" viewBox="0 0 32.22 35.442">
  <path id="Path_218" data-name="Path 218" d="M238.515,1246.721l-6.444-6.444,2.255-2.336,2.578,2.577v-3.463h-9.666a3.233,3.233,0,0,1-3.222-3.222v-9.666h-8.055v-3.222h8.055v-3.463l-2.577,2.577-2.256-2.336,6.444-6.444,6.444,6.444-2.255,2.336-2.578-2.577v16.351h20.943v3.222h-8.055v3.463l2.578-2.577,2.255,2.336Zm-1.611-16.11v-6.444H230.46v-3.222H236.9a3.232,3.232,0,0,1,3.222,3.222v6.444Z" transform="translate(-215.961 -1211.279)" fill="#4170ff"/>
</svg>
