<svg xmlns="http://www.w3.org/2000/svg" width="35" height="34.146" viewBox="0 0 35 34.146">
  <path id="Path_240" data-name="Path 240" d="M132.644,563.073a16.626,16.626,0,0,1-6.658-1.344,17.049,17.049,0,0,1-9.07-9.07,17.157,17.157,0,0,1,0-13.318,17.049,17.049,0,0,1,9.07-9.07,17.029,17.029,0,0,1,23.39,12.357h-3.5a13.733,13.733,0,0,0-2.924-5.57,13.277,13.277,0,0,0-5.186-3.692v.683a3.425,3.425,0,0,1-3.414,3.414h-3.415v3.415a1.676,1.676,0,0,1-1.707,1.707h-3.415V546h3.415v5.122h-1.708l-8.195-8.2q-.128.768-.235,1.536a11.194,11.194,0,0,0-.106,1.537,13.626,13.626,0,0,0,13.658,13.659Zm15.537-.853-5.464-5.464a10.6,10.6,0,0,1-1.92.854,6.86,6.86,0,0,1-2.177.341,7.7,7.7,0,1,1,7.683-7.683,6.828,6.828,0,0,1-.342,2.177,10.645,10.645,0,0,1-.853,1.921l5.463,5.463Zm-9.561-7.683a4.226,4.226,0,1,0-3.031-1.238A4.121,4.121,0,0,0,138.62,554.537Z" transform="translate(-115.571 -528.927)" fill="#4170ff"/>
</svg>
