<svg xmlns="http://www.w3.org/2000/svg" width="36.696" height="33.36" viewBox="0 0 36.696 33.36">
  <path id="Path_239" data-name="Path 239" d="M228.735,562.68v-3.336h21.684v3.336Zm1.668-5a9.089,9.089,0,0,1,7.506-9.007v-1.043a1.668,1.668,0,1,1,3.336,0v1.043a8.952,8.952,0,0,1,5.359,3.107,8.816,8.816,0,0,1,2.147,5.9Zm-16.68-10.008H220.4V529.32h-6.672Zm10.008,0h3.294l11.76-4.379a2.64,2.64,0,0,0,1.168-.938,2.432,2.432,0,0,0,.458-1.438,1.566,1.566,0,0,0-1.584-1.585h-5.088l-2.919,1.126-.584-1.543,3.5-1.251h11.676a3.273,3.273,0,0,0,2.336-.959,3.161,3.161,0,0,0,1-2.377l-13.344-5-11.676,3.252Z" transform="translate(-213.723 -529.32)" fill="#4170ff"/>
</svg>
