<svg xmlns="http://www.w3.org/2000/svg" width="35.492" height="35.526" viewBox="0 0 35.492 35.526">
  <path id="Path_241" data-name="Path 241" d="M25.982,563.763a3.565,3.565,0,1,1,2.509-1.044A3.421,3.421,0,0,1,25.982,563.763Zm17.763,0a3.565,3.565,0,1,1,2.509-1.044A3.421,3.421,0,0,1,43.745,563.763ZM22.785,531.79h26.2a1.7,1.7,0,0,1,1.554.91,1.791,1.791,0,0,1,.045,1.843l-6.306,11.368a3.563,3.563,0,0,1-1.31,1.377,3.461,3.461,0,0,1-1.8.488H27.936l-1.954,3.553H47.3v3.552H25.982a3.286,3.286,0,0,1-3.019-1.754,3.357,3.357,0,0,1-.089-3.486l2.4-4.352-6.395-13.5H15.325v-3.553H21.1Z" transform="translate(-15.325 -528.237)" fill="#4170ff"/>
</svg>
