<svg xmlns="http://www.w3.org/2000/svg" width="35.332" height="31.966" viewBox="0 0 35.332 31.966">
  <path id="Path_107" data-name="Path 107" d="M813.978,4069.424h8.412v-3.365h-8.412Zm-3.365,15.142a3.375,3.375,0,0,1-3.365-3.365v-20.189a3.375,3.375,0,0,1,3.365-3.365h26.919a3.247,3.247,0,0,1,1.977.652,3.335,3.335,0,0,1,1.22,1.661,6.152,6.152,0,0,0-1.535-.483,9.392,9.392,0,0,0-1.662-.148,8.4,8.4,0,0,0-8.412,8.413,9,9,0,0,0,.168,1.766,7.594,7.594,0,0,0,.505,1.6h-7.4v1.682h-8.412v3.365h8.412v1.682a7.815,7.815,0,0,0-2.481,2.882,8.4,8.4,0,0,0-.884,3.848Zm16.825,1.683a1.654,1.654,0,1,0-1.2-.484A1.629,1.629,0,0,0,827.438,4086.249Zm10.094-16.825a1.652,1.652,0,1,0-1.2-.484A1.626,1.626,0,0,0,837.532,4069.424Zm-10.094,20.189a5.043,5.043,0,0,1-1.683-9.8v-5.342H835.85V4072.5a5.057,5.057,0,1,1,3.365,0v5.341h-10.1v1.977a5.042,5.042,0,0,1-1.682,9.8Z" transform="translate(-807.248 -4057.647)" fill="#4170ff"/>
</svg>
