<svg xmlns="http://www.w3.org/2000/svg" width="33.845" height="33.845" viewBox="0 0 33.845 33.845">
  <path id="Path_114" data-name="Path 114" d="M140.542,4082.092a2.53,2.53,0,1,0-1.8-.741A2.448,2.448,0,0,0,140.542,4082.092Zm0,5.076a4.92,4.92,0,0,0,2.369-.592,5.1,5.1,0,0,0,1.819-1.65,7.527,7.527,0,0,0-2.031-.867,8.6,8.6,0,0,0-4.315,0,7.527,7.527,0,0,0-2.031.867,5.105,5.105,0,0,0,1.819,1.65A4.921,4.921,0,0,0,140.542,4087.168Zm0,3.385a8.45,8.45,0,1,1,5.986-2.475A8.156,8.156,0,0,1,140.542,4090.553Zm-18.615-23.692h16.922v-3.384H121.927Zm7.911,20.307h-11.3a3.394,3.394,0,0,1-3.384-3.384v-23.692a3.394,3.394,0,0,1,3.384-3.384h23.692a3.394,3.394,0,0,1,3.384,3.384v11.338a12.072,12.072,0,0,0-2.475-.888,11.2,11.2,0,0,0-2.6-.3q-.467,0-.868.021a5.62,5.62,0,0,0-.825.106v-.127H121.927v3.384h10.365a11.136,11.136,0,0,0-1.375,1.566,11.625,11.625,0,0,0-1.079,1.819h-7.911v3.384h6.9a5.653,5.653,0,0,0-.106.825q-.021.4-.021.868a12.565,12.565,0,0,0,.254,2.6A10.276,10.276,0,0,0,129.838,4087.168Z" transform="translate(-115.158 -4056.708)" fill="#4170ff"/>
</svg>
