<svg xmlns="http://www.w3.org/2000/svg" width="43.399" height="21.7" viewBox="0 0 43.399 21.7">
  <g id="Group_22" data-name="Group 22" transform="translate(-209.381 -4062.78)">
    <path id="Path_113" data-name="Path 113" d="M216.614,4076.388l4.566-4.566-4.566-4.566-4.566,4.566Zm24.412-.949,4.521-7.234,4.52,7.234Zm-9.946-1.809a5.363,5.363,0,1,1,3.866-1.582A5.228,5.228,0,0,1,231.08,4073.63Zm-21.7,10.85v-2.848a3.6,3.6,0,0,1,2.011-3.187,10.107,10.107,0,0,1,5.222-1.2c.392,0,.768.007,1.13.022a7.739,7.739,0,0,1,1.04.113,6.856,6.856,0,0,0-.95,1.944,7.61,7.61,0,0,0-.316,2.216v2.938Zm10.849,0v-2.938a5.4,5.4,0,0,1,3.007-4.747,17.958,17.958,0,0,1,15.709,0,5.4,5.4,0,0,1,2.984,4.747v2.938Zm25.317-7.233a10.078,10.078,0,0,1,5.244,1.2,3.605,3.605,0,0,1,1.989,3.187v2.848h-8.137v-2.938a8.117,8.117,0,0,0-.294-2.216,7.085,7.085,0,0,0-.882-1.944,7.685,7.685,0,0,1,1.017-.113Q245,4077.246,245.547,4077.247Z" fill="#4170ff"/>
  </g>
</svg>
