<svg xmlns="http://www.w3.org/2000/svg" width="34.176" height="33.454" viewBox="0 0 34.176 33.454">
  <g id="Group_19" data-name="Group 19" transform="translate(-709.817 -4056.903)">
    <path id="Path_108" data-name="Path 108" d="M740.575,4056.9a3.428,3.428,0,0,1,3.418,3.418v20.5a3.428,3.428,0,0,1-3.418,3.418h-8.544v-3.418h8.544v-20.5h-27.34v20.5h21.433v3.418H713.235a3.428,3.428,0,0,1-3.418-3.418v-20.5a3.428,3.428,0,0,1,3.418-3.418Zm-13.67,6.587,8.544,8.544-2.393,2.392-4.442-4.442v8.116H725.2v-8.116l-4.443,4.442-2.392-2.392Z" fill="#4170ff"/>
    <rect id="Rectangle_104" data-name="Rectangle 104" width="18.918" height="4.32" rx="1.098" transform="translate(717.446 4086.037)" fill="#4170ff"/>
  </g>
</svg>
