<svg xmlns="http://www.w3.org/2000/svg" width="33.479" height="31.717" viewBox="0 0 33.479 31.717">
  <path id="Path_115" data-name="Path 115" d="M18.865,4089.489a3.536,3.536,0,0,1-3.524-3.524V4061.3a3.534,3.534,0,0,1,3.524-3.524H43.534a3.535,3.535,0,0,1,3.524,3.524h-14.1a6.721,6.721,0,0,0-7.048,7.048v10.572a6.722,6.722,0,0,0,7.048,7.049h14.1a3.537,3.537,0,0,1-3.524,3.524Zm14.1-7.049a3.534,3.534,0,0,1-3.524-3.524v-10.572a3.534,3.534,0,0,1,3.524-3.524H45.3a3.535,3.535,0,0,1,3.524,3.524v10.572a3.535,3.535,0,0,1-3.524,3.524Zm5.286-6.167a2.562,2.562,0,1,0-1.894-.749A2.567,2.567,0,0,0,38.247,4076.273Z" transform="translate(-15.341 -4057.772)" fill="#4170ff"/>
</svg>
