<?xml version="1.0" encoding="utf-8"?>
<!-- Generator: Adobe Illustrator 27.8.1, SVG Export Plug-In . SVG Version: 6.00 Build 0)  -->
<svg version="1.1" id="Layer_1" xmlns="http://www.w3.org/2000/svg" xmlns:xlink="http://www.w3.org/1999/xlink" x="0px" y="0px"
	 viewBox="0 0 1252.4 414.8" style="enable-background:new 0 0 1252.4 414.8;" xml:space="preserve">
<style type="text/css">
	.st0{fill:#FFFFFF;}
	.st1{fill-rule:evenodd;clip-rule:evenodd;fill:#FFFFFF;}
</style>
<g>
	<rect x="733.1" y="149.4" class="st0" width="12.9" height="61.3"/>
	<polygon class="st0" points="758.5,149.4 773.2,149.4 809.7,195.4 809.9,195.4 809.9,149.4 822.2,149.4 822.2,210.7 807.7,210.7 
		771,164.7 770.8,164.7 770.8,210.7 758.5,210.7 	"/>
	<polygon class="st0" points="834.8,149.4 885.7,149.4 885.7,159 847.6,159 847.6,174.5 883.7,174.5 883.7,184.1 847.6,184.1 
		847.6,210.7 834.8,210.7 	"/>
	<path class="st0" d="M890.1,180.1c0-17.2,10.1-32.4,36-32.4c25.9,0,36,15.1,36,32.4c0,17.2-10.1,32.3-36,32.3
		C900.3,212.4,890.1,197.3,890.1,180.1z M948.8,180.1c0-13.5-8.2-22.7-22.7-22.7c-14.4,0-22.6,9.3-22.6,22.7
		c0,13.5,8.2,22.7,22.6,22.7C940.6,202.8,948.8,193.5,948.8,180.1z"/>
	<polygon class="st0" points="988.1,159 965.1,159 965.1,149.4 1023.9,149.4 1023.9,159 1000.9,159 1000.9,210.7 988.1,210.7 	"/>
	<polygon class="st0" points="1030.2,149.4 1083.4,149.4 1083.4,159 1043.1,159 1043.1,174.5 1081.8,174.5 1081.8,184.1 
		1043.1,184.1 1043.1,201.1 1084.1,201.1 1084.1,210.7 1030.2,210.7 	"/>
	<path class="st0" d="M1144.2,172.1c-1.3-9.3-8.9-14.7-19.7-14.7c-11.8,0-20.7,7.9-20.7,23.8c0,12.8,8.8,21.6,21.5,21.6
		c13.4,0,17.9-9.1,18.9-15.5h13.9c-1.8,12.2-9.8,25.1-35,25.1c-22.1,0-32.7-15.1-32.7-32.3c0-17.2,10.1-32.4,34.2-32.4
		c21.1,0,32.1,11.2,33.5,24.4H1144.2z"/>
	<polygon class="st0" points="1168.5,149.4 1181.4,149.4 1181.4,173.3 1219.4,173.3 1219.4,149.4 1232.3,149.4 1232.3,210.7 
		1219.4,210.7 1219.4,182.9 1181.4,182.9 1181.4,210.7 1168.5,210.7 	"/>
	<rect x="686.5" y="128.8" class="st0" width="6.1" height="103.6"/>
	<path class="st1" d="M618.7,109.5c-0.4,3.7,2,6.3,5.2,7.6c4,1.7,9.4,1.5,12.5-0.6c3.9-2.6,8.4-10.2,9.5-14.6c1-3.8,0.1-7.8-2.5-10
		c-5.7-4.9-13.1,0.6-17.2,4.7C622.5,100.4,619.2,103.9,618.7,109.5 M523.4,168.5c9-0.4,14-5.5,19.6-11.9c4.1-4.7,8.1-9.5,5.7-12.4
		c-2.7-3.2-13,7.5-14.9,9.3C529.3,157.7,525.3,162.3,523.4,168.5z M387.5,128c-4-9.6-7.9-17.6-13.3-25c-4.2-5.7-9.8-11.1-16.7-15.4
		c-6.2-3.9-20.7-8.4-26.6-1.4c-5.4,6.3-2.9,12.7,1.5,18c3.8,4.6,9,8.8,13.1,11.4C359,124.2,372.3,126.8,387.5,128z M374.8,142.3
		c1.2,2.6,2.7,6.1,4,8.7c-2.3,4.7-7.3,8-11,11.9c-3.6,3.7-8,7.9-12.6,14.3c-2.7,3.6-5.4,7.4-6.6,12.6c-0.8,3.9-0.2,7.4,2.1,8.7
		c3.6,2,8.3,0.8,11.5-1.6c6.1-4.6,10.6-10.7,14.5-16.9c3.3-5.2,5.2-11.3,7.7-17.6c2.1-5.2,3-10.2,2.3-14.8c-0.3-2.3-2.5-3.7-5.2-4.7
		C379.4,143.1,377,142.2,374.8,142.3z M106,277.8c-2.7,7.7-7.7,16.6-14.1,24.2c-3.8,4.5-12.5,17.7-21.3,24.8
		c-4.6,3.7-9.2,5.7-13.2,4c-6.3-2.8,2.5-14.9,4.6-17.5c7.6-9.9,17.5-17.7,27.1-25.4C95.4,282.7,99.3,280.5,106,277.8z M318,180
		l-5.9-0.5l-5.6,1.6l-5.2,5.2l-7.6,9.6l-9.2,11.6l-10.4,8.8c-4.1,2.8-8.2,5.6-12.4,8.4c-5.3,2.4-10.5,5.1-15.9,7.2
		c-5.6,2.1-11.5,2.4-17.1,1.6c-5.3-0.7-9.1-3.4-11.4-8c-1.6-3.1-1.9-7.1-1.8-11.2c0.2-3.7,0.9-7.2,1.3-10.5c-3.2,2-6.9,4.1-10.1,6.1
		c-5.2,3.5-10.4,6.9-15.6,10.4c-4.9,3.2-9.7,6.5-14,10.4c-3.5,5.8-6.9,11.7-10.4,17.5c-2.7,3.9-5.3,7.7-8,11.6
		c-3.2,4.4-6.4,8.8-9.6,13.2l-9.6,12.4c-13.6,18.4-31.6,34.3-49.4,47.9c-12.3,9.3-27.1,17.8-42.1,21.7c-13.1,3.4-31.2,2.9-27.7-15.7
		c1.9-10,8.5-20,15.1-27.5c18.9-21.3,43.9-37,67.8-52.2c11.5-7.7,23-15.3,34.7-22.7c2.1-1.8,3.5-4.2,5.1-6.4
		c2.4-3.4,5.2-6.1,5.3-9.6c0-1.1-1.3-0.5-2,0c-3.9,2.8-8.3,4.6-12.8,6.4c-6.3,2.5-12.5,3.9-18.7,5.2c-8.1,1.7-15.9,2-23.5,0.4
		c-8.5-1.8-14-7.5-16-16.3c-1.4-6.5-1.1-13.1,0.8-19.5c2.3-7.8,6.2-15,10.7-21.5c5.8-8.5,12.1-17.1,19.4-24.3
		c7.7-7.6,15.7-15.1,24.2-22.3c9.1-7.8,18.8-15.2,28.7-21.9c9.2-6.3,18.8-12,28.7-17.1c11-5.8,22.4-10.8,33.9-15.6
		c15.4-6.4,30.4-11.1,45.1-14.4c6.1-1.4,12-1.6,17.1-0.8c3.3,0.5,4.5,2.1,5.6,3.2c-2.7,4.3-5.3,8.5-8,12.8
		c-3.3,5.2-6.6,10.4-10,15.5c-6.3-0.1-12.5-0.3-18.7-0.4c-6-0.1-13.6,0.6-22.7,2.8c-10.6,2.6-20.4,6.2-28.7,11.2
		c-10.2,6.1-18.5,12-24.3,17.1c-6,5.3-12.2,10.4-17.9,16c-4.9,4.7-9.1,10-13.2,15.2c-4.3,5.5-9.1,10.7-12.8,16.7
		c-3.3,5.4-6.1,11.1-8.4,16.4c-2,4.6-3.8,9.2-4.8,14c-1.3,6.3,1.7,10.3,8,10.8c5.6,0.4,10.6-1.1,15.2-3.2c4.7-2.1,9-5.6,14.2-9.5
		c9.6-7.2,20.2-16.4,26.5-23c3.3-3.5,7.7-7.5,12.3-12.5c3.6-3.9,6.8-8.1,10.4-12c3.6-4,7.9-7.6,11.6-11.4c3.5-2.9,6.5-5.5,9.9-7.7
		c3.9-2.5,7.7-4.1,11.6-4.4c4-0.2,6.2,0.8,7.2,2.4c1.4,2.4,1.2,4.9-1.2,8c-3.8,4.9-7.5,9.8-11.2,14.7c-3.9,5.2-7.6,10.4-11.6,15.6
		c-3.1,4.1-6.5,7.9-9.6,12c-2.6,3.5-4.8,7.2-7.2,10.8c2.6,0.4,5.5-0.6,8.8-2.8c4.8-3.2,9.6-6.3,14.2-8.7c8-11,18.6-22.1,29.4-30.8
		c13.5-10.8,42.8-32.8,57.9-15.2c2.3,2.6,3.2,5.3,3,8c-0.3,7.3-2.3,14.4-3.5,21.6c-0.7,2,3.5,1.2,6.1,1.2
		c2.9,0.6,13.8-9.8,14.3-10.3c5.5-6,12.5-13.2,17.4-18c-2.6-1.3-5.5-2.7-8-3.9c-5.9-2.9-12.5-4.6-18.1-8.1
		c-6.8-4.2-12.8-8.9-17.4-14.9c-3.2-4-5.7-8.6-7.3-14c-2.8-9.2-0.3-16.7,5.1-21.8c4.8-4.5,11.9-7.1,19.7-7.3
		c7.7-0.2,15.4,2.3,22.6,5.1c11,4.3,20.1,10.6,27.7,18.4c6.3,6.4,11.7,14,16.5,22.3c3.2,5.6,5.8,11.9,8.6,17.8
		c13.9-0.1,26.1-1.1,39.8-0.5c4.4,0.2,9.5,2.9,13.2,7.7c1.8,3.6,3,7.2,3.6,10.8c0.2,0.6,1,1,2.4,0.2c2-3,3.9-6.1,7-9.3
		c4.4-4.8,8.8-8,12.5-9.6c3.3-1.4,6.7-1.8,9.3-0.5c2.2,1.1,3.8,3.7,2.9,6.2c-1.5,3.9-4.2,7-5.3,10.6c-1.3,4.3-2,8.6-2.4,12.9
		c-0.3,3.8-0.7,7.7,1.2,10.8c1.4,2.2,2.9,3,6.3,3.5c5-4.7,8.9-9.4,13.6-14.1c6-6,12.6-11.7,20-16.8c6-4.1,12.3-7.2,18.3-10.5
		c5.8-3.2,16.7-7.7,22.8-2.5c2.4,2.1,3,6.7,0.2,13.3c-4.3,10.3-12.7,19.7-22.7,27.5c-10.6,8.3-22.9,14.8-33.9,18.6c-0.7,1-1.3,2-2,3
		c-1.3,3.5-1.4,6.3-0.8,8.5c1.2,4,3,5.6,5.5,6.3c4.1,1,8.4,0.4,11.8-1c10.2-4.3,19.9-12.7,28-20c6.8-6.1,13-13.4,19.4-19.9
		c4.1-4.2,8.4-10.2,12.4-14.7c3.5-3.9,7-7.7,11-11.3c3.1-2.7,6.3-5.3,9.8-7.5c2.5-1.6,5.2-3.1,8-4c3.2-1,6.6-1.2,9.3,0.2
		c2.8,1.5,4.2,5.7,1.5,10.5c-2.4,4.4-6.3,7.7-9.5,11.5c-4.3,5.5-8.8,10.9-13,16.5c-3.5,4.6-6.9,9.2-10,14c-4.6,7.1-8.9,14.4-13,21.8
		c-4,7.1-7.5,14.4-11.3,21.5c-3.7,7-7.2,14.1-11,21c-4.4,8.2-8.9,16.2-13.5,24.3c-3.7,6.6-7.5,13.2-11.5,19.5
		c-5,7.8-10.2,15.5-15.5,23c-4.3,6-8.6,12-13.3,17.8c-3.9,4.8-7.9,9.6-12.3,14c-3.4,3.5-6.8,7.2-11,9.8c-4,2.5-8.5,5-13.3,5.3
		c-3.8,0.2-8-1.4-10.8-4c-2.3-2.2-3.1-5.9-3-9c0.1-3.7,1.8-7.4,3.8-10.5c3.5-5.5,8.3-10,12.5-15c4.7-5.6,9.6-11.1,14.3-16.8
		c4.3-5.3,8.3-10.7,12.5-16c5.5-7,11.1-13.9,16.5-21c3.9-5.1,7.5-10.4,11.3-15.5c5.2-7.1,10.7-14.1,15.8-21.3
		c3.8-5.3,7.3-10.8,11-16.3c2.1-3.9,4.2-7.9,6.4-11.8c0.8-2.5,1.3-6.2-1.6-2.5c-1.4,1.8-3.3,3.2-5,4.8c-7.1,5.6-14.2,11.1-21.5,16.2
		c-6.1,4.2-12.4,8.1-19,11.6c-9.2,4.8-19.3,8.4-28.6,2c-6.2-4.3-8.1-11.9-7.5-19.7c0.6-7.8,3.5-15.9,6.6-21.4
		c-5.3,3.2-11.1,4.5-17.4,2.9c-4.7-1.2-7.5-5.8-9.6-11.3c-0.7-0.8-1.8-0.6-3.1,0.5c-10.6,16.6-21.6,37.3-34,52
		c-10.5,0-20.9,0-31.4,0c8.4-14,17.5-28.9,25.9-42.9c4.8-8.5,9.4-16.7,14.1-25.2c1.9-3.5,3.1-7,3.6-10.5c0.7-5.2-0.3-8.3-2.6-10.1
		c-2.3-1.7-5.8-3.1-9.1-3.4c-4-0.4-7.5,0.1-11.6,0.2c-0.1,5.1-1,10.2-2.2,15.4c-1.4,6.1-3.3,11.5-5.6,16.4
		c-3.5,7.1-6.3,14.7-10.8,21.6c-4,6.2-8.6,11.7-13.4,16.6c-5.3,5.5-11.3,9.8-17.6,13.6c-4.9,3-10.5,5.2-16.6,6.8
		c-6.4,1.1-12.2,0.6-17.3-1.4c-4.5-1.8-8.8-5.9-11.2-11.3c-1.9-4.3-2-9.2-2.1-13.8c-0.1-5.4,1.6-10.8,3.7-16.2
		C314.6,186.8,316.3,183.4,318,180z M285.6,180.6c-1.3-1.9-2.1-4-2.4-6.5c-0.4-3.9,2.3-7,6.3-9.6c3.2-2.2,7.1-3.8,10.7-6.1
		c1.5-1,2.2-3.4,0.9-6.1c-0.7-1.5-2.6-1.9-4.8-0.7c-11.3,6.3-23.7,18.8-31,29.5c-3.4,5-6.5,9.7-8.7,14.2c-2,3.9-2.4,7.1-0.2,9.8
		c1.3,1.6,4,2.6,6.8,1.1c4.9-2.6,8.3-6.7,12.2-10.3C280.3,191.3,284,186.2,285.6,180.6z"/>
</g>
</svg>
