<?xml version="1.0" encoding="utf-8"?>
<!-- Generator: Adobe Illustrator 27.8.1, SVG Export Plug-In . SVG Version: 6.00 Build 0)  -->
<svg version="1.1" id="Layer_1" xmlns="http://www.w3.org/2000/svg" xmlns:xlink="http://www.w3.org/1999/xlink" x="0px" y="0px"
	 viewBox="0 0 457.8 129.2" style="enable-background:new 0 0 457.8 129.2;" xml:space="preserve">
<style type="text/css">
	.st0{fill:#FFFFFF;}
	.st1{fill-rule:evenodd;clip-rule:evenodd;fill:#FFFFFF;}
	.st2{fill-rule:evenodd;clip-rule:evenodd;}
	.st3{fill:url(#SVGID_1_);}
	.st4{fill:url(#SVGID_00000174564532435885240020000001658563605427685041_);}
	.st5{fill:url(#SVGID_00000107589886612894692350000012586245970551298232_);}
	.st6{fill:#64B7E6;}
	.st7{fill:url(#SVGID_00000040544031515702600670000004403961044897405354_);}
	.st8{fill:url(#SVGID_00000159435192325457912250000001483494912525005205_);}
	.st9{fill:#0A76BC;}
	.st10{fill:#4082C4;}
	.st11{fill:#0B6AA8;}
	.st12{fill:url(#SVGID_00000130606276432969142300000012531041216520531379_);}
	.st13{fill:url(#SVGID_00000137093337821411108650000004279398056235384722_);}
	.st14{fill:url(#SVGID_00000010291005159866227560000010769051713815632035_);}
	.st15{fill:url(#SVGID_00000108277956169978678650000013856886561555337116_);}
	.st16{fill:url(#SVGID_00000132052035853117304990000007877939587125567403_);}
	.st17{fill:#7BBEE9;}
	.st18{fill:#0C70AE;}
	.st19{fill:url(#SVGID_00000077286397631711544100000014511671418734917810_);}
	.st20{fill:url(#SVGID_00000072995178084966298280000011492353770955089831_);}
	.st21{fill:url(#SVGID_00000140701963539050380740000009150285263793951409_);}
	.st22{fill:url(#SVGID_00000112599988906406666300000005021626889271797637_);}
	.st23{fill:url(#SVGID_00000075123539098749015380000015908762405933140111_);}
	.st24{fill:url(#SVGID_00000139991657462539326240000016235117447639352232_);}
	.st25{fill:url(#SVGID_00000116934839900454335160000010120568281261225125_);}
	.st26{fill:url(#SVGID_00000142170918007132151280000010597990113612012936_);}
	.st27{fill:#B31E56;}
	.st28{fill:url(#SVGID_00000104688707725980653590000002114396422772409993_);}
	.st29{fill:url(#SVGID_00000181800167640116755360000001226217646110683791_);}
	.st30{fill:url(#SVGID_00000134963844320485557530000012720866287807250108_);}
	.st31{fill:url(#SVGID_00000026858095070598633150000006401411362700129412_);}
	.st32{fill:url(#SVGID_00000073721269315749673530000001538676699276404370_);}
	.st33{fill:url(#SVGID_00000020395012876431676900000009078751690146556835_);}
	.st34{fill:url(#SVGID_00000003805974402490615140000013626661600484333203_);}
	.st35{fill:url(#SVGID_00000137090709237012580530000016563085940514439096_);}
	.st36{fill:url(#SVGID_00000072244094690219266530000018341531377327352233_);}
	.st37{fill:url(#SVGID_00000102541129782066023460000010971446848091376270_);}
	.st38{fill:url(#SVGID_00000088831489263109439670000008758711220588404141_);}
	.st39{fill:url(#SVGID_00000102513579889335303440000003877421042446766760_);}
	.st40{fill:url(#SVGID_00000094597805495100662580000010062037469338854044_);}
	.st41{fill:url(#SVGID_00000054956715614150389930000017657455656294541710_);}
	.st42{fill:url(#SVGID_00000152950907544217475240000018404132648663123088_);}
	.st43{fill:url(#SVGID_00000156572407094210175490000002375477371877026963_);}
	.st44{fill:url(#SVGID_00000016764702995375869800000013145048153187911561_);}
	.st45{fill:url(#SVGID_00000142164628788848935410000012688749868333044353_);}
	.st46{fill:url(#SVGID_00000087375904448467633810000000396390642170310814_);}
	.st47{fill:url(#SVGID_00000041260483675668473330000003007310238778382499_);}
	.st48{fill:url(#SVGID_00000129187145573570395670000009971501116774551936_);}
	.st49{fill:url(#SVGID_00000130609131953089772990000009629397970388116386_);}
	.st50{fill:url(#SVGID_00000012437464771816157460000015287780105207607210_);}
	.st51{fill:url(#SVGID_00000151541989679193884170000005056612462863600020_);}
	.st52{fill:#A5BE3E;}
	.st53{fill:#292522;}
</style>
<g>
	
		<radialGradient id="SVGID_1_" cx="-560.8374" cy="565.27" r="1.55" gradientTransform="matrix(104.1151 0 0 -104.1151 58509.707 58922.4336)" gradientUnits="userSpaceOnUse">
		<stop  offset="0" style="stop-color:#C11F62"/>
		<stop  offset="5.618000e-03" style="stop-color:#C11F62"/>
		<stop  offset="0.9944" style="stop-color:#B31E56"/>
		<stop  offset="1" style="stop-color:#B31E56"/>
	</radialGradient>
	<path class="st3" d="M91.3,66c-1.8,0-2.4-1-2.5-1.9c-0.1-0.8,0.1-1.6,0.5-2.6c-3.6-1-7.6-2.1-12-3.4c-1.1,0.7-2.4,1.3-3.2,1.1
		c-0.3,0-0.4-0.3,0.2-1.2c0.1-0.1,0.3-0.4,0.5-0.8c-3.1-1-6.4-2.1-9.9-3.3c-6.6,6.1-14.3,12.2-18.4,12.2c-1.7,0-3.2-1.1-3.2-3.8
		c0-1.8,2.3-7.5,7-14c-3.5-1.4-7-3-10.6-4.6c-8.2,8.7-12,16.6-12,22.2c0,7.1,6.7,8,10.2,8c9.2,0,13.3-4.2,15.1-4.2
		c1.8,0-1.1,4.3-3.8,6C26.2,89.6,7.4,101.5,7.4,112.5c0,5,4.6,5.3,8.1,5.3s20.6-2.2,46.8-42.8c1.2-1.9,3.3-3,5.2-4.4
		c1.9-1.4,8.2-6,9.4-6c1.2,0,1.2,0.5,1.1,1.1c-0.1,0.8-0.9,2.6-0.9,4.7c0,2.2,2.2,4.7,5.7,4.7c8,0,13.8-5.7,18.5-10.8
		C99.8,64,98,63.6,96,63.2C94.2,64.8,92.3,66,91.3,66z M20.7,110.2c-1.6,0-2.3-0.9-2.3-2.3c0-4.9,17-17.7,19-17.7
		c0.5,0,0.7,0.2,0.7,0.6C38.1,94.6,25.7,110.2,20.7,110.2z M111.2,66.5c0,3.4,1.1,8.3,9.1,8.3c4.4,0,8.4-2.4,11.9-5.8
		c-6.7-0.5-13.7-1.4-21-2.8L111.2,66.5z M169.6,68c0,2.9,0.7,7.5,5.6,7.5c9.6,0,21.6-12.2,22.1-12.3c0.4-0.1,0.5,0.1,0.5,0.5
		c0,0.4-1.4,5.3-15.4,22.3c-14.1,17.1-20.9,23.8-20.9,27.4c0,3.7,3.1,5,4.6,5c1.4,0,7.6-0.3,22.2-24.1c10.4-17,15.4-27.4,20.9-35.8
		C199.2,62.9,186.6,65.7,169.6,68z M140.8,69.4c-1,1.6-1.9,3.3-2.5,4.3c0,0-0.7,1.3,0.4,1.3H149c0.4,0,0.9-0.8,1.3-1.3
		c0.1-0.2,1.2-2,2.6-4.1C148.9,69.8,144.9,69.6,140.8,69.4z"/>
	
		<radialGradient id="SVGID_00000100367921257880854210000009810016862311200955_" cx="-554.1427" cy="566.1585" r="1.5507" gradientTransform="matrix(44.2236 0 0 -44.2236 24640.2832 25085.5488)" gradientUnits="userSpaceOnUse">
		<stop  offset="0" style="stop-color:#64B7E6"/>
		<stop  offset="6.474800e-02" style="stop-color:#64B7E6"/>
		<stop  offset="0.2703" style="stop-color:#5AACDF"/>
		<stop  offset="0.6604" style="stop-color:#3D90CD"/>
		<stop  offset="1" style="stop-color:#1778BD"/>
	</radialGradient>
	<path style="fill:url(#SVGID_00000100367921257880854210000009810016862311200955_);" d="M219,33.7c0-2.4,4.9-7.3,7-7.3
		c1.6,0,2.6,1.7,2.6,3.2c0,4.1-4.6,7.1-6,7.1C221.7,36.7,219,35.5,219,33.7z M82.1,54.1c3.6,0.7,7.2,1.3,10.8,1.8
		c-1.6,1.9-2.9,3.9-3.6,5.6c-3.6-1-7.6-2.1-12-3.4c1.4-0.9,2.7-2,3.2-2.5C81.1,55.1,81.6,54.6,82.1,54.1z M222.4,40.9
		c0,1-1.1,3.2-5.5,7.5c-2.3,2.3-5.6,6.7-7.8,10.1c-10,4.4-22.6,7.2-39.6,9.5c0-0.4,0-0.7,0-1c0.1-2.1,1-3.7,1-4.4
		c0-0.3-0.1-0.7-0.5-0.7c-0.4,0-2.1,0.9-3.9,0.9c-6.1,0-4.1-4.2-5.7-4.2c-0.4,0-0.9,0.3-1.2,0.7c-0.2,0.3-3.9,6-6.5,10
		c-3.9,0.1-7.9,0.2-12.1,0c2.8-4.3,6.8-10.4,9.3-15.3c7.5-1.5,15-3.6,22.4-6.3c0,0.3,0,0.7,0,1.1c0,3.6,1.1,5.4,2.1,5.4
		c0.9,0,2.1-0.9,3.3-2.3c10.1-12.1,18.3-13.5,21.2-13.5c2,0,2.8,1.7,2.8,3.2c0,6-10.6,14.7-17.3,16.7c-1.8,0.5-2.8,1.7-2.8,2.9
		c0,1.7,0.8,3.3,3.5,3.3c7.1,0,15.1-9.6,21.6-16.7c6.6-7.1,11.8-9.7,13.4-9.7C221.6,38.4,222.4,39.6,222.4,40.9z M185.3,53.4
		c0,0.5,0.4,0.8,0.9,0.8c2.1,0,8.7-6,8.7-8.5c0-0.4-0.4-0.6-0.7-0.6C191.9,45.1,185.3,51.4,185.3,53.4z M101.6,56.9
		c2.3,0.2,4.7,0.4,7.1,0.5c-2.2,1.4-4.6,4.1-7.3,7C99.8,64,98,63.6,96,63.2C98.4,61.2,100.7,58.6,101.6,56.9z M141,55.7
		c-2.1,4.6-5.1,9.6-8.8,13.3c-6.7-0.5-13.7-1.4-21-2.8c0.1-3.1,1.3-7.6,1.5-8.7c3.9,0.1,7.9,0,11.9-0.2c-1.4,2.2-2.5,4.4-2.4,6
		c0,1.3,0.9,2,2.2,2c4.3,0,7.8-4.2,10.3-8.8C136.9,56.3,138.9,56,141,55.7z M41.3,42c3.4,1.3,7,2.6,10.8,3.9
		c-0.7,0.8-1.3,1.7-1.9,2.5c-3.5-1.4-7-3-10.6-4.6C40.1,43.2,40.7,42.6,41.3,42z M77.8,53.2c-1.3,1.7-2.4,3.3-3,4.1
		c-3.1-1-6.4-2.1-9.9-3.3c1.2-1.1,2.3-2.1,3.4-3.2C71.4,51.7,74.6,52.4,77.8,53.2z"/>
	
		<radialGradient id="SVGID_00000111911417438137041650000018404180094815111100_" cx="-556.5508" cy="565.8237" r="1.5517" gradientTransform="matrix(56.1051 0 0 -56.1051 31364.5254 31799.2734)" gradientUnits="userSpaceOnUse">
		<stop  offset="0" style="stop-color:#A5BE3E"/>
		<stop  offset="3.956800e-02" style="stop-color:#A5BE3E"/>
		<stop  offset="0.3209" style="stop-color:#8CB340"/>
		<stop  offset="0.6352" style="stop-color:#74AA42"/>
		<stop  offset="0.8309" style="stop-color:#6BA743"/>
		<stop  offset="1" style="stop-color:#6BA743"/>
	</radialGradient>
	<path style="fill:url(#SVGID_00000111911417438137041650000018404180094815111100_);" d="M87.8,39.6c0-0.7-1-1.3-2.2-1.3
		c-1.1,0-5.4,0.7-8.8,4c-1.2,1.2-4.5,4.6-8.6,8.5c3.1,0.8,6.3,1.6,9.5,2.3c2.9-4,6.6-9,7.6-10.2C87,41.2,87.8,40.3,87.8,39.6z
		 M97,24.5c0.4,0.1,0.5,0,0.7-0.3c0.2-0.4,5.9-10.5,5.9-10.5c0.1-0.1,0-0.3-0.1-0.3c-0.1,0-1.1-0.4-3.2-0.4
		c-8.5,0-27.1,4.2-45.7,17.8c-5.2,3.8-9.6,7.6-13.3,11.2c3.4,1.3,7,2.6,10.8,3.9c2-2.6,4.4-5.2,7.1-7.7
		c10.5-9.7,22.8-14.5,30.3-14.5C92.6,23.7,96.4,24.4,97,24.5z M173.4,38.2c-2.8,0-8.4,6.8-9.4,6.8c-0.8,0-1.8-3.1-2.7-4.4
		c-1.3-1.8-3.2-2.2-8.4-2.2c-2.6,0-4.1,0.2-6.5,0.2c-2.7,0-3.3-0.1-3.8-1.3c-0.5-1.2-8.3-21.8-26.1-21.8c-4,0-8.1,1.7-8.1,7.1
		s3.2,12.7,16.7,17.2c0.3,0.1,0.7,0.1,0.7,0.4c0,0.6-6.3,9.2-12.1,10.2c-0.7,0.1-1.1-0.5-1.1-1.1c0-0.6,0.9-2.4,0.9-5.1
		c0-2.7-0.8-6.6-6-6.6c-5,0-10.7,2.4-25.2,16.4c3.6,0.7,7.2,1.3,10.8,1.8C97.4,50.4,104.3,45,106,45c1.1,0,1.5,0.4,1.6,0.9
		c0.2,1.9-2.6,3.3-4.3,4.5c-2,1.4-2.7,1.9-2.5,3.1c0.1,0.7,1.1,0.8,1.2,2c0,0.3-0.1,0.8-0.4,1.3c2.3,0.2,4.7,0.4,7.1,0.5
		c1-0.6,2-1,3-1c0.8,0,1.1,0.4,1.1,0.9l0,0.3c3.9,0.1,7.9,0,11.9-0.2c2.1-3.2,4.9-6.4,6.3-7.2c2.3-1.4,3.6-2.8,3.5-3.6
		c0-0.8-1.7-1.8-1.8-2.6c-0.2-0.9,0.5-1.4,2.1-1c2.3,0.6,4,0.7,4,2.3c0,1.4-1.4,6.5-4,11.2c2.1-0.2,4.1-0.5,6.2-0.8
		c2-4.4,3.1-8.4,3.1-10.7c0-0.5,0.2-1.1,1-1.1c0.9,0,3.4,0.3,4.5,0.4c1.2,0.1,2.8,1.1,2.8,3.3c0,1.4-0.9,3.7-2.3,6.5
		c7.5-1.5,15-3.6,22.4-6.3c0.3-4.7,2.6-6.6,2.6-8.2C175.1,38.6,174.6,38.2,173.4,38.2z M136.2,38.5c-3.9,0-19-5.9-19-13.3
		c0-2.4,1.6-3.7,3.9-3.7c10.8,0,16.2,15.3,16.2,16.3C137.3,38.3,137,38.5,136.2,38.5z"/>
	<path class="st6" d="M80.2,55.2c-0.8,0.8-2.2,1.9-3.5,2.7c0.4,0.1,0.9,0.3,1.3,0.4c1.6-1.1,2.9-2.3,2.9-2.3
		c0.6-0.6,1.2-1.2,1.8-1.8c-0.4-0.1-0.8-0.2-1.2-0.2C81,54.4,80.6,54.8,80.2,55.2z"/>
	
		<linearGradient id="SVGID_00000074425831165016835880000009598523216899452827_" gradientUnits="userSpaceOnUse" x1="-495.1596" y1="638.2042" x2="-493.6082" y2="638.2042" gradientTransform="matrix(3.9306 3.2981 3.2981 -3.9306 1.3882 4205.9033)">
		<stop  offset="0" style="stop-color:#4082C4"/>
		<stop  offset="0.3058" style="stop-color:#4D94D0"/>
		<stop  offset="0.758" style="stop-color:#5EADE0"/>
		<stop  offset="1" style="stop-color:#64B7E6"/>
	</linearGradient>
	<path style="fill:url(#SVGID_00000074425831165016835880000009598523216899452827_);" d="M170.1,61.4c-0.2,0-0.5,0.1-1,0.3
		c-0.7,0.2-1.8,0.6-2.9,0.6c-3.6,0-4-1.5-4.4-2.7c-0.2-0.7-0.4-1.5-1.4-1.5c-0.6,0-1.2,0.4-1.6,1l-2.2,3.5c-1.3,2-3.1,4.7-4.5,6.9
		c0.4,0,0.8,0,1.3,0c1.2-1.8,2.6-4,4.1-6.3l2.2-3.4c0.2-0.3,0.5-0.5,0.8-0.5c0.1,0,0.2,0.1,0.4,0.7c0.3,1.3,0.9,3.4,5.3,3.4
		c1.2,0,2.4-0.4,3.2-0.7c0.2-0.1,0.5-0.2,0.6-0.2l0,0.2c0,0.2-0.1,0.6-0.3,1c-0.3,0.8-0.6,2-0.7,3.3c0,0.3,0,0.7,0,1.1
		c0.3,0,0.7-0.1,1-0.1c0-0.3,0-0.6,0-0.9c0.1-1.3,0.4-2.3,0.7-3.1c0.2-0.6,0.3-0.9,0.3-1.3C171.1,61.6,170.4,61.4,170.1,61.4z"/>
	
		<linearGradient id="SVGID_00000127020254316360399910000010730195327703507128_" gradientUnits="userSpaceOnUse" x1="-641.1232" y1="507.5168" x2="-639.572" y2="507.5168" gradientTransform="matrix(-4.6577 -2.7695 -2.7695 4.6577 -1448.4351 -4076.7688)">
		<stop  offset="0" style="stop-color:#8CC5EB"/>
		<stop  offset="0.1581" style="stop-color:#84BDE7"/>
		<stop  offset="0.4134" style="stop-color:#6EABDC"/>
		<stop  offset="0.7321" style="stop-color:#4A8FCB"/>
		<stop  offset="1" style="stop-color:#1778BD"/>
	</linearGradient>
	<path style="fill:url(#SVGID_00000127020254316360399910000010730195327703507128_);" d="M134.2,56.5c-1,1.9-2.3,3.6-3.7,5.1
		c-2,2.1-4,3.1-6.1,3.1c-0.6,0-1.7-0.2-1.7-1.5c0-1.5,1.1-3.8,2.5-6c-0.4,0-0.8,0.1-1.3,0.1c-1.4,2.2-2.3,4.4-2.3,6
		c0.1,1.5,1.1,2.5,2.8,2.5c2.3,0,4.6-1.2,6.8-3.4c1.6-1.6,3-3.8,4.2-5.9C135,56.5,134.6,56.5,134.2,56.5z"/>
	<path class="st9" d="M88.8,61.4c0.3,0.1,0.7,0.2,1,0.3c0.6-1.6,1.9-3.5,3.6-5.7c-0.4,0-0.8-0.1-1.2-0.2
		C90.9,57.6,89.5,59.5,88.8,61.4z"/>
	<path class="st6" d="M64.4,53.8c0.4,0.1,0.7,0.3,1.1,0.4c1.1-1.1,2.3-2.1,3.4-3.2c-0.4-0.1-0.8-0.2-1.2-0.3
		C66.6,51.7,65.5,52.7,64.4,53.8z"/>
	<path class="st6" d="M101.1,56.8c-0.4,0.6-1,1.5-1.9,2.6C98,60.7,96.7,62,95.4,63c0.4,0.1,0.8,0.2,1.2,0.3c1.2-1.1,2.4-2.2,3.3-3.2
		c1.1-1.3,1.8-2.3,2.2-3.2C101.8,56.9,101.5,56.9,101.1,56.8z"/>
	<path class="st10" d="M102.1,62.8c-0.4,0.5-0.9,0.9-1.3,1.4c0.4,0.1,0.8,0.2,1.2,0.2c0.3-0.3,0.6-0.6,0.9-1
		c2.5-2.7,4.7-5.1,6.8-6.1c-0.6,0-1.2-0.1-1.8-0.1C106.1,58.6,104.2,60.6,102.1,62.8z"/>
	<path class="st11" d="M49.7,48.2c0.3,0.1,0.7,0.3,1,0.4c0.6-0.8,1.2-1.7,1.9-2.5c-0.4-0.1-0.7-0.2-1-0.4
		C50.9,46.5,50.3,47.3,49.7,48.2z"/>
	
		<linearGradient id="SVGID_00000001645286254784594910000013740228427547041427_" gradientUnits="userSpaceOnUse" x1="-526.9499" y1="569.2454" x2="-525.3995" y2="569.2454" gradientTransform="matrix(13.6113 0 0 -13.6113 7353.542 7800.3965)">
		<stop  offset="0" style="stop-color:#0B6AA8"/>
		<stop  offset="1" style="stop-color:#00649F"/>
	</linearGradient>
	<path style="fill:url(#SVGID_00000001645286254784594910000013740228427547041427_);" d="M182.1,62c0-2.2,0.9-1.9,2.4-2.4
		c6.6-2,17.7-10.7,17.7-17.2h-1c0,4.3-10.6,14.3-16.9,16.2c-2,0.6-3.2,1.2-3.2,3.4H182.1z"/>
	
		<linearGradient id="SVGID_00000092427319617720627750000013478768314701171883_" gradientUnits="userSpaceOnUse" x1="-706.3578" y1="566.2791" x2="-704.8066" y2="566.2791" gradientTransform="matrix(-3.7415 0.4796 0.4796 3.7415 -2734.6917 -1729.4777)">
		<stop  offset="0" style="stop-color:#64B7E6"/>
		<stop  offset="0.1814" style="stop-color:#5EB0E2"/>
		<stop  offset="0.4743" style="stop-color:#4C9ED6"/>
		<stop  offset="0.8401" style="stop-color:#2D84C5"/>
		<stop  offset="1" style="stop-color:#1778BD"/>
	</linearGradient>
	<path style="fill:url(#SVGID_00000092427319617720627750000013478768314701171883_);" d="M181.4,47.2c-1.3,1.3-2.7,2.8-4.1,4.5
		c-1.1,1.3-2.2,2.1-2.9,2.1c-0.5,0-1.6-1.5-1.6-4.8c0-0.4,0-0.9,0.1-1.3c-0.3,0.1-0.7,0.3-1,0.4c0,0.3,0,0.6,0,0.9
		c0,4,1.3,5.9,2.6,5.9c1.4,0,2.9-1.5,3.7-2.5c1.3-1.5,2.5-2.9,3.8-4.1L181.4,47.2z"/>
	
		<linearGradient id="SVGID_00000104671560417410670090000014137760849973567666_" gradientUnits="userSpaceOnUse" x1="-338.6416" y1="611.4197" x2="-337.0911" y2="611.4197" gradientTransform="matrix(2.3063 0.1922 0.1922 -2.3063 859.7097 1519.0002)">
		<stop  offset="0" style="stop-color:#64B7E6"/>
		<stop  offset="0.1428" style="stop-color:#5FB0DF"/>
		<stop  offset="0.3734" style="stop-color:#519ECF"/>
		<stop  offset="0.6632" style="stop-color:#3983B9"/>
		<stop  offset="0.9978" style="stop-color:#00659F"/>
		<stop  offset="1" style="stop-color:#00649F"/>
	</linearGradient>
	<path style="fill:url(#SVGID_00000104671560417410670090000014137760849973567666_);" d="M181.9,48.3c8.5-8.4,15-8.9,17-8.9
		c2.2,0,2.3,0.9,2.3,3.1h1c0-2.2-1-4.1-3.3-4.1c-2.6,0-9.1,0.8-17.5,9L181.9,48.3z"/>
	
		<linearGradient id="SVGID_00000124860002183578338420000018170854297689196730_" gradientUnits="userSpaceOnUse" x1="-717.7628" y1="321.774" x2="-716.2124" y2="321.774" gradientTransform="matrix(-1.165 -1.4561 -1.4561 1.165 -176.7204 -1369.3477)">
		<stop  offset="0" style="stop-color:#49A2D0"/>
		<stop  offset="0.1782" style="stop-color:#449CCC"/>
		<stop  offset="0.4659" style="stop-color:#378CC0"/>
		<stop  offset="0.8253" style="stop-color:#1F75B0"/>
		<stop  offset="1" style="stop-color:#0B6AA8"/>
	</linearGradient>
	<path style="fill:url(#SVGID_00000124860002183578338420000018170854297689196730_);" d="M195.4,45.7c0-0.7-0.7-1.1-1.3-1.1
		c-2.4,0-9.3,6.5-9.3,8.8c0,0.8,0.7,1.3,1.4,1.3C188.6,54.7,195.4,48.5,195.4,45.7z M185.8,53.4c0-1.7,6.4-7.8,8.3-7.8l0.2,0.1
		c0,2.2-6.3,7.9-8.1,7.9C186,53.7,185.8,53.6,185.8,53.4z"/>
	
		<linearGradient id="SVGID_00000143616214713370784370000005125934902832701348_" gradientUnits="userSpaceOnUse" x1="-312.2764" y1="710.1235" x2="-310.7257" y2="710.1235" gradientTransform="matrix(1.7273 0.7197 0.7197 -1.7273 251.041 1482.2588)">
		<stop  offset="0" style="stop-color:#64B7E6"/>
		<stop  offset="0.1334" style="stop-color:#60AFDE"/>
		<stop  offset="0.3489" style="stop-color:#529DCD"/>
		<stop  offset="0.6195" style="stop-color:#3B82B4"/>
		<stop  offset="0.9319" style="stop-color:#116399"/>
		<stop  offset="1" style="stop-color:#005C93"/>
	</linearGradient>
	<path style="fill:url(#SVGID_00000143616214713370784370000005125934902832701348_);" d="M226,25.9c-2.5,0-7.5,5.2-7.5,7.8
		c0,2.1,2.9,3.5,4.1,3.5c1.6,0,6.5-3.2,6.5-7.7C229.2,27.8,227.9,25.9,226,25.9z M222.6,36.2c-0.8,0-3.1-1.1-3.1-2.5
		c0-2,4.6-6.8,6.5-6.8c1.2,0,2.1,1.4,2.1,2.7C228.1,33.4,223.8,36.2,222.6,36.2z"/>
	<path class="st17" d="M140.2,69.4c0.4,0,0.8,0,1.2,0c2.9-4.4,6.9-10.6,9.3-15.5c-0.4,0.1-0.9,0.2-1.3,0.3
		C146.8,59.2,142.8,65.4,140.2,69.4z"/>
	<path class="st6" d="M39,43.5c0.3,0.1,0.6,0.3,1,0.4c0.6-0.6,1.2-1.2,1.8-1.8c-0.3-0.1-0.7-0.3-1-0.4C40.2,42.4,39.6,42.9,39,43.5z
		"/>
	<path class="st18" d="M77.2,53c-1.3,1.8-2.4,3.3-3,4.1c0.3,0.1,0.7,0.2,1,0.3c0.7-0.9,1.8-2.5,3-4.2C77.9,53.2,77.6,53.1,77.2,53z"
		/>
	<path class="st6" d="M112,58.5c-0.4,1.8-1.2,5.1-1.3,7.6c0.3,0.1,0.7,0.1,1,0.2c0-2.4,0.8-5.7,1.3-7.6c0.2-0.7,0.2-1,0.3-1.3
		c-0.4,0-0.7,0-1,0C112.2,57.7,112.1,58.1,112,58.5z"/>
	<path class="st10" d="M140.4,55.8c-1,2.1-2.1,4.3-3.5,6.4c-1.3,2-3.1,4.5-5.4,6.8c0.4,0,0.9,0.1,1.3,0.1c3.7-3.8,6.7-8.8,8.8-13.4
		C141.2,55.7,140.8,55.7,140.4,55.8z"/>
	
		<linearGradient id="SVGID_00000016787894031812432570000013303229501316446613_" gradientUnits="userSpaceOnUse" x1="-643.7373" y1="597.2695" x2="-642.1868" y2="597.2695" gradientTransform="matrix(-5.6043 3.1614 3.1614 5.6043 -5277.7134 -1269.0344)">
		<stop  offset="0" style="stop-color:#64B7E6"/>
		<stop  offset="0.1501" style="stop-color:#5FB0E0"/>
		<stop  offset="0.3926" style="stop-color:#519ED1"/>
		<stop  offset="0.6963" style="stop-color:#3884BC"/>
		<stop  offset="1" style="stop-color:#0B6AA8"/>
	</linearGradient>
	<path style="fill:url(#SVGID_00000016787894031812432570000013303229501316446613_);" d="M181.1,62c0,2.2,1.3,3.3,3.4,3.6
		c2.2,0,3.6-0.5,6.1-1.7c4.9-2.6,9.9-8.2,14.5-13.2l1.9-2.3c6.6-7.1,12.8-9.6,12.8-9.6v-1c-2.2,0-7,2.7-13.6,9.9l-2,2.2
		c-6.1,6.7-13,14.6-19.2,14.6c-2.4,0-2.9-2.6-2.9-2.6H181.1z"/>
	
		<linearGradient id="SVGID_00000163052734827270682190000005782282708468211878_" gradientUnits="userSpaceOnUse" x1="-348.6175" y1="991.7118" x2="-347.0663" y2="991.7118" gradientTransform="matrix(0.6282 0.9423 0.9423 -0.6282 -503.2134 995.9745)">
		<stop  offset="0" style="stop-color:#64B7E6"/>
		<stop  offset="0.1868" style="stop-color:#539ECE"/>
		<stop  offset="0.5672" style="stop-color:#3177AB"/>
		<stop  offset="0.8495" style="stop-color:#126399"/>
		<stop  offset="1" style="stop-color:#005C93"/>
	</linearGradient>
	<path style="fill:url(#SVGID_00000163052734827270682190000005782282708468211878_);" d="M219.7,38.9c2.2,0,2,1,2,2.1
		c0,0.4-0.3,2.3-5.2,7.1c-2.5,2.4-5.8,7.1-8.2,10.8c0.6-0.3,1.2-0.5,1.7-0.8c2-3,5.1-7.3,7.3-9.4c3.7-3.6,5.5-6.3,5.5-7.8
		c0-1.5-0.8-3.1-3-3.1V38.9z"/>
	
		<linearGradient id="SVGID_00000072261265854574586200000001798109599038004609_" gradientUnits="userSpaceOnUse" x1="-473.7673" y1="575.3242" x2="-472.2162" y2="575.3242" gradientTransform="matrix(5.375 0 0 -5.375 2634.8262 3156.3127)">
		<stop  offset="0" style="stop-color:#B31E56"/>
		<stop  offset="0.2678" style="stop-color:#BE3664"/>
		<stop  offset="0.7445" style="stop-color:#D0567E"/>
		<stop  offset="1" style="stop-color:#D9628A"/>
	</linearGradient>
	<path style="fill:url(#SVGID_00000072261265854574586200000001798109599038004609_);" d="M91.3,65.5c-1.2,0-1.8-0.5-1.9-1.5
		c-0.1-0.7,0.1-1.5,0.5-2.4c-0.3-0.1-0.7-0.2-1-0.3c-0.4,1-0.6,1.9-0.5,2.7c0.1,1.6,1.2,2.5,3,2.4c1.3,0,3.4-1.5,5.3-3.2
		c-0.4-0.1-0.8-0.2-1.2-0.3C93.7,64.5,92.1,65.5,91.3,65.5z"/>
	
		<linearGradient id="SVGID_00000100351780754327731500000017717744408086294676_" gradientUnits="userSpaceOnUse" x1="-403.0934" y1="584.2693" x2="-401.5418" y2="584.2693" gradientTransform="matrix(3.0049 0 0 -3.0049 1284.5396 1814.111)">
		<stop  offset="0" style="stop-color:#A41D51"/>
		<stop  offset="1" style="stop-color:#D14E7D"/>
	</linearGradient>
	<path style="fill:url(#SVGID_00000100351780754327731500000017717744408086294676_);" d="M73.3,59.3c0.1,0.3,0.3,0.4,0.6,0.4
		c1.2,0.2,2.7-0.6,4-1.4c-0.4-0.1-0.9-0.3-1.3-0.4c-0.8,0.5-1.6,0.8-2.2,0.8c0-0.1,0.1-0.2,0.2-0.4c0.1-0.1,0.3-0.4,0.6-0.9
		c-0.3-0.1-0.7-0.2-1-0.3c-0.2,0.3-0.4,0.5-0.4,0.6C73.3,58.4,73.2,58.9,73.3,59.3z"/>
	
		<linearGradient id="SVGID_00000145033172437248745600000009019865387784681626_" gradientUnits="userSpaceOnUse" x1="-463.4338" y1="746.7797" x2="-461.883" y2="746.7797" gradientTransform="matrix(1.2953 1.871 1.871 -1.2953 -769.2258 1933.2593)">
		<stop  offset="0" style="stop-color:#B31E56"/>
		<stop  offset="0.2678" style="stop-color:#BE3664"/>
		<stop  offset="0.7445" style="stop-color:#D0567E"/>
		<stop  offset="1" style="stop-color:#D9628A"/>
	</linearGradient>
	<path style="fill:url(#SVGID_00000145033172437248745600000009019865387784681626_);" d="M37.4,89.6c-1.3,0-6.5,3.7-10.6,7.2
		c-3.3,2.8-8.9,8-8.9,11.1c0,1.8,1,2.9,2.8,2.9c2.3,0,5.6-2.8,8-5.2c4.7-4.7,9.9-12,9.9-14.8c0-0.2,0-0.6-0.3-0.8
		C38.1,89.7,37.8,89.6,37.4,89.6z M37.3,90.7c0,2.2-4.6,9.2-9.5,14c-3.1,3.1-5.7,4.9-7.2,4.9c-1.2,0-1.7-0.6-1.7-1.8
		c0-4.5,16.6-17.2,18.5-17.2l0,0L37.3,90.7L37.3,90.7z"/>
	
		<linearGradient id="SVGID_00000121962456739029481170000002283117113692449684_" gradientUnits="userSpaceOnUse" x1="-513.9711" y1="615.8972" x2="-512.4207" y2="615.8972" gradientTransform="matrix(5.273 4.045 4.045 -5.273 266.5189 5381.2261)">
		<stop  offset="0" style="stop-color:#A41D51"/>
		<stop  offset="0.3066" style="stop-color:#B53862"/>
		<stop  offset="0.758" style="stop-color:#CD567D"/>
		<stop  offset="1" style="stop-color:#D9628A"/>
	</linearGradient>
	<path style="fill:url(#SVGID_00000121962456739029481170000002283117113692449684_);" d="M46.4,66.7c4.3,0,11.5-5.6,19-12.5
		c-0.4-0.1-0.7-0.3-1.1-0.4c-6.5,6-13.9,11.9-17.9,11.9c-1.7,0-2.7-1.2-2.7-3.3c0-1.8,2.4-7.5,6.9-13.8c-0.3-0.1-0.7-0.3-1-0.4
		c-4.6,6.5-7,12.3-7,14.2C42.7,65.6,44.7,66.7,46.4,66.7z"/>
	
		<linearGradient id="SVGID_00000101794730896421525210000016304383316499433601_" gradientUnits="userSpaceOnUse" x1="-492.5346" y1="530.2459" x2="-490.984" y2="530.2459" gradientTransform="matrix(5.0761 -3.0649 -3.0649 -5.0761 4166.9805 1267.4171)">
		<stop  offset="0" style="stop-color:#D9628A"/>
		<stop  offset="0.2678" style="stop-color:#CB4E77"/>
		<stop  offset="0.7445" style="stop-color:#BA2D5E"/>
		<stop  offset="1" style="stop-color:#B31E56"/>
	</linearGradient>
	<path style="fill:url(#SVGID_00000101794730896421525210000016304383316499433601_);" d="M7.9,111.9c0-10.9,17.2-21.4,41.4-36
		l-0.5-1c-24.5,14.8-41.9,26.2-41.9,37H7.9z"/>
	
		<linearGradient id="SVGID_00000065042714732597616150000008874428245264007047_" gradientUnits="userSpaceOnUse" x1="-455.153" y1="763.6833" x2="-453.6026" y2="763.6833" gradientTransform="matrix(1.2351 1.7101 1.7101 -1.2351 -704.2845 1786.5287)">
		<stop  offset="0" style="stop-color:#D9628A"/>
		<stop  offset="0.2678" style="stop-color:#CB4E77"/>
		<stop  offset="0.7445" style="stop-color:#BA2D5E"/>
		<stop  offset="1" style="stop-color:#B31E56"/>
	</linearGradient>
	<path style="fill:url(#SVGID_00000065042714732597616150000008874428245264007047_);" d="M37.3,73.5c-2.2,0-9.4-1-9.4-7.5
		c0-5.1,3.5-12.9,12-22c-0.3-0.1-0.6-0.3-0.9-0.4c-8.6,9.2-12.2,17.1-12.2,22.4c0,5.4,4,8.6,10.5,8.6V73.5z"/>
	<path class="st27" d="M49.3,76.2c2.3-1.4,5-4.9,4.6-6.3c-0.1-0.4-0.5-0.7-1-0.7c-0.7,0-1.7,0.4-2.9,1c-2.3,1.2-6.2,3.2-12.7,3.2v1
		c6.5,0,10.8-2.1,13.2-3.3c1-0.5,1.9-0.9,2.3-0.9l0.1,0.1c0,0.7-1.8,3.5-4.1,5"/>
	
		<linearGradient id="SVGID_00000014598291263862055200000007972500661568124829_" gradientUnits="userSpaceOnUse" x1="-745.1443" y1="464.4915" x2="-743.5941" y2="464.4915" gradientTransform="matrix(-2.2241 -0.9327 -0.9327 2.2241 -1139.5876 -1660.9814)">
		<stop  offset="0" style="stop-color:#A41D51"/>
		<stop  offset="0.3976" style="stop-color:#BA4A6C"/>
		<stop  offset="0.7904" style="stop-color:#CF6B89"/>
		<stop  offset="1" style="stop-color:#D97997"/>
	</linearGradient>
	<path style="fill:url(#SVGID_00000014598291263862055200000007972500661568124829_);" d="M76.6,70.7c0,2.2,2.5,5.1,6.3,5.1
		c8.3,0,14.3-6,19.1-11.2c-0.4-0.1-0.8-0.2-1.2-0.3c-4.6,4.9-10.3,10.5-17.9,10.5c-3.4,0-5.2-1.9-5.2-4.1H76.6z"/>
	
		<linearGradient id="SVGID_00000000189987459953119580000007684527224745343655_" gradientUnits="userSpaceOnUse" x1="-403.7265" y1="678.2574" x2="-402.176" y2="678.2574" gradientTransform="matrix(2.1014 1.1594 1.1594 -2.1014 88.4543 1974.5616)">
		<stop  offset="0" style="stop-color:#D9628A"/>
		<stop  offset="0.3066" style="stop-color:#C34A72"/>
		<stop  offset="0.758" style="stop-color:#AC2A59"/>
		<stop  offset="1" style="stop-color:#A41D51"/>
	</linearGradient>
	<path style="fill:url(#SVGID_00000000189987459953119580000007684527224745343655_);" d="M6.9,111.9c0,6.5,5.8,6.1,8.6,6.1
		c1.9,0,7.2-0.5,15.2-6.1c10.1-7.1,20.9-19.4,32-36.7c0.9-1.4,2.3-2.4,3.8-3.4l1.2-0.8l0.5-0.3c6.3-4.6,8.1-5.5,8.7-5.5
		c0.5-0.1,0.6,0,0.6,0.1l0.7-0.7c-0.3-0.3-0.6-0.4-1.3-0.4c-0.9,0-3.5,1.6-9.3,5.7l-0.5,0.3L66,71c-1.6,1.1-3.1,2.1-4.1,3.7
		C35.8,115.2,18.7,117,15.5,117c-4.5,0-7.6-0.7-7.6-5.1H6.9z"/>
	
		<linearGradient id="SVGID_00000101811342224138739420000016035581405379764865_" gradientUnits="userSpaceOnUse" x1="-690.397" y1="542.1346" x2="-688.8461" y2="542.1346" gradientTransform="matrix(-4.0022 -0.2911 -0.2911 4.0022 -2485.0127 -2299.6079)">
		<stop  offset="0" style="stop-color:#A41D51"/>
		<stop  offset="0.3976" style="stop-color:#BA4A6C"/>
		<stop  offset="0.7904" style="stop-color:#CF6B89"/>
		<stop  offset="1" style="stop-color:#D97997"/>
	</linearGradient>
	<path style="fill:url(#SVGID_00000101811342224138739420000016035581405379764865_);" d="M120,74.3c-5.8,0-8.9-2.6-8.9-7.8v-0.2
		c0-0.1-0.4-0.1-0.7-0.2l0.1,0.4c0,5.8,3.4,8.8,9.7,8.8c4.7,0,8.9-2.6,12.5-6.3c-0.4,0-1-0.1-1.4-0.1
		C128.3,71.9,124.4,74.3,120,74.3z"/>
	
		<linearGradient id="SVGID_00000073714029355348916970000013588383667484957604_" gradientUnits="userSpaceOnUse" x1="-646.0384" y1="450.1664" x2="-644.4874" y2="450.1664" gradientTransform="matrix(-2.425 -2.7924 -2.7924 2.425 -163.1562 -2822.6072)">
		<stop  offset="0" style="stop-color:#A41D51"/>
		<stop  offset="0.3066" style="stop-color:#B53862"/>
		<stop  offset="0.758" style="stop-color:#CD567D"/>
		<stop  offset="1" style="stop-color:#D9628A"/>
	</linearGradient>
	<path style="fill:url(#SVGID_00000073714029355348916970000013588383667484957604_);" d="M149.9,72.6c-0.4,0.5-0.7,0.3-0.8,0.3
		h-10.4h0l0,0.4l0,0.2l1.7-2.5c0.3-0.5,0.6-0.9,1-1.5c-0.4,0-0.8,0-1.2,0c-0.2,0.3-0.4,0.7-0.6,1l-1.7,2.6c-0.1,0.1-0.3,0.5-0.3,0.8
		l0.1,0.5c0.1,0.2,0.4,0.7,1,0.7H149c0.6,0,1.2-0.5,1.7-1.3c0.1-0.2,1.2-1.9,2.8-4.3c-0.4,0-0.8-0.2-1.3-0.2
		C150.9,71.2,150,72.4,149.9,72.6z"/>
	
		<linearGradient id="SVGID_00000003077765709343596440000001330788697435914412_" gradientUnits="userSpaceOnUse" x1="-814.2983" y1="260.2324" x2="-812.7477" y2="260.2324" gradientTransform="matrix(-0.947 -0.947 -0.947 0.947 -350.3691 -942.6539)">
		<stop  offset="0" style="stop-color:#C2346C"/>
		<stop  offset="0.3962" style="stop-color:#C4386F"/>
		<stop  offset="0.8061" style="stop-color:#CC4478"/>
		<stop  offset="1" style="stop-color:#D24C7F"/>
	</linearGradient>
	<path style="fill:url(#SVGID_00000003077765709343596440000001330788697435914412_);" d="M174.1,74.9c0,0-2.1-0.4-2.9-1.3
		c-1.4-1.5-1-3.9-1-5.7c-0.3,0-0.4,0.1-0.4,0.1v0.1c0,2.1-0.5,4.6,1.1,6.2c1,1.1,3.3,1.6,3.3,1.6V74.9z"/>
	
		<linearGradient id="SVGID_00000129181777138367874070000014766917173640470158_" gradientUnits="userSpaceOnUse" x1="-578.3888" y1="370.5338" x2="-576.8395" y2="370.5338" gradientTransform="matrix(-0.4453 -2.4986 -2.4986 0.4453 746.1842 -1540.3062)">
		<stop  offset="0" style="stop-color:#D97997"/>
		<stop  offset="0.3976" style="stop-color:#BE5172"/>
		<stop  offset="0.7904" style="stop-color:#AB2D59"/>
		<stop  offset="1" style="stop-color:#A41D51"/>
	</linearGradient>
	<path style="fill:url(#SVGID_00000129181777138367874070000014766917173640470158_);" d="M77.7,70.7c0-2.2,0.3-2.4,0.6-3.3
		c0.2-0.6,0.3-1,0.3-1.4l0-0.3c0-0.4,0-0.8-0.3-1.1l-0.4,0.3l-0.4,0.4l0.1,0.3L77.5,66c0,0.1-0.1,0.6-0.3,1.1
		c-0.3,0.9-0.6,1.4-0.6,3.6H77.7z"/>
	
		<linearGradient id="SVGID_00000139251775996279616150000003235239366564278160_" gradientUnits="userSpaceOnUse" x1="-536.7972" y1="534.8334" x2="-535.2466" y2="534.8334" gradientTransform="matrix(7.985 -9.8863 -9.8863 -7.985 9752.7305 -943.8201)">
		<stop  offset="0" style="stop-color:#D97997"/>
		<stop  offset="0.3976" style="stop-color:#BE5172"/>
		<stop  offset="0.7904" style="stop-color:#AB2D59"/>
		<stop  offset="1" style="stop-color:#A41D51"/>
	</linearGradient>
	<path style="fill:url(#SVGID_00000139251775996279616150000003235239366564278160_);" d="M162.8,116.1c-0.4-0.7-0.8-1.5-0.8-2.6
		c0-2.5,3.7-6.9,11-15.5c2.8-3.3,6-7,9.7-11.6c5-6.1,8.4-10.6,10.7-13.9l-1.1-0.3c-2.3,3.3-5.6,7.7-10.4,13.5
		c-3.7,4.5-6.9,8.3-9.7,11.6c-7.7,9.1-11.3,13.3-11.3,16.2c0,1.5,0.5,2.6,1.1,3.5L162.8,116.1z"/>
	
		<linearGradient id="SVGID_00000103971229042573979800000007945664569769059466_" gradientUnits="userSpaceOnUse" x1="-317.2718" y1="678.4418" x2="-315.7213" y2="678.4418" gradientTransform="matrix(1.8217 0.6322 0.6322 -1.8217 323.7696 1520.5177)">
		<stop  offset="0" style="stop-color:#D97997"/>
		<stop  offset="0.3976" style="stop-color:#BE5172"/>
		<stop  offset="0.7904" style="stop-color:#AB2D59"/>
		<stop  offset="1" style="stop-color:#A41D51"/>
	</linearGradient>
	<path style="fill:url(#SVGID_00000103971229042573979800000007945664569769059466_);" d="M162.1,116.9c1.1,1.4,2.8,2.1,3.9,2.1
		c5,0,12.8-8.4,22.6-24.3c5.4-8.7,9.5-16,13.1-22.5c3.5-6.2,5.4-9.8,8.2-14c-0.6,0.2-1.1,0.5-1.7,0.8c-2.6,4-4.2,7.2-7.4,12.8
		c-3.6,6.4-7.7,13.7-13.1,22.4c-12.8,20.8-19.1,23.9-21.8,23.9c-0.7,0-2.3-0.5-3.3-1.9L162.1,116.9z"/>
	
		<linearGradient id="SVGID_00000085944025388563870610000015515473416515235518_" gradientUnits="userSpaceOnUse" x1="-531.9752" y1="568.2946" x2="-530.4246" y2="568.2946" gradientTransform="matrix(15.5693 0 0 -15.5693 8456.6191 8917.2529)">
		<stop  offset="0" style="stop-color:#C2346C"/>
		<stop  offset="0.6067" style="stop-color:#AD2459"/>
		<stop  offset="1" style="stop-color:#A41D51"/>
	</linearGradient>
	<path style="fill:url(#SVGID_00000085944025388563870610000015515473416515235518_);" d="M193.5,72.4c4.7-6.9,4.8-8.7,4.8-8.7
		c0-0.2,0-0.6-0.3-0.8c-0.3-0.2-0.6-0.2-0.8-0.2c-0.2,0.1-0.9,0.2-2.1,1.2c-3.5,3-12.3,11.1-21,11.1v1c8.7,0,18.1-8.2,21.6-11.3
		c0.3-0.3,0.9-0.6,1.2-0.8c-0.2,0.7-1,2.9-4.7,8.2L193.5,72.4z"/>
	
		<linearGradient id="SVGID_00000142890379840720492440000013855314700769269438_" gradientUnits="userSpaceOnUse" x1="-279.086" y1="851.1112" x2="-277.5351" y2="851.1112" gradientTransform="matrix(1.0072 0.7914 0.7914 -1.0072 -244.9561 1129.5344)">
		<stop  offset="0" style="stop-color:#6BA743"/>
		<stop  offset="1" style="stop-color:#A5BE3E"/>
	</linearGradient>
	<path style="fill:url(#SVGID_00000142890379840720492440000013855314700769269438_);" d="M149.7,43.8l-0.5-0.1
		c-1.3-0.1-3.2-0.3-4-0.3c-1,0-1.6,0.6-1.6,1.6c0,2.3-1.1,6.3-3.2,10.8c0.4-0.1,0.8-0.1,1.2-0.2c1.9-4.3,3-8.3,3-10.6
		c0-0.4,0.1-0.6,0.5-0.6c0.8,0,2.7,0.2,3.9,0.3l0.5,0c0.8,0.1,2.3,0.8,2.3,2.8c0,1.4-1,3.8-2.4,6.6c0.4-0.1,0.8-0.2,1.3-0.3
		c1.3-2.6,2.2-4.9,2.2-6.3C152.9,45.2,151.2,44,149.7,43.8z"/>
	
		<linearGradient id="SVGID_00000004506647697903129530000017034386807977657729_" gradientUnits="userSpaceOnUse" x1="-323.7946" y1="510.972" x2="-322.2437" y2="510.972" gradientTransform="matrix(1.9427 -0.7195 -0.7195 -1.9427 1125.9413 789.3859)">
		<stop  offset="0" style="stop-color:#6BA743"/>
		<stop  offset="1" style="stop-color:#A5BE3E"/>
	</linearGradient>
	<path style="fill:url(#SVGID_00000004506647697903129530000017034386807977657729_);" d="M121.2,20.9c-2.7,0-4.4,1.7-4.4,4.3
		c0,8,15.4,13.8,19.5,13.8c1.4,0,1.6-0.8,1.6-1.3C137.8,36.8,132.5,20.9,121.2,20.9z M136.2,38c-3.6,0-18.5-5.8-18.5-12.8
		c0-2,1.3-3.2,3.4-3.2c10.2,0,15.6,14.8,15.6,15.8C136.8,37.9,136.8,38,136.2,38z"/>
	
		<linearGradient id="SVGID_00000137850247100489579420000011393123030908291971_" gradientUnits="userSpaceOnUse" x1="-158.522" y1="849.8285" x2="-156.9716" y2="849.8285" gradientTransform="matrix(0.8963 0.481 0.481 -0.8963 -156.1533 894.7549)">
		<stop  offset="0" style="stop-color:#6BA743"/>
		<stop  offset="0.3536" style="stop-color:#7DAE42"/>
		<stop  offset="1" style="stop-color:#A5BE3E"/>
	</linearGradient>
	<path style="fill:url(#SVGID_00000137850247100489579420000011393123030908291971_);" d="M111.7,55.8c-1.3,0-2.5,0.6-3.8,1.5
		c0.6,0,1.2,0.1,1.8,0.1c0.7-0.3,1.3-0.5,2-0.5c0.6,0,0.6,0.2,0.6,0.4l0,0.2c0.3,0,0.7,0,1,0l0-0.3
		C113.3,56.9,113.2,55.8,111.7,55.8z"/>
	
		<linearGradient id="SVGID_00000095336394171169065860000015898702888974684316_" gradientUnits="userSpaceOnUse" x1="-232.2868" y1="784.0914" x2="-230.7357" y2="784.0914" gradientTransform="matrix(1.1513 0.5756 0.5756 -1.1513 -50.1715 1088.0841)">
		<stop  offset="0" style="stop-color:#6BA743"/>
		<stop  offset="1" style="stop-color:#A5BE3E"/>
	</linearGradient>
	<path style="fill:url(#SVGID_00000095336394171169065860000015898702888974684316_);" d="M131.2,50.5c2.4-1.4,3.8-2.9,3.8-4
		c0-0.6-0.5-1.1-1.1-1.7c-0.3-0.3-0.7-0.8-0.8-1c0-0.2,0-0.3,0.1-0.4c0.1-0.1,0.6-0.2,1.5,0l1,0.2c1.9,0.4,2.6,0.7,2.6,1.6
		c0,1.2-1.4,6.5-4.1,11.3c0.4,0,0.8-0.1,1.2-0.1c2.5-4.7,3.9-9.7,3.9-11.2c-0.1-1.8-1.6-2.2-3.4-2.6l-1-0.2
		c-1.4-0.4-2.1-0.1-2.4,0.3c-0.3,0.3-0.5,0.8-0.3,1.3c0.1,0.5,0.6,1,1,1.5c0.3,0.3,0.8,0.8,0.8,1.1c0,0.4-0.9,1.6-3.3,3.1
		c-1.5,0.9-4.6,4.3-6.7,7.7c0.4,0,0.8,0,1.3-0.1C127.3,54.2,130,51.3,131.2,50.5z"/>
	
		<linearGradient id="SVGID_00000119804180069530499040000018051779209635888817_" gradientUnits="userSpaceOnUse" x1="-750.4078" y1="492.5166" x2="-748.8571" y2="492.5166" gradientTransform="matrix(-2.4301 -0.6075 -0.6075 2.4301 -1439.7668 -1606.4501)">
		<stop  offset="0" style="stop-color:#6BA743"/>
		<stop  offset="0.2402" style="stop-color:#73AA42"/>
		<stop  offset="0.6069" style="stop-color:#88B241"/>
		<stop  offset="1" style="stop-color:#A5BE3E"/>
	</linearGradient>
	<path style="fill:url(#SVGID_00000119804180069530499040000018051779209635888817_);" d="M88.3,40.3c0-2.2-1.4-2.1-2.7-2.1
		c-1,0-5.6,0.5-9.1,4l-1.9,1.8c-1.7,1.7-4.1,4.1-6.9,6.8c0.4,0.1,0.8,0.2,1.2,0.3c2.2-2.1,4.4-4.3,6.5-6.4l1.9-1.9
		c3.2-3.1,7.5-3.5,8.4-3.5c1,0,1.7,1.1,1.7,1.1H88.3z"/>
	
		<linearGradient id="SVGID_00000019677849577386392640000002622096378155476628_" gradientUnits="userSpaceOnUse" x1="-497.3697" y1="573.5246" x2="-495.819" y2="573.5246" gradientTransform="matrix(7.1748 0 0 -7.1748 3645.739 4161.7207)">
		<stop  offset="0" style="stop-color:#5D9340"/>
		<stop  offset="9.340701e-02" style="stop-color:#5D9340"/>
		<stop  offset="0.8297" style="stop-color:#6BA743"/>
		<stop  offset="1" style="stop-color:#6BA743"/>
	</linearGradient>
	<path style="fill:url(#SVGID_00000019677849577386392640000002622096378155476628_);" d="M87.3,40.3c0,0-0.8,1-1.9,2.2L85,42.8
		c-1,1.2-4.9,6.3-7.8,10.3c0.4,0.1,0.7,0.1,1.1,0.2c2.9-3.9,6.5-8.9,7.4-10l0.4-0.1c1.5-1.7,2.2-2.9,2.2-2.9H87.3z"/>
	
		<linearGradient id="SVGID_00000031171201702398805580000006025518821294294960_" gradientUnits="userSpaceOnUse" x1="-528.3108" y1="569.8851" x2="-526.7604" y2="569.8851" gradientTransform="matrix(12.8672 0 0 -12.8672 6849.3979 7370.3228)">
		<stop  offset="0" style="stop-color:#5D9340"/>
		<stop  offset="3.846100e-02" style="stop-color:#5D9340"/>
		<stop  offset="3.956800e-02" style="stop-color:#5D9340"/>
		<stop  offset="0.2165" style="stop-color:#609640"/>
		<stop  offset="0.8309" style="stop-color:#669E42"/>
		<stop  offset="1" style="stop-color:#669E42"/>
	</linearGradient>
	<path style="fill:url(#SVGID_00000031171201702398805580000006025518821294294960_);" d="M71,29c-4.1,2.2-8.3,5.2-12.3,8.9
		c-2.8,2.5-5.2,5.2-7.2,7.9c0.3,0.1,0.7,0.2,1,0.4c2-2.5,4.3-5.1,6.9-7.5c3.9-3.6,8-6.5,12-8.7L71,29z"/>
	
		<linearGradient id="SVGID_00000044145109731292179550000005706146600830792893_" gradientUnits="userSpaceOnUse" x1="-542.1703" y1="567.7581" x2="-540.6199" y2="567.7581" gradientTransform="matrix(20.8936 0 0 -20.8936 11409.3721 11908.1934)">
		<stop  offset="0" style="stop-color:#A5BE3E"/>
		<stop  offset="0.3533" style="stop-color:#A3BD3E"/>
		<stop  offset="0.5555" style="stop-color:#9AB73E"/>
		<stop  offset="0.7197" style="stop-color:#8CAF3F"/>
		<stop  offset="0.8625" style="stop-color:#79A540"/>
		<stop  offset="0.9917" style="stop-color:#5F9941"/>
		<stop  offset="1" style="stop-color:#5D9842"/>
	</linearGradient>
	<path style="fill:url(#SVGID_00000044145109731292179550000005706146600830792893_);" d="M113.2,49.9c-0.1-0.1-0.2-0.3-0.2-0.5
		c0-0.1,0.1-0.5,0.2-0.8c0.3-1,0.7-2.4,0.7-4.3c0-1.5-0.2-2.8-0.7-3.8c-1-2.1-3-3.3-5.8-3.3c-5.4,0-11.4,2.8-25.9,16.8
		c0.4,0.1,0.8,0.2,1.2,0.2c13.8-13.3,19.6-16,24.6-16c2.2,0,3.8,0.7,4.6,2.2c0.6,1,0.9,2.3,0.9,3.9c0,1.8-0.4,3.1-0.7,4
		c-0.1,0.5-0.2,0.8-0.2,1.1c0,0.5,0.2,1,0.6,1.3L113.2,49.9z"/>
	
		<linearGradient id="SVGID_00000020383099587653145680000015501519416574052494_" gradientUnits="userSpaceOnUse" x1="-501.4275" y1="520.6443" x2="-499.8765" y2="520.6443" gradientTransform="matrix(4.8788 -4.3084 -4.3084 -4.8788 4805.3223 429.208)">
		<stop  offset="0" style="stop-color:#5D9842"/>
		<stop  offset="1.098900e-02" style="stop-color:#5D9842"/>
		<stop  offset="5.388797e-02" style="stop-color:#659B41"/>
		<stop  offset="0.2142" style="stop-color:#7DA33F"/>
		<stop  offset="0.3662" style="stop-color:#8AA93D"/>
		<stop  offset="0.5" style="stop-color:#8FAB3D"/>
		<stop  offset="0.6566" style="stop-color:#8BAA3D"/>
		<stop  offset="0.8142" style="stop-color:#7FA63F"/>
		<stop  offset="0.9718" style="stop-color:#6BA041"/>
		<stop  offset="1" style="stop-color:#669E42"/>
	</linearGradient>
	<path style="fill:url(#SVGID_00000020383099587653145680000015501519416574052494_);" d="M112.5,50.7c0.3,0.3,0.7,0.4,1.2,0.3
		c6-1,12.5-9.7,12.5-10.7l-1.1,0.1c-0.9,1.5-6.5,8.6-11.6,9.5l-0.3-0.1L112.5,50.7z"/>
	
		<linearGradient id="SVGID_00000146473946548557461470000013360305363958677150_" gradientUnits="userSpaceOnUse" x1="-608.1063" y1="545.9283" x2="-606.5557" y2="545.9283" gradientTransform="matrix(-10.8766 -3.3153 -3.3153 10.8766 -4630.5288 -7910.7949)">
		<stop  offset="0" style="stop-color:#5D9842"/>
		<stop  offset="8.945683e-02" style="stop-color:#6FA041"/>
		<stop  offset="0.2671" style="stop-color:#9CB93E"/>
		<stop  offset="0.2986" style="stop-color:#A5BE3E"/>
		<stop  offset="0.6648" style="stop-color:#629C42"/>
		<stop  offset="0.849" style="stop-color:#85AC40"/>
		<stop  offset="1" style="stop-color:#A5BE3E"/>
	</linearGradient>
	<path style="fill:url(#SVGID_00000146473946548557461470000013360305363958677150_);" d="M175.2,38.3c-0.3-0.4-1-0.7-1.8-0.7
		c-2,0-4.8,2.7-7.1,4.8c-0.9,0.8-1.9,1.8-2.3,2c-0.3-0.2-0.8-1.3-1.1-2c-0.4-0.8-0.7-1.6-1.1-2.1c-1.4-1.9-3.3-2.4-8.8-2.4
		c-1.4,0-2.4,0.1-3.5,0.1l0.1,1c1-0.1,2.1-0.1,3.4-0.1c5.2,0,6.8,0.4,8,2c0.3,0.4,0.7,1.2,1,1.9c0.7,1.5,1.2,2.6,2.1,2.6
		c0.5,0,1.2-0.5,3-2.3c1.9-1.8,4.8-4.5,6.4-4.5c1.1,0,1.2,0.3,1.2,1c0,0.5-0.3,1.1-0.7,1.8c-0.7,1.4-1.8,3.4-1.9,6.6
		c0.4-0.1,0.7-0.3,1-0.4c0.2-2.7,1.1-4.4,1.8-5.7c0.5-0.9,0.8-1.6,0.8-2.3C175.6,39.1,175.4,38.7,175.2,38.3z"/>
	
		<linearGradient id="SVGID_00000112632348998307907730000017919187638857371016_" gradientUnits="userSpaceOnUse" x1="-457.3382" y1="578.6447" x2="-455.7876" y2="578.6447" gradientTransform="matrix(4.7344 0 0 -4.7344 2307.3418 2777.6875)">
		<stop  offset="0" style="stop-color:#6BA743"/>
		<stop  offset="0.2503" style="stop-color:#75AB42"/>
		<stop  offset="0.6591" style="stop-color:#8DB440"/>
		<stop  offset="1" style="stop-color:#A5BE3E"/>
	</linearGradient>
	<path style="fill:url(#SVGID_00000112632348998307907730000017919187638857371016_);" d="M149.4,38l-3,0.1c-2.7,0-3-0.1-3.3-1
		l-0.9,0.4c0.7,1.5,1.7,1.6,4.3,1.6l3.1-0.1L149.4,38z"/>
	
		<linearGradient id="SVGID_00000147197643163634124940000015624572017703727519_" gradientUnits="userSpaceOnUse" x1="-497.7385" y1="682.5164" x2="-496.1881" y2="682.5164" gradientTransform="matrix(2.222 2.9412 2.9412 -2.222 -801.8383 3030.385)">
		<stop  offset="0" style="stop-color:#5D9842"/>
		<stop  offset="0.1462" style="stop-color:#77A441"/>
		<stop  offset="0.3716" style="stop-color:#98B63E"/>
		<stop  offset="0.4945" style="stop-color:#A5BE3E"/>
		<stop  offset="1" style="stop-color:#A5BE3E"/>
	</linearGradient>
	<path style="fill:url(#SVGID_00000147197643163634124940000015624572017703727519_);" d="M108.1,45.8c-0.1-0.7-0.6-1.4-2.1-1.4
		c-1.8,0-7.5,4.4-11.8,9.1c-0.2,0.2-0.4,0.4-0.6,0.6c-0.5,0.5-0.9,1.1-1.4,1.6c0.4,0.1,0.8,0.1,1.2,0.2c0.3-0.4,0.6-0.7,1-1.1
		c0.4-0.4,0.7-0.8,1.1-1.2c4.4-4.6,9.3-8.1,10.5-8.2c0.6,0,1,0.2,1,0.4l0,0.1c0,1.2-1.6,2.3-3,3.2L103,50l-0.1,0
		c-1.8,1.3-2.6,1.9-2.6,3.1c0,0.2,0,0.3,0,0.5c0.1,0.5,0.4,0.8,0.6,1c0.2,0.2,0.4,0.8,0.5,0.8h1c-0.1,0-0.5-1.3-0.9-1.6
		c-0.2-0.2-0.3-0.3-0.3-0.4c-0.1-0.8,0.1-1.1,2.2-2.6l0.1,0l1-0.7C106.3,49,108.3,47.7,108.1,45.8z"/>
	
		<linearGradient id="SVGID_00000175320040005679091740000002040903078134306442_" gradientUnits="userSpaceOnUse" x1="-496.7055" y1="683.9988" x2="-495.1579" y2="683.9988" gradientTransform="matrix(2.1954 2.906 2.906 -2.1954 -799.2247 2996.1677)">
		<stop  offset="0" style="stop-color:#6BA743"/>
		<stop  offset="1" style="stop-color:#A5BE3E"/>
	</linearGradient>
	<path style="fill:url(#SVGID_00000175320040005679091740000002040903078134306442_);" d="M101.5,55.6L101.5,55.6
		c0,0.3-0.1,0.7-0.4,1.2c0.4,0,0.7,0.1,1.1,0.1c0.3-0.6,0.4-1,0.3-1.4l0-0.1h-1L101.5,55.6z"/>
	
		<linearGradient id="SVGID_00000062165938690851856410000010026518482943284659_" gradientUnits="userSpaceOnUse" x1="-682.5321" y1="375.8227" x2="-680.9814" y2="375.8227" gradientTransform="matrix(-1.4734 -1.7559 -1.7559 1.4734 -230.5016 -1733.6234)">
		<stop  offset="0" style="stop-color:#6BA743"/>
		<stop  offset="0.3509" style="stop-color:#87B247"/>
		<stop  offset="0.8132" style="stop-color:#AFC454"/>
		<stop  offset="1" style="stop-color:#AFC454"/>
	</linearGradient>
	<path style="fill:url(#SVGID_00000062165938690851856410000010026518482943284659_);" d="M143,37c-2.1-5.1-10.2-21.9-26.5-21.9
		c-4.1,0-6.9,1.6-8.1,4.4c-0.4,0.9-0.6,2-0.6,3.2c0,4.5,2.2,12.7,17,17.7l0.2,0.1l0,0l1.1-0.1c0-0.6-0.6-0.8-0.9-0.9l-0.2,0
		c-14.2-4.7-16.3-12.5-16.3-16.7c0-1.1,0.2-2.1,0.5-2.9c1.4-3.3,5.2-3.7,7.1-3.7c15.6,0,23.5,16.3,25.6,21.2l0.1,0.2l0.9-0.4L143,37
		z"/>
	
		<linearGradient id="SVGID_00000035506652124589193290000011287521889821243782_" gradientUnits="userSpaceOnUse" x1="-679.1503" y1="139.997" x2="-677.5998" y2="139.997" gradientTransform="matrix(-0.4488 -1.0431 -1.0431 0.4488 -70.744 -749.094)">
		<stop  offset="0" style="stop-color:#669E42"/>
		<stop  offset="0.4923" style="stop-color:#689F42"/>
		<stop  offset="0.6697" style="stop-color:#6FA241"/>
		<stop  offset="0.7961" style="stop-color:#7BA741"/>
		<stop  offset="0.898" style="stop-color:#8BB040"/>
		<stop  offset="0.9845" style="stop-color:#A0BC3E"/>
		<stop  offset="1" style="stop-color:#A5BE3E"/>
	</linearGradient>
	<path style="fill:url(#SVGID_00000035506652124589193290000011287521889821243782_);" d="M104.1,13.3c-0.1-0.2,0-0.4-0.2-0.4
		c-0.5-0.1-1.4-0.3-1.4-0.3v1c0,0,0.5,0.1,0.7,0.2c-2,3.6-5.7,9.9-5.8,10.2L97.2,24l-0.2,0l-0.2,0c-3-0.5-5.5-0.7-7.4-0.7
		c-4.7,0-11.4,1.8-18.4,5.7l0.5,0.9c6.9-3.8,13.4-5.6,18-5.6c1.9,0,4.3,0.2,7.2,0.7l0.2,0c0.3,0,0.5,0,0.7-0.1
		c0.2-0.1,0.4-0.2,0.5-0.5c0.2-0.4,5.7-10.1,5.9-10.5C104.2,13.7,104.2,13.5,104.1,13.3z"/>
	<path class="st52" d="M54.9,31.2c19.2-14,37.8-17.7,45.6-17.7c0.7,0,2,0,2,0.1v-1c0-0.1-1.3-0.1-2-0.1c-8,0-26.7,3.8-46.1,17.9
		c-5.4,3.9-9.9,7.8-13.6,11.4c0.3,0.1,0.7,0.3,1,0.4C45.4,38.6,49.7,34.9,54.9,31.2z"/>
	<rect x="260.2" y="45.5" class="st53" width="4.6" height="21.8"/>
	<polygon class="st53" points="269.3,45.5 274.5,45.5 287.5,61.8 287.6,61.8 287.6,45.5 292,45.5 292,67.3 286.8,67.3 273.7,50.9 
		273.7,50.9 273.7,67.3 269.3,67.3 	"/>
	<polygon class="st53" points="296.5,45.5 314.6,45.5 314.6,48.9 301,48.9 301,54.4 313.9,54.4 313.9,57.8 301,57.8 301,67.3 
		296.5,67.3 	"/>
	<path class="st53" d="M316.2,56.4c0-6.1,3.6-11.5,12.8-11.5c9.2,0,12.8,5.4,12.8,11.5c0,6.1-3.6,11.5-12.8,11.5
		C319.8,67.9,316.2,62.5,316.2,56.4z M337.1,56.4c0-4.8-2.9-8.1-8.1-8.1c-5.1,0-8.1,3.3-8.1,8.1c0,4.8,2.9,8.1,8.1,8.1
		C334.2,64.5,337.1,61.2,337.1,56.4z"/>
	<polygon class="st53" points="351.1,48.9 342.9,48.9 342.9,45.5 363.9,45.5 363.9,48.9 355.7,48.9 355.7,67.3 351.1,67.3 	"/>
	<polygon class="st53" points="366.1,45.5 385,45.5 385,48.9 370.7,48.9 370.7,54.4 384.5,54.4 384.5,57.8 370.7,57.8 370.7,63.9 
		385.3,63.9 385.3,67.3 366.1,67.3 	"/>
	<path class="st53" d="M406.7,53.5c-0.5-3.3-3.2-5.3-7-5.3c-4.2,0-7.4,2.8-7.4,8.5c0,4.6,3.1,7.7,7.7,7.7c4.8,0,6.4-3.2,6.7-5.5h4.9
		c-0.6,4.3-3.5,9-12.5,9c-7.9,0-11.6-5.4-11.6-11.5c0-6.1,3.6-11.5,12.2-11.5c7.5,0,11.4,4,11.9,8.7H406.7z"/>
	<polygon class="st53" points="415.4,45.5 419.9,45.5 419.9,54 433.5,54 433.5,45.5 438.1,45.5 438.1,67.3 433.5,67.3 433.5,57.4 
		419.9,57.4 419.9,67.3 415.4,67.3 	"/>
	<rect x="243.6" y="38.1" class="st53" width="2.2" height="36.9"/>
</g>
</svg>
