<svg xmlns="http://www.w3.org/2000/svg" width="41.142" height="32.827" viewBox="0 0 41.142 32.827">
  <g id="Group_10" data-name="Group 10" transform="translate(-309.429 -4957.513)">
    <g id="Group_9" data-name="Group 9">
      <path id="Path_86" data-name="Path 86" d="M350.312,4985.1H334.374a.187.187,0,0,0-.173.173v.65a.73.73,0,0,1-.736.736h-6.886a.759.759,0,0,1-.737-.736v-.606a.186.186,0,0,0-.173-.174H309.688a.279.279,0,0,0-.259.26v2.642a2.31,2.31,0,0,0,2.3,2.295h36.552a2.31,2.31,0,0,0,2.3-2.295V4985.4C350.571,4985.187,350.441,4985.1,350.312,4985.1Z" fill="#4170ff"/>
      <path id="Path_87" data-name="Path 87" d="M314.582,4983.151h30.792a1.987,1.987,0,0,0,1.993-1.992V4961.93a4.436,4.436,0,0,0-4.418-4.417H317.008a4.436,4.436,0,0,0-4.418,4.417v19.229A1.987,1.987,0,0,0,314.582,4983.151Zm2.036-21.221a.388.388,0,0,1,.39-.39h25.984a.388.388,0,0,1,.39.39v17.237H316.618Z" fill="#4170ff"/>
      <path id="Path_88" data-name="Path 88" d="M326.752,4968.816h1.732v3.508a.434.434,0,0,0,.433.433h2.122a.433.433,0,0,0,.433-.433v-3.508H333.2a.439.439,0,0,0,.346-.693l-3.248-4.2a.452.452,0,0,0-.693,0l-3.248,4.2A.472.472,0,0,0,326.752,4968.816Z" fill="#4170ff"/>
      <path id="Path_89" data-name="Path 89" d="M334.807,4974.36h-9.614a.592.592,0,0,0-.607.606v1.386a.592.592,0,0,0,.607.606h9.614a.592.592,0,0,0,.607-.606v-1.386A.569.569,0,0,0,334.807,4974.36Z" fill="#4170ff"/>
    </g>
  </g>
</svg>
