<svg xmlns="http://www.w3.org/2000/svg" width="38.404" height="30.723" viewBox="0 0 38.404 30.723">
  <path id="Path_90" data-name="Path 90" d="M242.521,4975.847v-3.841H250.2v3.841Zm2.3,13.441-6.144-4.608,2.3-3.073,6.145,4.609Zm-3.84-23.042-2.3-3.072,6.144-4.609,2.305,3.072Zm-23.426,21.122v-7.681h-1.92a3.851,3.851,0,0,1-3.841-3.84v-3.841a3.851,3.851,0,0,1,3.841-3.84h7.68l9.6-5.761v23.043l-9.6-5.761H221.4v7.681Zm17.281-7.009v-12.865a8.775,8.775,0,0,1,2.089,2.808,8.69,8.69,0,0,1,0,7.249A8.772,8.772,0,0,1,234.84,4980.359Z" transform="translate(-211.798 -4958.565)" fill="#4170ff"/>
</svg>
