<svg xmlns="http://www.w3.org/2000/svg" width="39.645" height="30.616" viewBox="0 0 39.645 30.616">
  <g id="Group_7" data-name="Group 7" transform="translate(-508.287 -4957.738)">
    <path id="Path_82" data-name="Path 82" d="M533.1,4968.28a2.875,2.875,0,1,1-2.025.841,2.865,2.865,0,0,1,2.025-.841Zm-7.76,0a2.875,2.875,0,1,1-2.025.841,2.863,2.863,0,0,1,2.025-.841Zm-7.76,0a2.874,2.874,0,1,1-2.025.841,2.863,2.863,0,0,1,2.025-.841Zm26.757,1.73a12.043,12.043,0,0,1,.149,1.888,13.435,13.435,0,0,1-5.446,10.478,20.439,20.439,0,0,1-10.729,4.164,15.481,15.481,0,0,0,1.722.584,16.771,16.771,0,0,0,4.452.591,17.13,17.13,0,0,0,2.512-.184,16.221,16.221,0,0,0,2.415-.548.684.684,0,0,1,.319-.018l7.334,1.389-1.029-5.432a.666.666,0,0,1,.118-.517,9.413,9.413,0,0,0,1.327-2.528,8.4,8.4,0,0,0,.446-2.7,8.656,8.656,0,0,0-1.3-4.52,10.861,10.861,0,0,0-2.294-2.646Zm-6.879-8.295a20.453,20.453,0,0,0-24.238,0,12.126,12.126,0,0,0-4.938,9.433,10.757,10.757,0,0,0,.569,3.447,11.99,11.99,0,0,0,1.691,3.223.666.666,0,0,1,.118.517l-1.339,7.069,9.459-1.791a.69.69,0,0,1,.319.018,20.683,20.683,0,0,0,3.059.694,21.756,21.756,0,0,0,3.181.233,19.529,19.529,0,0,0,12.119-3.978,11.477,11.477,0,0,0,0-18.865Z" fill="#4170ff"/>
  </g>
</svg>
