<svg xmlns="http://www.w3.org/2000/svg" width="42.353" height="29.647" viewBox="0 0 42.353 29.647">
  <g id="Group_11" data-name="Group 11" transform="translate(-110.824 -4959.103)">
    <path id="Path_91" data-name="Path 91" d="M151.764,4981.691h-1.412v-18.352a4.236,4.236,0,0,0-4.235-4.236H117.882a4.236,4.236,0,0,0-4.235,4.236v13.411a1.412,1.412,0,1,0,2.824,0v-13.411a1.412,1.412,0,0,1,1.411-1.412h28.235a1.412,1.412,0,0,1,1.412,1.412v18.352h-7.765a.706.706,0,0,0-.706.706v.706a.706.706,0,0,1-.706.706H125.647a.706.706,0,0,1-.706-.706v-.706a.7.7,0,0,0-.212-.5.8.8,0,0,0-.494-.205h-3.67l4.009-4.009,3.593,3.586a1.412,1.412,0,0,0,1.99,0l12.431-12.4v2.943a1.411,1.411,0,1,0,2.823,0v-6.353a1.412,1.412,0,0,0-1.412-1.412h-6.353a1.412,1.412,0,0,0,0,2.824h2.944l-11.414,11.414-3.593-3.586a1.412,1.412,0,0,0-1.99,0l-6.706,6.706a1.161,1.161,0,0,0-.226.3h-4.334a1.5,1.5,0,0,0-1.5,1.5v2.011a3.529,3.529,0,0,0,3.529,3.53h35.392a3.439,3.439,0,0,0,3.431-3.431v-2.167a1.412,1.412,0,0,0-1.362-1.46Z" fill="#4170ff"/>
  </g>
</svg>
