<svg xmlns="http://www.w3.org/2000/svg" width="36.968" height="36.751" viewBox="0 0 36.968 36.751">
  <path id="Path_92" data-name="Path 92" d="M50.094,4984.727,38.1,4972.736h8.917v-6.926H31.178l-6.926-6.926H47.021a3.474,3.474,0,0,1,3.463,3.463v20.778a4.067,4.067,0,0,1-.087.844A2.335,2.335,0,0,1,50.094,4984.727Zm-30.777-11.991h8.917l-6.926-6.926H19.317ZM47.8,4992.3l-5.714-5.714H19.317a3.472,3.472,0,0,1-3.463-3.463v-20.778a3.472,3.472,0,0,1,3.463-3.463l3.463,3.463H17.845l-4.329-4.329,2.468-2.467,34.283,34.284Z" transform="translate(-13.516 -4955.551)" fill="#4170ff"/>
</svg>
