<svg xmlns="http://www.w3.org/2000/svg" width="32.827" height="35.941" viewBox="0 0 32.827 35.941">
  <g id="Group_6" data-name="Group 6" transform="translate(-817.035 -4955.956)">
    <path id="Path_76" data-name="Path 76" d="M830.375,4965.853a12.5,12.5,0,0,1,2.541-7.411H819.153a2.122,2.122,0,0,0-2.118,2.118v29.219a2.122,2.122,0,0,0,2.118,2.118h25.62a2.122,2.122,0,0,0,2.117-2.118v-12.492a13.826,13.826,0,0,1-4.446.847A12.246,12.246,0,0,1,830.375,4965.853Zm-2.753,19.692h-4.235v-9.952h4.235Zm6.564,0h-4.235v-6.987h4.235Zm6.564,0h-4.235v-4.023h4.235Z" fill="#4170ff"/>
    <path id="Path_77" data-name="Path 77" d="M843.827,4972.91a2.184,2.184,0,0,0-.11-.66h-4.183a2.186,2.186,0,0,0-.11.66,2.2,2.2,0,1,0,4.4,0Z" fill="#4170ff"/>
    <path id="Path_78" data-name="Path 78" d="M848.011,4968.286v-2.245a4.636,4.636,0,0,1-.551.044,4.29,4.29,0,0,1-2.708-7.619,5.862,5.862,0,0,0-1.5-.572,1.169,1.169,0,0,0,.022-.287,1.651,1.651,0,0,0-3.3,0c0,.088.022.2.022.287a6.176,6.176,0,0,0-4.756,6.033v4.359a1.542,1.542,0,0,0,0,3.083h12.771a1.542,1.542,0,0,0,0-3.083Z" fill="#4170ff"/>
    <path id="Path_79" data-name="Path 79" d="M847.46,4964.192a2.4,2.4,0,1,0-2.4-2.4A2.4,2.4,0,0,0,847.46,4964.192Z" fill="#4170ff"/>
  </g>
</svg>
