<svg xmlns="http://www.w3.org/2000/svg" width="41.128" height="37.754" viewBox="0 0 41.128 37.754">
  <g id="Group_8" data-name="Group 8" transform="translate(-408.206 -4954.609)">
    <path id="Path_83" data-name="Path 83" d="M439.528,4990.392H418.012c-.413,0-.735.438-.735,1s.322.974.735.974h21.516c.413,0,.719-.415.719-.974S439.941,4990.392,439.528,4990.392Z" fill="#4170ff"/>
    <path id="Path_84" data-name="Path 84" d="M425.07,4980.227v6.981a4.169,4.169,0,0,1-.164,1.176h7.712a4.042,4.042,0,0,1-.164-1.176v-6.981Z" fill="#4170ff"/>
    <path id="Path_85" data-name="Path 85" d="M445.766,4954.609H411.773a3.8,3.8,0,0,0-3.567,3.987v18.577a3.8,3.8,0,0,0,3.567,3.987h33.993a3.8,3.8,0,0,0,3.568-3.987V4958.6A3.8,3.8,0,0,0,445.766,4954.609Zm-1.029,7.345-9.07,9.071-3.592-3.592-7.554,7.554-4.128-4.128-5.256,5.256a1.5,1.5,0,0,1-2.121-2.121l7.377-7.378,4.128,4.129,7.554-7.554,3.592,3.591,6.949-6.949a1.5,1.5,0,0,1,2.121,2.121Z" fill="#4170ff"/>
  </g>
</svg>
