<svg xmlns="http://www.w3.org/2000/svg" width="33.824" height="34.109" viewBox="0 0 33.824 34.109">
  <path id="Path_80" data-name="Path 80" d="M710.408,4968.242V4958.5h3.249v3.816a14.175,14.175,0,0,1,5.055-4.019,14.5,14.5,0,0,1,6.314-1.422,14.559,14.559,0,0,1,14.618,14.618H736.4a11.339,11.339,0,0,0-16.608-10.07,12.07,12.07,0,0,0-4.1,3.573h4.466v3.249Zm.081,4.872h3.33a10.733,10.733,0,0,0,3.106,6.4,11.066,11.066,0,0,0,6.274,3.187l1.949,3.411a14.419,14.419,0,0,1-9.827-3.715A13.991,13.991,0,0,1,710.489,4973.114Zm16.73,2.843-3.817-3.817v-8.771h3.248v7.472l2.274,2.273Zm7.512,15.024-.487-2.436q-.488-.2-.914-.427a7.027,7.027,0,0,1-.873-.548l-2.355.731-1.624-2.761,1.867-1.624a6.923,6.923,0,0,1,0-2.112l-1.867-1.624,1.624-2.761,2.355.731a7.092,7.092,0,0,1,.873-.549q.426-.223.914-.426l.487-2.436h3.248l.487,2.436a7.4,7.4,0,0,1,.934.467,7.306,7.306,0,0,1,.853.589l2.355-.812,1.624,2.842-1.867,1.624a6.408,6.408,0,0,1,0,2.031l1.867,1.624-1.624,2.761-2.355-.731a7.022,7.022,0,0,1-.873.548q-.426.223-.914.427l-.487,2.436Zm1.624-4.873a3.257,3.257,0,1,0-2.294-.954A3.127,3.127,0,0,0,736.355,4986.108Z" transform="translate(-710.408 -4956.872)" fill="#4170ff"/>
</svg>
