<svg xmlns="http://www.w3.org/2000/svg" width="35.757" height="28.639" viewBox="0 0 35.757 28.639">
  <path id="Path_206" data-name="Path 206" d="M129.327,1594.609a3.6,3.6,0,0,0,2.819,1.052,2.868,2.868,0,0,0,2.461-1.231l10.024-15.035L129.6,1589.419a3.037,3.037,0,0,0-1.275,2.438A3.385,3.385,0,0,0,129.327,1594.609Zm-9.577,8.055a3.914,3.914,0,0,1-1.812-.425,3.186,3.186,0,0,1-1.32-1.275,20.066,20.066,0,0,1-1.79-4.363,17.91,17.91,0,0,1,.783-11.657,17.871,17.871,0,0,1,9.509-9.509,17.426,17.426,0,0,1,6.981-1.41,17.236,17.236,0,0,1,6.891,1.387,18.1,18.1,0,0,1,5.639,3.781,18.36,18.36,0,0,1,3.848,5.594,17.141,17.141,0,0,1,1.477,6.869,17.9,17.9,0,0,1-.56,4.81,17.522,17.522,0,0,1-1.857,4.5,3.186,3.186,0,0,1-1.32,1.275,3.914,3.914,0,0,1-1.812.425Z" transform="translate(-114.202 -1574.025)" fill="#4170ff"/>
</svg>
