<svg xmlns="http://www.w3.org/2000/svg" width="34.378" height="32.865" viewBox="0 0 34.378 32.865">
  <path id="Path_201" data-name="Path 201" d="M633.15,1604.777l-.518-2.595q-.519-.216-.973-.454a7.411,7.411,0,0,1-.93-.584l-2.508.779-1.73-2.941,1.989-1.729a7.4,7.4,0,0,1,0-2.249l-1.989-1.73,1.73-2.94,2.508.778a7.512,7.512,0,0,1,.93-.584q.453-.237.973-.454l.518-2.594h3.46l.519,2.594q.519.216.973.454a7.578,7.578,0,0,1,.929.584l2.508-.778,1.73,2.94L641.28,1595a7.313,7.313,0,0,1,0,2.249l1.989,1.729-1.73,2.941-2.508-.779a7.474,7.474,0,0,1-.929.584q-.454.238-.973.454l-.519,2.595Zm-20.8-1.73a3.471,3.471,0,0,1-3.46-3.459v-24.216a3.472,3.472,0,0,1,3.46-3.46h24.216a3.471,3.471,0,0,1,3.459,3.46v9.773a10.262,10.262,0,0,0-1.686-.627,14.38,14.38,0,0,0-1.773-.368v-8.778H612.351v15.567h7.265a4.913,4.913,0,0,0,1.3,2.033,5.094,5.094,0,0,0,2.032,1.21,12.2,12.2,0,0,0,.108,4.627,11.44,11.44,0,0,0,1.881,4.238Zm22.529-3.459a3.471,3.471,0,1,0-2.443-1.017A3.329,3.329,0,0,0,634.88,1599.588Z" transform="translate(-608.891 -1571.912)" fill="#4170ff"/>
</svg>
