<svg xmlns="http://www.w3.org/2000/svg" width="33.027" height="33.027" viewBox="0 0 33.027 33.027">
  <path id="Path_199" data-name="Path 199" d="M810.869,1604.858a3.312,3.312,0,0,1-3.3-3.3v-6.606h3.3v6.606h6.606v3.3Zm-3.3-23.119v-6.6a3.312,3.312,0,0,1,3.3-3.3h6.606v3.3h-6.606v6.6Zm14.862,18a11.558,11.558,0,0,1-9.743-9.743h3.3a8.244,8.244,0,0,0,6.44,6.44Zm-9.743-13.046a11.446,11.446,0,0,1,3.261-6.5,11.079,11.079,0,0,1,6.482-3.241v3.3a8.244,8.244,0,0,0-6.44,6.44Zm11.394,4.954a3.314,3.314,0,0,1-2.332-5.656,3.313,3.313,0,0,1,4.685,4.686A3.159,3.159,0,0,1,824.08,1591.647Zm1.652,8.092v-3.3a8.244,8.244,0,0,0,6.44-6.44h3.3a11.08,11.08,0,0,1-3.241,6.482A11.447,11.447,0,0,1,825.732,1599.739Zm6.44-13.046a8.244,8.244,0,0,0-6.44-6.44v-3.3a11.447,11.447,0,0,1,6.5,3.262,11.077,11.077,0,0,1,3.241,6.481Zm-1.486,18.165v-3.3h6.605v-6.606h3.3v6.606a3.312,3.312,0,0,1-3.3,3.3Zm6.605-23.119v-6.6h-6.605v-3.3h6.605a3.312,3.312,0,0,1,3.3,3.3v6.6Z" transform="translate(-807.567 -1571.831)" fill="#4170ff"/>
</svg>
