<svg xmlns="http://www.w3.org/2000/svg" width="35.853" height="32.267" viewBox="0 0 35.853 32.267">
  <path id="Path_200" data-name="Path 200" d="M715.117,1591.93a1.763,1.763,0,1,0-1.277-.516A1.731,1.731,0,0,0,715.117,1591.93Zm0-7.171a1.761,1.761,0,1,0-1.277-.515A1.735,1.735,0,0,0,715.117,1584.759Zm3.585,7.171h16.134v-3.585H718.7Zm0-7.171h16.134v-3.585H718.7Zm-1.792,19.719v-3.585h-7.171a3.6,3.6,0,0,1-3.585-3.585V1575.8a3.6,3.6,0,0,1,3.585-3.585h28.683a3.6,3.6,0,0,1,3.585,3.585v21.512a3.6,3.6,0,0,1-3.585,3.585h-7.171v3.585Z" transform="translate(-706.154 -1572.211)" fill="#4170ff"/>
</svg>
