<svg xmlns="http://www.w3.org/2000/svg" width="32.193" height="32.193" viewBox="0 0 32.193 32.193">
  <path id="Path_204" data-name="Path 204" d="M328.739,1591.027a3.969,3.969,0,1,0-2.862-1.162A3.891,3.891,0,0,0,328.739,1591.027Zm8.629,7.154-4.694-4.694a6.609,6.609,0,0,1-1.9.849,7.855,7.855,0,0,1-2.034.268,7.658,7.658,0,1,1,7.31-5.566,7.067,7.067,0,0,1-.871,1.9l4.739,4.739Zm-19.807,6.26a3.587,3.587,0,0,1-3.577-3.577v-7.154h3.577v7.154h7.154v3.577Zm17.885,0v-3.577H342.6v-7.154h3.577v7.154a3.588,3.588,0,0,1-3.577,3.577Zm-21.462-21.462v-7.154a3.586,3.586,0,0,1,3.577-3.577h7.154v3.577h-7.154v7.154Zm28.616,0v-7.154h-7.154v-3.577H342.6a3.588,3.588,0,0,1,3.577,3.577v7.154Z" transform="translate(-313.984 -1572.248)" fill="#4170ff"/>
</svg>
