<svg xmlns="http://www.w3.org/2000/svg" width="26.073" height="37.247" viewBox="0 0 26.073 37.247">
  <path id="Path_203" data-name="Path 203" d="M418.768,1606.968a3.735,3.735,0,0,1-3.724-3.724V1584.62a3.735,3.735,0,0,1,3.724-3.725h18.624a3.735,3.735,0,0,1,3.725,3.725v18.624a3.735,3.735,0,0,1-3.725,3.724Zm7.45-2.793h3.725v-2.794h-3.725Zm0-4.656h3.725a3.812,3.812,0,0,1,.721-2.142q.721-1.071,1.607-2.188a25.671,25.671,0,0,0,1.606-2.375,5,5,0,0,0,.722-2.607,6.518,6.518,0,0,0-13.037,0,5,5,0,0,0,.722,2.607,25.466,25.466,0,0,0,1.606,2.375q.885,1.117,1.606,2.188A3.813,3.813,0,0,1,426.218,1599.519Zm-9.312-21.418a2.783,2.783,0,0,1,2.794-2.793h16.761a2.783,2.783,0,0,1,2.794,2.793Zm1.862-5.587a2.783,2.783,0,0,1,2.794-2.793H434.6a2.783,2.783,0,0,1,2.793,2.793Z" transform="translate(-415.044 -1569.721)" fill="#4170ff"/>
</svg>
