<svg xmlns="http://www.w3.org/2000/svg" width="25.895" height="35.605" viewBox="0 0 25.895 35.605">
  <path id="Path_202" data-name="Path 202" d="M532.693,1594.818a1.381,1.381,0,0,1-1.376-1.375V1588.1a1.383,1.383,0,0,1,1.376-1.376h.243v-1.618a3.237,3.237,0,0,1,6.473,0v1.618h.243a1.383,1.383,0,0,1,1.376,1.376v5.341a1.381,1.381,0,0,1-1.376,1.375Zm1.861-8.092h3.237v-1.618a1.619,1.619,0,1,0-3.237,0Zm-16.184,19.421a3.247,3.247,0,0,1-3.237-3.237v-29.131a3.247,3.247,0,0,1,3.237-3.237h16.184a3.247,3.247,0,0,1,3.237,3.237v6.473h-3.237v-1.618H518.37v19.421h16.184v-1.618h3.237v6.473a3.247,3.247,0,0,1-3.237,3.237Z" transform="translate(-515.133 -1570.542)" fill="#4170ff"/>
</svg>
