<svg xmlns="http://www.w3.org/2000/svg" width="35.876" height="28.403" viewBox="0 0 35.876 28.403">
  <path id="Path_47" data-name="Path 47" d="M1043.959,5491.1a7.257,7.257,0,0,1,1.849-1.345,7.36,7.36,0,0,1,2.187-.71,14.065,14.065,0,0,0-.3,1.42,9.287,9.287,0,0,0-.112,1.457,11.682,11.682,0,0,0,.13,1.757,8.031,8.031,0,0,0,.43,1.644Zm-3.177-3.139-3.139-3.214a16.139,16.139,0,0,1,5.306-3.55,16.528,16.528,0,0,1,13.23.3,9.723,9.723,0,0,0-3.046,1.084,10.908,10.908,0,0,0-2.522,1.943c-.225-.025-.455-.044-.692-.056s-.467-.019-.691-.019a11.723,11.723,0,0,0-4.578.916A11.94,11.94,0,0,0,1040.782,5487.957Zm-6.353-6.353-3.139-3.139a24.446,24.446,0,0,1,8.2-5.55,25.58,25.58,0,0,1,19.47,0,24.458,24.458,0,0,1,8.2,5.55l-3.139,3.139a20.908,20.908,0,0,0-29.6,0Zm25.263,2.84.448,2.242c.3.125.58.256.841.393a6.441,6.441,0,0,1,.8.5l2.167-.672,1.495,2.541-1.719,1.495a6.336,6.336,0,0,1,0,1.943l1.719,1.495-1.495,2.541-2.167-.672a6.441,6.441,0,0,1-.8.5c-.261.137-.542.268-.841.393l-.448,2.242h-2.99l-.448-2.242q-.449-.187-.841-.393a6.449,6.449,0,0,1-.8-.5l-2.167.672-1.495-2.541,1.719-1.495a6.326,6.326,0,0,1,0-1.943l-1.719-1.495,1.495-2.541,2.167.672a6.449,6.449,0,0,1,.8-.5q.393-.206.841-.393l.448-2.242Zm-1.495,4.485a3,3,0,1,0,2.112.878A2.879,2.879,0,0,0,1058.2,5488.929Z" transform="translate(-1031.29 -5470.99)" fill="#4170ff"/>
</svg>
