<svg xmlns="http://www.w3.org/2000/svg" width="34.776" height="34.775" viewBox="0 0 34.776 34.775">
  <path id="Path_48" data-name="Path 48" d="M939.178,5492.281v-14.258l11.091,7.129Zm3.961,10.3a17.036,17.036,0,0,1-8.02-1.96,17.514,17.514,0,0,1-6.239-5.486v4.278h-3.168V5489.9h9.506v3.169h-3.882a14.462,14.462,0,0,0,5.129,4.654,13.807,13.807,0,0,0,6.674,1.683,14.207,14.207,0,0,0,13.467-9.546l3.089.713a17.4,17.4,0,0,1-16.556,12Zm-17.348-19.011a18.584,18.584,0,0,1,1.267-5.09,16.648,16.648,0,0,1,2.733-4.5l2.258,2.257a15.735,15.735,0,0,0-2.06,3.466,12.9,12.9,0,0,0-.99,3.862Zm8.476-9.546-2.258-2.257a17.771,17.771,0,0,1,4.516-2.753,16.075,16.075,0,0,1,5.03-1.208v3.168a12.651,12.651,0,0,0-3.842.991A15.871,15.871,0,0,0,934.267,5474.022Zm17.784,0a15.7,15.7,0,0,0-3.466-2.059,12.868,12.868,0,0,0-3.861-.991V5467.8a17.552,17.552,0,0,1,5.089,1.228,16.591,16.591,0,0,1,4.5,2.733Zm5.268,9.546a12.9,12.9,0,0,0-.99-3.862,15.7,15.7,0,0,0-2.06-3.466l2.258-2.257a16.6,16.6,0,0,1,2.733,4.5,17.637,17.637,0,0,1,1.228,5.09Z" transform="translate(-925.712 -5467.804)" fill="#4170ff"/>
</svg>
