<svg xmlns="http://www.w3.org/2000/svg" width="39.944" height="35.951" viewBox="0 0 39.944 35.951">
  <path id="Path_55" data-name="Path 55" d="M229,5503.167v-4h15.978v-14.18a13.981,13.981,0,1,0-27.962,0v12.183h-2a4,4,0,0,1-3.994-3.994v-4a3.967,3.967,0,0,1,2-3.445l.15-2.646a17.27,17.27,0,0,1,1.972-6.292,18.923,18.923,0,0,1,3.944-5.043,17.884,17.884,0,0,1,18.35-3.345,18.169,18.169,0,0,1,5.443,3.32,17.956,17.956,0,0,1,3.944,5.018,18.319,18.319,0,0,1,2,6.292l.15,2.6a3.3,3.3,0,0,1,1.473,1.348,3.706,3.706,0,0,1,.524,1.9v4.593a3.707,3.707,0,0,1-.524,1.9,3.3,3.3,0,0,1-1.473,1.348v2.446a4.006,4.006,0,0,1-3.994,4Zm-4-13.981a1.963,1.963,0,1,1,1.423-.574A1.931,1.931,0,0,1,225.008,5489.186Zm11.984,0a1.961,1.961,0,1,1,1.423-.574A1.931,1.931,0,0,1,236.992,5489.186Zm-17.926-3.1a11.977,11.977,0,0,1,12.034-12.882,11.817,11.817,0,0,1,7.814,2.821,11.458,11.458,0,0,1,4.069,7.215,16.041,16.041,0,0,1-14.23-8.937,16.144,16.144,0,0,1-9.687,11.783Z" transform="translate(-211.028 -5467.216)" fill="#4170ff"/>
</svg>
