<svg xmlns="http://www.w3.org/2000/svg" width="36.904" height="38" viewBox="0 0 36.904 38">
  <path id="Path_54" data-name="Path 54" d="M311.548,5496.667v-3.809h5.238l-.762-.667a12.03,12.03,0,0,1-3.476-5,16.784,16.784,0,0,1-1-5.666,15.234,15.234,0,0,1,11.429-14.857v4a11.517,11.517,0,0,0-7.619,10.857,10.96,10.96,0,0,0,3.333,7.9l.476.476v-4.666h3.81v11.428Zm34.142-17.142h-3.857a9.989,9.989,0,0,0-1.024-3.191,12.28,12.28,0,0,0-2.119-2.9l-.476-.477v4.667H334.4v-11.428h11.428V5470H340.6l.762.667a15.464,15.464,0,0,1,3,4.238A15.067,15.067,0,0,1,345.69,5479.525Zm-10.5,24.667-.68-3.4q-.679-.282-1.275-.6a9.646,9.646,0,0,1-1.218-.765l-3.287,1.02-2.267-3.853,2.607-2.267a9.665,9.665,0,0,1,0-2.947l-2.607-2.266,2.267-3.854,3.287,1.02a9.823,9.823,0,0,1,1.218-.765q.6-.312,1.275-.6l.68-3.4h4.534l.68,3.4a11.6,11.6,0,0,1,1.275.623,8.949,8.949,0,0,1,1.218.85l3.287-1.133,2.267,3.967-2.607,2.267a8.934,8.934,0,0,1,0,2.833l2.607,2.267-2.267,3.853-3.287-1.02a9.647,9.647,0,0,1-1.218.765q-.6.312-1.275.6l-.68,3.4Zm2.267-6.8a4.546,4.546,0,1,0-3.2-1.331A4.369,4.369,0,0,0,337.458,5497.391Z" transform="translate(-311.548 -5466.192)" fill="#4170ff"/>
</svg>
