<svg xmlns="http://www.w3.org/2000/svg" width="40.016" height="29.103" viewBox="0 0 40.016 29.103">
  <path id="Path_53" data-name="Path 53" d="M412.95,5499.743a3.65,3.65,0,0,1-3.638-3.638V5476.1h3.638V5496.1h30.922v3.638Zm7.276-7.276a3.648,3.648,0,0,1-3.638-3.638v-14.551a3.65,3.65,0,0,1,3.638-3.638H445.69a3.648,3.648,0,0,1,3.638,3.638v14.551a3.646,3.646,0,0,1-3.638,3.638Zm3.638-3.638a3.648,3.648,0,0,0-3.638-3.637v3.637Zm18.189,0h3.637v-3.637a3.646,3.646,0,0,0-3.637,3.637Zm-9.1-1.818a5.436,5.436,0,1,0-3.865-1.592A5.262,5.262,0,0,0,432.958,5487.011Zm-12.732-9.1a3.65,3.65,0,0,0,3.638-3.638h-3.638Zm25.464,0v-3.638h-3.637a3.648,3.648,0,0,0,3.637,3.638Z" transform="translate(-409.312 -5470.64)" fill="#4170ff"/>
</svg>
