<svg xmlns="http://www.w3.org/2000/svg" width="39.159" height="33.807" viewBox="0 0 39.159 33.807">
  <path id="Path_51" data-name="Path 51" d="M636.913,5502.1l-.564-2.817q-.562-.235-1.056-.493a8.4,8.4,0,0,1-1.01-.634l-2.723.845-1.878-3.193,2.16-1.878a7.977,7.977,0,0,1,0-2.442l-2.16-1.878,1.878-3.193,2.723.846a8.1,8.1,0,0,1,1.01-.634q.493-.258,1.056-.493l.564-2.818h3.756l.563,2.818q.564.234,1.057.493a8.023,8.023,0,0,1,1.009.634l2.724-.846,1.878,3.193-2.16,1.878a7.977,7.977,0,0,1,0,2.442l2.16,1.878L646.022,5499l-2.724-.845a8.32,8.32,0,0,1-1.009.634q-.493.258-1.057.493l-.563,2.817Zm1.878-5.635a3.766,3.766,0,1,0-2.653-1.1A3.617,3.617,0,0,0,638.791,5496.46Zm-26.294,1.878a3.766,3.766,0,0,1-3.756-3.756v-22.537a3.768,3.768,0,0,1,3.756-3.757h11.269l3.756,3.757h15.025a3.766,3.766,0,0,1,3.756,3.756v6.151a12.7,12.7,0,0,0-3.568-1.784,13.131,13.131,0,0,0-3.991-.611,12.506,12.506,0,0,0-9.32,3.874,13.125,13.125,0,0,0-3.451,12.137,13.256,13.256,0,0,0,.986,2.77Z" transform="translate(-608.741 -5468.288)" fill="#4170ff"/>
</svg>
