<svg xmlns="http://www.w3.org/2000/svg" width="35.788" height="34.003" viewBox="0 0 35.788 34.003">
  <path id="Path_56" data-name="Path 56" d="M126.517,5502.193l-.68-5.44a6.512,6.512,0,0,1-1.041-.51q-.489-.3-.957-.638l-5.058,2.125-4.675-8.075,4.378-3.316a3.949,3.949,0,0,1-.043-.574v-1.147a3.97,3.97,0,0,1,.043-.574l-4.378-3.315,4.675-8.076,5.058,2.125a11.405,11.405,0,0,1,.978-.637,8.351,8.351,0,0,1,1.02-.51l.68-5.441h9.351l.68,5.441a6.354,6.354,0,0,1,1.041.51q.489.3.957.637l5.058-2.125,4.675,8.076-4.378,3.315a4.117,4.117,0,0,1,.043.574v1.424a4.384,4.384,0,0,1-.085.85h-6.886a6.274,6.274,0,0,0,.191-.829,5.536,5.536,0,0,0,.064-.871,5.951,5.951,0,1,0-10.732,3.57,6.043,6.043,0,0,0,3,2.125v11.306Zm14.876-1.7v-10.2l8.5,5.1Zm-8.5,0v-10.2l8.5,5.1Z" transform="translate(-114.106 -5468.19)" fill="#4170ff"/>
</svg>
