<svg xmlns="http://www.w3.org/2000/svg" width="30.372" height="30.372" viewBox="0 0 30.372 30.372">
  <path id="Path_50" data-name="Path 50" d="M732.18,5496.581l4.252-4.252v3.493h1.519v-6.075h-6.075v1.519h3.493l-4.252,4.252Zm2.733,3.8a7.582,7.582,0,1,1,5.372-2.221A7.322,7.322,0,0,1,734.913,5500.378Zm-16.7-21.261H733.4v-3.037H718.209Zm7.1,18.223H715.171a3.045,3.045,0,0,1-3.037-3.037v-21.26a3.046,3.046,0,0,1,3.037-3.037h21.261a3.046,3.046,0,0,1,3.037,3.037v10.174a10.9,10.9,0,0,0-2.221-.8,10.1,10.1,0,0,0-2.335-.266c-.278,0-.538.007-.778.019a5.284,5.284,0,0,0-.74.1v-.114H718.209v3.038h9.3a10.03,10.03,0,0,0-1.234,1.4,10.551,10.551,0,0,0-.968,1.633h-7.1v3.037H724.4a5.159,5.159,0,0,0-.095.74c-.013.241-.019.5-.019.779a11.313,11.313,0,0,0,.228,2.334A9.211,9.211,0,0,0,725.308,5497.34Z" transform="translate(-712.134 -5470.006)" fill="#4170ff"/>
</svg>
