<svg xmlns="http://www.w3.org/2000/svg" width="37.668" height="36.055" viewBox="0 0 37.668 36.055">
  <path id="Path_57" data-name="Path 57" d="M30.909,5485.524v-6.974h4.744l-1.9-1.9H30.909v-7.59a1.863,1.863,0,0,1,1.9-1.9h4.6a1.912,1.912,0,0,1,.973.261,1.724,1.724,0,0,1,.688.735l3.7,6.595H40.018l-1.9-3.8H33.755v1.9h3.226l1.9,3.795h4.934l2.8,4.887a14.194,14.194,0,0,0-2.562-.807,13.268,13.268,0,0,0-8.611,1.091A13.127,13.127,0,0,0,30.909,5485.524Zm-3.8,12h-4.6a1.912,1.912,0,0,1-.973-.261,1.727,1.727,0,0,1-.688-.735l-3.7-6.594H19.9l1.9,3.795h4.365v-1.9H22.939l-1.9-3.795H16.107l-2.7-4.744q-.094-.237-.166-.474a1.665,1.665,0,0,1-.071-.475,4.715,4.715,0,0,1,.237-.949l2.7-4.744h4.934l1.9-3.795h3.226v-1.9H21.8l-1.9,3.8H17.151l3.7-6.595a1.73,1.73,0,0,1,.688-.735,1.912,1.912,0,0,1,.973-.261h4.6a1.863,1.863,0,0,1,1.9,1.9v7.59H26.165l-1.9,1.9h4.744v5.693H24.836l-1.9-3.795H18.574l-1.9,1.9H21.8l1.9,3.795h5.313v2.657a12.106,12.106,0,0,0-.711,2.372,13.469,13.469,0,0,0-.238,2.562q0,.807.072,1.613a8.269,8.269,0,0,0,.308,1.613,2.062,2.062,0,0,1-.593.4A1.709,1.709,0,0,1,27.114,5497.526Zm14.232,1.9,5.693-5.693L45.71,5492.4l-3.415,3.415v-7.78H40.4v7.78l-3.416-3.415-1.328,1.328Zm0,3.8a9.488,9.488,0,1,1,6.713-16.2,9.488,9.488,0,0,1-6.713,16.2Z" transform="translate(-13.166 -5467.164)" fill="#4170ff"/>
</svg>
