<svg width="180" height="65" viewBox="0 0 180 65" fill="none" xmlns="http://www.w3.org/2000/svg">
<path d="M60.5025 53.4378C59.3595 51.9519 57.5306 50.6945 56.1018 49.7229C53.0155 47.6654 50.1579 46.1794 47.0716 45.0364L32.4405 4.74368C32.3834 4.45792 32.0405 3.48632 31.2975 2.45757C30.0973 0.857291 28.497 0 26.7253 0C24.8964 0 23.2961 0.857291 22.153 2.45757C21.4101 3.48632 21.0671 4.45792 21.01 4.74368L0.0920696 62.0108C-0.193694 62.8109 0.206375 63.7253 1.00651 64.0111C1.17797 64.0683 1.34943 64.1254 1.52089 64.1254C2.03526 64.1254 2.49249 63.8968 2.77825 63.4967C2.8354 63.4396 2.89256 63.3824 2.89256 63.3253C5.97881 58.0672 10.4367 53.6664 15.6948 50.5802C21.1243 47.4368 27.3539 45.7222 33.6979 45.7222C36.5555 45.7222 39.4132 46.0651 42.1565 46.751C43.0138 46.9796 43.8139 47.2082 44.6141 47.4939L47.3003 54.8667C47.3003 54.9238 48.3862 57.7243 49.1291 59.6675C50.0436 61.9536 51.701 63.4396 53.8157 63.9539C54.2729 64.0683 54.7301 64.1254 55.1302 64.1254C56.8448 64.1254 58.5594 63.4396 59.8167 62.2394C61.1312 60.982 61.8742 59.4389 61.8742 57.6671C61.9314 56.124 61.417 54.5809 60.5025 53.4378ZM14.2088 47.894C11.3512 49.5514 8.72214 51.6089 6.37888 53.8951L23.8676 5.65812C23.8676 5.65812 24.1534 4.91514 24.6106 4.2293C25.125 3.48632 25.7537 3.08625 26.6681 3.08625C27.5826 3.08625 28.2112 3.48632 28.7256 4.2293C29.24 4.91514 29.4686 5.60097 29.4686 5.65812L43.2996 43.779C40.2133 42.9789 37.0128 42.5788 33.7551 42.5788C26.8396 42.636 20.0955 44.4649 14.2088 47.894ZM57.7592 59.9533C56.8448 60.8105 55.5874 61.2106 54.5015 60.9248C53.4156 60.6962 52.5583 59.8389 52.0439 58.5244C51.301 56.6384 50.2722 53.9522 50.215 53.7808L48.5005 48.9799C50.4437 49.8944 52.3869 50.9803 54.3872 52.2948C55.6446 53.1521 57.1877 54.238 58.045 55.3239C58.8451 56.3526 59.4166 58.353 57.7592 59.9533Z" fill="url(#paint0_linear_3733_3720)"/>
<path d="M33.7547 42.6365C26.8964 42.6365 20.0952 44.4654 14.2084 47.8945C11.3508 49.552 8.72177 51.6095 6.37851 53.8956L5.92128 55.1529L2.94934 63.2686C6.03559 58.0106 10.4935 53.6098 15.7516 50.5807C21.1811 47.4373 27.4107 45.7227 33.7547 45.7227C36.6123 45.7227 39.47 46.0656 42.2133 46.7515C43.0706 46.9801 43.8707 47.2087 44.6709 47.4945L43.3563 43.8367C40.2129 43.0365 37.0124 42.6365 33.7547 42.6365Z" fill="url(#paint1_linear_3733_3720)"/>
<path d="M60.5023 53.4382C59.3593 51.9522 57.5304 50.6949 56.1016 49.7233C53.0153 47.6658 50.1577 46.1798 47.0714 45.0367L48.5002 48.9803C50.4434 49.8947 52.3866 50.9806 54.387 52.2951C55.6443 53.1524 57.1875 54.2383 58.0447 55.3242C58.4448 55.8386 58.7877 56.6959 58.7877 57.5532H61.874C61.9311 56.1244 61.4168 54.5813 60.5023 53.4382Z" fill="url(#paint2_linear_3733_3720)"/>
<path d="M62.5032 24.4613H60.8458L59.2455 20.8607H51.8157L50.2154 24.4613H48.6151L54.7876 10.7446H56.2164L62.5032 24.4613ZM55.5877 12.5735L52.5015 19.489H58.674L55.5877 12.5735Z" fill="#333333"/>
<path d="M74.5048 18.6891C74.5048 19.6607 74.3905 20.5751 74.1048 21.3181C73.819 22.0611 73.4189 22.6898 72.9617 23.2041C72.4473 23.7185 71.8758 24.0614 71.19 24.3472C70.5041 24.5758 69.704 24.7473 68.8467 24.7473C67.9894 24.7473 67.2464 24.6329 66.5606 24.3472C65.8748 24.1186 65.2461 23.7185 64.7889 23.2041C64.2745 22.6898 63.9316 22.0611 63.6458 21.3752C63.36 20.6894 63.2457 19.775 63.2457 18.8034V10.8591H64.7889V18.6891C64.7889 20.175 65.1318 21.3181 65.8748 22.0611C66.6177 22.8612 67.6465 23.2613 68.961 23.2613C70.2184 23.2613 71.19 22.8612 71.933 22.1182C72.6759 21.3752 73.0189 20.2322 73.0189 18.7462V10.8591H74.562V18.6891H74.5048Z" fill="#333333"/>
<path d="M82.106 24.4615H80.5628V12.288H75.9906V10.8591H86.6782V12.288H82.106V24.4615Z" fill="#333333"/>
<path d="M100.281 20.3461C99.9385 21.2034 99.4813 21.9464 98.8526 22.5751C98.224 23.2037 97.5381 23.7181 96.6808 24.1182C95.8235 24.5182 94.8519 24.6897 93.8232 24.6897C92.7944 24.6897 91.8229 24.5182 91.0227 24.1182C90.2226 23.7181 89.4224 23.2609 88.8509 22.5751C88.2794 21.8892 87.765 21.2034 87.4221 20.3461C87.0792 19.4888 86.9077 18.5744 86.9077 17.6599C86.9077 16.6883 87.0792 15.831 87.4221 14.9737C87.765 14.1164 88.2222 13.3735 88.8509 12.7448C89.4796 12.1161 90.1654 11.6017 91.0227 11.2017C91.88 10.8016 92.8516 10.6301 93.8803 10.6301C94.9091 10.6301 95.8807 10.8016 96.6808 11.2017C97.5381 11.6017 98.2811 12.0589 98.8526 12.7448C99.4813 13.3735 99.9385 14.1164 100.281 14.9737C100.624 15.831 100.796 16.7455 100.796 17.6599C100.796 18.6315 100.624 19.4888 100.281 20.3461ZM98.7955 15.4881C98.5097 14.8023 98.1668 14.2307 97.6524 13.7164C97.1952 13.202 96.6237 12.8019 95.9379 12.5162C95.252 12.2304 94.5662 12.0589 93.766 12.0589C92.9659 12.0589 92.2801 12.2304 91.5942 12.5162C90.9656 12.8019 90.394 13.202 89.9368 13.7164C89.4796 14.2307 89.0795 14.8023 88.8509 15.4881C88.5651 16.1739 88.4508 16.9169 88.4508 17.6599C88.4508 18.4029 88.5651 19.1459 88.8509 19.8317C89.1367 20.5176 89.4796 21.0891 89.994 21.6035C90.4512 22.1178 91.0227 22.5179 91.7085 22.8037C92.3372 23.0894 93.0802 23.2609 93.8803 23.2609C94.6805 23.2609 95.3663 23.0894 96.0522 22.8037C96.6808 22.5179 97.2524 22.1178 97.7096 21.6035C98.1668 21.0891 98.5669 20.5176 98.7955 19.8317C99.0241 19.1459 99.1956 18.4029 99.1956 17.6599C99.1956 16.9169 99.0813 16.1739 98.7955 15.4881Z" fill="#333333"/>
<path d="M109.539 20.7466H109.482L104.51 13.4882V24.4615H103.024V10.8591H104.567L109.539 18.289L114.512 10.8591H116.055V24.4615H114.454V13.4882L109.539 20.7466Z" fill="#333333"/>
<path d="M131.372 24.4613H129.714L128.114 20.8607H120.684L119.084 24.4613H117.484L123.656 10.7446H125.085L131.372 24.4613ZM124.456 12.5735L121.313 19.5462H127.485L124.456 12.5735Z" fill="#333333"/>
<path d="M136.173 24.4615H134.63V12.288H130.057V10.8591H140.745V12.288H136.173V24.4615Z" fill="#333333"/>
<path d="M143.945 10.8591V24.4615H142.402V10.8591H143.945Z" fill="#333333"/>
<path d="M159.605 20.3461C159.262 21.2034 158.805 21.9464 158.177 22.5751C157.548 23.2037 156.862 23.7181 156.005 24.1182C155.147 24.5182 154.176 24.6897 153.147 24.6897C152.118 24.6897 151.147 24.5182 150.347 24.1182C149.546 23.7181 148.746 23.2609 148.175 22.5751C147.603 21.8892 147.089 21.2034 146.746 20.3461C146.403 19.4888 146.232 18.5744 146.232 17.6599C146.232 16.6883 146.403 15.831 146.746 14.9737C147.089 14.1164 147.546 13.3735 148.175 12.7448C148.803 12.1161 149.489 11.6017 150.347 11.2017C151.204 10.8016 152.175 10.6301 153.204 10.6301C154.233 10.6301 155.205 10.8016 156.005 11.2017C156.862 11.6017 157.605 12.0589 158.177 12.7448C158.805 13.3735 159.262 14.1164 159.605 14.9737C159.948 15.831 160.12 16.7455 160.12 17.6599C160.12 18.6315 159.948 19.4888 159.605 20.3461ZM158.119 15.4881C157.834 14.8023 157.491 14.2307 156.976 13.7164C156.519 13.202 155.948 12.8019 155.262 12.5162C154.576 12.2304 153.89 12.0589 153.09 12.0589C152.29 12.0589 151.604 12.2304 150.918 12.5162C150.289 12.8019 149.718 13.202 149.261 13.7164C148.803 14.2307 148.403 14.8023 148.175 15.4881C147.889 16.1739 147.775 16.9169 147.775 17.6599C147.775 18.4029 147.889 19.1459 148.175 19.8317C148.461 20.5176 148.803 21.0891 149.318 21.6035C149.775 22.1178 150.347 22.5179 151.032 22.8037C151.661 23.0894 152.404 23.2609 153.204 23.2609C154.004 23.2609 154.69 23.0894 155.376 22.8037C156.005 22.5179 156.576 22.1178 157.033 21.6035C157.491 21.0891 157.891 20.5176 158.119 19.8317C158.348 19.1459 158.519 18.4029 158.519 17.6599C158.519 16.9169 158.405 16.1739 158.119 15.4881Z" fill="#333333"/>
<path d="M172.293 10.8591H173.779V24.4615H172.579L163.777 13.3167V24.4615H162.291V10.8591H163.72L172.293 21.7753V10.8591Z" fill="#333333"/>
<path d="M66.8461 31.3773H69.5894L75.419 45.094H72.2756L71.0182 42.0649H65.3029L64.0456 45.094H61.0165L66.8461 31.3773ZM69.9895 39.3787L68.1606 34.9779L66.3317 39.3787H69.9895Z" fill="#333333"/>
<path d="M76.3906 31.4338H79.134L85.5351 39.8353V31.4338H88.507V45.0362H85.9351L79.3626 36.4061V45.0362H76.3906V31.4338Z" fill="#333333"/>
<path d="M94.566 39.721L89.308 31.4338H92.7943L96.052 36.9205L99.3669 31.4338H102.739L97.538 39.6638V45.0933H94.566V39.721Z" fill="#333333"/>
<path d="M103.082 31.4345H106.282L109.083 40.6361L112.112 31.3773H114.684L117.713 40.6361L120.513 31.4345H123.657L119.028 45.1511H116.398L113.427 36.2353L110.34 45.1511H107.711L103.082 31.4345Z" fill="#333333"/>
<path d="M124.742 31.4338H127.714V36.8062H133.258V31.4338H136.23V45.0362H133.258V39.5495H127.714V45.0362H124.742V31.4338Z" fill="#333333"/>
<path d="M138.63 31.4338H148.86V34.12H141.545V36.8634H147.946V39.5495H141.545V42.4072H148.917V45.0933H138.573V31.4338H138.63Z" fill="#333333"/>
<path d="M150.804 31.4338H157.034C158.749 31.4338 160.063 31.8911 160.978 32.8055C161.778 33.6056 162.121 34.6344 162.121 35.8918V35.9489C162.121 37.0348 161.835 37.9493 161.321 38.6351C160.806 39.3209 160.063 39.8353 159.206 40.1782L162.521 45.0362H159.034L156.12 40.6926H156.062H153.776V45.0362H150.804V31.4338ZM156.805 38.0636C157.548 38.0636 158.12 37.8921 158.52 37.5492C158.92 37.2063 159.092 36.749 159.092 36.1775V36.1204C159.092 35.4917 158.863 34.9773 158.463 34.6344C158.063 34.2915 157.491 34.12 156.748 34.12H153.776V38.0064H156.805V38.0636Z" fill="#333333"/>
<path d="M163.892 31.4338H174.122V34.12H166.807V36.8634H173.208V39.5495H166.807V42.4072H174.18V45.0933H163.835V31.4338H163.892Z" fill="#333333"/>
<defs>
<linearGradient id="paint0_linear_3733_3720" x1="-0.00303256" y1="32.0488" x2="61.914" y2="32.0488" gradientUnits="userSpaceOnUse">
<stop stop-color="#FCDA00"/>
<stop offset="0.0412963" stop-color="#FACE0C"/>
<stop offset="0.1529" stop-color="#F6AF1C"/>
<stop offset="0.27" stop-color="#F39521"/>
<stop offset="0.3913" stop-color="#F08023"/>
<stop offset="0.5183" stop-color="#EF6F24"/>
<stop offset="0.6533" stop-color="#EE6225"/>
<stop offset="0.8021" stop-color="#ED5925"/>
<stop offset="0.991" stop-color="#ED5625"/>
<stop offset="1" stop-color="#ED5625"/>
</linearGradient>
<linearGradient id="paint1_linear_3733_3720" x1="2.94425" y1="52.9475" x2="44.6235" y2="52.9475" gradientUnits="userSpaceOnUse">
<stop offset="0.2768" stop-color="white" stop-opacity="0"/>
<stop offset="0.3255" stop-color="#ECEBEB" stop-opacity="0.0113339"/>
<stop offset="0.4001" stop-color="#CCC9C9" stop-opacity="0.0287315"/>
<stop offset="0.4915" stop-color="#9F9B9B" stop-opacity="0.0500372"/>
<stop offset="0.5961" stop-color="#696565" stop-opacity="0.0744124"/>
<stop offset="0.7103" stop-color="#353232" stop-opacity="0.101"/>
<stop offset="0.7917" stop-color="#0A0608" stop-opacity="0.12"/>
<stop offset="0.905" stop-color="#0A0608" stop-opacity="0.23"/>
</linearGradient>
<linearGradient id="paint2_linear_3733_3720" x1="47.0383" y1="51.3034" x2="61.9131" y2="51.3034" gradientUnits="userSpaceOnUse">
<stop offset="0.1078" stop-color="#0A0608" stop-opacity="0.23"/>
<stop offset="0.2389" stop-color="#0A0608" stop-opacity="0.2"/>
<stop offset="0.307" stop-color="#1A1718" stop-opacity="0.1787"/>
<stop offset="0.439" stop-color="#3B3737" stop-opacity="0.1373"/>
<stop offset="0.6216" stop-color="#757070" stop-opacity="0.0800656"/>
<stop offset="0.8459" stop-color="#E4E2E2" stop-opacity="0.01"/>
<stop offset="0.8771" stop-color="white" stop-opacity="0"/>
</linearGradient>
</defs>
</svg>
