<svg width="94" height="32" viewBox="0 0 94 32" fill="none" xmlns="http://www.w3.org/2000/svg">
<g clip-path="url(#clip0_4793_1278)">
<path d="M0 0H32V32H0V0ZM28.6848 28.6848V3.3152H3.3152V28.6912H28.6912L28.6848 28.6848ZM6.1952 8.256V17.952C6.1952 22.3872 8.6272 24.9792 12.7424 24.9792C16.8576 24.9792 19.4176 22.336 19.4176 17.952V8.256H16.1024V17.952C16.1024 20.4608 15.0336 21.8496 12.8192 21.8496C10.6048 21.8496 9.504 20.3776 9.504 17.952V8.256H6.1888H6.1952ZM23.6928 10.2336C24.8704 10.2336 25.7216 9.4336 25.7216 8.256C25.7216 7.0784 24.864 6.2272 23.6928 6.2272C22.5216 6.2272 21.664 7.0528 21.664 8.256C21.664 9.4592 22.5216 10.2336 23.6928 10.2336ZM22.0352 11.808V24.8192H25.3504V11.808H22.0352ZM41.8304 19.4752C45.4336 19.4752 47.7888 17.3632 47.7888 13.8112C47.7888 10.2592 45.4912 8.256 41.8304 8.256H35.5264V24.8192H38.8416V19.4752H41.8304ZM41.4848 16.832H38.8416V10.9312H41.4848C43.3792 10.9312 44.4224 12 44.4224 13.8176C44.4224 15.7696 43.3792 16.8384 41.4848 16.8384V16.832ZM48.9088 18.3296C48.9088 22.2016 51.392 24.9792 54.9184 24.9792C57.0048 24.9792 58.3616 24.2304 59.136 22.976V24.8192H62.4512V11.808H59.136V13.8368C58.336 12.4992 56.9472 11.648 54.9184 11.648C51.3408 11.648 48.9088 14.4768 48.9088 18.3232V18.3296ZM59.136 18.3296C59.136 20.6016 57.7216 22.0672 55.6928 22.0672C53.4464 22.0672 52.2752 20.4928 52.2752 18.3296C52.2752 16.0064 53.5872 14.5344 55.6928 14.5344C57.7984 14.5344 59.136 16.0832 59.136 18.3296ZM70.8096 21.9904C69.5296 21.9904 69.1776 21.4272 69.1776 20.2816V14.6176H72.0896V11.8144H69.1776V8.2624H65.8624V11.8144H64.3136V14.6176H65.8624V20.256C65.8624 23.328 67.2256 24.8256 70.3744 24.8256H72.1088V21.9968H70.7968L70.8096 21.9904ZM77.2736 13.632V7.4624H73.9584V24.8256H77.2736V17.9328C77.2736 15.7184 78.4512 14.3808 80.3968 14.3808C82.3424 14.3808 83.36 15.6608 83.36 17.6384V24.8256H86.6752V17.2672C86.6752 13.8496 84.2688 11.6288 81.1968 11.6288C79.2192 11.6288 78.016 12.3776 77.2672 13.632H77.2736Z" fill="#FA4616"/>
<path d="M89.8495 12.8316C87.8015 12.8316 86.3999 11.4044 86.3999 9.41403C86.3999 7.42363 87.8463 6.01562 89.8495 6.01562C91.8527 6.01562 93.2799 7.38523 93.2799 9.41403C93.2799 11.4428 91.8719 12.8316 89.8495 12.8316ZM89.8495 6.61723C88.1343 6.61723 87.0463 7.69243 87.0463 9.40763C87.0463 11.1228 88.1919 12.1788 89.8495 12.1788C91.5071 12.1788 92.6399 11.0652 92.6399 9.40763C92.6399 7.75003 91.5519 6.61723 89.8495 6.61723ZM90.6303 9.94523L91.3535 11.2956H90.4959L89.8111 10.054H89.2671V11.2956H88.4927V7.44923H89.9711C90.8095 7.44923 91.4303 7.94203 91.4303 8.73563C91.4303 9.32443 91.1167 9.74683 90.6303 9.94523ZM89.2671 9.43963H89.8751C90.3231 9.43963 90.6303 9.19003 90.6303 8.73563C90.6303 8.31963 90.3231 8.07003 89.8751 8.07003H89.2671V9.43963Z" fill="#FA4616"/>
</g>
<defs>
<clipPath id="clip0_4793_1278">
<rect width="93.28" height="32" fill="white"/>
</clipPath>
</defs>
</svg>
