<svg xmlns="http://www.w3.org/2000/svg" width="23" height="33.12" viewBox="0 0 23 33.12">
  <g id="Group_41" data-name="Group 41" transform="translate(-517.571 -177.44)">
    <path id="Path_253" data-name="Path 253" d="M537.811,177.44h-17.48a2.76,2.76,0,0,0-2.76,2.76v27.6a2.76,2.76,0,0,0,2.76,2.76h17.48a2.76,2.76,0,0,0,2.76-2.76V180.2A2.76,2.76,0,0,0,537.811,177.44Zm-12.96,23.38a1.834,1.834,0,1,1,.54-1.3A1.775,1.775,0,0,1,524.851,200.82Zm0-5.521a1.832,1.832,0,1,1,.54-1.3A1.772,1.772,0,0,1,524.851,195.3Zm0-5.52a1.834,1.834,0,1,1,.54-1.3A1.772,1.772,0,0,1,524.851,189.779Zm5.52,11.041a1.834,1.834,0,1,1,.54-1.3A1.775,1.775,0,0,1,530.371,200.82Zm0-5.521a1.832,1.832,0,1,1,.54-1.3A1.772,1.772,0,0,1,530.371,195.3Zm0-5.52a1.834,1.834,0,1,1,.54-1.3A1.772,1.772,0,0,1,530.371,189.779Zm5.52,11.041a1.834,1.834,0,1,1,.54-1.3A1.775,1.775,0,0,1,535.891,200.82Zm0-5.521a1.832,1.832,0,1,1,.54-1.3A1.772,1.772,0,0,1,535.891,195.3Zm0-5.52a1.834,1.834,0,1,1,.54-1.3A1.772,1.772,0,0,1,535.891,189.779Z" fill="#4170ff"/>
  </g>
</svg>
