<svg xmlns="http://www.w3.org/2000/svg" width="37.229" height="29.784" viewBox="0 0 37.229 29.784">
  <g id="Group_42" data-name="Group 42" transform="translate(-311.457 -179.108)">
    <path id="Path_255" data-name="Path 255" d="M311.457,208.892v-3.723h5.072A14.6,14.6,0,0,1,311.457,194a14.343,14.343,0,0,1,3.164-9.191,14.714,14.714,0,0,1,8-5.235v3.909a11.155,11.155,0,0,0-5.351,4.025,11.154,11.154,0,0,0-1.094,11.122,11.322,11.322,0,0,0,2.722,3.653v-4.56h3.723v11.169Zm20.476,0a5.564,5.564,0,0,1-.28-11.123,6.655,6.655,0,0,1,2.35-2.722,6.437,6.437,0,0,1,7.772.558,6.562,6.562,0,0,1,2.164,3.979,4.646,4.646,0,0,1,3.35,1.35,4.365,4.365,0,0,1,1.4,3.257,4.571,4.571,0,0,1-1.35,3.328,4.456,4.456,0,0,1-3.3,1.373Zm5.4-16.753a10.685,10.685,0,0,0-1.257-3.537,12.119,12.119,0,0,0-2.28-2.885v4.56h-3.723V179.108H341.24v3.723h-5.073a14.936,14.936,0,0,1,4.933,9.308Z" fill="#4170ff"/>
  </g>
</svg>
