<svg xmlns="http://www.w3.org/2000/svg" width="29" height="29" viewBox="0 0 29 29">
  <path id="Path_258" data-name="Path 258" d="M33.071,192.389A25.061,25.061,0,0,0,43.342,190.5q4.229-1.893,4.229-4.552t-4.229-4.551A25.061,25.061,0,0,0,33.071,179.5,25.061,25.061,0,0,0,22.8,181.393q-4.228,1.893-4.229,4.551T22.8,190.5A25.061,25.061,0,0,0,33.071,192.389Zm0,4.028a31.043,31.043,0,0,0,4.129-.343,26.538,26.538,0,0,0,4.772-1.107,13.975,13.975,0,0,0,3.948-1.994,3.639,3.639,0,0,0,1.651-3V194a3.64,3.64,0,0,1-1.651,3,13.947,13.947,0,0,1-3.948,1.993A26.455,26.455,0,0,1,37.2,200.1a31.186,31.186,0,0,1-4.129.342,31.16,31.16,0,0,1-4.128-.342,26.446,26.446,0,0,1-4.773-1.108A13.947,13.947,0,0,1,20.222,197a3.642,3.642,0,0,1-1.651-3v-4.028a3.641,3.641,0,0,0,1.651,3,13.975,13.975,0,0,0,3.948,1.994,26.529,26.529,0,0,0,4.773,1.107A31.016,31.016,0,0,0,33.071,196.417Zm0,8.055a31.186,31.186,0,0,0,4.129-.342,26.541,26.541,0,0,0,4.772-1.108,13.949,13.949,0,0,0,3.948-1.994,3.638,3.638,0,0,0,1.651-3v4.028a3.638,3.638,0,0,1-1.651,3,13.949,13.949,0,0,1-3.948,1.994,26.626,26.626,0,0,1-4.772,1.108,31.186,31.186,0,0,1-4.129.342,31.16,31.16,0,0,1-4.128-.342,26.616,26.616,0,0,1-4.773-1.108,13.949,13.949,0,0,1-3.948-1.994,3.641,3.641,0,0,1-1.651-3v-4.028a3.641,3.641,0,0,0,1.651,3,13.949,13.949,0,0,0,3.948,1.994,26.532,26.532,0,0,0,4.773,1.108A31.16,31.16,0,0,0,33.071,204.472Z" transform="translate(-18.571 -179.5)" fill="#4170ff"/>
</svg>
