<svg xmlns="http://www.w3.org/2000/svg" width="33.229" height="31.568" viewBox="0 0 33.229 31.568">
  <path id="Path_256" data-name="Path 256" d="M216.78,209.784a3.332,3.332,0,0,1-3.323-3.323V188.185a3.332,3.332,0,0,1,3.323-3.323h6.645v-3.323a3.332,3.332,0,0,1,3.323-3.323h6.646a3.332,3.332,0,0,1,3.323,3.323v3.323h6.646a3.334,3.334,0,0,1,3.323,3.323v18.276a3.334,3.334,0,0,1-3.323,3.323Zm9.968-24.922h6.646v-3.323h-6.646Zm3.323,15.784a3.332,3.332,0,1,0-2.347-.976A3.2,3.2,0,0,0,230.071,200.646Z" transform="translate(-213.457 -178.216)" fill="#4170ff"/>
</svg>
