<svg xmlns="http://www.w3.org/2000/svg" width="32.346" height="31" viewBox="0 0 32.346 31">
  <path id="Path_257" data-name="Path 257" d="M115.9,207.868V204.6h3.263V178.5h16.316v1.632H142v9.789H138.74V183.4h-3.263v7.627a11.325,11.325,0,0,0-4.752,4.222,11.153,11.153,0,0,0-1.774,6.1,11.319,11.319,0,0,0,.53,3.406,11.613,11.613,0,0,0,1.509,3.12Zm13.053-13.052a1.6,1.6,0,1,0-1.163-.469A1.581,1.581,0,0,0,128.951,194.816ZM138.74,209.5l-.489-2.447a8.154,8.154,0,0,1-.918-.449,6.52,6.52,0,0,1-.836-.571l-2.366.816-1.632-2.815,1.836-1.631a6.642,6.642,0,0,1,0-2.081l-1.836-1.631,1.632-2.815,2.366.816a8.415,8.415,0,0,1,.836-.591,6.378,6.378,0,0,1,.918-.469l.489-2.448H142l.49,2.448a8.325,8.325,0,0,1,.918.448,6.587,6.587,0,0,1,.836.571l2.366-.815,1.631,2.814-1.835,1.632a6.716,6.716,0,0,1,0,2.08l1.835,1.631-1.631,2.815-2.366-.775a6.588,6.588,0,0,1-.836.571,8.325,8.325,0,0,1-.918.449L142,209.5Zm1.632-4.9a3.271,3.271,0,1,0-2.3-.958A3.141,3.141,0,0,0,140.372,204.6Z" transform="translate(-115.898 -178.5)" fill="#4170ff"/>
</svg>
