<svg xmlns="http://www.w3.org/2000/svg" width="36.697" height="33.361" viewBox="0 0 36.697 33.361">
  <path id="Path_154" data-name="Path 154" d="M128.744,3010.2v-3.336h21.685v3.336Zm1.668-5a9.09,9.09,0,0,1,7.506-9.008v-1.042a1.668,1.668,0,1,1,3.336,0v1.042a8.953,8.953,0,0,1,5.359,3.107,8.821,8.821,0,0,1,2.148,5.9Zm-16.68-10.009H120.4v-18.348h-6.672Zm10.008,0h3.294l11.76-4.378a2.649,2.649,0,0,0,1.168-.939,2.423,2.423,0,0,0,.458-1.438,1.566,1.566,0,0,0-1.584-1.585h-5.088l-2.919,1.126-.584-1.543,3.5-1.251h11.677a3.27,3.27,0,0,0,2.335-.959,3.16,3.16,0,0,0,1-2.377l-13.345-5-11.676,3.253Z" transform="translate(-113.732 -2976.842)" fill="#4170ff"/>
</svg>
