<svg xmlns="http://www.w3.org/2000/svg" width="29.956" height="34.949" viewBox="0 0 29.956 34.949">
  <path id="Path_155" data-name="Path 155" d="M20.431,3011a3.339,3.339,0,0,1-3.329-3.329V2987.7a3.339,3.339,0,0,1,3.329-3.329h3.328a8.31,8.31,0,0,1,8.321-8.321,8.31,8.31,0,0,1,8.321,8.321H43.73a3.339,3.339,0,0,1,3.328,3.329v19.97A3.339,3.339,0,0,1,43.73,3011Zm11.649-13.314a8.31,8.31,0,0,0,8.321-8.321H37.073a5,5,0,0,1-8.529,3.536,4.813,4.813,0,0,1-1.456-3.536H23.759a8.31,8.31,0,0,0,8.321,8.321Zm-4.992-13.314h9.985a5,5,0,0,0-8.529-3.536A4.811,4.811,0,0,0,27.088,2984.369Z" transform="translate(-17.102 -2976.048)" fill="#4170ff"/>
</svg>
