<svg xmlns="http://www.w3.org/2000/svg" width="33.35" height="31.682" viewBox="0 0 33.35 31.682">
  <g id="Group_34" data-name="Group 34" transform="translate(-214.405 -2977.681)">
    <path id="Path_153" data-name="Path 153" d="M246.776,2985.331a3.215,3.215,0,0,0-2.356-.98h-5v-3.335a3.346,3.346,0,0,0-3.335-3.335h-10a3.344,3.344,0,0,0-3.335,3.335v3.335h-5a3.346,3.346,0,0,0-3.335,3.335v18.342a3.344,3.344,0,0,0,3.335,3.335h26.68a3.343,3.343,0,0,0,3.335-3.335v-18.342A3.21,3.21,0,0,0,246.776,2985.331Zm-20.7-4.315h10v3.335h-10Zm13.655,19.885-7.355-2.163v4.758l1.731,1.3v1.3l-3.029-.865-3.028.865v-1.3l1.73-1.3v-4.758l-7.354,2.163v-1.731l7.354-4.326v-4.759a1.3,1.3,0,1,1,2.6,0v4.759l7.355,4.326Z" fill="#4170ff"/>
  </g>
</svg>
