<svg xmlns="http://www.w3.org/2000/svg" width="33.671" height="35.65" viewBox="0 0 33.671 35.65">
  <g id="Group_29" data-name="Group 29" transform="translate(-610.001 -3479.146)">
    <path id="Path_132" data-name="Path 132" d="M610,3512.491v-4.168h5.679a16.354,16.354,0,0,1-5.679-12.5,16.061,16.061,0,0,1,3.543-10.29,16.471,16.471,0,0,1,8.962-5.861v4.376a12.5,12.5,0,0,0-5.992,4.507A12.48,12.48,0,0,0,615.29,3501a12.658,12.658,0,0,0,3.047,4.09v-5.106h4.169v12.5Zm29.177-16.673a11.744,11.744,0,0,0-1.068-4.975,14.438,14.438,0,0,0-3.1-4.3v5.106h-4.168v-12.5h12.5v4.168h-5.679a16.223,16.223,0,0,1,4.351,5.913,18.15,18.15,0,0,1,1.328,6.591Z" fill="#4170ff"/>
    <g id="Group_28" data-name="Group 28">
      <path id="Path_133" data-name="Path 133" d="M643.124,3501.355a1.792,1.792,0,0,0-1.317-.548h-2.8v-1.866a1.871,1.871,0,0,0-1.866-1.865h-5.6a1.871,1.871,0,0,0-1.866,1.865v1.866h-2.8a1.871,1.871,0,0,0-1.865,1.865v10.259a1.871,1.871,0,0,0,1.865,1.865h14.923a1.871,1.871,0,0,0,1.865-1.865v-10.259A1.8,1.8,0,0,0,643.124,3501.355Zm-6.747-1.647v1.1h-4.063v-1.1" fill="#4170ff"/>
    </g>
  </g>
</svg>
