<svg xmlns="http://www.w3.org/2000/svg" width="33.399" height="36.435" viewBox="0 0 33.399 36.435">
  <path id="Path_135" data-name="Path 135" d="M428.028,3515.188a6.512,6.512,0,0,1-5.161-10.475,6.607,6.607,0,0,1,3.426-2.32v-3.687h-10.41v-6.94h-4.337v-12.145h12.145v12.145h-4.338v3.47H436.7v-3.687a6.6,6.6,0,0,1-3.427-2.321,6.507,6.507,0,1,1,10.323,0,6.6,6.6,0,0,1-3.426,2.321v7.157h-10.41v3.687a6.607,6.607,0,0,1,3.426,2.32,6.486,6.486,0,0,1-5.162,10.475Z" transform="translate(-411.546 -3478.753)" fill="#4170ff"/>
</svg>
