<svg xmlns="http://www.w3.org/2000/svg" width="34.679" height="33.028" viewBox="0 0 34.679 33.028">
  <path id="Path_137" data-name="Path 137" d="M223.649,3510.223v-14.9h2.642a2.763,2.763,0,0,1,.578.062c.193.042.386.09.578.145l11.436,4.252a1.822,1.822,0,0,1,.929.743,2.011,2.011,0,0,1,.351,1.115,1.8,1.8,0,0,1-.6,1.4,2.013,2.013,0,0,1-1.383.536h-4.335a1.768,1.768,0,0,1-.309-.02,1.11,1.11,0,0,1-.269-.1l-2.642-1.032-.537,1.61,3.179,1.115a.792.792,0,0,0,.248.062,2.337,2.337,0,0,0,.289.021h11.312a3.236,3.236,0,0,1,2.312.949,3.131,3.131,0,0,1,.991,2.353l-13.17,4.955Zm-9.908,3.262v-18.166h6.6v18.166Zm24.77-14.863-6.853-6.688a13,13,0,0,1-2.167-2.745,6.351,6.351,0,0,1-.888-3.282,5.429,5.429,0,0,1,5.45-5.45,5.642,5.642,0,0,1,2.477.557,6.122,6.122,0,0,1,1.981,1.507,6.126,6.126,0,0,1,1.982-1.507,5.639,5.639,0,0,1,2.477-.557,5.429,5.429,0,0,1,5.45,5.45,6.469,6.469,0,0,1-.867,3.282,12.469,12.469,0,0,1-2.147,2.745Z" transform="translate(-213.741 -3480.457)" fill="#4170ff"/>
</svg>
