<svg xmlns="http://www.w3.org/2000/svg" width="34.725" height="34.974" viewBox="0 0 34.725 34.974">
  <g id="Group_31" data-name="Group 31" transform="translate(-114.718 -3317.644)">
    <path id="Path_141" data-name="Path 141" d="M133.7,3333.384v-15.74a17.126,17.126,0,0,1,10.678,5.04,17.486,17.486,0,0,1,5.063,10.7Zm0,19.234v-15.741h15.741a17.374,17.374,0,0,1-15.741,15.741Z" fill="#4170ff"/>
    <path id="Path_142" data-name="Path 142" d="M114.718,3333.384a17.48,17.48,0,0,1,5.063-10.7,17.124,17.124,0,0,1,10.678-5.04v15.74Zm5.018,14.216a17.061,17.061,0,0,1-5.018-10.723h15.741v15.741A17.06,17.06,0,0,1,119.736,3347.6Z" fill="#4170ff"/>
  </g>
</svg>
