<svg xmlns="http://www.w3.org/2000/svg" width="35.922" height="34.708" viewBox="0 0 35.922 34.708">
  <path id="Path_36" data-name="Path 36" d="M33.128,6039.885l-2.43-2.43,2.734-2.776H26.186v-3.471h7.246l-2.777-2.777L33.128,6026l6.942,6.941Zm-8.677,20.825a3.483,3.483,0,1,1,2.451-1.02A3.34,3.34,0,0,1,24.451,6060.71Zm17.354,0a3.483,3.483,0,1,1,2.451-1.02A3.34,3.34,0,0,1,41.805,6060.71Zm-27.766-31.238V6026h5.683L27.1,6041.62H39.245l6.768-12.148h3.948l-7.635,13.8a3.475,3.475,0,0,1-1.28,1.345,3.373,3.373,0,0,1-1.757.477H26.36l-1.909,3.471H45.276v3.471H24.451a3.268,3.268,0,0,1-2.972-1.692,3.223,3.223,0,0,1-.065-3.428l2.343-4.252-6.248-13.189Z" transform="translate(-14.039 -6026.002)" fill="#4170ff"/>
</svg>
