<svg xmlns="http://www.w3.org/2000/svg" width="34.293" height="32.865" viewBox="0 0 34.293 32.865">
  <path id="Path_29" data-name="Path 29" d="M735.1,6059.788a4.287,4.287,0,1,1,0-8.573,3.807,3.807,0,0,1,.929.107,4.686,4.686,0,0,1,.822.286l2.036-2.537a6.2,6.2,0,0,1-1.393-2.5,6.507,6.507,0,0,1-.179-2.787l-2.894-.964a4.633,4.633,0,0,1-1.536,1.429,4.071,4.071,0,0,1-2.072.536,4.3,4.3,0,1,1,4.287-4.287v.286l2.894,1a6.816,6.816,0,0,1,1.911-2.179,6.112,6.112,0,0,1,2.7-1.143v-3.108a4.451,4.451,0,0,1-2.3-1.518,4.054,4.054,0,0,1-.911-2.626,4.287,4.287,0,1,1,8.573,0,4,4,0,0,1-.929,2.626,4.552,4.552,0,0,1-2.286,1.518v3.108a6.111,6.111,0,0,1,2.7,1.143,6.814,6.814,0,0,1,1.911,2.179l2.894-1v-.286a4.268,4.268,0,1,1,2.2,3.751,4.275,4.275,0,0,1-1.518-1.429l-2.894.964a6.414,6.414,0,0,1-.178,2.769,6.505,6.505,0,0,1-1.394,2.518l2.037,2.5a3.862,3.862,0,0,1,.821-.268,4.524,4.524,0,0,1,.929-.089,4.306,4.306,0,1,1-4.055,2.911,4.571,4.571,0,0,1,.626-1.2l-2.037-2.536a6.355,6.355,0,0,1-6.251,0l-2,2.536a4.567,4.567,0,0,1,.625,1.2,4.27,4.27,0,0,1-4.055,5.662Zm-4.287-17.861a1.4,1.4,0,1,0-1.018-.411A1.384,1.384,0,0,0,730.815,6041.927Zm4.287,15a1.4,1.4,0,1,0-1.018-.411A1.382,1.382,0,0,0,735.1,6056.93Zm8.574-24.291a1.4,1.4,0,1,0-1.019-.411A1.384,1.384,0,0,0,743.676,6032.639Zm0,15.718a3.538,3.538,0,1,0-2.537-1.036A3.45,3.45,0,0,0,743.676,6048.357Zm8.573,8.573a1.4,1.4,0,1,0-1.018-.411A1.383,1.383,0,0,0,752.249,6056.93Zm4.287-15a1.4,1.4,0,1,0-1.018-.411A1.382,1.382,0,0,0,756.536,6041.927Z" transform="translate(-726.529 -6026.923)" fill="#4170ff"/>
</svg>
