<svg xmlns="http://www.w3.org/2000/svg" width="35.541" height="31.987" viewBox="0 0 35.541 31.987">
  <path id="Path_28" data-name="Path 28" d="M870.139,6059.349a1.744,1.744,0,0,1-1.777-1.777v-14.128a1.744,1.744,0,0,1,1.777-1.777h7.108a1.746,1.746,0,0,1,1.777,1.777v14.128a1.746,1.746,0,0,1-1.777,1.777Zm0-3.554h7.108v-10.573h-7.108Zm-15.994,3.554v-3.554H857.7v-3.554H847.037a3.565,3.565,0,0,1-3.554-3.554v-17.771a3.564,3.564,0,0,1,3.554-3.554h24.879a3.564,3.564,0,0,1,3.554,3.554v7.2h-3.554v-7.2H847.037v17.771h17.77v3.554h-3.554v3.554h3.554v3.554Zm1.244-12.884,4.087-3.109,4.087,3.109-1.51-5.064,4.087-3.288h-5.064l-1.6-4.975-1.6,4.975h-5.065l4.088,3.288Z" transform="translate(-843.483 -6027.362)" fill="#4170ff"/>
</svg>
