<svg xmlns="http://www.w3.org/2000/svg" width="25.968" height="32.461" viewBox="0 0 25.968 32.461">
  <path id="Path_33" data-name="Path 33" d="M320.262,6059.586a3.256,3.256,0,0,1-3.246-3.246v-19.476a3.255,3.255,0,0,1,3.246-3.247h3.246a6.492,6.492,0,0,1,12.984,0h3.246a3.255,3.255,0,0,1,3.246,3.247v19.476a3.256,3.256,0,0,1-3.246,3.246Zm6.492-25.969h6.492a3.246,3.246,0,0,0-6.492,0Zm8.115,8.116a1.595,1.595,0,0,0,1.623-1.623v-3.246h-3.246v3.246a1.595,1.595,0,0,0,1.623,1.623Zm-9.738,0a1.595,1.595,0,0,0,1.623-1.623v-3.246h-3.246v3.246a1.595,1.595,0,0,0,1.623,1.623Z" transform="translate(-317.016 -6027.125)" fill="#4170ff"/>
</svg>
