<svg xmlns="http://www.w3.org/2000/svg" width="35.988" height="32.389" viewBox="0 0 35.988 32.389">
  <path id="Path_35" data-name="Path 35" d="M119.4,6059.55a5.4,5.4,0,1,1,0-10.8H144.6a5.4,5.4,0,1,1,0,10.8Zm0-3.6H144.6a1.8,1.8,0,1,0,0-3.6H119.4a1.8,1.8,0,1,0,0,3.6Zm9-10.8a1.766,1.766,0,0,1-1.8-1.8v-14.4a1.768,1.768,0,0,1,1.8-1.8h14.4a1.77,1.77,0,0,1,1.8,1.8v14.4a1.767,1.767,0,0,1-1.8,1.8Zm-14.4-3.689V6038h8.862v3.464ZM132,6036.158h7.2V6032.6H132Zm-14.395,0h5.263V6032.6h-5.263Z" transform="translate(-114.006 -6027.161)" fill="#4170ff"/>
</svg>
