<svg xmlns="http://www.w3.org/2000/svg" width="38.02" height="27.651" viewBox="0 0 38.02 27.651">
  <path id="Path_32" data-name="Path 32" d="M431.875,6039.726v-2.938a15.222,15.222,0,0,1,2.917-.907,15.718,15.718,0,0,1,3.132-.3,13.88,13.88,0,0,1,2.2.173q1.08.173,2.117.432v2.765a11.96,11.96,0,0,0-4.321-.778,12.019,12.019,0,0,0-3.154.41A13.977,13.977,0,0,0,431.875,6039.726Zm0,9.506v-2.938a15.155,15.155,0,0,1,2.917-.908,15.753,15.753,0,0,1,3.132-.3,13.88,13.88,0,0,1,2.2.173q1.08.173,2.117.432v2.765a12.015,12.015,0,0,0-4.321-.778,12.639,12.639,0,0,0-3.154.389A11.944,11.944,0,0,0,431.875,6049.232Zm0-4.753v-2.938a15.187,15.187,0,0,1,2.917-.907,15.717,15.717,0,0,1,3.132-.3,14,14,0,0,1,2.2.173q1.08.173,2.117.432v2.765a11.987,11.987,0,0,0-4.321-.777,11.978,11.978,0,0,0-3.154.41A13.923,13.923,0,0,0,431.875,6044.479Zm-1.728,7.6a19,19,0,0,1,3.824-1.361,17.164,17.164,0,0,1,3.953-.454,17.744,17.744,0,0,1,3.046.26,19.719,19.719,0,0,1,3,.777V6034.2a14.974,14.974,0,0,0-2.96-.907,15.844,15.844,0,0,0-7.107.216,14.8,14.8,0,0,0-3.759,1.555Zm-1.728,5.1a16.6,16.6,0,0,0-4.493-2.549,14.158,14.158,0,0,0-5.012-.907,13.522,13.522,0,0,0-3.565.475,15.649,15.649,0,0,0-3.348,1.339,1.754,1.754,0,0,1-2.592-1.555v-20.825a1.859,1.859,0,0,1,.237-.907,1.493,1.493,0,0,1,.713-.648,21.371,21.371,0,0,1,4.169-1.534,17.855,17.855,0,0,1,4.386-.54,18.584,18.584,0,0,1,9.505,2.592,18.584,18.584,0,0,1,9.505-2.592,17.841,17.841,0,0,1,4.385.54,21.356,21.356,0,0,1,4.17,1.534,1.493,1.493,0,0,1,.713.648,1.858,1.858,0,0,1,.237.907v20.825a1.754,1.754,0,0,1-2.592,1.555,15.649,15.649,0,0,0-3.348-1.339,13.522,13.522,0,0,0-3.565-.475,14.158,14.158,0,0,0-5.012.907A16.588,16.588,0,0,0,428.419,6057.181Z" transform="translate(-409.409 -6029.53)" fill="#4170ff"/>
</svg>
