<svg xmlns="http://www.w3.org/2000/svg" width="33.824" height="34.109" viewBox="0 0 33.824 34.109">
  <path id="Path_34" data-name="Path 34" d="M214.088,6037.671v-9.745h3.248v3.816a14.176,14.176,0,0,1,5.056-4.019,14.492,14.492,0,0,1,6.314-1.422,14.559,14.559,0,0,1,14.618,14.618h-3.249a11.337,11.337,0,0,0-16.607-10.07,12.061,12.061,0,0,0-4.1,3.573h4.466v3.249Zm.081,4.873h3.33a10.734,10.734,0,0,0,3.106,6.4,11.063,11.063,0,0,0,6.274,3.187l1.949,3.411a14.417,14.417,0,0,1-9.827-3.715A13.99,13.99,0,0,1,214.169,6042.544Zm16.729,2.842-3.816-3.817V6032.8h3.248v7.472l2.274,2.274Zm7.512,15.024-.487-2.436q-.487-.2-.913-.427a6.931,6.931,0,0,1-.873-.548l-2.356.731-1.624-2.761,1.868-1.624a6.927,6.927,0,0,1,0-2.112l-1.868-1.624,1.624-2.761,2.356.731a6.95,6.95,0,0,1,.873-.549c.284-.148.588-.291.913-.426l.487-2.436h3.249l.487,2.436a7.463,7.463,0,0,1,.934.467,7.307,7.307,0,0,1,.853.589l2.355-.812,1.624,2.842-1.868,1.624a6.331,6.331,0,0,1,0,2.031l1.868,1.624-1.624,2.761-2.355-.731a7.077,7.077,0,0,1-.873.548q-.426.223-.914.427l-.487,2.436Zm1.625-4.873a3.257,3.257,0,1,0-2.295-.954A3.127,3.127,0,0,0,240.035,6055.537Z" transform="translate(-214.088 -6026.301)" fill="#4170ff"/>
</svg>
