<svg xmlns="http://www.w3.org/2000/svg" width="31.058" height="30.3" viewBox="0 0 31.058 30.3">
  <path id="Path_31" data-name="Path 31" d="M539.1,6038.659l4.848,4.848-2.121,2.121-4.848-4.848a9.471,9.471,0,0,1-1.705.758,6.064,6.064,0,0,1-1.931.3,6.83,6.83,0,1,1,6.817-6.818,6.069,6.069,0,0,1-.3,1.932A9.437,9.437,0,0,1,539.1,6038.659Zm-5.757.152a3.753,3.753,0,1,0-2.689-1.1A3.657,3.657,0,0,0,533.343,6038.811Zm2.954,5.6,3.863,3.863v7.2a3.04,3.04,0,0,1-3.03,3.03H515.92a3.04,3.04,0,0,1-3.03-3.03v-21.21a3.039,3.039,0,0,1,3.03-3.03h8.333a7.655,7.655,0,0,0-.568,1.95,13.307,13.307,0,0,0-.152,1.989,9.108,9.108,0,0,0,2.916,6.893,9.733,9.733,0,0,0,6.932,2.765,11.054,11.054,0,0,0,1.439-.1A9.38,9.38,0,0,0,536.3,6044.416Z" transform="translate(-512.89 -6028.206)" fill="#4170ff"/>
</svg>
