<svg xmlns="http://www.w3.org/2000/svg" width="34.83" height="34.831" viewBox="0 0 34.83 34.831">
  <path id="Path_30" data-name="Path 30" d="M633.514,6051.889l2.438-2.438a.84.84,0,0,0,0-1.219l-5.921-5.965a5.857,5.857,0,0,0,.261-.958,6.025,6.025,0,0,0,.088-1.088,5.974,5.974,0,0,0-7.489-5.813,7.559,7.559,0,0,0-1.437.545l4.093,4.092-2.438,2.438-4.093-4.092a7.437,7.437,0,0,0-.544,1.437,6,6,0,0,0,5.812,7.488,6.228,6.228,0,0,0,1.067-.087,5.715,5.715,0,0,0,.979-.261l5.965,5.921a.843.843,0,0,0,1.219,0Zm-6.095,8.882a16.963,16.963,0,0,1-6.792-1.371,17.4,17.4,0,0,1-9.252-9.252,17.51,17.51,0,0,1,0-13.584,17.389,17.389,0,0,1,9.252-9.252,17.5,17.5,0,0,1,13.584,0,17.389,17.389,0,0,1,9.252,9.252,17.51,17.51,0,0,1,0,13.584,17.4,17.4,0,0,1-9.252,9.252A16.963,16.963,0,0,1,627.419,6060.771Zm0-3.483a13.826,13.826,0,1,0-9.883-4.049A13.447,13.447,0,0,0,627.419,6057.288Z" transform="translate(-610.004 -6025.94)" fill="#4170ff"/>
</svg>
