<svg xmlns="http://www.w3.org/2000/svg" width="37.329" height="27.149" viewBox="0 0 37.329 27.149">
  <path id="Path_146" data-name="Path 146" d="M220.9,3158.8a5.07,5.07,0,0,1-5.091-5.091h-3.393v-18.664a3.4,3.4,0,0,1,3.393-3.394h23.755v6.787h5.091l5.09,6.787v8.484h-3.394a5.09,5.09,0,1,1-10.18,0H225.99a5.07,5.07,0,0,1-5.09,5.091Zm0-3.394a1.667,1.667,0,1,0-1.209-.488A1.641,1.641,0,0,0,220.9,3155.409Zm20.361,0a1.667,1.667,0,1,0-1.209-.488A1.638,1.638,0,0,0,241.261,3155.409Zm-1.7-8.484h7.212l-3.818-5.09h-3.394Z" transform="translate(-212.416 -3131.654)" fill="#4170ff"/>
</svg>
