<svg xmlns="http://www.w3.org/2000/svg" width="40.394" height="40.056" viewBox="0 0 40.394 40.056">
  <g id="Group_33" data-name="Group 33" transform="translate(-11.883 -3125.2)">
    <path id="Path_150" data-name="Path 150" d="M43.49,3140.4a12.363,12.363,0,0,0-6.579-6.579,12.441,12.441,0,0,0-9.661,0,12.37,12.37,0,0,0-6.58,6.579,12.454,12.454,0,0,0,0,9.661,12.376,12.376,0,0,0,6.58,6.58,12.452,12.452,0,0,0,9.661,0,12.369,12.369,0,0,0,6.579-6.58,12.442,12.442,0,0,0,0-9.661ZM35.8,3151.143a5.642,5.642,0,0,1-2.663,1.207v1.548H30.966v-1.61a4.811,4.811,0,0,1-2.369-1.254,5.492,5.492,0,0,1-1.347-2.4l2.044-.8a3.68,3.68,0,0,0,1.161,1.9,2.808,2.808,0,0,0,1.811.634,3.116,3.116,0,0,0,1.75-.479,1.67,1.67,0,0,0,.727-1.5,1.726,1.726,0,0,0-.758-1.455,11.836,11.836,0,0,0-2.71-1.27,6.8,6.8,0,0,1-2.678-1.548,3.279,3.279,0,0,1-.852-2.353,3.453,3.453,0,0,1,.867-2.292,4.251,4.251,0,0,1,2.416-1.362v-1.548h2.167v1.548a3.447,3.447,0,0,1,2.028.9,4.147,4.147,0,0,1,1.254,1.889l-1.982.8a2.718,2.718,0,0,0-.805-1.192,2.294,2.294,0,0,0-1.548-.48,2.578,2.578,0,0,0-1.656.464,1.548,1.548,0,0,0-.573,1.27,1.443,1.443,0,0,0,.712,1.269,12.366,12.366,0,0,0,2.57,1.084A5.991,5.991,0,0,1,36.167,3146a4.121,4.121,0,0,1,.744,2.384A3.384,3.384,0,0,1,35.8,3151.143Z" fill="#4170ff"/>
    <path id="Path_151" data-name="Path 151" d="M50.321,3153.923h0a20.079,20.079,0,0,0-28.222-26l2.765,2.765a16.327,16.327,0,0,1,22.45,20.754.579.579,0,0,1-.08.156.566.566,0,0,1-.791.125l-.889-.646-1.293,7.782,7-3.634-.782-.568A.567.567,0,0,1,50.321,3153.923Z" fill="#4170ff"/>
    <path id="Path_152" data-name="Path 152" d="M17.379,3152.517a16.325,16.325,0,0,1-.53-13.505.568.568,0,0,1,.721-.356.558.558,0,0,1,.149.077l.889.645L19.9,3131.6l-7,3.635.779.567a.566.566,0,0,1,.161.738,20.08,20.08,0,0,0,28.222,26l-2.766-2.766A16.324,16.324,0,0,1,17.379,3152.517Z" fill="#4170ff"/>
  </g>
</svg>
