<svg xmlns="http://www.w3.org/2000/svg" width="27.988" height="34.985" viewBox="0 0 27.988 34.985">
  <g id="Group_32" data-name="Group 32" transform="translate(-118.086 -3127.736)">
    <path id="Path_147" data-name="Path 147" d="M128.582,3148.484a3.508,3.508,0,1,0,1.028-2.471A3.366,3.366,0,0,0,128.582,3148.484Z" fill="none"/>
    <path id="Path_148" data-name="Path 148" d="M136.934,3154.738a13.2,13.2,0,0,0-2.339-.744,12.2,12.2,0,0,0-5.029,0,13.211,13.211,0,0,0-2.34.744,3.5,3.5,0,0,0-2.143,3.236v1.006h13.994v-1.006a3.492,3.492,0,0,0-2.143-3.236Z" fill="none"/>
    <path id="Path_149" data-name="Path 149" d="M135.579,3127.736H121.585a3.51,3.51,0,0,0-3.5,3.5v27.988a3.51,3.51,0,0,0,3.5,3.5h20.991a3.508,3.508,0,0,0,3.5-3.5v-20.991Zm.633,22.706a2.258,2.258,0,1,1-.665,1.6A2.184,2.184,0,0,1,136.212,3150.442Zm-11.315,0a2.258,2.258,0,1,1-.665,1.6A2.184,2.184,0,0,1,124.9,3150.442Zm-2.93,7.745a2.264,2.264,0,0,1,1.387-2.1,8.587,8.587,0,0,1,1.515-.481,7.873,7.873,0,0,1,3.256,0,8.586,8.586,0,0,1,1.515.481,2.263,2.263,0,0,1,1.388,2.1v.651h-9.061Zm10.113-25.7a3.508,3.508,0,1,1-2.47,1.027A3.369,3.369,0,0,1,132.08,3132.486Zm7,13.994H125.083v-1.006a3.5,3.5,0,0,1,2.143-3.236,13.211,13.211,0,0,1,2.34-.744,12.2,12.2,0,0,1,5.029,0,13.2,13.2,0,0,1,2.339.744,3.492,3.492,0,0,1,2.143,3.236Zm3.266,12.358h-9.061v-.651a2.264,2.264,0,0,1,1.387-2.1,8.586,8.586,0,0,1,1.515-.481,7.877,7.877,0,0,1,3.257,0,8.55,8.55,0,0,1,1.514.481,2.263,2.263,0,0,1,1.388,2.1Z" fill="#4170ff"/>
  </g>
</svg>
