<svg xmlns="http://www.w3.org/2000/svg" width="38.211" height="38.211" viewBox="0 0 38.211 38.211">
  <g id="Group_14" data-name="Group 14" transform="translate(-409.14 -4286.896)">
    <path id="Path_99" data-name="Path 99" d="M433.362,4286.9a8.9,8.9,0,0,0-6.451,3.323,9.291,9.291,0,0,0-3.783-.935,8.758,8.758,0,0,0-8.118,5.457,8.293,8.293,0,0,0-5.87,7.678,8.625,8.625,0,0,0,8.867,8.356h.389l6.983-9.31a3.58,3.58,0,0,1,5.733,0l6.982,9.31h.39a8.625,8.625,0,0,0,8.867-8.356,8.185,8.185,0,0,0-5.192-7.335A8.611,8.611,0,0,0,433.362,4286.9Zm-5.084,15.523a1.2,1.2,0,0,0-.989.478l-7.164,9.553a1.194,1.194,0,0,0,.956,1.91h3.582v7.165a3.583,3.583,0,0,0,7.165,0v-7.165h3.582a1.193,1.193,0,0,0,.956-1.91L429.2,4302.9A1.2,1.2,0,0,0,428.278,4302.419Z" fill="#4170ff"/>
  </g>
</svg>
