<svg xmlns="http://www.w3.org/2000/svg" width="42.421" height="36.866" viewBox="0 0 42.421 36.866">
  <g id="Group_18" data-name="Group 18" transform="translate(-10.87 -4287.498)">
    <path id="Path_105" data-name="Path 105" d="M31.921,4307.311a8.544,8.544,0,0,0-8.615,8.452,8.4,8.4,0,0,0,8.615,8.362.846.846,0,1,0,0-1.692,6.729,6.729,0,0,1-6.924-6.67,6.925,6.925,0,0,1,13.848.136,5.758,5.758,0,0,1-1.259,3.973c-.727.744-1.4.936-1.743.8s-.383-.677-.383-.9v-7.39a.838.838,0,0,0-1.654-.194,4.254,4.254,0,0,0-4.823.79,4.174,4.174,0,0,0,0,5.94,4.209,4.209,0,0,0,4.785.81v.041a2.5,2.5,0,0,0,1.435,2.468c1.1.444,2.436,0,3.594-1.181a7.361,7.361,0,0,0,1.737-5.153A8.61,8.61,0,0,0,31.921,4307.311Zm1.934,10.491a2.677,2.677,0,0,1-3.754,0,2.593,2.593,0,0,1,0-3.7,2.682,2.682,0,0,1,3.756,0Z" fill="#4170ff" stroke="#4170ff" stroke-width="0.478"/>
    <path id="Path_106" data-name="Path 106" d="M49.742,4303c.009-.159.014-.32.014-.481a15.016,15.016,0,0,0-29.37-4.415,9.712,9.712,0,0,0-.786,19.372,1.126,1.126,0,0,0,.114-.011v.062h1.593a10.753,10.753,0,1,1,21.385-1.622,13.325,13.325,0,0,1-.1,1.622h2.746a7.921,7.921,0,0,0,4.4-14.527Z" fill="#4170ff"/>
  </g>
</svg>
