<svg xmlns="http://www.w3.org/2000/svg" width="42.449" height="29.016" viewBox="0 0 42.449 29.016">
  <g id="Group_15" data-name="Group 15" transform="translate(-308.856 -4291.493)">
    <path id="Path_100" data-name="Path 100" d="M314,4304.672a8.218,8.218,0,0,0,3.208,15.837c.168,0,.315-.02.456-.02h25.225a8.633,8.633,0,0,0,8.418-8.417,8.413,8.413,0,0,0-4.185-7.253,5.921,5.921,0,0,0,.247-1.7,5.773,5.773,0,0,0-5.826-5.738,5.993,5.993,0,0,0-3.569,1.2,12.645,12.645,0,0,0-24,5.351c0,.248.026.495.026.743Zm31.22,5.438c0,4.252-3.355,6.649-7.36,6.649a8.075,8.075,0,0,1-6.04-2.5c.73-.905,1.534-1.788,2.29-2.692a5.043,5.043,0,0,0,3.63,1.633,3.056,3.056,0,1,0,.047-6.093c-5.538,0-6.724,9.669-14.786,9.669-3.931,0-7.253-2.464-7.253-6.6,0-4.185,3.349-6.623,7.333-6.623a7.949,7.949,0,0,1,6.067,2.445c-.8.877-1.56,1.808-2.337,2.718a5,5,0,0,0-3.583-1.613,3.169,3.169,0,0,0-3.321,2.946,3.083,3.083,0,0,0,3.3,3.174c5.37,0,6.8-9.67,14.665-9.67,3.9,0,7.353,2.391,7.353,6.543Z" fill="#4170ff" fill-rule="evenodd"/>
  </g>
</svg>
