<svg xmlns="http://www.w3.org/2000/svg" width="35.392" height="35.391" viewBox="0 0 35.392 35.391">
  <g id="Group_16" data-name="Group 16" transform="translate(-213.384 -4288.306)">
    <path id="Path_101" data-name="Path 101" d="M235.5,4288.306a7.881,7.881,0,0,0-5.569,2.734,8.354,8.354,0,0,0-3.272-.767,7.641,7.641,0,0,0-7.047,4.5,7,7,0,0,0-5.128,6.435c0,3.935,3.545,7,7.749,7h7.739v2.214H217.811a1.108,1.108,0,0,0-1.113,1.1v3.484a4.426,4.426,0,1,0,2.214,0v-2.37h11.062V4315a4.426,4.426,0,1,0,2.212,0v-2.372H243.25V4315a4.424,4.424,0,1,0,2.212,0v-3.474a1.106,1.106,0,0,0-1.1-1.11H232.186v-2.214h7.74c4.2,0,7.74-3.068,7.74-7,0-2.825-1.959-5.035-4.53-6.141A7.386,7.386,0,0,0,235.5,4288.306Z" fill="#4170ff"/>
  </g>
</svg>
