<svg xmlns="http://www.w3.org/2000/svg" width="39.373" height="36.335" viewBox="0 0 39.373 36.335">
  <g id="Group_17" data-name="Group 17" transform="translate(-112.394 -4287.143)">
    <path id="Path_102" data-name="Path 102" d="M129.978,4305.283h5.861v7.033h-5.861Z" fill="#4170ff"/>
    <path id="Path_103" data-name="Path 103" d="M140.248,4299.992H125.569a.734.734,0,0,0-.734.734v22.018a.735.735,0,0,0,.734.734h14.679a.735.735,0,0,0,.734-.734v-22.018A.734.734,0,0,0,140.248,4299.992Zm-7.339,21.284a2.2,2.2,0,1,1,2.2-2.2A2.2,2.2,0,0,1,132.909,4321.276Zm5.137-7.339a.735.735,0,0,1-.734.734h-8.807a.735.735,0,0,1-.734-.734v-10.275a.734.734,0,0,1,.734-.734h8.807a.734.734,0,0,1,.734.734Z" fill="#4170ff"/>
    <path id="Path_104" data-name="Path 104" d="M148.473,4301.532c.009-.147.013-.3.013-.446a13.937,13.937,0,0,0-27.26-4.1,9.015,9.015,0,0,0-.971,17.953c.122.016.346.076.346.076h1.641v-15.586a2.464,2.464,0,0,1,2.461-2.46h16.4a2.464,2.464,0,0,1,2.461,2.46v15.586h1.644c.034,0,.07-.028.1-.035a7.368,7.368,0,0,0,3.157-13.45Z" fill="#4170ff"/>
  </g>
</svg>
