<svg xmlns="http://www.w3.org/2000/svg" xmlns:xlink="http://www.w3.org/1999/xlink" width="40.725" height="29.618" viewBox="0 0 40.725 29.618">
  <defs>
    <clipPath id="clip-path">
      <rect id="Rectangle_240" data-name="Rectangle 240" width="40.725" height="29.618" transform="translate(0 0)" fill="none"/>
    </clipPath>
  </defs>
  <g id="Group_48" data-name="Group 48" transform="translate(0 0)">
    <g id="Group_48-2" data-name="Group 48" clip-path="url(#clip-path)">
      <path id="Path_277" data-name="Path 277" d="M38.62,15.712a8.081,8.081,0,0,0-5.3-2.754,12.5,12.5,0,0,0-3.772-9.186A12.5,12.5,0,0,0,20.363,0a12.665,12.665,0,0,0-7.868,2.638,12.561,12.561,0,0,0-4.627,6.9,9.618,9.618,0,0,0-5.693,3.609A10.261,10.261,0,0,0,0,19.576,9.581,9.581,0,0,0,2.985,26.7a9.9,9.9,0,0,0,6.931,2.9c-.087-.061-.181-.117-.265-.179a3,3,0,0,1-1.359-2.469V23.645a3,3,0,0,0,1.359,2.469,11.458,11.458,0,0,0,3.247,1.64,21.751,21.751,0,0,0,3.927.911,25.584,25.584,0,0,0,3.4.282,25.6,25.6,0,0,0,3.4-.282,21.76,21.76,0,0,0,3.926-.911,11.451,11.451,0,0,0,3.248-1.64,3,3,0,0,0,1.358-2.469v3.314a3,3,0,0,1-1.358,2.469c-.09.066-.19.126-.283.191H32.4a8.3,8.3,0,0,0,8.33-8.331,8.156,8.156,0,0,0-2.1-5.576m-6.47,4.62A2.993,2.993,0,0,1,30.792,22.8a11.492,11.492,0,0,1-3.248,1.641,21.93,21.93,0,0,1-3.926.911,25.6,25.6,0,0,1-3.4.282,25.584,25.584,0,0,1-3.4-.282,21.921,21.921,0,0,1-3.927-.911A11.485,11.485,0,0,1,9.651,22.8a2.992,2.992,0,0,1-1.359-2.468V17.018a3,3,0,0,0,1.359,2.469,11.484,11.484,0,0,0,3.247,1.64,21.751,21.751,0,0,0,3.927.911,25.584,25.584,0,0,0,3.4.282,25.6,25.6,0,0,0,3.4-.282,21.76,21.76,0,0,0,3.926-.911,11.49,11.49,0,0,0,3.248-1.64,3,3,0,0,0,1.358-2.469Zm-3.479-2.883a20.621,20.621,0,0,1-8.45,1.557,20.616,20.616,0,0,1-8.449-1.557q-3.48-1.557-3.48-3.744t3.48-3.745A20.616,20.616,0,0,1,20.221,8.4a20.621,20.621,0,0,1,8.45,1.557q3.479,1.558,3.479,3.745t-3.479,3.744" fill="#4170ff"/>
    </g>
  </g>
</svg>
