<svg xmlns="http://www.w3.org/2000/svg" width="26.579" height="32.219" viewBox="0 0 26.579 32.219">
  <g id="Group_37" data-name="Group 37" transform="translate(-119.121 -1411.551)">
    <path id="Path_208" data-name="Path 208" d="M123.938,1420.622a23.773,23.773,0,0,0,16.945,0q3.487-1.561,3.488-3.755t-3.488-3.754a23.759,23.759,0,0,0-16.945,0q-3.488,1.562-3.488,3.754T123.938,1420.622Z" fill="#4170ff"/>
    <path id="Path_209" data-name="Path 209" d="M128.025,1433.479a3.446,3.446,0,0,1,2.542.665,2.327,2.327,0,0,0,1.844.664,2.573,2.573,0,0,0,1.877-.664,3.728,3.728,0,0,1,2.575-.665,3.575,3.575,0,0,1,2.574.665,1.955,1.955,0,0,0,.2.166c.039-.012.08-.02.119-.033a11.5,11.5,0,0,0,3.256-1.645,3,3,0,0,0,1.362-2.475v-3.322a3,3,0,0,1-1.362,2.475,11.494,11.494,0,0,1-3.256,1.644,21.86,21.86,0,0,1-3.937.914,20.705,20.705,0,0,1-6.811,0,21.88,21.88,0,0,1-3.937-.914,11.507,11.507,0,0,1-3.256-1.644,3,3,0,0,1-1.362-2.475v3.322a3,3,0,0,0,1.362,2.475,11.509,11.509,0,0,0,3.256,1.645c.045.015.092.024.137.038a1.932,1.932,0,0,0,.212-.171A3.714,3.714,0,0,1,128.025,1433.479Z" fill="#4170ff"/>
    <path id="Path_210" data-name="Path 210" d="M121.812,1425.987a11.508,11.508,0,0,0,3.256,1.645,21.963,21.963,0,0,0,3.937.914,20.705,20.705,0,0,0,6.811,0,21.944,21.944,0,0,0,3.937-.914,11.5,11.5,0,0,0,3.256-1.645,3,3,0,0,0,1.362-2.475v-3.322a3,3,0,0,1-1.362,2.475,11.524,11.524,0,0,1-3.256,1.645,21.952,21.952,0,0,1-3.937.913,20.635,20.635,0,0,1-6.811,0,21.972,21.972,0,0,1-3.937-.913,11.537,11.537,0,0,1-3.256-1.645,3,3,0,0,1-1.362-2.475v3.322A3,3,0,0,0,121.812,1425.987Z" fill="#4170ff"/>
    <path id="Path_211" data-name="Path 211" d="M141.248,1436.659a2.348,2.348,0,0,1-1.811-.665,3.576,3.576,0,0,0-2.574-.664,3.728,3.728,0,0,0-2.575.664,2.574,2.574,0,0,1-1.877.665,2.327,2.327,0,0,1-1.844-.665,3.446,3.446,0,0,0-2.542-.664,3.715,3.715,0,0,0-2.608.664,2.459,2.459,0,0,1-1.844.665,2.574,2.574,0,0,1-1.877-.665,3.73,3.73,0,0,0-2.575-.664v2.657a2.437,2.437,0,0,1,1.877.665,5.261,5.261,0,0,0,5.117,0,2.935,2.935,0,0,1,3.721,0,3.577,3.577,0,0,0,2.575.664,3.659,3.659,0,0,0,2.558-.664,2.469,2.469,0,0,1,1.827-.665,2.436,2.436,0,0,1,1.877.665,3.579,3.579,0,0,0,2.575.664,3.728,3.728,0,0,0,2.575-.664,2.574,2.574,0,0,1,1.877-.665v-2.657a3.715,3.715,0,0,0-2.608.664A2.457,2.457,0,0,1,141.248,1436.659Z" fill="#4170ff"/>
    <path id="Path_212" data-name="Path 212" d="M141.248,1441.112a2.348,2.348,0,0,1-1.811-.665,3.576,3.576,0,0,0-2.574-.664,3.728,3.728,0,0,0-2.575.664,2.574,2.574,0,0,1-1.877.665,2.327,2.327,0,0,1-1.844-.665,3.446,3.446,0,0,0-2.542-.664,3.715,3.715,0,0,0-2.608.664,2.459,2.459,0,0,1-1.844.665,2.574,2.574,0,0,1-1.877-.665,3.73,3.73,0,0,0-2.575-.664v2.658a2.437,2.437,0,0,1,1.877.664,5.254,5.254,0,0,0,5.117,0,2.939,2.939,0,0,1,3.721,0,3.577,3.577,0,0,0,2.575.665,3.659,3.659,0,0,0,2.558-.665,2.469,2.469,0,0,1,1.827-.664,2.436,2.436,0,0,1,1.877.664,3.578,3.578,0,0,0,2.575.665,3.728,3.728,0,0,0,2.575-.665,2.573,2.573,0,0,1,1.877-.664v-2.658a3.715,3.715,0,0,0-2.608.664A2.457,2.457,0,0,1,141.248,1441.112Z" fill="#4170ff"/>
  </g>
</svg>
