<svg xmlns="http://www.w3.org/2000/svg" width="41.064" height="20.532" viewBox="0 0 41.064 20.532">
  <path id="Path_43" data-name="Path 43" d="M327.049,5773.852a2.477,2.477,0,0,1-1.968-.9,2.416,2.416,0,0,1-.556-2.1l.513-3.079a5.035,5.035,0,0,1,1.732-3.016,4.851,4.851,0,0,1,3.23-1.176,4.9,4.9,0,0,1,3.272,1.176,5.031,5.031,0,0,1,1.733,3.016l.513,3.079a2.416,2.416,0,0,1-.556,2.1,2.477,2.477,0,0,1-1.968.9Zm-12.277,1.668a2.951,2.951,0,0,1-1.69-.385,2.015,2.015,0,0,1-.919-1.326,2.327,2.327,0,0,1-.043-.77,2.13,2.13,0,0,1,.214-.727c0,.028-.014-.029-.043-.171a5.665,5.665,0,0,1-.428-1.027,1.663,1.663,0,0,1,.129-.984,2.74,2.74,0,0,1,.556-.813l.085-.085a2.156,2.156,0,0,1,.663-1.369,1.986,1.986,0,0,1,1.433-.556,5.672,5.672,0,0,1,.813.171l.128-.043a1.351,1.351,0,0,1,.556-.321,2.448,2.448,0,0,1,.728-.106,2.175,2.175,0,0,1,.834.149,1.3,1.3,0,0,1,.577.449.086.086,0,0,1,.064.022.089.089,0,0,0,.064.021,2.011,2.011,0,0,1,1.048.364,1.865,1.865,0,0,1,.663.877,1.617,1.617,0,0,1,.065.577,2.267,2.267,0,0,1-.107.535.721.721,0,0,0,.042.171,2.359,2.359,0,0,1,.471.663,1.74,1.74,0,0,1,.171.748,4.108,4.108,0,0,1-.257.9.184.184,0,0,0,0,.171l.086.684a1.964,1.964,0,0,1-.749,1.54,2.7,2.7,0,0,1-1.817.642Zm28.916.043a3.433,3.433,0,0,1-3.422-3.422,3.02,3.02,0,0,1,.15-.963,4.44,4.44,0,0,1,.406-.877l-1.2-1.069a.611.611,0,0,1-.149-.856.865.865,0,0,1,.791-.513h3.422a3.432,3.432,0,0,1,3.422,3.422v.856a3.433,3.433,0,0,1-3.422,3.422Zm-34.22,8.555v-2.7a3.408,3.408,0,0,1,1.9-3.016,9.558,9.558,0,0,1,4.941-1.133q.557,0,1.069.021a7.2,7.2,0,0,1,.984.107,6.463,6.463,0,0,0-.9,1.839,7.15,7.15,0,0,0-.3,2.1v2.781Zm10.266,0v-2.781a5.107,5.107,0,0,1,2.845-4.491,16.993,16.993,0,0,1,14.864,0,5.112,5.112,0,0,1,2.823,4.491v2.781Zm23.954-6.844a9.535,9.535,0,0,1,4.962,1.133,3.412,3.412,0,0,1,1.882,3.016v2.7h-7.7v-2.781a7.69,7.69,0,0,0-.278-2.1,6.706,6.706,0,0,0-.835-1.839,7.158,7.158,0,0,1,.963-.107Q343.175,5777.274,343.688,5777.274Z" transform="translate(-309.468 -5763.586)" fill="#4170ff"/>
</svg>
