<svg xmlns="http://www.w3.org/2000/svg" width="30.798" height="30.798" viewBox="0 0 30.798 30.798">
  <path id="Path_45" data-name="Path 45" d="M120.023,5789.251a1.681,1.681,0,0,1-1.711-1.711v-1.711H116.6v-6.844a1.681,1.681,0,0,1,1.711-1.711h1.711V5765.3a6.844,6.844,0,0,1,13.688,0v17.11a3.422,3.422,0,0,0,6.844,0V5770.43h-1.711a1.681,1.681,0,0,1-1.711-1.711v-6.844h1.711v-1.711a1.679,1.679,0,0,1,1.711-1.711h3.422a1.679,1.679,0,0,1,1.711,1.711v1.711H147.4v6.844a1.681,1.681,0,0,1-1.711,1.711h-1.711v11.977a6.844,6.844,0,0,1-13.688,0V5765.3a3.422,3.422,0,0,0-6.844,0v11.977h1.711a1.681,1.681,0,0,1,1.711,1.711v6.844h-1.711v1.711a1.681,1.681,0,0,1-1.711,1.711Z" transform="translate(-116.601 -5758.453)" fill="#4170ff"/>
</svg>
