<svg xmlns="http://www.w3.org/2000/svg" width="39.011" height="33.045" viewBox="0 0 39.011 33.045">
  <path id="Path_38" data-name="Path 38" d="M828.567,5790.374a16.043,16.043,0,0,1-6.357-1.262,16.768,16.768,0,0,1-5.209-3.465l2.616-2.616a13.214,13.214,0,0,0,4.039,2.685,12.841,12.841,0,1,0-7.94-11.864v.321l3.35-3.351,2.617,2.571-7.8,7.8-7.8-7.8,2.616-2.571,3.35,3.4v-.367a15.99,15.99,0,0,1,1.308-6.449,16.6,16.6,0,0,1,8.767-8.766,16.546,16.546,0,0,1,12.9,0,16.6,16.6,0,0,1,8.766,8.766,16.488,16.488,0,0,1-15.214,22.971Zm-3.672-9.179a1.8,1.8,0,0,1-1.836-1.836v-5.507a1.8,1.8,0,0,1,1.836-1.836v-1.836a3.672,3.672,0,0,1,7.344,0v1.836a1.8,1.8,0,0,1,1.835,1.836v5.507a1.8,1.8,0,0,1-1.835,1.836Zm1.836-9.179H830.4v-1.836a1.836,1.836,0,1,0-3.672,0Z" transform="translate(-806.078 -5757.329)" fill="#4170ff"/>
</svg>
