<svg xmlns="http://www.w3.org/2000/svg" width="33.34" height="30.005" viewBox="0 0 33.34 30.005">
  <path id="Path_46" data-name="Path 46" d="M18.664,5788.854a3.344,3.344,0,0,1-3.334-3.334v-23.337a3.344,3.344,0,0,1,3.334-3.334H42a3.344,3.344,0,0,1,3.334,3.334v3.334H48.67v3.334H45.336v3.334H48.67v3.334H45.336v3.333H48.67v3.334H45.336v3.334A3.344,3.344,0,0,1,42,5788.854ZM22,5782.186h8.335v-6.667H22Zm10-11.668h6.668v-5H32Zm-10,3.334h8.335v-8.335H22Zm10,8.334h6.668v-10H32Z" transform="translate(-15.33 -5758.849)" fill="#4170ff"/>
</svg>
