<svg xmlns="http://www.w3.org/2000/svg" width="36.422" height="40.975" viewBox="0 0 36.422 40.975">
  <path id="Path_41" data-name="Path 41" d="M526.143,5794.339l-2.55-2.595,3.324-3.324h-6.1a5.627,5.627,0,0,1-1.981,2.618,5.19,5.19,0,0,1-3.164,1.025,5.44,5.44,0,0,1-5.463-5.464,5.193,5.193,0,0,1,1.024-3.164,5.622,5.622,0,0,1,2.618-1.98v-15.207a5.625,5.625,0,0,1-2.618-1.98,5.192,5.192,0,0,1-1.024-3.164,5.439,5.439,0,0,1,5.463-5.463,5.189,5.189,0,0,1,3.164,1.024,5.627,5.627,0,0,1,1.981,2.618h6.1l-3.324-3.324,2.55-2.6,7.739,7.74-7.739,7.74-2.55-2.6,3.324-3.323h-6.1a5.315,5.315,0,0,1-3.324,3.323v15.207a5.316,5.316,0,0,1,3.324,3.323h6.1l-3.324-3.323,2.55-2.6,7.739,7.739Zm15.024-2.276a5.481,5.481,0,0,1-4.439-8.673,5.336,5.336,0,0,1,2.618-1.935v-15.207a5.346,5.346,0,0,1-2.618-1.934,5.463,5.463,0,1,1,8.878,0,5.351,5.351,0,0,1-2.618,1.934v15.207a5.622,5.622,0,0,1,2.618,1.98,5.2,5.2,0,0,1,1.024,3.164,5.442,5.442,0,0,1-5.463,5.464Z" transform="translate(-510.208 -5753.364)" fill="#4170ff"/>
</svg>
