<svg xmlns="http://www.w3.org/2000/svg" width="34.22" height="34.22" viewBox="0 0 34.22 34.22">
  <path id="Path_44" data-name="Path 44" d="M224.156,5784.118a3.434,3.434,0,0,1-3.422-3.422v-3.422h3.422v3.422h20.532v-17.11H224.156v3.422h-3.422v-6.844a3.431,3.431,0,0,1,3.422-3.422h20.532a3.431,3.431,0,0,1,3.422,3.422V5780.7a3.434,3.434,0,0,1-3.422,3.422Zm-6.844,6.844a3.433,3.433,0,0,1-3.422-3.422v-23.954h3.422v23.954h23.954v3.422Zm15.4-11.977-2.4-2.4,2.694-2.737H220.734v-3.422H233.01l-2.694-2.738,2.4-2.4,6.844,6.844Z" transform="translate(-213.89 -5756.742)" fill="#4170ff"/>
</svg>
