<svg xmlns="http://www.w3.org/2000/svg" width="36.869" height="33.357" viewBox="0 0 36.869 33.357">
  <path id="Path_37" data-name="Path 37" d="M913.172,5769.462h8.778v-3.511h-8.778Zm-3.512,15.8a3.522,3.522,0,0,1-3.511-3.511v-21.068a3.522,3.522,0,0,1,3.511-3.511h28.091a3.385,3.385,0,0,1,2.063.68,3.478,3.478,0,0,1,1.273,1.734,6.38,6.38,0,0,0-1.6-.5,9.837,9.837,0,0,0-1.734-.154,8.767,8.767,0,0,0-8.778,8.779,9.383,9.383,0,0,0,.175,1.843,7.926,7.926,0,0,0,.527,1.668H921.95v1.756h-8.778v3.511h8.778v1.756a8.141,8.141,0,0,0-2.589,3.006,8.76,8.76,0,0,0-.922,4.016Zm17.557,1.756a1.723,1.723,0,1,0-1.251-.5A1.7,1.7,0,0,0,927.217,5787.019Zm10.534-17.557a1.722,1.722,0,1,0-1.251-.5A1.7,1.7,0,0,0,937.751,5769.462Zm-10.534,21.068a5.261,5.261,0,0,1-1.755-10.226v-5.575H936v-2.063a5.28,5.28,0,1,1,3.511,0v5.575H928.973v2.063a5.261,5.261,0,0,1-1.756,10.226Z" transform="translate(-906.149 -5757.173)" fill="#4170ff"/>
</svg>
