<svg xmlns="http://www.w3.org/2000/svg" width="37.864" height="30.979" viewBox="0 0 37.864 30.979">
  <path id="Path_42" data-name="Path 42" d="M428.419,5770.409l-6.024-6.023,6.024-6.024,6.024,6.024Zm-18.932,18.932v-6.884A3.3,3.3,0,0,1,410.5,5780a3.354,3.354,0,0,1,2.431-.989h5.637a3.323,3.323,0,0,1,1.635.43,3.465,3.465,0,0,1,1.247,1.162,8.885,8.885,0,0,0,3.077,2.625,8.353,8.353,0,0,0,3.894.946,8.52,8.52,0,0,0,6.97-3.571,4.39,4.39,0,0,1,1.313-1.162,3.122,3.122,0,0,1,1.57-.43h5.637a3.38,3.38,0,0,1,3.442,3.442v6.884H435.3v-3.915a11.7,11.7,0,0,1-6.884,2.194,11.467,11.467,0,0,1-3.614-.581,12.1,12.1,0,0,1-3.27-1.656v3.958Zm5.163-12.047a5.105,5.105,0,1,1,3.679-1.506A4.979,4.979,0,0,1,414.65,5777.294Zm27.538,0a5.105,5.105,0,1,1,3.679-1.506A4.98,4.98,0,0,1,442.188,5777.294Z" transform="translate(-409.487 -5758.362)" fill="#4170ff"/>
</svg>
