<svg xmlns="http://www.w3.org/2000/svg" width="37.826" height="27.51" viewBox="0 0 37.826 27.51">
  <path id="Path_225" data-name="Path 225" d="M216.6,1062.755a3.448,3.448,0,0,1-3.439-3.439V1040.4H216.6v18.913h29.229v3.439Zm6.877-6.878a3.448,3.448,0,0,1-3.438-3.438v-13.755a3.448,3.448,0,0,1,3.438-3.439h24.071a3.448,3.448,0,0,1,3.439,3.439v13.755a3.448,3.448,0,0,1-3.439,3.438Zm3.439-3.438a3.448,3.448,0,0,0-3.439-3.439v3.439Zm17.193,0h3.439V1049a3.45,3.45,0,0,0-3.439,3.439Zm-8.6-1.72a5.135,5.135,0,1,0-3.654-1.5A4.972,4.972,0,0,0,235.51,1050.719Zm-12.036-8.6a3.448,3.448,0,0,0,3.439-3.439h-3.439Zm24.071,0v-3.439h-3.439a3.45,3.45,0,0,0,3.439,3.439Z" transform="translate(-213.158 -1035.245)" fill="#4170ff"/>
</svg>
