<svg xmlns="http://www.w3.org/2000/svg" width="35.669" height="35.872" viewBox="0 0 35.669 35.872">
  <path id="Path_226" data-name="Path 226" d="M127.833,1062.248a16.463,16.463,0,0,1-6.889-5.91,15.669,15.669,0,0,1-2.65-8.928q0-1.059.1-2.079a13.958,13.958,0,0,1,.346-2l-1.875,1.1-1.63-2.812,7.786-4.484,4.484,7.745-2.854,1.63-2.2-3.832a11.967,11.967,0,0,0-.673,2.283,13.144,13.144,0,0,0-.224,2.446,12.685,12.685,0,0,0,2.161,7.195,12.922,12.922,0,0,0,5.747,4.79Zm12.474-19.77v-3.261h4.443a13.069,13.069,0,0,0-4.525-3.608,13.111,13.111,0,0,0-9.865-.591,13.27,13.27,0,0,0-3.669,1.956l-1.63-2.853a17.5,17.5,0,0,1,4.443-2.242,15.754,15.754,0,0,1,5.1-.815,16.13,16.13,0,0,1,11.414,4.688v-2.243h3.261v8.969Zm-1.06,24.458-7.786-4.484,4.484-7.745,2.813,1.631-2.324,3.995a13.056,13.056,0,0,0,11.21-12.964c0-.3-.006-.577-.02-.835a5.654,5.654,0,0,0-.1-.8h3.3c.027.272.048.537.061.8s.021.536.021.835a16.268,16.268,0,0,1-11.822,15.695l1.794,1.06Z" transform="translate(-115.237 -1031.064)" fill="#4170ff"/>
</svg>
