<svg xmlns="http://www.w3.org/2000/svg" width="33.931" height="37.182" viewBox="0 0 33.931 37.182">
  <path id="Path_223" data-name="Path 223" d="M427.186,1067.591v-17.248l-15.08-8.718v15.127a3.679,3.679,0,0,0,.494,1.885,3.749,3.749,0,0,0,1.391,1.367Zm3.77,0,13.2-7.587a3.754,3.754,0,0,0,1.39-1.367,3.67,3.67,0,0,0,.495-1.885v-15.127l-15.081,8.718Zm7.493-25.919,5.561-3.252-13.054-7.493a3.689,3.689,0,0,0-3.77,0l-3.723,2.121Zm-9.378,5.419,5.608-3.2-14.939-8.671-5.655,3.251Z" transform="translate(-412.106 -1030.409)" fill="#4170ff"/>
</svg>
