<?xml version="1.0" encoding="UTF-8"?>
<svg id="Layer_1" data-name="Layer 1" xmlns="http://www.w3.org/2000/svg" xmlns:xlink="http://www.w3.org/1999/xlink" viewBox="0 0 1002.86 354.07">
  <defs>
    <style>
      .cls-1 {
        stroke-dasharray: 0 0 3.27 3.27;
        stroke-width: 1.63px;
      }

      .cls-1, .cls-2, .cls-3 {
        fill: none;
      }

      .cls-1, .cls-3 {
        stroke: #a6a8aa;
        stroke-miterlimit: 10;
      }

      .cls-2, .cls-4, .cls-5, .cls-6, .cls-7, .cls-8, .cls-9, .cls-10, .cls-11, .cls-12, .cls-13, .cls-14, .cls-15, .cls-16, .cls-17, .cls-18, .cls-19, .cls-20 {
        stroke-width: 0px;
      }

      .cls-4 {
        filter: url(#drop-shadow-12);
      }

      .cls-4, .cls-5, .cls-18 {
        fill: #0645d3;
      }

      .cls-5 {
        filter: url(#drop-shadow-13);
      }

      .cls-6 {
        filter: url(#drop-shadow-14);
      }

      .cls-6, .cls-7, .cls-8, .cls-9, .cls-16 {
        fill: #4d6fff;
      }

      .cls-7 {
        filter: url(#drop-shadow-15);
      }

      .cls-8 {
        filter: url(#drop-shadow-11);
      }

      .cls-9 {
        filter: url(#drop-shadow-10);
      }

      .cls-21 {
        isolation: isolate;
      }

      .cls-10 {
        filter: url(#drop-shadow-8);
      }

      .cls-10, .cls-11, .cls-12, .cls-13, .cls-14, .cls-15, .cls-20 {
        fill: #fff;
      }

      .cls-11 {
        filter: url(#drop-shadow-6);
      }

      .cls-12 {
        filter: url(#drop-shadow-9);
      }

      .cls-13 {
        filter: url(#drop-shadow-7);
      }

      .cls-14 {
        filter: url(#drop-shadow-4);
      }

      .cls-15 {
        filter: url(#drop-shadow-5);
      }

      .cls-17 {
        fill: #58595b;
      }

      .cls-19 {
        fill: #8098ff;
      }

      .cls-3 {
        stroke-width: 2.42px;
      }
    </style>
    <filter id="drop-shadow-4" filterUnits="userSpaceOnUse">
      <feOffset dx="1.06" dy="1.06"/>
      <feGaussianBlur result="blur" stdDeviation="5.28"/>
      <feFlood flood-color="#000" flood-opacity=".5"/>
      <feComposite in2="blur" operator="in"/>
      <feComposite in="SourceGraphic"/>
    </filter>
    <filter id="drop-shadow-5" filterUnits="userSpaceOnUse">
      <feOffset dx="1.06" dy="1.06"/>
      <feGaussianBlur result="blur-2" stdDeviation="5.28"/>
      <feFlood flood-color="#000" flood-opacity=".5"/>
      <feComposite in2="blur-2" operator="in"/>
      <feComposite in="SourceGraphic"/>
    </filter>
    <filter id="drop-shadow-6" filterUnits="userSpaceOnUse">
      <feOffset dx="1.06" dy="1.06"/>
      <feGaussianBlur result="blur-3" stdDeviation="5.28"/>
      <feFlood flood-color="#000" flood-opacity=".5"/>
      <feComposite in2="blur-3" operator="in"/>
      <feComposite in="SourceGraphic"/>
    </filter>
    <filter id="drop-shadow-7" filterUnits="userSpaceOnUse">
      <feOffset dx="1.06" dy="1.06"/>
      <feGaussianBlur result="blur-4" stdDeviation="5.28"/>
      <feFlood flood-color="#000" flood-opacity=".5"/>
      <feComposite in2="blur-4" operator="in"/>
      <feComposite in="SourceGraphic"/>
    </filter>
    <filter id="drop-shadow-8" filterUnits="userSpaceOnUse">
      <feOffset dx="1.06" dy="1.06"/>
      <feGaussianBlur result="blur-5" stdDeviation="5.28"/>
      <feFlood flood-color="#000" flood-opacity=".5"/>
      <feComposite in2="blur-5" operator="in"/>
      <feComposite in="SourceGraphic"/>
    </filter>
    <filter id="drop-shadow-9" filterUnits="userSpaceOnUse">
      <feOffset dx="1.06" dy="1.06"/>
      <feGaussianBlur result="blur-6" stdDeviation="5.28"/>
      <feFlood flood-color="#000" flood-opacity=".5"/>
      <feComposite in2="blur-6" operator="in"/>
      <feComposite in="SourceGraphic"/>
    </filter>
    <filter id="drop-shadow-10" filterUnits="userSpaceOnUse">
      <feOffset dx="1" dy="1"/>
      <feGaussianBlur result="blur-7" stdDeviation="5"/>
      <feFlood flood-color="#000" flood-opacity=".5"/>
      <feComposite in2="blur-7" operator="in"/>
      <feComposite in="SourceGraphic"/>
    </filter>
    <filter id="drop-shadow-11" filterUnits="userSpaceOnUse">
      <feOffset dx="1" dy="1"/>
      <feGaussianBlur result="blur-8" stdDeviation="5"/>
      <feFlood flood-color="#000" flood-opacity=".5"/>
      <feComposite in2="blur-8" operator="in"/>
      <feComposite in="SourceGraphic"/>
    </filter>
    <filter id="drop-shadow-12" filterUnits="userSpaceOnUse">
      <feOffset dx="1" dy="1"/>
      <feGaussianBlur result="blur-9" stdDeviation="5"/>
      <feFlood flood-color="#000" flood-opacity=".5"/>
      <feComposite in2="blur-9" operator="in"/>
      <feComposite in="SourceGraphic"/>
    </filter>
    <filter id="drop-shadow-13" filterUnits="userSpaceOnUse">
      <feOffset dx="1" dy="1"/>
      <feGaussianBlur result="blur-10" stdDeviation="5"/>
      <feFlood flood-color="#000" flood-opacity=".5"/>
      <feComposite in2="blur-10" operator="in"/>
      <feComposite in="SourceGraphic"/>
    </filter>
    <filter id="drop-shadow-14" filterUnits="userSpaceOnUse">
      <feOffset dx="1" dy="1"/>
      <feGaussianBlur result="blur-11" stdDeviation="5"/>
      <feFlood flood-color="#000" flood-opacity=".5"/>
      <feComposite in2="blur-11" operator="in"/>
      <feComposite in="SourceGraphic"/>
    </filter>
    <filter id="drop-shadow-15" filterUnits="userSpaceOnUse">
      <feOffset dx="1" dy="1"/>
      <feGaussianBlur result="blur-12" stdDeviation="5"/>
      <feFlood flood-color="#000" flood-opacity=".5"/>
      <feComposite in2="blur-12" operator="in"/>
      <feComposite in="SourceGraphic"/>
    </filter>
  </defs>
  <path id="Path_18" data-name="Path 18" class="cls-19" d="M683.68,251.44h235.1c17.13,0,31.02,13.89,31.02,31.02s-13.89,31.02-31.02,31.02h-235.1c-17.13,0-31.02-13.89-31.02-31.02s13.89-31.02,31.02-31.02Z"/>
  <path id="Path_16" data-name="Path 16" class="cls-18" d="M683.68,52.91h235.1c17.13,0,31.02,13.89,31.02,31.02s-13.89,31.02-31.02,31.02h-235.1c-17.13,0-31.02-13.89-31.02-31.02s13.89-31.02,31.02-31.02Z"/>
  <path id="Path_17" data-name="Path 17" class="cls-16" d="M706.72,152.17h235.1c17.13,0,31.02,13.89,31.02,31.02s-13.89,31.02-31.02,31.02h-235.1c-17.13,0-31.02-13.89-31.02-31.02s13.89-31.02,31.02-31.02Z"/>
  <path class="cls-20" d="M748.91,183.53c0,21.98-17.82,39.79-39.79,39.79s-39.79-17.82-39.79-39.79,17.82-39.79,39.79-39.79,39.79,17.82,39.79,39.79Z"/>
  <path class="cls-20" d="M726.45,284.81c0,21.98-17.82,39.79-39.79,39.79s-39.79-17.82-39.79-39.79,17.82-39.79,39.79-39.79,39.79,17.82,39.79,39.79Z"/>
  <path id="Path_21" data-name="Path 21" class="cls-18" d="M86.97,251.44h235.1c17.13,0,31.02,13.89,31.02,31.02s-13.89,31.02-31.02,31.02H86.97c-17.13,0-31.02-13.89-31.02-31.02s13.89-31.02,31.02-31.02Z"/>
  <path class="cls-20" d="M358.33,282.06c0,21.98-17.82,39.79-39.79,39.79s-39.79-17.82-39.79-39.79,17.82-39.79,39.79-39.79,39.79,17.82,39.79,39.79Z"/>
  <path id="Path_20" data-name="Path 20" class="cls-16" d="M63.93,152.17h235.1c17.13,0,31.02,13.89,31.02,31.02s-13.89,31.02-31.02,31.02H63.93c-17.13,0-31.02-13.89-31.02-31.02s13.89-31.02,31.02-31.02Z"/>
  <path class="cls-20" d="M336.28,183.53c0,21.98-17.82,39.79-39.79,39.79s-39.79-17.82-39.79-39.79,17.82-39.79,39.79-39.79,39.79,17.82,39.79,39.79Z"/>
  <path id="Path_19" data-name="Path 19" class="cls-19" d="M86.97,61.77h235.1c17.13,0,31.02,13.89,31.02,31.02s-13.89,31.02-31.02,31.02H86.97c-17.13,0-31.02-13.89-31.02-31.02s13.89-31.02,31.02-31.02Z"/>
  <path class="cls-20" d="M359.28,92.53c0,21.98-17.82,39.79-39.79,39.79s-39.79-17.82-39.79-39.79,17.82-39.79,39.79-39.79,39.79,17.82,39.79,39.79Z"/>
  <path class="cls-20" d="M726.43,83.72c0,21.98-17.82,39.79-39.79,39.79s-39.79-17.82-39.79-39.79,17.82-39.79,39.79-39.79,39.79,17.82,39.79,39.79Z"/>
  <circle id="Ellipse_30" data-name="Ellipse 30" class="cls-17" cx="503.32" cy="181.86" r="108.83"/>
  <g id="Ellipse_31" data-name="Ellipse 31">
    <circle class="cls-1" cx="503.32" cy="181.86" r="146.48"/>
    <circle class="cls-2" cx="503.32" cy="181.86" r="157.31"/>
  </g>
  <g class="cls-21">
    <path class="cls-20" d="M467.68,201.86c0,3.38-1.89,5.28-5.2,5.28h-4.08v-10.56h4.08c3.31,0,5.2,1.91,5.2,5.28ZM465.39,201.86c0-2.27-1.01-3.52-3.03-3.52h-1.76v7.04h1.76c2.02,0,3.03-1.25,3.03-3.52Z"/>
    <path class="cls-20" d="M477.45,203.14c0,2.61-1.52,4.16-4.1,4.16s-4.1-1.55-4.1-4.16,1.52-4.16,4.1-4.16,4.1,1.55,4.1,4.16ZM471.45,203.14c0,1.7.67,2.53,1.91,2.53s1.9-.83,1.9-2.53-.67-2.53-1.9-2.53-1.91.83-1.91,2.53Z"/>
    <path class="cls-20" d="M486.67,201.33l-2.05.74c-.19-.96-.7-1.46-1.55-1.46-1.25,0-1.95.86-1.95,2.54s.75,2.51,1.94,2.51c.96,0,1.5-.51,1.66-1.42l1.99.64c-.34,1.42-1.58,2.42-3.62,2.42-2.66,0-4.16-1.54-4.16-4.16s1.52-4.16,4.08-4.16c2.26,0,3.28,1.04,3.67,2.35Z"/>
    <path class="cls-20" d="M493.93,206.65c-.51.42-1.34.66-2.19.66-1.58,0-2.67-.66-2.67-2.42v-4.11h-1.46v-1.63h1.46v-1.84l2.19-.61v2.45h2.59v1.63h-2.59v3.76c0,.77.42,1.1,1.1,1.1.53,0,.9-.16,1.23-.45l.34,1.46Z"/>
    <path class="cls-20" d="M500.7,199.16l-.27,1.92c-.22-.14-.59-.24-1.01-.24-.96,0-1.92.7-1.92,2.16v4.15h-2.19v-8h1.91l.14,1.57c.42-1.1,1.23-1.73,2.48-1.73.35,0,.67.06.86.18Z"/>
    <path class="cls-20" d="M501.8,196.82c0-.78.45-1.18,1.36-1.18s1.36.4,1.36,1.18-.45,1.17-1.36,1.17-1.36-.38-1.36-1.17ZM504.25,207.15h-2.19v-8h2.19v8Z"/>
    <path class="cls-20" d="M514.22,201.9v5.25h-2.19v-4.61c0-1.38-.59-1.83-1.42-1.83-.93,0-1.84.61-1.84,2.21v4.23h-2.19v-8h1.97l.08,1.42c.53-1.07,1.52-1.58,2.72-1.58,1.66,0,2.88.98,2.88,2.91Z"/>
    <path class="cls-20" d="M523.88,203.98h-5.67c.22,1.15.93,1.7,2,1.7.93,0,1.54-.35,1.76-.99l1.79.66c-.51,1.28-1.74,1.97-3.55,1.97-2.66,0-4.16-1.54-4.16-4.16s1.46-4.16,4.03-4.16,3.86,1.5,3.86,4.13c0,.22-.03.66-.06.86ZM518.2,202.44h3.73c-.18-1.2-.85-1.84-1.86-1.84s-1.7.62-1.87,1.84Z"/>
    <path class="cls-20" d="M538.46,203.14c0,2.61-1.52,4.16-4.1,4.16s-4.1-1.55-4.1-4.16,1.52-4.16,4.1-4.16,4.1,1.55,4.1,4.16ZM532.46,203.14c0,1.7.67,2.53,1.91,2.53s1.9-.83,1.9-2.53-.67-2.53-1.9-2.53-1.91.83-1.91,2.53Z"/>
    <path class="cls-20" d="M542.92,199.14h2.53v1.63h-2.43v6.37h-2.19v-6.37h-1.39v-1.63h1.39v-.96c0-1.81,1.23-2.71,3.03-2.71.72,0,1.33.16,1.67.42l-.3,1.46c-.24-.16-.51-.24-.91-.24-.86,0-1.38.35-1.38,1.23v.8Z"/>
    <path class="cls-20" d="M468.67,226.51c-3.14,0-5.09-2.05-5.09-5.44s1.97-5.44,5.06-5.44c2.16,0,3.78.9,4.37,2.74l-2,.85c-.35-1.28-1.06-1.78-2.27-1.78-1.76,0-2.86,1.28-2.86,3.63s1.04,3.63,2.82,3.63c1.26,0,2.1-.61,2.43-1.87l2.03.61c-.64,2.06-2.34,3.07-4.48,3.07Z"/>
    <path class="cls-20" d="M482.42,218.34v8h-1.95l-.08-1.38c-.53,1.06-1.52,1.54-2.8,1.54-1.62,0-2.82-.82-2.82-2.87v-5.3h2.19v4.74c0,1.3.53,1.7,1.39,1.7,1.04,0,1.87-.66,1.87-2.15v-4.29h2.19Z"/>
    <path class="cls-20" d="M484.11,224.97l1.28-1.31c.45.96,1.31,1.25,2.4,1.25.94,0,1.47-.29,1.47-.72,0-.37-.43-.59-1.6-.83-2.5-.5-3.33-1.26-3.33-2.59s1.23-2.58,3.6-2.58c1.84,0,2.83.54,3.57,1.7l-1.36,1.15c-.46-.83-1.1-1.25-2.18-1.25-.9,0-1.44.35-1.44.77s.4.7,1.75.98c2.34.46,3.2,1.17,3.2,2.5,0,1.44-1.26,2.48-3.65,2.48-1.65,0-2.98-.45-3.71-1.54Z"/>
    <path class="cls-20" d="M498.71,225.85c-.51.42-1.34.66-2.19.66-1.58,0-2.67-.66-2.67-2.42v-4.11h-1.46v-1.63h1.46v-1.84l2.19-.61v2.45h2.59v1.63h-2.59v3.76c0,.77.42,1.1,1.1,1.1.53,0,.9-.16,1.23-.45l.34,1.46Z"/>
    <path class="cls-20" d="M507.86,222.34c0,2.61-1.52,4.16-4.1,4.16s-4.1-1.55-4.1-4.16,1.52-4.16,4.1-4.16,4.1,1.55,4.1,4.16ZM501.86,222.34c0,1.7.67,2.53,1.91,2.53s1.9-.83,1.9-2.53-.67-2.53-1.9-2.53-1.91.83-1.91,2.53Z"/>
    <path class="cls-20" d="M522.61,221.1l-.02,5.25h-2.18v-4.82c0-1.17-.58-1.62-1.38-1.62-.98,0-1.76.74-1.76,2.13v4.31h-2.19v-4.82c0-1.17-.58-1.62-1.39-1.62s-1.76.62-1.76,2.19v4.24h-2.19v-8h1.97l.08,1.41c.53-1.06,1.52-1.57,2.64-1.57s2.18.53,2.61,1.62c.53-1.09,1.6-1.62,2.72-1.62,1.55,0,2.87.94,2.85,2.91Z"/>
    <path class="cls-20" d="M532.27,223.18h-5.67c.22,1.15.93,1.7,2,1.7.93,0,1.54-.35,1.76-.99l1.79.66c-.51,1.28-1.74,1.97-3.55,1.97-2.66,0-4.16-1.54-4.16-4.16s1.46-4.16,4.03-4.16,3.86,1.5,3.86,4.13c0,.22-.03.66-.06.86ZM526.59,221.64h3.73c-.18-1.2-.85-1.84-1.86-1.84s-1.7.62-1.87,1.84Z"/>
    <path class="cls-20" d="M539.57,218.36l-.27,1.92c-.22-.14-.59-.24-1.01-.24-.96,0-1.92.7-1.92,2.16v4.15h-2.19v-8h1.91l.14,1.57c.42-1.1,1.23-1.73,2.48-1.73.35,0,.67.06.86.18Z"/>
    <path class="cls-20" d="M466.88,243.77v1.78h-8.15v-10.56h7.92v1.78h-5.71v2.62h4.5v1.7h-4.5v2.69h5.94Z"/>
    <path class="cls-20" d="M473.81,245.55l-1.81-2.93-1.84,2.93h-2.45l2.95-4.05-2.8-3.95h2.53l1.71,2.8,1.71-2.8h2.46l-2.83,3.94,2.88,4.07h-2.51Z"/>
    <path class="cls-20" d="M485.88,241.53c0,2.62-1.31,4.18-3.43,4.18-1.18,0-2.05-.59-2.51-1.49v4.69h-2.19v-11.36h1.94l.08,1.55c.45-1.02,1.41-1.71,2.69-1.71,2.13,0,3.43,1.54,3.43,4.15ZM483.67,241.54c0-1.63-.71-2.48-1.87-2.48s-1.86.85-1.86,2.4v.16c0,1.52.7,2.4,1.86,2.4s1.87-.85,1.87-2.48Z"/>
    <path class="cls-20" d="M495.22,242.38h-5.67c.22,1.15.93,1.7,2,1.7.93,0,1.54-.35,1.76-.99l1.79.66c-.51,1.28-1.74,1.97-3.55,1.97-2.66,0-4.16-1.54-4.16-4.16s1.46-4.16,4.03-4.16,3.86,1.5,3.86,4.13c0,.22-.03.66-.06.86ZM489.54,240.84h3.73c-.18-1.2-.85-1.84-1.86-1.84s-1.7.62-1.87,1.84Z"/>
    <path class="cls-20" d="M502.52,237.56l-.27,1.92c-.22-.14-.59-.24-1.01-.24-.96,0-1.92.7-1.92,2.16v4.15h-2.19v-8h1.91l.14,1.57c.42-1.1,1.23-1.73,2.48-1.73.35,0,.67.06.86.18Z"/>
    <path class="cls-20" d="M503.62,235.22c0-.78.45-1.18,1.36-1.18s1.36.4,1.36,1.18-.45,1.17-1.36,1.17-1.36-.38-1.36-1.17ZM506.07,245.55h-2.19v-8h2.19v8Z"/>
    <path class="cls-20" d="M515.8,242.38h-5.67c.22,1.15.93,1.7,2,1.7.93,0,1.54-.35,1.76-.99l1.79.66c-.51,1.28-1.74,1.97-3.55,1.97-2.66,0-4.16-1.54-4.16-4.16s1.46-4.16,4.03-4.16,3.86,1.5,3.86,4.13c0,.22-.03.66-.06.86ZM510.11,240.84h3.73c-.18-1.2-.85-1.84-1.86-1.84s-1.7.62-1.87,1.84Z"/>
    <path class="cls-20" d="M525.35,240.3v5.25h-2.19v-4.61c0-1.38-.59-1.83-1.42-1.83-.93,0-1.84.61-1.84,2.21v4.23h-2.19v-8h1.97l.08,1.42c.53-1.07,1.52-1.58,2.72-1.58,1.66,0,2.88.98,2.88,2.91Z"/>
    <path class="cls-20" d="M534.93,239.74l-2.05.74c-.19-.96-.7-1.46-1.55-1.46-1.25,0-1.95.86-1.95,2.54s.75,2.51,1.94,2.51c.96,0,1.5-.51,1.66-1.42l1.99.64c-.34,1.42-1.58,2.42-3.62,2.42-2.66,0-4.16-1.54-4.16-4.16s1.52-4.16,4.08-4.16c2.26,0,3.28,1.04,3.67,2.35Z"/>
    <path class="cls-20" d="M544.11,242.38h-5.67c.22,1.15.93,1.7,2,1.7.93,0,1.54-.35,1.76-.99l1.79.66c-.51,1.28-1.74,1.97-3.55,1.97-2.66,0-4.16-1.54-4.16-4.16s1.46-4.16,4.03-4.16,3.86,1.5,3.86,4.13c0,.22-.03.66-.06.86ZM538.43,240.84h3.73c-.18-1.2-.85-1.84-1.86-1.84s-1.7.62-1.87,1.84Z"/>
  </g>
  <g class="cls-21">
    <path class="cls-20" d="M798.99,172.35l-1.5,1.71v3.11h-2.21v-10.56h2.21v5.01l4.34-5.01h2.56l-3.81,4.32,3.94,6.24h-2.53l-2.99-4.82Z"/>
    <path class="cls-20" d="M814.47,169.99c0,2.1-1.44,3.33-3.89,3.33h-2.22v3.84h-2.21v-10.56h4.43c2.45,0,3.89,1.23,3.89,3.39ZM812.23,169.98c0-1.07-.61-1.62-1.98-1.62h-1.89v3.25h1.89c1.38,0,1.98-.56,1.98-1.63Z"/>
    <path class="cls-20" d="M818.69,177.16h-2.21v-10.56h2.21v10.56Z"/>
    <path class="cls-20" d="M835.62,171.88c0,3.38-1.89,5.28-5.2,5.28h-4.08v-10.56h4.08c3.31,0,5.2,1.91,5.2,5.28ZM833.33,171.88c0-2.27-1.01-3.52-3.03-3.52h-1.76v7.04h1.76c2.02,0,3.03-1.25,3.03-3.52Z"/>
    <path class="cls-20" d="M845.02,174h-5.67c.22,1.15.93,1.7,2,1.7.93,0,1.54-.35,1.76-.99l1.79.66c-.51,1.28-1.74,1.97-3.55,1.97-2.66,0-4.16-1.54-4.16-4.16s1.46-4.16,4.03-4.16,3.86,1.5,3.86,4.13c0,.22-.03.66-.06.86ZM839.34,172.46h3.73c-.18-1.2-.85-1.84-1.86-1.84s-1.7.62-1.87,1.84Z"/>
    <path class="cls-20" d="M849.55,168.36v.8h2.53v1.63h-2.43v6.37h-2.19v-6.37h-1.39v-1.63h1.39v-.96c0-1.81,1.23-2.71,3.03-2.71.72,0,1.33.16,1.67.42l-.3,1.46c-.24-.16-.51-.24-.91-.24-.86,0-1.38.35-1.38,1.23ZM853.14,166.84c0-.78.45-1.18,1.36-1.18s1.36.4,1.36,1.18-.45,1.17-1.36,1.17-1.36-.38-1.36-1.17ZM853.39,169.16h2.19v8h-2.19v-8Z"/>
    <path class="cls-20" d="M865.55,171.91v5.25h-2.19v-4.61c0-1.38-.59-1.83-1.42-1.83-.93,0-1.84.61-1.84,2.21v4.23h-2.19v-8h1.97l.08,1.42c.53-1.07,1.52-1.58,2.72-1.58,1.66,0,2.88.98,2.88,2.91Z"/>
    <path class="cls-20" d="M875.22,174h-5.67c.22,1.15.93,1.7,2,1.7.93,0,1.54-.35,1.76-.99l1.79.66c-.51,1.28-1.74,1.97-3.55,1.97-2.66,0-4.16-1.54-4.16-4.16s1.46-4.16,4.03-4.16,3.86,1.5,3.86,4.13c0,.22-.03.66-.06.86ZM869.53,172.46h3.73c-.18-1.2-.85-1.84-1.86-1.84s-1.7.62-1.87,1.84Z"/>
    <path class="cls-20" d="M884.86,165.66v11.51h-1.95l-.1-1.44c-.46.96-1.41,1.6-2.64,1.6-2.13,0-3.43-1.54-3.43-4.15s1.31-4.18,3.43-4.18c1.17,0,2.03.58,2.5,1.46v-4.8h2.19ZM882.67,173.63v-.93c-.11-1.28-.78-2.02-1.84-2.02-1.17,0-1.87.85-1.87,2.48s.7,2.48,1.87,2.48c1.04,0,1.73-.7,1.84-2.02Z"/>
    <path class="cls-20" d="M782.13,187.67l-1.52,1.49c-.54-1.14-1.42-1.71-2.85-1.71-1.33,0-2,.56-2,1.31,0,.71.58,1.09,2.43,1.42,2.85.53,3.92,1.41,3.92,3.17,0,1.98-1.81,3.17-4.34,3.17s-3.76-.69-4.66-1.97l1.31-1.57c.83,1.38,1.84,1.73,3.27,1.73s2.1-.43,2.1-1.23c0-.58-.56-.91-2.31-1.26-2.94-.59-4.07-1.49-4.07-3.25,0-1.87,1.58-3.33,4.32-3.33,1.97,0,3.31.62,4.39,2.03Z"/>
    <path class="cls-20" d="M789.44,195.87c-.51.42-1.34.66-2.19.66-1.58,0-2.67-.66-2.67-2.42v-4.11h-1.46v-1.63h1.46v-1.84l2.19-.61v2.45h2.59v1.63h-2.59v3.76c0,.77.42,1.1,1.1,1.1.53,0,.9-.16,1.23-.45l.34,1.46Z"/>
    <path class="cls-20" d="M796.21,188.38l-.27,1.92c-.22-.14-.59-.24-1.01-.24-.96,0-1.92.7-1.92,2.16v4.15h-2.19v-8h1.91l.14,1.57c.42-1.1,1.23-1.73,2.48-1.73.35,0,.67.06.86.18Z"/>
    <path class="cls-20" d="M805.28,194.97l-.16,1.33c-.29.14-.64.22-1.04.22-.96,0-1.62-.34-1.84-1.2-.48.78-1.49,1.2-2.83,1.2-1.52,0-2.48-.7-2.48-2.05,0-1.25.98-2.13,3.12-2.53l1.92-.37v-.38c0-.85-.5-1.39-1.36-1.39-.93,0-1.6.35-1.84,1.36l-1.75-.74c.34-1.36,1.54-2.22,3.49-2.22,2.22,0,3.63.96,3.63,2.95v3.28c0,.42.18.61.59.61.19,0,.38-.02.54-.06ZM801.97,193.76v-.83l-1.71.38c-.7.16-1.07.42-1.07.94s.34.79.91.79c.83,0,1.87-.43,1.87-1.28Z"/>
    <path class="cls-20" d="M811.78,195.87c-.51.42-1.34.66-2.19.66-1.58,0-2.67-.66-2.67-2.42v-4.11h-1.46v-1.63h1.46v-1.84l2.19-.61v2.45h2.59v1.63h-2.59v3.76c0,.77.42,1.1,1.1,1.1.53,0,.9-.16,1.23-.45l.34,1.46Z"/>
    <path class="cls-20" d="M820.56,193.2h-5.67c.22,1.15.93,1.7,2,1.7.93,0,1.54-.35,1.76-.99l1.79.66c-.51,1.28-1.74,1.97-3.55,1.97-2.66,0-4.16-1.54-4.16-4.16s1.46-4.16,4.03-4.16,3.86,1.5,3.86,4.13c0,.22-.03.66-.06.86ZM814.88,191.66h3.73c-.18-1.2-.85-1.84-1.86-1.84s-1.7.62-1.87,1.84Z"/>
    <path class="cls-20" d="M830.06,197.09c0,1.74-1.79,2.72-4.31,2.72-2.75,0-3.94-.8-3.94-1.97,0-.7.48-1.28,1.46-1.52-.66-.29-1.18-.82-1.18-1.6s.51-1.34,1.28-1.62c-.83-.46-1.26-1.22-1.26-2.18,0-1.68,1.41-2.72,3.68-2.72.59,0,1.14.06,1.6.21.26-1.18.99-2.02,2.43-1.95l.29,1.57c-1.01-.1-1.63.22-1.87.75.78.46,1.22,1.2,1.22,2.14,0,1.67-1.39,2.71-3.67,2.71-.53,0-1.01-.05-1.44-.14-.46.11-.64.35-.64.72,0,.43.35.66.91.66h2.71c1.73,0,2.74.78,2.74,2.23ZM828.27,197.31c0-.42-.29-.67-1.2-.67h-2.18c-.93,0-1.33.26-1.33.72,0,.58.74.94,2.37.94s2.34-.45,2.34-.99ZM824.32,190.91c0,.82.62,1.34,1.47,1.34s1.46-.53,1.46-1.34-.61-1.33-1.46-1.33-1.47.53-1.47,1.33Z"/>
    <path class="cls-20" d="M835.86,196.86c-.78,2.18-1.71,2.95-3.44,2.95-.88,0-1.52-.19-2.03-.62l.54-1.55c.35.4.77.5,1.34.5.61,0,1.02-.19,1.31-.96l.29-.69-.88-2.08-2.45-6.03h2.43l1.5,4.8.43,1.6.48-1.7,1.47-4.71h2.22l-3.23,8.5Z"/>
    <path class="cls-20" d="M845.09,185.8h4.62c2.56,0,3.75,1.06,3.75,2.88,0,1.14-.69,2.11-2.02,2.34v.02c1.47.21,2.29,1.2,2.29,2.43,0,1.83-1.34,2.9-3.86,2.9h-4.79v-10.56ZM849.41,190.23c1.18,0,1.76-.45,1.76-1.36s-.58-1.36-1.76-1.36h-2.18v2.72h2.18ZM849.68,194.7c1.18,0,1.76-.5,1.76-1.39s-.58-1.38-1.76-1.38h-2.45v2.77h2.45Z"/>
    <path class="cls-20" d="M863.22,188.36v8h-1.95l-.08-1.38c-.53,1.06-1.52,1.54-2.8,1.54-1.62,0-2.82-.82-2.82-2.87v-5.3h2.19v4.74c0,1.3.53,1.7,1.39,1.7,1.04,0,1.87-.66,1.87-2.15v-4.29h2.19Z"/>
    <path class="cls-20" d="M865.26,186.04c0-.78.45-1.18,1.36-1.18s1.36.4,1.36,1.18-.45,1.17-1.36,1.17-1.36-.38-1.36-1.17ZM867.71,196.37h-2.19v-8h2.19v8Z"/>
    <path class="cls-20" d="M872.19,193.82c0,.75.19,1.02.78,1.02.37,0,.59-.05.94-.18l-.19,1.52c-.35.21-.96.34-1.49.34-1.55,0-2.24-.72-2.24-2.38v-9.28h2.19v8.96Z"/>
    <path class="cls-20" d="M882.88,184.86v11.51h-1.95l-.1-1.44c-.46.96-1.41,1.6-2.64,1.6-2.13,0-3.43-1.54-3.43-4.15s1.31-4.18,3.43-4.18c1.17,0,2.03.58,2.5,1.46v-4.8h2.19ZM880.69,192.83v-.93c-.11-1.28-.78-2.02-1.84-2.02-1.17,0-1.87.85-1.87,2.48s.7,2.48,1.87,2.48c1.04,0,1.73-.7,1.84-2.02Z"/>
    <path class="cls-20" d="M884.94,186.04c0-.78.45-1.18,1.36-1.18s1.36.4,1.36,1.18-.45,1.17-1.36,1.17-1.36-.38-1.36-1.17ZM887.39,196.37h-2.19v-8h2.19v8Z"/>
    <path class="cls-20" d="M897.36,191.12v5.25h-2.19v-4.61c0-1.38-.59-1.82-1.42-1.82-.93,0-1.84.61-1.84,2.21v4.23h-2.19v-8h1.97l.08,1.42c.53-1.07,1.52-1.58,2.72-1.58,1.66,0,2.88.98,2.88,2.91Z"/>
    <path class="cls-20" d="M907.22,197.09c0,1.74-1.79,2.72-4.31,2.72-2.75,0-3.94-.8-3.94-1.97,0-.7.48-1.28,1.46-1.52-.66-.29-1.18-.82-1.18-1.6s.51-1.34,1.28-1.62c-.83-.46-1.26-1.22-1.26-2.18,0-1.68,1.41-2.72,3.68-2.72.59,0,1.14.06,1.6.21.26-1.18.99-2.02,2.43-1.95l.29,1.57c-1.01-.1-1.63.22-1.87.75.78.46,1.22,1.2,1.22,2.14,0,1.67-1.39,2.71-3.67,2.71-.53,0-1.01-.05-1.44-.14-.46.11-.64.35-.64.72,0,.43.35.66.91.66h2.71c1.73,0,2.74.78,2.74,2.23ZM905.42,197.31c0-.42-.29-.67-1.2-.67h-2.18c-.93,0-1.33.26-1.33.72,0,.58.74.94,2.37.94s2.34-.45,2.34-.99ZM901.47,190.91c0,.82.62,1.34,1.47,1.34s1.46-.53,1.46-1.34-.61-1.33-1.46-1.33-1.47.53-1.47,1.33Z"/>
  </g>
  <g class="cls-21">
    <path class="cls-20" d="M106.89,177.4v1.78h-8.15v-10.56h7.92v1.78h-5.71v2.62h4.5v1.7h-4.5v2.69h5.94Z"/>
    <path class="cls-20" d="M115.85,171.18l-3.04,8h-2.53l-3.04-8h2.35l1.97,6.47,2.02-6.47h2.27Z"/>
    <path class="cls-20" d="M124.74,177.79l-.16,1.33c-.29.14-.64.22-1.04.22-.96,0-1.62-.34-1.84-1.2-.48.78-1.49,1.2-2.83,1.2-1.52,0-2.48-.7-2.48-2.05,0-1.25.98-2.13,3.12-2.53l1.92-.37v-.38c0-.85-.5-1.39-1.36-1.39-.93,0-1.6.35-1.84,1.36l-1.75-.74c.34-1.36,1.54-2.22,3.49-2.22,2.22,0,3.63.96,3.63,2.95v3.28c0,.42.18.61.59.61.19,0,.38-.02.54-.06ZM121.43,176.57v-.83l-1.71.38c-.7.16-1.07.42-1.07.94s.34.79.91.79c.83,0,1.87-.43,1.87-1.28Z"/>
    <path class="cls-20" d="M128.23,176.63c0,.75.19,1.02.78,1.02.37,0,.59-.05.94-.18l-.19,1.52c-.35.21-.96.34-1.49.34-1.55,0-2.24-.72-2.24-2.38v-9.28h2.19v8.96Z"/>
    <path class="cls-20" d="M138.77,171.18v8h-1.95l-.08-1.38c-.53,1.06-1.52,1.54-2.8,1.54-1.62,0-2.82-.82-2.82-2.87v-5.3h2.19v4.74c0,1.3.53,1.7,1.39,1.7,1.04,0,1.87-.66,1.87-2.15v-4.29h2.19Z"/>
    <path class="cls-20" d="M148.93,177.79l-.16,1.33c-.29.14-.64.22-1.04.22-.96,0-1.62-.34-1.84-1.2-.48.78-1.49,1.2-2.83,1.2-1.52,0-2.48-.7-2.48-2.05,0-1.25.98-2.13,3.12-2.53l1.92-.37v-.38c0-.85-.5-1.39-1.36-1.39-.93,0-1.6.35-1.84,1.36l-1.75-.74c.34-1.36,1.54-2.22,3.49-2.22,2.22,0,3.63.96,3.63,2.95v3.28c0,.42.18.61.59.61.19,0,.38-.02.54-.06ZM145.62,176.57v-.83l-1.71.38c-.7.16-1.07.42-1.07.94s.34.79.91.79c.83,0,1.87-.43,1.87-1.28Z"/>
    <path class="cls-20" d="M155.43,178.68c-.51.42-1.34.66-2.19.66-1.58,0-2.67-.66-2.67-2.42v-4.11h-1.46v-1.63h1.46v-1.84l2.19-.61v2.45h2.59v1.63h-2.59v3.76c0,.77.42,1.1,1.1,1.1.53,0,.9-.16,1.23-.45l.34,1.46Z"/>
    <path class="cls-20" d="M156.55,168.86c0-.78.45-1.18,1.36-1.18s1.36.4,1.36,1.18-.45,1.17-1.36,1.17-1.36-.38-1.36-1.17ZM159,179.18h-2.19v-8h2.19v8Z"/>
    <path class="cls-20" d="M169.09,175.18c0,2.61-1.52,4.16-4.1,4.16s-4.1-1.55-4.1-4.16,1.52-4.16,4.1-4.16,4.1,1.55,4.1,4.16ZM163.09,175.18c0,1.7.67,2.53,1.91,2.53s1.9-.83,1.9-2.53-.67-2.53-1.9-2.53-1.91.83-1.91,2.53Z"/>
    <path class="cls-20" d="M178.63,173.93v5.25h-2.19v-4.61c0-1.38-.59-1.82-1.42-1.82-.93,0-1.84.61-1.84,2.21v4.23h-2.19v-8h1.97l.08,1.42c.53-1.07,1.52-1.58,2.72-1.58,1.66,0,2.88.98,2.88,2.91Z"/>
    <path class="cls-20" d="M193.64,177.79l-.16,1.33c-.29.14-.64.22-1.04.22-.96,0-1.62-.34-1.84-1.2-.48.78-1.49,1.2-2.83,1.2-1.52,0-2.48-.7-2.48-2.05,0-1.25.98-2.13,3.12-2.53l1.92-.37v-.38c0-.85-.5-1.39-1.36-1.39-.93,0-1.6.35-1.84,1.36l-1.75-.74c.34-1.36,1.54-2.22,3.49-2.22,2.22,0,3.63.96,3.63,2.95v3.28c0,.42.18.61.59.61.19,0,.38-.02.54-.06ZM190.32,176.57v-.83l-1.71.38c-.7.16-1.07.42-1.07.94s.34.79.91.79c.83,0,1.87-.43,1.87-1.28Z"/>
    <path class="cls-20" d="M202.61,173.93v5.25h-2.19v-4.61c0-1.38-.59-1.82-1.42-1.82-.93,0-1.84.61-1.84,2.21v4.23h-2.19v-8h1.97l.08,1.42c.53-1.07,1.52-1.58,2.72-1.58,1.66,0,2.88.98,2.88,2.91Z"/>
    <path class="cls-20" d="M212.61,167.67v11.51h-1.95l-.1-1.44c-.46.96-1.41,1.6-2.64,1.6-2.13,0-3.43-1.54-3.43-4.15s1.31-4.18,3.43-4.18c1.17,0,2.03.58,2.5,1.46v-4.8h2.19ZM210.42,175.64v-.93c-.11-1.28-.78-2.02-1.84-2.02-1.17,0-1.87.85-1.87,2.48s.7,2.48,1.87,2.48c1.04,0,1.73-.7,1.84-2.02Z"/>
    <path class="cls-20" d="M136.99,189.59h-3.54v8.79h-2.21v-8.79h-3.55v-1.78h9.3v1.78Z"/>
    <path class="cls-20" d="M144.4,195.21h-5.67c.22,1.15.93,1.7,2,1.7.93,0,1.54-.35,1.76-.99l1.79.66c-.51,1.28-1.74,1.97-3.55,1.97-2.66,0-4.16-1.54-4.16-4.16s1.46-4.16,4.03-4.16,3.86,1.5,3.86,4.13c0,.22-.03.66-.06.86ZM138.72,193.67h3.73c-.18-1.2-.85-1.84-1.86-1.84s-1.7.62-1.87,1.84Z"/>
    <path class="cls-20" d="M145.69,197l1.28-1.31c.45.96,1.31,1.25,2.4,1.25.94,0,1.47-.29,1.47-.72,0-.37-.43-.59-1.6-.83-2.5-.5-3.33-1.26-3.33-2.59s1.23-2.58,3.6-2.58c1.84,0,2.83.54,3.57,1.7l-1.36,1.15c-.46-.83-1.1-1.25-2.18-1.25-.9,0-1.44.35-1.44.77s.4.7,1.75.98c2.34.46,3.2,1.17,3.2,2.5,0,1.44-1.26,2.48-3.65,2.48-1.65,0-2.98-.45-3.71-1.54Z"/>
    <path class="cls-20" d="M160.28,197.88c-.51.42-1.34.66-2.19.66-1.58,0-2.67-.66-2.67-2.42v-4.11h-1.46v-1.63h1.46v-1.84l2.19-.61v2.45h2.59v1.63h-2.59v3.76c0,.77.42,1.1,1.1,1.1.53,0,.9-.16,1.23-.45l.34,1.46Z"/>
    <path class="cls-20" d="M161.4,188.06c0-.78.45-1.18,1.36-1.18s1.36.4,1.36,1.18-.45,1.17-1.36,1.17-1.36-.38-1.36-1.17ZM163.85,198.38h-2.19v-8h2.19v8Z"/>
    <path class="cls-20" d="M173.82,193.13v5.25h-2.19v-4.61c0-1.38-.59-1.83-1.42-1.83-.93,0-1.84.61-1.84,2.21v4.23h-2.19v-8h1.97l.08,1.42c.53-1.07,1.52-1.58,2.72-1.58,1.66,0,2.88.98,2.88,2.91Z"/>
    <path class="cls-20" d="M183.68,199.1c0,1.74-1.79,2.72-4.31,2.72-2.75,0-3.94-.8-3.94-1.97,0-.7.48-1.28,1.46-1.52-.66-.29-1.18-.82-1.18-1.6s.51-1.34,1.28-1.62c-.83-.46-1.26-1.22-1.26-2.18,0-1.68,1.41-2.72,3.68-2.72.59,0,1.14.06,1.6.21.26-1.18.99-2.02,2.43-1.95l.29,1.57c-1.01-.1-1.63.22-1.87.75.78.46,1.22,1.2,1.22,2.14,0,1.67-1.39,2.71-3.67,2.71-.53,0-1.01-.05-1.44-.14-.46.11-.64.35-.64.72,0,.43.35.66.91.66h2.71c1.73,0,2.74.78,2.74,2.23ZM181.88,199.32c0-.42-.29-.67-1.2-.67h-2.18c-.93,0-1.33.26-1.33.72,0,.58.74.94,2.37.94s2.34-.45,2.34-.99ZM177.93,192.92c0,.82.62,1.34,1.47,1.34s1.46-.53,1.46-1.34-.61-1.33-1.46-1.33-1.47.53-1.47,1.33Z"/>
  </g>
  <path id="Path_22" data-name="Path 22" class="cls-3" d="M572.08,52.22h89.79l8.76,10.01"/>
  <path id="Path_24" data-name="Path 24" class="cls-3" d="M427.51,51.58h-89.79l-9.58,12.17"/>
  <path id="Path_23" data-name="Path 23" class="cls-3" d="M560.64,322.03h110.9l8.76-10.01"/>
  <path id="Path_25" data-name="Path 25" class="cls-3" d="M445.29,322.03h-110.9l-8.77-10.01"/>
  <line id="Line_1" data-name="Line 1" class="cls-3" x1="661.08" y1="180.09" x2="676.14" y2="180.09"/>
  <line id="Line_2" data-name="Line 2" class="cls-3" x1="355.4" y1="180.09" x2="329.78" y2="180.09"/>
  <g class="cls-21">
    <path class="cls-20" d="M772.49,73.85h-1.98v4.05h-2.18v-10.56h4.66c2.4,0,3.84,1.18,3.84,3.27,0,1.52-.78,2.58-2.16,3.01l2.79,4.29h-2.48l-2.48-4.05ZM770.5,72.17h2.19c1.28,0,1.87-.48,1.87-1.54s-.59-1.54-1.87-1.54h-2.19v3.07Z"/>
    <path class="cls-20" d="M786.22,74.73h-5.67c.22,1.15.93,1.7,2,1.7.93,0,1.54-.35,1.76-.99l1.79.66c-.51,1.28-1.74,1.97-3.55,1.97-2.66,0-4.16-1.54-4.16-4.16s1.46-4.16,4.03-4.16,3.86,1.5,3.86,4.13c0,.22-.03.66-.06.86ZM780.53,73.2h3.73c-.18-1.2-.85-1.84-1.86-1.84s-1.7.62-1.87,1.84Z"/>
    <path class="cls-20" d="M787.51,76.53l1.28-1.31c.45.96,1.31,1.25,2.4,1.25.94,0,1.47-.29,1.47-.72,0-.37-.43-.59-1.6-.83-2.5-.5-3.33-1.26-3.33-2.59s1.23-2.58,3.6-2.58c1.84,0,2.83.54,3.57,1.7l-1.36,1.15c-.46-.83-1.1-1.25-2.18-1.25-.9,0-1.44.35-1.44.77s.4.7,1.75.98c2.34.46,3.2,1.17,3.2,2.5,0,1.44-1.26,2.48-3.65,2.48-1.65,0-2.98-.45-3.71-1.54Z"/>
    <path class="cls-20" d="M803.99,74.73h-5.67c.22,1.15.93,1.7,2,1.7.93,0,1.54-.35,1.76-.99l1.79.66c-.51,1.28-1.74,1.97-3.55,1.97-2.66,0-4.16-1.54-4.16-4.16s1.46-4.16,4.03-4.16,3.86,1.5,3.86,4.13c0,.22-.03.66-.06.86ZM798.31,73.2h3.73c-.18-1.2-.85-1.84-1.86-1.84s-1.7.62-1.87,1.84Z"/>
    <path class="cls-20" d="M813.75,76.51l-.16,1.33c-.29.14-.64.22-1.04.22-.96,0-1.62-.34-1.84-1.2-.48.78-1.49,1.2-2.83,1.2-1.52,0-2.48-.7-2.48-2.05,0-1.25.98-2.13,3.12-2.53l1.92-.37v-.38c0-.85-.5-1.39-1.36-1.39-.93,0-1.6.35-1.84,1.36l-1.75-.74c.34-1.36,1.54-2.22,3.49-2.22,2.22,0,3.63.96,3.63,2.95v3.28c0,.42.18.61.59.61.19,0,.38-.02.54-.06ZM810.44,75.29v-.83l-1.71.38c-.7.16-1.07.42-1.07.94s.34.79.91.79c.83,0,1.87-.43,1.87-1.28Z"/>
    <path class="cls-20" d="M820.47,69.91l-.27,1.92c-.22-.14-.59-.24-1.01-.24-.96,0-1.92.7-1.92,2.16v4.15h-2.19v-8h1.91l.14,1.57c.42-1.1,1.23-1.73,2.48-1.73.35,0,.67.06.86.18Z"/>
    <path class="cls-20" d="M829,72.09l-2.05.74c-.19-.96-.7-1.46-1.55-1.46-1.25,0-1.95.86-1.95,2.54s.75,2.51,1.94,2.51c.96,0,1.5-.51,1.66-1.42l1.99.64c-.34,1.42-1.58,2.42-3.62,2.42-2.66,0-4.16-1.54-4.16-4.16s1.52-4.16,4.08-4.16c2.26,0,3.28,1.04,3.67,2.35Z"/>
    <path class="cls-20" d="M838.42,72.65v5.25h-2.19v-4.61c0-1.38-.59-1.82-1.42-1.82-.93,0-1.84.61-1.84,2.21v4.23h-2.19v-11.51h2.19v4.87c.51-1.02,1.44-1.52,2.58-1.52,1.66,0,2.88.98,2.88,2.91Z"/>
    <path class="cls-20" d="M854.34,78.06c-1.01,0-1.66-.16-2.72-1.09-.75.67-1.79,1.09-3.07,1.09-2.11,0-3.59-1.07-3.59-2.82-.02-1.09.53-2.24,2.31-2.99-.9-1.09-1.15-1.68-1.15-2.51,0-1.26.96-2.56,2.95-2.56,1.81,0,2.91.93,2.91,2.38,0,1.2-.56,2.15-2.24,2.9l.9,1.04c.45.51.82.94,1.15,1.31.34-.66.51-1.44.46-2.43l1.52.08c.03,1.26-.32,2.43-1.02,3.33.69.62,1.15.77,1.87.71l-.27,1.57ZM848.69,76.54c.72,0,1.38-.18,1.95-.51-.35-.37-.74-.78-1.17-1.28-.51-.56-.96-1.04-1.33-1.47-1.04.7-1.28,1.17-1.28,1.81,0,.86.8,1.46,1.82,1.46ZM848.04,69.79c0,.48.14.82.91,1.75,1.09-.71,1.23-1.26,1.23-1.87,0-.64-.42-.94-1.09-.94s-1.06.46-1.06,1.07Z"/>
    <path class="cls-20" d="M783.29,91.82c0,3.38-1.89,5.28-5.2,5.28h-4.08v-10.56h4.08c3.31,0,5.2,1.91,5.2,5.28ZM781,91.82c0-2.27-1.01-3.52-3.03-3.52h-1.76v7.04h1.76c2.02,0,3.03-1.25,3.03-3.52Z"/>
    <path class="cls-20" d="M784.98,86.78c0-.78.45-1.18,1.36-1.18s1.36.4,1.36,1.18-.45,1.17-1.36,1.17-1.36-.38-1.36-1.17ZM787.43,97.1h-2.19v-8h2.19v8Z"/>
    <path class="cls-20" d="M789.14,95.73l1.28-1.31c.45.96,1.31,1.25,2.4,1.25.94,0,1.47-.29,1.47-.72,0-.37-.43-.59-1.6-.83-2.5-.5-3.33-1.26-3.33-2.59s1.23-2.58,3.6-2.58c1.84,0,2.83.54,3.57,1.7l-1.36,1.15c-.46-.83-1.1-1.25-2.18-1.25-.9,0-1.44.35-1.44.77s.4.7,1.75.98c2.34.46,3.2,1.17,3.2,2.5,0,1.44-1.26,2.48-3.65,2.48-1.65,0-2.98-.45-3.71-1.54Z"/>
    <path class="cls-20" d="M805.54,91.29l-2.05.74c-.19-.96-.7-1.46-1.55-1.46-1.25,0-1.95.86-1.95,2.54s.75,2.51,1.94,2.51c.96,0,1.5-.51,1.66-1.42l1.99.64c-.34,1.42-1.58,2.42-3.62,2.42-2.66,0-4.16-1.54-4.16-4.16s1.52-4.16,4.08-4.16c2.26,0,3.28,1.04,3.67,2.35Z"/>
    <path class="cls-20" d="M815.09,93.1c0,2.61-1.52,4.16-4.1,4.16s-4.1-1.55-4.1-4.16,1.52-4.16,4.1-4.16,4.1,1.55,4.1,4.16ZM809.09,93.1c0,1.7.67,2.53,1.91,2.53s1.9-.83,1.9-2.53-.67-2.53-1.9-2.53-1.91.83-1.91,2.53Z"/>
    <path class="cls-20" d="M824.39,89.1l-3.04,8h-2.53l-3.04-8h2.35l1.97,6.47,2.02-6.47h2.27Z"/>
    <path class="cls-20" d="M832.9,93.93h-5.67c.22,1.15.93,1.7,2,1.7.93,0,1.54-.35,1.76-.99l1.79.66c-.51,1.28-1.74,1.97-3.55,1.97-2.66,0-4.16-1.54-4.16-4.16s1.46-4.16,4.03-4.16,3.86,1.5,3.86,4.13c0,.22-.03.66-.06.86ZM827.22,92.4h3.73c-.18-1.2-.85-1.84-1.86-1.84s-1.7.62-1.87,1.84Z"/>
    <path class="cls-20" d="M840.2,89.12l-.27,1.92c-.22-.14-.59-.24-1.01-.24-.96,0-1.92.7-1.92,2.16v4.15h-2.19v-8h1.91l.14,1.57c.42-1.1,1.23-1.73,2.48-1.73.35,0,.67.06.86.18Z"/>
    <path class="cls-20" d="M845.99,97.6c-.78,2.18-1.71,2.95-3.44,2.95-.88,0-1.52-.19-2.03-.62l.54-1.55c.35.4.77.5,1.34.5.61,0,1.02-.19,1.31-.96l.29-.69-.88-2.08-2.45-6.03h2.43l1.5,4.8.43,1.6.48-1.7,1.47-4.71h2.22l-3.23,8.5Z"/>
  </g>
  <g>
    <circle class="cls-14" cx="565.92" cy="53.12" r="10.36" transform="translate(22.75 220.61) rotate(-22.5)"/>
    <path class="cls-18" d="M559.92,53.12c0-3.31,2.68-6,6-6s6,2.68,6,6-2.68,6-6,6-6-2.68-6-6Z"/>
  </g>
  <g>
    <circle class="cls-15" cx="437.97" cy="53.12" r="10.36" transform="translate(13.01 171.65) rotate(-22.5)"/>
    <path class="cls-19" d="M431.97,53.12c0-3.31,2.68-6,6-6s6,2.68,6,6-2.68,6-6,6-6-2.68-6-6Z"/>
  </g>
  <g>
    <circle class="cls-11" cx="650.64" cy="180.37" r="10.36" transform="translate(-19.5 262.72) rotate(-22.5)"/>
    <path class="cls-16" d="M644.64,180.37c0-3.31,2.68-6,6-6s6,2.68,6,6-2.68,6-6,6-6-2.68-6-6Z"/>
  </g>
  <g>
    <circle class="cls-13" cx="358.06" cy="180.37" r="10.36" transform="translate(-41.77 150.75) rotate(-22.5)"/>
    <path class="cls-16" d="M352.06,180.37c0-3.31,2.68-6,6-6s6,2.68,6,6-2.68,6-6,6-6-2.68-6-6Z"/>
  </g>
  <g>
    <circle class="cls-10" cx="553.02" cy="319.48" r="10.36" transform="translate(-80.16 235.95) rotate(-22.5)"/>
    <path class="cls-19" d="M547.02,319.48c0-3.31,2.68-6,6-6s6,2.68,6,6-2.68,6-6,6-6-2.68-6-6Z"/>
  </g>
  <g>
    <circle class="cls-12" cx="454.35" cy="319.48" r="10.36" transform="translate(-87.67 198.19) rotate(-22.5)"/>
    <path class="cls-18" d="M448.36,319.48c0-3.31,2.68-6,6-6s6,2.68,6,6-2.68,6-6,6-6-2.68-6-6Z"/>
  </g>
  <g>
    <path class="cls-20" d="M743.4,270.12h-3.54v8.79h-2.21v-8.79h-3.55v-1.78h9.3v1.78Z"/>
    <path class="cls-20" d="M751.17,274.91c0,2.61-1.52,4.16-4.1,4.16s-4.1-1.55-4.1-4.16,1.52-4.16,4.1-4.16,4.1,1.55,4.1,4.16ZM745.17,274.91c0,1.7.67,2.53,1.91,2.53s1.9-.83,1.9-2.53-.67-2.53-1.9-2.53-1.91.83-1.91,2.53Z"/>
    <path class="cls-20" d="M760.66,270.91v8h-1.95l-.08-1.38c-.53,1.06-1.52,1.54-2.8,1.54-1.62,0-2.82-.82-2.82-2.87v-5.3h2.19v4.74c0,1.3.53,1.7,1.39,1.7,1.04,0,1.87-.66,1.87-2.15v-4.29h2.19Z"/>
    <path class="cls-20" d="M770.29,273.1l-2.05.74c-.19-.96-.7-1.46-1.55-1.46-1.25,0-1.95.86-1.95,2.54s.75,2.51,1.94,2.51c.96,0,1.5-.51,1.66-1.42l1.99.64c-.34,1.42-1.58,2.42-3.62,2.42-2.66,0-4.16-1.54-4.16-4.16s1.52-4.16,4.08-4.16c2.26,0,3.28,1.04,3.67,2.35Z"/>
    <path class="cls-20" d="M779.71,273.66v5.25h-2.19v-4.61c0-1.38-.59-1.82-1.42-1.82-.93,0-1.84.61-1.84,2.21v4.23h-2.19v-11.51h2.19v4.87c.51-1.02,1.44-1.52,2.58-1.52,1.66,0,2.88.98,2.88,2.91Z"/>
    <path class="cls-20" d="M790.1,274.89c0,2.62-1.31,4.18-3.43,4.18-1.18,0-2.05-.59-2.51-1.49v4.69h-2.19v-11.36h1.94l.08,1.55c.45-1.02,1.41-1.71,2.69-1.71,2.13,0,3.43,1.54,3.43,4.15ZM787.89,274.91c0-1.63-.71-2.48-1.87-2.48s-1.86.85-1.86,2.4v.16c0,1.52.7,2.4,1.86,2.4s1.87-.85,1.87-2.48Z"/>
    <path class="cls-20" d="M799.81,274.91c0,2.61-1.52,4.16-4.1,4.16s-4.1-1.55-4.1-4.16,1.52-4.16,4.1-4.16,4.1,1.55,4.1,4.16ZM793.81,274.91c0,1.7.67,2.53,1.91,2.53s1.9-.83,1.9-2.53-.67-2.53-1.9-2.53-1.91.83-1.91,2.53Z"/>
    <path class="cls-20" d="M801.44,268.59c0-.78.45-1.18,1.36-1.18s1.36.4,1.36,1.18-.45,1.17-1.36,1.17-1.36-.38-1.36-1.17ZM803.89,278.91h-2.19v-8h2.19v8Z"/>
    <path class="cls-20" d="M813.86,273.66v5.25h-2.19v-4.61c0-1.38-.59-1.82-1.42-1.82-.93,0-1.84.61-1.84,2.21v4.23h-2.19v-8h1.97l.08,1.42c.53-1.07,1.52-1.58,2.72-1.58,1.66,0,2.88.98,2.88,2.91Z"/>
    <path class="cls-20" d="M821.54,278.42c-.51.42-1.34.66-2.19.66-1.58,0-2.67-.66-2.67-2.42v-4.11h-1.46v-1.63h1.46v-1.84l2.19-.61v2.45h2.59v1.63h-2.59v3.76c0,.77.42,1.1,1.1,1.1.53,0,.9-.16,1.23-.45l.34,1.46Z"/>
    <path class="cls-20" d="M822.3,277.53l1.28-1.31c.45.96,1.31,1.25,2.4,1.25.94,0,1.47-.29,1.47-.72,0-.37-.43-.59-1.6-.83-2.5-.5-3.33-1.26-3.33-2.59s1.23-2.58,3.6-2.58c1.84,0,2.83.54,3.57,1.7l-1.36,1.15c-.46-.83-1.1-1.25-2.18-1.25-.9,0-1.44.35-1.44.77s.4.7,1.75.98c2.34.46,3.2,1.17,3.2,2.5,0,1.44-1.26,2.48-3.65,2.48-1.65,0-2.98-.45-3.71-1.54Z"/>
    <path class="cls-20" d="M845.81,273.63c0,3.38-1.89,5.28-5.2,5.28h-4.08v-10.56h4.08c3.31,0,5.2,1.91,5.2,5.28ZM843.52,273.63c0-2.27-1.01-3.52-3.03-3.52h-1.76v7.04h1.76c2.02,0,3.03-1.25,3.03-3.52Z"/>
    <path class="cls-20" d="M855.22,275.74h-5.67c.22,1.15.93,1.7,2,1.7.93,0,1.54-.35,1.76-.99l1.79.66c-.51,1.28-1.74,1.97-3.55,1.97-2.66,0-4.16-1.54-4.16-4.16s1.46-4.16,4.03-4.16,3.86,1.5,3.86,4.13c0,.22-.03.66-.06.86ZM849.53,274.21h3.73c-.18-1.2-.85-1.84-1.86-1.84s-1.7.62-1.87,1.84Z"/>
    <path class="cls-20" d="M856.51,277.53l1.28-1.31c.45.96,1.31,1.25,2.4,1.25.94,0,1.47-.29,1.47-.72,0-.37-.43-.59-1.6-.83-2.5-.5-3.33-1.26-3.33-2.59s1.23-2.58,3.6-2.58c1.84,0,2.83.54,3.57,1.7l-1.36,1.15c-.46-.83-1.1-1.25-2.18-1.25-.9,0-1.44.35-1.44.77s.4.7,1.75.98c2.34.46,3.2,1.17,3.2,2.5,0,1.44-1.26,2.48-3.65,2.48-1.65,0-2.98-.45-3.71-1.54Z"/>
    <path class="cls-20" d="M865.36,268.59c0-.78.45-1.18,1.36-1.18s1.36.4,1.36,1.18-.45,1.17-1.36,1.17-1.36-.38-1.36-1.17ZM867.81,278.91h-2.19v-8h2.19v8Z"/>
    <path class="cls-20" d="M877.73,279.63c0,1.74-1.79,2.72-4.31,2.72-2.75,0-3.94-.8-3.94-1.97,0-.7.48-1.28,1.46-1.52-.66-.29-1.18-.82-1.18-1.6s.51-1.34,1.28-1.62c-.83-.46-1.26-1.22-1.26-2.18,0-1.68,1.41-2.72,3.68-2.72.59,0,1.14.06,1.6.21.26-1.18.99-2.02,2.43-1.95l.29,1.57c-1.01-.1-1.63.22-1.87.75.78.46,1.22,1.2,1.22,2.14,0,1.67-1.39,2.71-3.67,2.71-.53,0-1.01-.05-1.44-.14-.46.11-.64.35-.64.72,0,.43.35.66.91.66h2.71c1.73,0,2.74.78,2.74,2.23ZM875.94,279.86c0-.42-.29-.67-1.2-.67h-2.18c-.93,0-1.33.26-1.33.72,0,.58.74.94,2.37.94s2.34-.45,2.34-.99ZM871.98,273.45c0,.82.62,1.34,1.47,1.34s1.46-.53,1.46-1.34-.61-1.33-1.46-1.33-1.47.53-1.47,1.33Z"/>
    <path class="cls-20" d="M886.74,273.66v5.25h-2.19v-4.61c0-1.38-.59-1.82-1.42-1.82-.93,0-1.84.61-1.84,2.21v4.23h-2.19v-8h1.97l.08,1.42c.53-1.07,1.52-1.58,2.72-1.58,1.66,0,2.88.98,2.88,2.91Z"/>
    <path class="cls-20" d="M763.7,296.72l-.16,1.33c-.29.14-.64.22-1.04.22-.96,0-1.62-.34-1.84-1.2-.48.78-1.49,1.2-2.83,1.2-1.52,0-2.48-.7-2.48-2.05,0-1.25.98-2.13,3.12-2.53l1.92-.37v-.38c0-.85-.5-1.39-1.36-1.39-.93,0-1.6.35-1.84,1.36l-1.75-.74c.34-1.36,1.54-2.22,3.49-2.22,2.22,0,3.63.96,3.63,2.95v3.28c0,.42.18.61.59.61.19,0,.38-.02.54-.06ZM760.39,295.5v-.83l-1.71.38c-.7.16-1.07.42-1.07.94s.34.79.91.79c.83,0,1.87-.43,1.87-1.28Z"/>
    <path class="cls-20" d="M772.67,292.86v5.25h-2.19v-4.61c0-1.38-.59-1.83-1.42-1.83-.93,0-1.84.61-1.84,2.21v4.23h-2.19v-8h1.97l.08,1.42c.53-1.07,1.52-1.58,2.72-1.58,1.66,0,2.88.98,2.88,2.91Z"/>
    <path class="cls-20" d="M782.67,286.6v11.51h-1.95l-.1-1.44c-.46.96-1.41,1.6-2.64,1.6-2.13,0-3.43-1.54-3.43-4.15s1.31-4.18,3.43-4.18c1.17,0,2.03.58,2.5,1.46v-4.8h2.19ZM780.48,294.58v-.93c-.11-1.28-.78-2.02-1.84-2.02-1.17,0-1.87.85-1.87,2.48s.7,2.48,1.87,2.48c1.04,0,1.73-.7,1.84-2.02Z"/>
    <path class="cls-20" d="M798.44,290.94c0,2.1-1.44,3.33-3.89,3.33h-2.23v3.84h-2.21v-10.56h4.43c2.45,0,3.89,1.23,3.89,3.39ZM796.19,290.93c0-1.07-.61-1.62-1.98-1.62h-1.89v3.25h1.89c1.38,0,1.98-.56,1.98-1.63Z"/>
    <path class="cls-20" d="M805.62,290.12l-.27,1.92c-.22-.14-.59-.24-1.01-.24-.96,0-1.92.7-1.92,2.16v4.15h-2.19v-8h1.91l.14,1.57c.42-1.1,1.23-1.73,2.48-1.73.35,0,.67.06.86.18Z"/>
    <path class="cls-20" d="M814.59,294.11c0,2.61-1.52,4.16-4.1,4.16s-4.1-1.55-4.1-4.16,1.52-4.16,4.1-4.16,4.1,1.55,4.1,4.16ZM808.59,294.11c0,1.7.67,2.53,1.91,2.53s1.9-.83,1.9-2.53-.67-2.53-1.9-2.53-1.91.83-1.91,2.53Z"/>
    <path class="cls-20" d="M821.87,297.62c-.51.42-1.34.66-2.19.66-1.58,0-2.67-.66-2.67-2.42v-4.11h-1.46v-1.63h1.46v-1.84l2.19-.61v2.45h2.59v1.63h-2.59v3.76c0,.77.42,1.1,1.1,1.1.53,0,.9-.16,1.23-.45l.34,1.46Z"/>
    <path class="cls-20" d="M831.03,294.11c0,2.61-1.52,4.16-4.1,4.16s-4.1-1.55-4.1-4.16,1.52-4.16,4.1-4.16,4.1,1.55,4.1,4.16ZM825.02,294.11c0,1.7.67,2.53,1.91,2.53s1.9-.83,1.9-2.53-.67-2.53-1.9-2.53-1.91.83-1.91,2.53Z"/>
    <path class="cls-20" d="M838.3,297.62c-.51.42-1.34.66-2.19.66-1.58,0-2.67-.66-2.67-2.42v-4.11h-1.46v-1.63h1.46v-1.84l2.19-.61v2.45h2.59v1.63h-2.59v3.76c0,.77.42,1.1,1.1,1.1.53,0,.9-.16,1.23-.45l.34,1.46Z"/>
    <path class="cls-20" d="M844.11,298.61c-.78,2.18-1.71,2.95-3.44,2.95-.88,0-1.52-.19-2.03-.62l.54-1.55c.35.4.77.5,1.34.5.61,0,1.02-.19,1.31-.96l.29-.69-.88-2.08-2.45-6.03h2.43l1.5,4.8.43,1.6.48-1.7,1.47-4.71h2.22l-3.23,8.5Z"/>
    <path class="cls-20" d="M856.72,294.09c0,2.62-1.31,4.18-3.43,4.18-1.18,0-2.05-.59-2.51-1.49v4.69h-2.19v-11.36h1.94l.08,1.55c.45-1.02,1.41-1.71,2.69-1.71,2.13,0,3.43,1.54,3.43,4.15ZM854.51,294.11c0-1.63-.71-2.48-1.87-2.48s-1.86.85-1.86,2.4v.16c0,1.52.7,2.4,1.86,2.4s1.87-.85,1.87-2.48Z"/>
    <path class="cls-20" d="M866.06,294.94h-5.67c.22,1.15.93,1.7,2,1.7.93,0,1.54-.35,1.76-.99l1.79.66c-.51,1.28-1.74,1.97-3.55,1.97-2.66,0-4.16-1.54-4.16-4.16s1.46-4.16,4.03-4.16,3.86,1.5,3.86,4.13c0,.22-.03.66-.06.86ZM860.38,293.41h3.73c-.18-1.2-.85-1.84-1.86-1.84s-1.7.62-1.87,1.84Z"/>
  </g>
  <circle id="Ellipse_35" data-name="Ellipse 35" class="cls-9" cx="319.64" cy="92.79" r="35.88"/>
  <circle id="Ellipse_35-2" data-name="Ellipse 35" class="cls-8" cx="686.25" cy="284.35" r="35.88"/>
  <circle id="Ellipse_35-3" data-name="Ellipse 35" class="cls-4" cx="296.52" cy="183.29" r="35.88"/>
  <circle id="Ellipse_35-4" data-name="Ellipse 35" class="cls-5" cx="708.7" cy="183.29" r="35.88"/>
  <g class="cls-21">
    <path class="cls-20" d="M150.4,84.99v1.78h-8.15v-10.56h7.92v1.78h-5.71v2.62h4.5v1.7h-4.5v2.69h5.94Z"/>
    <path class="cls-20" d="M159.81,81.51v5.25h-2.19v-4.61c0-1.38-.59-1.83-1.42-1.83-.93,0-1.84.61-1.84,2.21v4.23h-2.19v-8h1.97l.08,1.42c.53-1.07,1.52-1.58,2.72-1.58,1.66,0,2.88.98,2.88,2.91Z"/>
    <path class="cls-20" d="M169.67,87.49c0,1.74-1.79,2.72-4.31,2.72-2.75,0-3.94-.8-3.94-1.97,0-.7.48-1.28,1.46-1.52-.66-.29-1.18-.82-1.18-1.6s.51-1.34,1.28-1.62c-.83-.46-1.26-1.22-1.26-2.18,0-1.68,1.41-2.72,3.68-2.72.59,0,1.14.06,1.6.21.26-1.18.99-2.02,2.43-1.95l.29,1.57c-1.01-.1-1.63.22-1.87.75.78.46,1.22,1.2,1.22,2.14,0,1.67-1.39,2.71-3.67,2.71-.53,0-1.01-.05-1.44-.14-.46.11-.64.35-.64.72,0,.43.35.66.91.66h2.71c1.73,0,2.74.78,2.74,2.23ZM167.87,87.71c0-.42-.29-.67-1.2-.67h-2.18c-.93,0-1.33.26-1.33.72,0,.58.74.94,2.37.94s2.34-.45,2.34-.99ZM163.92,81.31c0,.82.62,1.34,1.47,1.34s1.46-.53,1.46-1.34-.61-1.33-1.46-1.33-1.47.53-1.47,1.33Z"/>
    <path class="cls-20" d="M178.88,85.37l-.16,1.33c-.29.14-.64.22-1.04.22-.96,0-1.62-.34-1.84-1.2-.48.78-1.49,1.2-2.83,1.2-1.52,0-2.48-.7-2.48-2.05,0-1.25.98-2.13,3.12-2.53l1.92-.37v-.38c0-.85-.5-1.39-1.36-1.39-.93,0-1.6.35-1.84,1.36l-1.75-.74c.34-1.36,1.54-2.22,3.49-2.22,2.22,0,3.63.96,3.63,2.95v3.28c0,.42.18.61.59.61.19,0,.38-.02.54-.06ZM175.57,84.16v-.83l-1.71.38c-.7.16-1.07.42-1.07.94s.34.79.91.79c.83,0,1.87-.43,1.87-1.28Z"/>
    <path class="cls-20" d="M187.86,87.49c0,1.74-1.79,2.72-4.31,2.72-2.75,0-3.94-.8-3.94-1.97,0-.7.48-1.28,1.46-1.52-.66-.29-1.18-.82-1.18-1.6s.51-1.34,1.28-1.62c-.83-.46-1.26-1.22-1.26-2.18,0-1.68,1.41-2.72,3.68-2.72.59,0,1.14.06,1.6.21.26-1.18.99-2.02,2.43-1.95l.29,1.57c-1.01-.1-1.63.22-1.87.75.78.46,1.22,1.2,1.22,2.14,0,1.67-1.39,2.71-3.67,2.71-.53,0-1.01-.05-1.44-.14-.46.11-.64.35-.64.72,0,.43.35.66.91.66h2.71c1.73,0,2.74.78,2.74,2.23ZM186.06,87.71c0-.42-.29-.67-1.2-.67h-2.18c-.93,0-1.33.26-1.33.72,0,.58.74.94,2.37.94s2.34-.45,2.34-.99ZM182.11,81.31c0,.82.62,1.34,1.47,1.34s1.46-.53,1.46-1.34-.61-1.33-1.46-1.33-1.47.53-1.47,1.33Z"/>
    <path class="cls-20" d="M188.96,76.44c0-.78.45-1.18,1.36-1.18s1.36.4,1.36,1.18-.45,1.17-1.36,1.17-1.36-.38-1.36-1.17ZM191.41,86.76h-2.19v-8h2.19v8Z"/>
    <path class="cls-20" d="M201.38,81.51v5.25h-2.19v-4.61c0-1.38-.59-1.83-1.42-1.83-.93,0-1.84.61-1.84,2.21v4.23h-2.19v-8h1.97l.08,1.42c.53-1.07,1.52-1.58,2.72-1.58,1.66,0,2.88.98,2.88,2.91Z"/>
    <path class="cls-20" d="M211.23,87.49c0,1.74-1.79,2.72-4.31,2.72-2.75,0-3.94-.8-3.94-1.97,0-.7.48-1.28,1.46-1.52-.66-.29-1.18-.82-1.18-1.6s.51-1.34,1.28-1.62c-.83-.46-1.26-1.22-1.26-2.18,0-1.68,1.41-2.72,3.68-2.72.59,0,1.14.06,1.6.21.26-1.18.99-2.02,2.43-1.95l.29,1.57c-1.01-.1-1.63.22-1.87.75.78.46,1.22,1.2,1.22,2.14,0,1.67-1.39,2.71-3.67,2.71-.53,0-1.01-.05-1.44-.14-.46.11-.64.35-.64.72,0,.43.35.66.91.66h2.71c1.73,0,2.74.78,2.74,2.23ZM209.44,87.71c0-.42-.29-.67-1.2-.67h-2.18c-.93,0-1.33.26-1.33.72,0,.58.74.94,2.37.94s2.34-.45,2.34-.99ZM205.49,81.31c0,.82.62,1.34,1.47,1.34s1.46-.53,1.46-1.34-.61-1.33-1.46-1.33-1.47.53-1.47,1.33Z"/>
    <path class="cls-20" d="M226.58,82.6c0,2.88-1.57,4.32-4.51,4.32s-4.51-1.44-4.51-4.32v-6.4h2.21v6.31c0,1.78.75,2.61,2.3,2.61s2.29-.83,2.29-2.61v-6.31h2.22v6.4Z"/>
    <path class="cls-20" d="M231.36,86.76h-2.21v-10.56h2.21v10.56Z"/>
    <path class="cls-20" d="M144.19,94.46v11.51h-1.95l-.1-1.44c-.46.96-1.41,1.6-2.64,1.6-2.13,0-3.43-1.54-3.43-4.15s1.31-4.18,3.43-4.18c1.17,0,2.03.58,2.5,1.46v-4.8h2.19ZM142,102.43v-.93c-.11-1.28-.78-2.02-1.84-2.02-1.17,0-1.87.85-1.87,2.48s.7,2.48,1.87,2.48c1.04,0,1.73-.7,1.84-2.02Z"/>
    <path class="cls-20" d="M153.92,102.8h-5.67c.22,1.15.93,1.7,2,1.7.93,0,1.54-.35,1.76-.99l1.79.66c-.51,1.28-1.74,1.97-3.55,1.97-2.66,0-4.16-1.54-4.16-4.16s1.46-4.16,4.03-4.16,3.86,1.5,3.86,4.13c0,.22-.03.66-.06.86ZM148.24,101.26h3.73c-.18-1.2-.85-1.84-1.86-1.84s-1.7.62-1.87,1.84Z"/>
    <path class="cls-20" d="M163.09,97.96l-3.04,8h-2.53l-3.04-8h2.35l1.97,6.47,2.02-6.47h2.27Z"/>
    <path class="cls-20" d="M171.6,102.8h-5.67c.22,1.15.93,1.7,2,1.7.93,0,1.54-.35,1.76-.99l1.79.66c-.51,1.28-1.74,1.97-3.55,1.97-2.66,0-4.16-1.54-4.16-4.16s1.46-4.16,4.03-4.16,3.86,1.5,3.86,4.13c0,.22-.03.66-.06.86ZM165.92,101.26h3.73c-.18-1.2-.85-1.84-1.86-1.84s-1.7.62-1.87,1.84Z"/>
    <path class="cls-20" d="M175.66,103.42c0,.75.19,1.02.78,1.02.37,0,.59-.05.94-.18l-.19,1.52c-.35.21-.96.34-1.49.34-1.55,0-2.24-.72-2.24-2.38v-9.28h2.19v8.96Z"/>
    <path class="cls-20" d="M186.39,101.96c0,2.61-1.52,4.16-4.1,4.16s-4.1-1.55-4.1-4.16,1.52-4.16,4.1-4.16,4.1,1.55,4.1,4.16ZM180.38,101.96c0,1.7.67,2.53,1.91,2.53s1.9-.83,1.9-2.53-.67-2.53-1.9-2.53-1.91.83-1.91,2.53Z"/>
    <path class="cls-20" d="M196.4,101.95c0,2.62-1.31,4.18-3.43,4.18-1.18,0-2.05-.59-2.51-1.49v4.69h-2.19v-11.36h1.94l.08,1.55c.45-1.02,1.41-1.71,2.69-1.71,2.13,0,3.43,1.54,3.43,4.15ZM194.19,101.96c0-1.63-.71-2.48-1.87-2.48s-1.86.85-1.86,2.4v.16c0,1.52.7,2.4,1.86,2.4s1.87-.85,1.87-2.48Z"/>
    <path class="cls-20" d="M211.2,100.71l-.02,5.25h-2.18v-4.82c0-1.17-.58-1.62-1.38-1.62-.98,0-1.76.74-1.76,2.13v4.31h-2.19v-4.82c0-1.17-.58-1.62-1.39-1.62s-1.76.62-1.76,2.19v4.24h-2.19v-8h1.97l.08,1.41c.53-1.06,1.52-1.57,2.64-1.57s2.18.53,2.61,1.62c.53-1.09,1.6-1.62,2.72-1.62,1.55,0,2.87.94,2.85,2.91Z"/>
    <path class="cls-20" d="M220.87,102.8h-5.67c.22,1.15.93,1.7,2,1.7.93,0,1.54-.35,1.76-.99l1.79.66c-.51,1.28-1.74,1.97-3.55,1.97-2.66,0-4.16-1.54-4.16-4.16s1.46-4.16,4.03-4.16,3.86,1.5,3.86,4.13c0,.22-.03.66-.06.86ZM215.18,101.26h3.73c-.18-1.2-.85-1.84-1.86-1.84s-1.7.62-1.87,1.84Z"/>
    <path class="cls-20" d="M230.42,100.71v5.25h-2.19v-4.61c0-1.38-.59-1.82-1.42-1.82-.93,0-1.84.61-1.84,2.21v4.23h-2.19v-8h1.97l.08,1.42c.53-1.07,1.52-1.58,2.72-1.58,1.66,0,2.88.98,2.88,2.91Z"/>
    <path class="cls-20" d="M238.1,105.47c-.51.42-1.34.66-2.19.66-1.58,0-2.67-.66-2.67-2.42v-4.11h-1.46v-1.63h1.46v-1.84l2.19-.61v2.45h2.59v1.63h-2.59v3.76c0,.77.42,1.1,1.1,1.1.53,0,.9-.16,1.23-.45l.34,1.46Z"/>
  </g>
  <g>
    <path class="cls-20" d="M106.27,270.22l-1.52,1.49c-.54-1.14-1.42-1.71-2.85-1.71-1.33,0-2,.56-2,1.31,0,.71.58,1.09,2.43,1.42,2.85.53,3.92,1.41,3.92,3.17,0,1.98-1.81,3.17-4.34,3.17s-3.76-.69-4.66-1.97l1.31-1.57c.83,1.38,1.84,1.73,3.27,1.73s2.1-.43,2.1-1.23c0-.58-.56-.91-2.31-1.26-2.94-.59-4.07-1.49-4.07-3.25,0-1.87,1.58-3.33,4.32-3.33,1.97,0,3.31.62,4.39,2.03Z"/>
    <path class="cls-20" d="M115.65,270.91v8h-1.95l-.08-1.38c-.53,1.06-1.52,1.54-2.8,1.54-1.62,0-2.82-.82-2.82-2.87v-5.3h2.19v4.74c0,1.3.53,1.7,1.39,1.7,1.04,0,1.87-.66,1.87-2.15v-4.29h2.19Z"/>
    <path class="cls-20" d="M126.08,274.89c0,2.62-1.31,4.18-3.43,4.18-1.18,0-2.05-.59-2.51-1.49v4.69h-2.19v-11.36h1.94l.08,1.55c.45-1.02,1.41-1.71,2.69-1.71,2.13,0,3.43,1.54,3.43,4.15ZM123.87,274.91c0-1.63-.71-2.48-1.87-2.48s-1.86.85-1.86,2.4v.16c0,1.52.7,2.4,1.86,2.4s1.87-.85,1.87-2.48Z"/>
    <path class="cls-20" d="M136.15,274.89c0,2.62-1.31,4.18-3.43,4.18-1.18,0-2.05-.59-2.51-1.49v4.69h-2.19v-11.36h1.94l.08,1.55c.45-1.02,1.41-1.71,2.69-1.71,2.13,0,3.43,1.54,3.43,4.15ZM133.94,274.91c0-1.63-.71-2.48-1.87-2.48s-1.86.85-1.86,2.4v.16c0,1.52.7,2.4,1.86,2.4s1.87-.85,1.87-2.48Z"/>
    <path class="cls-20" d="M145.86,274.91c0,2.61-1.52,4.16-4.1,4.16s-4.1-1.55-4.1-4.16,1.52-4.16,4.1-4.16,4.1,1.55,4.1,4.16ZM139.85,274.91c0,1.7.67,2.53,1.91,2.53s1.9-.83,1.9-2.53-.67-2.53-1.9-2.53-1.91.83-1.91,2.53Z"/>
    <path class="cls-20" d="M153.14,270.92l-.27,1.92c-.22-.14-.59-.24-1.01-.24-.96,0-1.92.7-1.92,2.16v4.15h-2.19v-8h1.91l.14,1.57c.42-1.1,1.23-1.73,2.48-1.73.35,0,.67.06.86.18Z"/>
    <path class="cls-20" d="M159.68,278.42c-.51.42-1.34.66-2.19.66-1.58,0-2.67-.66-2.67-2.42v-4.11h-1.46v-1.63h1.46v-1.84l2.19-.61v2.45h2.59v1.63h-2.59v3.76c0,.77.42,1.1,1.1,1.1.53,0,.9-.16,1.23-.45l.34,1.46Z"/>
    <path class="cls-20" d="M163.73,278.34c0,1.25-.67,2.42-2.05,3.04l-1.01-.77c.93-.35,1.6-.94,1.83-1.68l-.06-.05c-.1.1-.24.16-.46.16-.54,0-1.17-.38-1.17-1.23s.58-1.34,1.39-1.34c1.01,0,1.54.82,1.54,1.87Z"/>
    <path class="cls-20" d="M182.23,278.91h-1.98v-5.51l.1-3.09h-.03l-2.93,8.6h-1.81l-2.91-8.6h-.03l.11,3.09v5.51h-2v-10.56h3.2l1.9,5.76.67,2.38h.03l.69-2.37,1.89-5.78h3.11v10.56Z"/>
    <path class="cls-20" d="M192.55,277.52l-.16,1.33c-.29.14-.64.22-1.04.22-.96,0-1.62-.34-1.84-1.2-.48.78-1.49,1.2-2.83,1.2-1.52,0-2.48-.7-2.48-2.05,0-1.25.98-2.13,3.12-2.53l1.92-.37v-.38c0-.85-.5-1.39-1.36-1.39-.93,0-1.6.35-1.84,1.36l-1.75-.74c.34-1.36,1.54-2.22,3.49-2.22,2.22,0,3.63.96,3.63,2.95v3.28c0,.42.18.61.59.61.19,0,.38-.02.54-.06ZM189.23,276.3v-.83l-1.71.38c-.7.16-1.07.42-1.07.94s.34.79.91.79c.83,0,1.87-.43,1.87-1.28Z"/>
    <path class="cls-20" d="M193.61,268.59c0-.78.45-1.18,1.36-1.18s1.36.4,1.36,1.18-.45,1.17-1.36,1.17-1.36-.38-1.36-1.17ZM196.06,278.91h-2.19v-8h2.19v8Z"/>
    <path class="cls-20" d="M206.03,273.66v5.25h-2.19v-4.61c0-1.38-.59-1.82-1.42-1.82-.93,0-1.84.61-1.84,2.21v4.23h-2.19v-8h1.97l.08,1.42c.53-1.07,1.52-1.58,2.72-1.58,1.66,0,2.88.98,2.88,2.91Z"/>
    <path class="cls-20" d="M213.71,278.42c-.51.42-1.34.66-2.19.66-1.58,0-2.67-.66-2.67-2.42v-4.11h-1.46v-1.63h1.46v-1.84l2.19-.61v2.45h2.59v1.63h-2.59v3.76c0,.77.42,1.1,1.1,1.1.53,0,.9-.16,1.23-.45l.34,1.46Z"/>
    <path class="cls-20" d="M222.5,275.74h-5.67c.22,1.15.93,1.7,2,1.7.93,0,1.54-.35,1.76-.99l1.79.66c-.51,1.28-1.74,1.97-3.55,1.97-2.66,0-4.16-1.54-4.16-4.16s1.46-4.16,4.03-4.16,3.86,1.5,3.86,4.13c0,.22-.03.66-.06.86ZM216.81,274.21h3.73c-.18-1.2-.85-1.84-1.86-1.84s-1.7.62-1.87,1.84Z"/>
    <path class="cls-20" d="M232.05,273.66v5.25h-2.19v-4.61c0-1.38-.59-1.82-1.42-1.82-.93,0-1.84.61-1.84,2.21v4.23h-2.19v-8h1.97l.08,1.42c.53-1.07,1.52-1.58,2.72-1.58,1.66,0,2.88.98,2.88,2.91Z"/>
    <path class="cls-20" d="M242.16,277.52l-.16,1.33c-.29.14-.64.22-1.04.22-.96,0-1.62-.34-1.84-1.2-.48.78-1.49,1.2-2.83,1.2-1.52,0-2.48-.7-2.48-2.05,0-1.25.98-2.13,3.12-2.53l1.92-.37v-.38c0-.85-.5-1.39-1.36-1.39-.93,0-1.6.35-1.84,1.36l-1.75-.74c.34-1.36,1.54-2.22,3.49-2.22,2.22,0,3.63.96,3.63,2.95v3.28c0,.42.18.61.59.61.19,0,.38-.02.54-.06ZM238.85,276.3v-.83l-1.71.38c-.7.16-1.07.42-1.07.94s.34.79.91.79c.83,0,1.87-.43,1.87-1.28Z"/>
    <path class="cls-20" d="M251.14,273.66v5.25h-2.19v-4.61c0-1.38-.59-1.82-1.42-1.82-.93,0-1.84.61-1.84,2.21v4.23h-2.19v-8h1.97l.08,1.42c.53-1.07,1.52-1.58,2.72-1.58,1.66,0,2.88.98,2.88,2.91Z"/>
    <path class="cls-20" d="M260.72,273.1l-2.05.74c-.19-.96-.7-1.46-1.55-1.46-1.25,0-1.95.86-1.95,2.54s.75,2.51,1.94,2.51c.96,0,1.5-.51,1.66-1.42l1.99.64c-.34,1.42-1.58,2.42-3.62,2.42-2.66,0-4.16-1.54-4.16-4.16s1.52-4.16,4.08-4.16c2.26,0,3.28,1.04,3.67,2.35Z"/>
    <path class="cls-20" d="M269.9,275.74h-5.67c.22,1.15.93,1.7,2,1.7.93,0,1.54-.35,1.76-.99l1.79.66c-.51,1.28-1.74,1.97-3.55,1.97-2.66,0-4.16-1.54-4.16-4.16s1.46-4.16,4.03-4.16,3.86,1.5,3.86,4.13c0,.22-.03.66-.06.86ZM264.22,274.21h3.73c-.18-1.2-.85-1.84-1.86-1.84s-1.7.62-1.87,1.84Z"/>
    <path class="cls-20" d="M131.74,298.27c-1.01,0-1.66-.16-2.72-1.09-.75.67-1.79,1.09-3.07,1.09-2.11,0-3.59-1.07-3.59-2.82-.02-1.09.53-2.24,2.31-2.99-.9-1.09-1.15-1.68-1.15-2.51,0-1.26.96-2.56,2.95-2.56,1.81,0,2.91.93,2.91,2.38,0,1.2-.56,2.15-2.24,2.9l.9,1.04c.45.51.82.94,1.15,1.31.34-.66.51-1.44.46-2.43l1.52.08c.03,1.26-.32,2.43-1.02,3.33.69.62,1.15.77,1.87.71l-.27,1.57ZM126.09,296.75c.72,0,1.38-.18,1.95-.51-.35-.37-.74-.78-1.17-1.28-.51-.56-.96-1.04-1.33-1.47-1.04.7-1.28,1.17-1.28,1.81,0,.86.8,1.46,1.82,1.46ZM125.43,290c0,.48.14.82.91,1.75,1.09-.71,1.23-1.26,1.23-1.87,0-.64-.42-.94-1.09-.94s-1.06.46-1.06,1.07Z"/>
    <path class="cls-20" d="M146.44,296.34v1.78h-8.15v-10.56h7.92v1.78h-5.71v2.62h4.5v1.7h-4.5v2.69h5.94Z"/>
    <path class="cls-20" d="M155.85,292.86v5.25h-2.19v-4.61c0-1.38-.59-1.83-1.42-1.83-.93,0-1.84.61-1.84,2.21v4.23h-2.19v-8h1.97l.08,1.42c.53-1.07,1.52-1.58,2.72-1.58,1.66,0,2.88.98,2.88,2.91Z"/>
    <path class="cls-20" d="M165.75,292.86v5.25h-2.19v-4.61c0-1.38-.59-1.83-1.42-1.83-.93,0-1.84.61-1.84,2.21v4.23h-2.19v-11.51h2.19v4.87c.51-1.02,1.44-1.52,2.58-1.52,1.66,0,2.88.98,2.88,2.91Z"/>
    <path class="cls-20" d="M175.86,296.72l-.16,1.33c-.29.14-.64.22-1.04.22-.96,0-1.62-.34-1.84-1.2-.48.78-1.49,1.2-2.83,1.2-1.52,0-2.48-.7-2.48-2.05,0-1.25.98-2.13,3.12-2.53l1.92-.37v-.38c0-.85-.5-1.39-1.36-1.39-.93,0-1.6.35-1.84,1.36l-1.75-.74c.34-1.36,1.54-2.22,3.49-2.22,2.22,0,3.63.96,3.63,2.95v3.28c0,.42.18.61.59.61.19,0,.38-.02.54-.06ZM172.55,295.5v-.83l-1.71.38c-.7.16-1.07.42-1.07.94s.34.79.91.79c.83,0,1.87-.43,1.87-1.28Z"/>
    <path class="cls-20" d="M184.84,292.86v5.25h-2.19v-4.61c0-1.38-.59-1.83-1.42-1.83-.93,0-1.84.61-1.84,2.21v4.23h-2.19v-8h1.97l.08,1.42c.53-1.07,1.52-1.58,2.72-1.58,1.66,0,2.88.98,2.88,2.91Z"/>
    <path class="cls-20" d="M194.42,292.3l-2.05.74c-.19-.96-.7-1.46-1.55-1.46-1.25,0-1.95.86-1.95,2.54s.75,2.51,1.94,2.51c.96,0,1.5-.51,1.66-1.42l1.99.64c-.34,1.42-1.58,2.42-3.62,2.42-2.66,0-4.16-1.54-4.16-4.16s1.52-4.16,4.08-4.16c2.26,0,3.28,1.04,3.67,2.35Z"/>
    <path class="cls-20" d="M203.61,294.94h-5.67c.22,1.15.93,1.7,2,1.7.93,0,1.54-.35,1.76-.99l1.79.66c-.51,1.28-1.74,1.97-3.55,1.97-2.66,0-4.16-1.54-4.16-4.16s1.46-4.16,4.03-4.16,3.86,1.5,3.86,4.13c0,.22-.03.66-.06.86ZM197.93,293.41h3.73c-.18-1.2-.85-1.84-1.86-1.84s-1.7.62-1.87,1.84Z"/>
    <path class="cls-20" d="M218.38,292.86l-.02,5.25h-2.18v-4.82c0-1.17-.58-1.62-1.38-1.62-.98,0-1.76.74-1.76,2.13v4.31h-2.19v-4.82c0-1.17-.58-1.62-1.39-1.62s-1.76.62-1.76,2.19v4.24h-2.19v-8h1.97l.08,1.41c.53-1.06,1.52-1.57,2.64-1.57s2.18.53,2.61,1.62c.53-1.09,1.6-1.62,2.72-1.62,1.55,0,2.87.94,2.85,2.91Z"/>
    <path class="cls-20" d="M228.04,294.94h-5.67c.22,1.15.93,1.7,2,1.7.93,0,1.54-.35,1.76-.99l1.79.66c-.51,1.28-1.74,1.97-3.55,1.97-2.66,0-4.16-1.54-4.16-4.16s1.46-4.16,4.03-4.16,3.86,1.5,3.86,4.13c0,.22-.03.66-.06.86ZM222.36,293.41h3.73c-.18-1.2-.85-1.84-1.86-1.84s-1.7.62-1.87,1.84Z"/>
    <path class="cls-20" d="M237.59,292.86v5.25h-2.19v-4.61c0-1.38-.59-1.83-1.42-1.83-.93,0-1.84.61-1.84,2.21v4.23h-2.19v-8h1.97l.08,1.42c.53-1.07,1.52-1.58,2.72-1.58,1.66,0,2.88.98,2.88,2.91Z"/>
    <path class="cls-20" d="M245.27,297.62c-.51.42-1.34.66-2.19.66-1.58,0-2.67-.66-2.67-2.42v-4.11h-1.46v-1.63h1.46v-1.84l2.19-.61v2.45h2.59v1.63h-2.59v3.76c0,.77.42,1.1,1.1,1.1.53,0,.9-.16,1.23-.45l.34,1.46Z"/>
  </g>
  <path class="cls-20" d="M501.32,163.26v-4h16v-14.2c0-3.9-1.36-7.21-4.08-9.93s-6.03-4.08-9.93-4.08-7.21,1.36-9.93,4.08c-2.72,2.72-4.08,6.03-4.08,9.93v12.2h-2c-1.1,0-2.04-.39-2.83-1.18-.78-.78-1.18-1.73-1.18-2.83v-4c0-.7.18-1.36.53-1.98s.84-1.11,1.48-1.48l.15-2.65c.27-2.27.93-4.37,1.98-6.3s2.37-3.62,3.95-5.05c1.58-1.43,3.4-2.55,5.45-3.35s4.21-1.2,6.48-1.2,4.42.4,6.45,1.2,3.85,1.91,5.45,3.33,2.92,3.09,3.95,5.03,1.7,4.03,2,6.3l.15,2.6c.63.3,1.13.75,1.48,1.35s.53,1.23.53,1.9v4.6c0,.67-.18,1.3-.53,1.9s-.84,1.05-1.48,1.35v2.45c0,1.1-.39,2.04-1.18,2.83-.78.78-1.73,1.18-2.83,1.18h-16ZM497.32,149.26c-.57,0-1.04-.19-1.43-.58s-.58-.86-.58-1.43.19-1.04.58-1.43.86-.58,1.43-.58,1.04.19,1.43.58.58.86.58,1.43-.19,1.04-.58,1.43-.86.58-1.43.58ZM509.32,149.26c-.57,0-1.04-.19-1.43-.58s-.58-.86-.58-1.43.19-1.04.58-1.43.86-.58,1.43-.58,1.04.19,1.43.58.58.86.58,1.43-.19,1.04-.58,1.43-.86.58-1.43.58ZM491.37,146.16c-.23-3.53.83-6.57,3.2-9.1s5.32-3.8,8.85-3.8c2.97,0,5.58.94,7.83,2.83s3.61,4.29,4.08,7.23c-3.03-.03-5.83-.85-8.38-2.45s-4.51-3.77-5.88-6.5c-.53,2.67-1.66,5.04-3.38,7.13s-3.83,3.64-6.33,4.68Z"/>
  <path class="cls-20" d="M300.52,84.47v-4c0-1.1.39-2.04,1.18-2.83s1.73-1.18,2.83-1.18h32c1.1,0,2.04.39,2.83,1.18s1.18,1.73,1.18,2.83v4h-4v-4h-32v4h-4ZM312.52,112.47v-4h-8c-1.1,0-2.04-.39-2.83-1.18s-1.18-1.73-1.18-2.83v-4h4v4h32v-4h4v4c0,1.1-.39,2.04-1.18,2.83s-1.73,1.18-2.83,1.18h-8v4h-16ZM306.12,92.47l5.2-5.2-2.8-2.8-8,8,8,8,2.8-2.8-5.2-5.2ZM334.92,92.47l-5.2,5.2,2.8,2.8,8-8-8-8-2.8,2.8,5.2,5.2Z"/>
  <circle id="Ellipse_35-5" data-name="Ellipse 35" class="cls-6" cx="318.98" cy="281.71" r="35.88"/>
  <circle id="Ellipse_35-6" data-name="Ellipse 35" class="cls-7" cx="686.91" cy="83.54" r="35.88"/>
  <path class="cls-20" d="M284.41,200.23c-1.02,0-1.89-.36-2.61-1.08-.72-.72-1.08-1.59-1.08-2.61v-25.85c0-1.02.36-1.89,1.08-2.61.72-.72,1.59-1.08,2.61-1.08h9.23v3.69h-9.23v25.85h25.85v-9.88l3.69,3.69v6.19c0,1.02-.36,1.89-1.08,2.61-.72.72-1.59,1.08-2.61,1.08h-25.85ZM286.26,192.85l5.54-7.39,4.15,5.54,5.54-7.39,6.92,9.23h-22.16ZM314.97,186.2l-5.72-5.72c-.65.43-1.34.75-2.08.97s-1.52.32-2.35.32c-2.28,0-4.22-.81-5.82-2.42-1.6-1.62-2.4-3.58-2.4-5.89s.81-4.27,2.42-5.89,3.58-2.42,5.89-2.42,4.27.81,5.89,2.42,2.42,3.58,2.42,5.89c0,.83-.12,1.63-.37,2.4s-.55,1.48-.92,2.12l5.63,5.63-2.59,2.59ZM304.91,178.07c1.29,0,2.39-.45,3.28-1.34s1.34-1.99,1.34-3.28-.45-2.39-1.34-3.28-1.99-1.34-3.28-1.34-2.39.45-3.28,1.34-1.34,1.99-1.34,3.28.45,2.39,1.34,3.28,1.99,1.34,3.28,1.34Z"/>
  <path class="cls-20" d="M297.39,297.71v-5.6c0-1.1.28-2.13.85-3.1.57-.97,1.35-1.7,2.35-2.2,1.7-.87,3.62-1.6,5.75-2.2,2.13-.6,4.48-.9,7.05-.9s4.92.3,7.05.9c2.13.6,4.05,1.33,5.75,2.2,1,.5,1.78,1.23,2.35,2.2s.85,2,.85,3.1v5.6h-32ZM301.39,293.71h24v-1.6c0-.37-.09-.7-.28-1s-.43-.53-.73-.7c-1.2-.6-2.74-1.2-4.63-1.8-1.88-.6-4.01-.9-6.38-.9s-4.49.3-6.38.9c-1.88.6-3.43,1.2-4.63,1.8-.3.17-.54.4-.73.7-.18.3-.28.63-.28,1v1.6ZM313.39,281.71c-2.2,0-4.08-.78-5.65-2.35-1.57-1.57-2.35-3.45-2.35-5.65h-.5c-.3,0-.54-.09-.73-.28s-.28-.43-.28-.73.09-.54.28-.73.43-.28.73-.28h.5c0-1.5.37-2.85,1.1-4.05s1.7-2.15,2.9-2.85v1.9c0,.3.09.54.28.73s.43.28.73.28.54-.09.73-.28.28-.43.28-.73v-2.7c.3-.1.62-.18.95-.23s.68-.08,1.05-.08.72.03,1.05.08.65.13.95.23v2.7c0,.3.09.54.28.73s.43.28.73.28.54-.09.73-.28.28-.43.28-.73v-1.9c1.2.7,2.17,1.65,2.9,2.85.73,1.2,1.1,2.55,1.1,4.05h.5c.3,0,.54.09.73.28s.28.43.28.73-.09.54-.28.73-.43.28-.73.28h-.5c0,2.2-.78,4.08-2.35,5.65-1.57,1.57-3.45,2.35-5.65,2.35ZM313.39,277.71c1.1,0,2.04-.39,2.83-1.18s1.18-1.73,1.18-2.83h-8c0,1.1.39,2.04,1.18,2.83s1.73,1.18,2.83,1.18ZM328.39,285.71l-.3-1.5c-.2-.07-.39-.14-.58-.23s-.36-.21-.53-.38l-1.4.5-1-1.8,1.1-1v-1.2l-1.1-1,1-1.8,1.4.5c.13-.13.3-.25.5-.35s.4-.18.6-.25l.3-1.5h2l.3,1.5c.2.07.4.15.6.25s.37.22.5.35l1.4-.5,1,1.8-1.1,1v1.2l1.1,1-1,1.8-1.4-.5c-.17.17-.34.29-.53.38s-.38.16-.58.23l-.3,1.5h-2ZM329.39,282.21c.4,0,.75-.15,1.05-.45s.45-.65.45-1.05-.15-.75-.45-1.05-.65-.45-1.05-.45-.75.15-1.05.45-.45.65-.45,1.05.15.75.45,1.05.65.45,1.05.45ZM332.99,275.71l-.4-2.1c-.3-.1-.58-.23-.83-.38s-.48-.33-.68-.53l-2.1.7-1.4-2.4,1.7-1.5c-.07-.17-.1-.3-.1-.4v-.8c0-.1.03-.23.1-.4l-1.7-1.5,1.4-2.4,2.1.7c.2-.2.43-.38.68-.53s.53-.28.83-.38l.4-2.1h2.8l.4,2.1c.3.1.58.23.83.38s.48.33.68.53l2.1-.7,1.4,2.4-1.7,1.5c.07.17.1.3.1.4v.8c0,.1-.03.23-.1.4l1.7,1.5-1.4,2.4-2.1-.7c-.2.2-.43.38-.68.53s-.53.28-.83.38l-.4,2.1h-2.8ZM334.39,271.21c.7,0,1.29-.24,1.78-.73s.73-1.08.73-1.78-.24-1.29-.73-1.78-1.08-.73-1.78-.73-1.29.24-1.78.73-.73,1.08-.73,1.78.24,1.29.73,1.78,1.08.73,1.78.73Z"/>
  <path class="cls-20" d="M672.44,65.91v12.05-.05,20-32,10-10ZM676.44,85.91h7c.3-.77.67-1.48,1.1-2.15s.93-1.28,1.5-1.85h-9.6v4ZM676.44,93.91h6.35c-.17-.67-.28-1.33-.33-2s-.04-1.33.03-2h-6.05v4ZM672.44,101.91c-1.1,0-2.04-.39-2.83-1.18-.78-.78-1.18-1.73-1.18-2.83v-32c0-1.1.39-2.04,1.18-2.83.78-.78,1.73-1.18,2.83-1.18h16l12,12v5c-.63-.27-1.28-.48-1.95-.63s-1.35-.26-2.05-.33v-2.05h-10v-10h-14v32h12.05c.53.8,1.13,1.54,1.8,2.23.67.68,1.4,1.28,2.2,1.78h-16.05ZM695.44,95.91c1.4,0,2.58-.48,3.55-1.45s1.45-2.15,1.45-3.55-.48-2.58-1.45-3.55-2.15-1.45-3.55-1.45-2.58.48-3.55,1.45-1.45,2.15-1.45,3.55.48,2.58,1.45,3.55,2.15,1.45,3.55,1.45ZM705.64,103.91l-5.4-5.4c-.7.47-1.46.82-2.28,1.05-.82.23-1.66.35-2.53.35-2.5,0-4.63-.88-6.38-2.63s-2.63-3.88-2.63-6.38.88-4.63,2.63-6.38,3.88-2.63,6.38-2.63,4.63.88,6.38,2.63,2.63,3.88,2.63,6.38c0,.87-.12,1.71-.35,2.53-.23.82-.58,1.58-1.05,2.28l5.4,5.4-2.8,2.8Z"/>
  <path class="cls-20" d="M693.42,182.55v11.21-22.42,11.21ZM712.11,199.36c.53,0,.97-.18,1.33-.54.36-.36.54-.8.54-1.33s-.18-.97-.54-1.33-.8-.54-1.33-.54-.97.18-1.33.54-.54.8-.54,1.33.18.97.54,1.33c.36.36.8.54,1.33.54ZM723.32,180.68c.53,0,.97-.18,1.33-.54s.54-.8.54-1.33-.18-.97-.54-1.33-.8-.54-1.33-.54-.97.18-1.33.54-.54.8-.54,1.33.18.97.54,1.33.8.54,1.33.54ZM697.16,180.68h9.34v-3.74h-9.34v3.74ZM697.16,188.15h9.34v-3.74h-9.34v3.74ZM693.42,197.49c-1.03,0-1.91-.37-2.64-1.1s-1.1-1.61-1.1-2.64v-22.42c0-1.03.37-1.91,1.1-2.64s1.61-1.1,2.64-1.1h29.89c1.03,0,1.91.37,2.64,1.1s1.1,1.61,1.1,2.64h-33.63v22.42h9.34v3.74h-9.34ZM712.11,203.1c-1.56,0-2.88-.54-3.97-1.63-1.09-1.09-1.63-2.41-1.63-3.97,0-1.21.35-2.3,1.05-3.27s1.6-1.63,2.69-2.01v-5.93h11.21v-2.2c-1.09-.37-1.99-1.04-2.69-2.01s-1.05-2.06-1.05-3.27c0-1.56.54-2.88,1.63-3.97s2.41-1.63,3.97-1.63,2.88.54,3.97,1.63,1.63,2.41,1.63,3.97c0,1.21-.35,2.3-1.05,3.27s-1.6,1.63-2.69,2.01v5.93h-11.21v2.2c1.09.37,1.99,1.04,2.69,2.01s1.05,2.06,1.05,3.27c0,1.56-.54,2.88-1.63,3.97-1.09,1.09-2.41,1.63-3.97,1.63Z"/>
  <path class="cls-20" d="M681.02,281.66l4.09-4.14-2.66-2.71-2.09,2.09-2.66-2.66,2.04-2.09-2.14-2.14-4.14,4.14,7.56,7.51ZM696.62,297.3l4.14-4.14-2.14-2.14-2.09,2.04-2.66-2.66,2.04-2.09-2.71-2.66-4.09,4.09,7.51,7.56ZM697.76,270.34l2.71,2.71-2.71-2.71ZM678.07,300.77h-8.08v-8.08l8.32-8.32-10.22-10.22,9.51-9.51,10.27,10.27,7.18-7.23c.38-.38.81-.67,1.28-.86s.97-.29,1.47-.29,1,.1,1.47.29.9.48,1.28.86l2.52,2.57c.38.38.67.81.86,1.28s.29.97.29,1.47-.1.99-.29,1.45-.48.88-.86,1.26l-7.18,7.23,10.22,10.22-9.51,9.51-10.22-10.22-8.32,8.32ZM673.79,296.97h2.66l18.64-18.59-2.71-2.71-18.59,18.64v2.66ZM693.77,277.04l-1.38-1.38,2.71,2.71-1.33-1.33Z"/>
</svg>