<?xml version="1.0" encoding="UTF-8"?>
<svg xmlns="http://www.w3.org/2000/svg" xmlns:xlink="http://www.w3.org/1999/xlink" viewBox="0 0 601.25 573.38">
  <defs>
    <style>
      .cls-1 {
        stroke-dasharray: 0 0 3.06 3.06;
        stroke-width: 1.53px;
      }

      .cls-1, .cls-2 {
        stroke: #a6a8aa;
      }

      .cls-1, .cls-2, .cls-3, .cls-4, .cls-5, .cls-6 {
        fill: none;
        stroke-miterlimit: 10;
      }

      .cls-1, .cls-7 {
        mix-blend-mode: multiply;
      }

      .cls-8 {
        filter: url(#drop-shadow-22);
      }

      .cls-8, .cls-9, .cls-10, .cls-11, .cls-12, .cls-13, .cls-14, .cls-15, .cls-16, .cls-17, .cls-18, .cls-19 {
        stroke-width: 0px;
      }

      .cls-8, .cls-9, .cls-10, .cls-11, .cls-12, .cls-13, .cls-14, .cls-19 {
        fill: #fff;
      }

      .cls-9 {
        filter: url(#drop-shadow-20);
      }

      .cls-10 {
        filter: url(#drop-shadow-21);
      }

      .cls-11 {
        filter: url(#drop-shadow-26);
      }

      .cls-12 {
        filter: url(#drop-shadow-25);
      }

      .cls-13 {
        filter: url(#drop-shadow-24);
      }

      .cls-14 {
        filter: url(#drop-shadow-23);
      }

      .cls-20 {
        isolation: isolate;
      }

      .cls-2, .cls-3 {
        stroke-width: 1.89px;
      }

      .cls-3 {
        stroke: #00344c;
      }

      .cls-7 {
        opacity: .19;
      }

      .cls-15 {
        fill: #4d6fff;
      }

      .cls-16 {
        fill: #636466;
      }

      .cls-17 {
        fill: #0645d3;
      }

      .cls-18 {
        fill: #8098ff;
      }

      .cls-4 {
        stroke: #0645d3;
        stroke-width: 9.07px;
      }

      .cls-5 {
        stroke: #4d6fff;
      }

      .cls-5, .cls-6 {
        stroke-width: 11.29px;
      }

      .cls-6 {
        stroke: #8098ff;
      }
    </style>
    <filter id="drop-shadow-20" filterUnits="userSpaceOnUse">
      <feOffset dx="4.42" dy="5.89"/>
      <feGaussianBlur result="blur" stdDeviation="0"/>
      <feFlood flood-color="#939393" flood-opacity=".5"/>
      <feComposite in2="blur" operator="in"/>
      <feComposite in="SourceGraphic"/>
    </filter>
    <filter id="drop-shadow-21" filterUnits="userSpaceOnUse">
      <feOffset dx="4.42" dy="5.89"/>
      <feGaussianBlur result="blur-2" stdDeviation="0"/>
      <feFlood flood-color="#939393" flood-opacity=".5"/>
      <feComposite in2="blur-2" operator="in"/>
      <feComposite in="SourceGraphic"/>
    </filter>
    <filter id="drop-shadow-22" filterUnits="userSpaceOnUse">
      <feOffset dx="4.42" dy="5.89"/>
      <feGaussianBlur result="blur-3" stdDeviation="0"/>
      <feFlood flood-color="#939393" flood-opacity=".5"/>
      <feComposite in2="blur-3" operator="in"/>
      <feComposite in="SourceGraphic"/>
    </filter>
    <filter id="drop-shadow-23" filterUnits="userSpaceOnUse">
      <feOffset dx="4.42" dy="5.89"/>
      <feGaussianBlur result="blur-4" stdDeviation="0"/>
      <feFlood flood-color="#939393" flood-opacity=".5"/>
      <feComposite in2="blur-4" operator="in"/>
      <feComposite in="SourceGraphic"/>
    </filter>
    <filter id="drop-shadow-24" filterUnits="userSpaceOnUse">
      <feOffset dx="4.42" dy="5.89"/>
      <feGaussianBlur result="blur-5" stdDeviation="0"/>
      <feFlood flood-color="#939393" flood-opacity=".5"/>
      <feComposite in2="blur-5" operator="in"/>
      <feComposite in="SourceGraphic"/>
    </filter>
    <filter id="drop-shadow-25" filterUnits="userSpaceOnUse">
      <feOffset dx="4.42" dy="5.89"/>
      <feGaussianBlur result="blur-6" stdDeviation="0"/>
      <feFlood flood-color="#939393" flood-opacity=".5"/>
      <feComposite in2="blur-6" operator="in"/>
      <feComposite in="SourceGraphic"/>
    </filter>
    <filter id="drop-shadow-26" filterUnits="userSpaceOnUse">
      <feOffset dx="4.42" dy="5.89"/>
      <feGaussianBlur result="blur-7" stdDeviation="0"/>
      <feFlood flood-color="#939393" flood-opacity=".5"/>
      <feComposite in2="blur-7" operator="in"/>
      <feComposite in="SourceGraphic"/>
    </filter>
  </defs>
  <g class="cls-20">
    <g id="Layer_1" data-name="Layer 1">
      <g>
        <polygon class="cls-1" points="299.49 357.35 370.84 322.99 388.47 245.77 339.09 183.85 259.89 183.85 210.51 245.77 228.13 322.99 299.49 357.35"/>
        <polygon class="cls-16" points="299.49 344.63 360.9 315.05 376.06 248.6 333.57 195.31 265.41 195.31 222.91 248.6 238.08 315.05 299.49 344.63"/>
        <g>
          <g>
            <g class="cls-7">
              <path class="cls-3" d="M433.44,147.58c-18.81,31.79-59.83,42.32-91.62,23.51-31.79-18.81-42.32-59.83-23.51-91.62"/>
            </g>
            <path class="cls-2" d="M433.44,143.95c-18.81,31.79-59.83,42.32-91.62,23.51-31.79-18.81-42.32-59.83-23.51-91.62"/>
          </g>
          <path class="cls-6" d="M318.31,75.84c18.81-31.79,59.83-42.32,91.62-23.51,31.79,18.81,42.32,59.83,23.51,91.62"/>
          <circle class="cls-9" cx="409.93" cy="52.33" r="36.32" transform="translate(83.06 305.19) rotate(-45)"/>
          <circle class="cls-18" cx="409.93" cy="52.33" r="31.93" transform="translate(83.06 305.19) rotate(-45)"/>
        </g>
        <g>
          <g>
            <g class="cls-7">
              <path class="cls-3" d="M289.05,85.06c14.37,34.03-1.57,73.27-35.6,87.64-34.03,14.37-73.27-1.57-87.64-35.6"/>
            </g>
            <path class="cls-2" d="M289.05,81.43c14.37,34.03-1.57,73.27-35.6,87.64-34.03,14.37-73.27-1.57-87.64-35.6"/>
          </g>
          <path class="cls-6" d="M165.81,133.47c-14.37-34.03,1.57-73.27,35.6-87.64,34.03-14.37,73.27,1.57,87.64,35.6"/>
          <circle class="cls-10" cx="201.41" cy="45.83" r="36.32" transform="translate(-4.79 33.75) rotate(-9.47)"/>
          <circle class="cls-18" cx="201.41" cy="45.83" r="31.93" transform="translate(-4.8 33.89) rotate(-9.5)"/>
        </g>
        <g>
          <g>
            <g class="cls-7">
              <path class="cls-3" d="M145.17,158.44c36.24,7.16,59.81,42.34,52.66,78.58s-42.34,59.81-78.58,52.66"/>
            </g>
            <path class="cls-2" d="M145.17,154.82c36.24,7.16,59.81,42.34,52.66,78.58s-42.34,59.81-78.58,52.66"/>
          </g>
          <path class="cls-5" d="M119.25,286.05c-36.24-7.16-59.81-42.34-52.66-78.58,7.16-36.24,42.34-59.81,78.58-52.66"/>
          <circle class="cls-8" cx="66.59" cy="207.47" r="36.32" transform="translate(-149.77 181.65) rotate(-65.4)"/>
          <circle class="cls-15" cx="66.59" cy="207.47" r="31.93" transform="translate(-149.79 181.8) rotate(-65.44)"/>
        </g>
        <g>
          <g>
            <g class="cls-7">
              <path class="cls-3" d="M123.94,316.62c30.6-20.69,72.18-12.67,92.87,17.93,20.69,30.6,12.67,72.18-17.93,92.87"/>
            </g>
            <path class="cls-2" d="M123.94,313c30.6-20.69,72.18-12.67,92.87,17.93,20.69,30.6,12.67,72.18-17.93,92.87"/>
          </g>
          <path class="cls-4" d="M198.88,423.8c-30.6,20.69-72.18,12.67-92.87-17.93-20.69-30.6-12.67-72.18,17.93-92.87"/>
          <circle class="cls-14" cx="106.01" cy="405.87" r="36.32" transform="translate(-136.29 63.44) rotate(-20.65)"/>
          <circle class="cls-17" cx="106.01" cy="405.87" r="31.93" transform="translate(-136.53 63.61) rotate(-20.68)"/>
        </g>
        <g>
          <g>
            <g class="cls-7">
              <path class="cls-3" d="M225.54,440.32c.04-36.94,30.01-66.85,66.95-66.82,36.94.04,66.85,30.01,66.82,66.95"/>
            </g>
            <path class="cls-2" d="M225.54,436.69c.04-36.94,30.01-66.85,66.95-66.82,36.94.04,66.85,30.01,66.82,66.95"/>
          </g>
          <path class="cls-6" d="M359.31,436.83c-.04,36.94-30.01,66.85-66.95,66.82-36.94-.04-66.85-30.01-66.82-66.95"/>
          <circle class="cls-13" cx="292.36" cy="503.65" r="36.32" transform="translate(-265.58 670.49) rotate(-76.51)"/>
          <circle class="cls-18" cx="292.36" cy="503.65" r="31.93" transform="translate(-265.47 670.87) rotate(-76.55)"/>
        </g>
        <g>
          <g>
            <g class="cls-7">
              <path class="cls-3" d="M388.04,434.23c-29.17-22.66-34.46-64.68-11.8-93.85,22.66-29.17,64.68-34.46,93.85-11.8"/>
            </g>
            <path class="cls-2" d="M388.04,430.6c-29.17-22.66-34.46-64.68-11.8-93.85,22.66-29.17,64.68-34.46,93.85-11.8"/>
          </g>
          <path class="cls-5" d="M470.09,324.95c29.17,22.66,34.46,64.68,11.8,93.85-22.66,29.17-64.68,34.46-93.85,11.8"/>
          <circle class="cls-12" cx="481.89" cy="418.8" r="36.32" transform="translate(-156.06 393.7) rotate(-38.74)"/>
          <circle class="cls-15" cx="481.89" cy="418.8" r="31.93" transform="translate(-156.08 394.13) rotate(-38.78)"/>
        </g>
        <g>
          <g>
            <g class="cls-7">
              <path class="cls-3" d="M479.23,302.42c-36.47,5.86-70.79-18.95-76.65-55.43-5.86-36.47,18.95-70.79,55.43-76.65"/>
            </g>
            <path class="cls-2" d="M479.23,298.79c-36.47,5.86-70.79-18.95-76.65-55.43-5.86-36.47,18.95-70.79,55.43-76.65"/>
          </g>
          <path class="cls-4" d="M458.01,166.72c36.47-5.86,70.79,18.95,76.65,55.43,5.86,36.47-18.95,70.79-55.43,76.65"/>
          <circle class="cls-11" cx="534.66" cy="222.14" r="36.32" transform="translate(273.07 738.65) rotate(-85.7)"/>
          <circle class="cls-17" cx="534.66" cy="222.14" r="31.93" transform="translate(273.42 738.83) rotate(-85.74)"/>
        </g>
        <path class="cls-19" d="M398.47,68.17c-.99,0-1.84-.35-2.54-1.06-.7-.71-1.06-1.55-1.06-2.54v-25.2c0-.99.35-1.84,1.06-2.54.71-.71,1.55-1.06,2.54-1.06h19.8l9,9v19.8c0,.99-.35,1.84-1.06,2.54-.71.7-1.55,1.06-2.54,1.06h-25.2ZM398.47,64.57h25.2v-18h-7.2v-7.2h-18v25.2ZM402.07,60.97h18v-3.6h-18v3.6ZM402.07,46.57h9v-3.6h-9v3.6ZM402.07,53.77h18v-3.6h-18v3.6ZM398.47,39.37v7.2-7.2,25.2-25.2Z"/>
        <g>
          <path class="cls-16" d="M348.13,104.34h-1.82v-5.06l.09-2.84h-.03l-2.69,7.9h-1.66l-2.68-7.9h-.03l.1,2.84v5.06h-1.84v-9.71h2.94l1.75,5.29.62,2.19h.03l.63-2.18,1.74-5.31h2.85v9.71Z"/>
          <path class="cls-16" d="M357.11,96.99v7.35h-1.79l-.07-1.26c-.49.97-1.4,1.41-2.57,1.41-1.49,0-2.59-.75-2.59-2.63v-4.87h2.02v4.35c0,1.19.49,1.56,1.28,1.56.96,0,1.72-.6,1.72-1.97v-3.94h2.01Z"/>
          <path class="cls-16" d="M360.92,102c0,.69.18.94.72.94.34,0,.54-.04.87-.16l-.18,1.4c-.32.19-.88.31-1.37.31-1.43,0-2.06-.66-2.06-2.19v-8.53h2.02v8.24Z"/>
          <path class="cls-16" d="M368.12,103.88c-.47.38-1.24.6-2.02.6-1.46,0-2.46-.6-2.46-2.22v-3.78h-1.34v-1.5h1.34v-1.69l2.02-.56v2.25h2.38v1.5h-2.38v3.46c0,.71.38,1.01,1.01,1.01.49,0,.82-.15,1.13-.41l.31,1.34Z"/>
          <path class="cls-16" d="M368.85,94.85c0-.72.41-1.09,1.25-1.09s1.25.37,1.25,1.09-.41,1.07-1.25,1.07-1.25-.35-1.25-1.07ZM371.1,104.34h-2.02v-7.35h2.02v7.35Z"/>
          <path class="cls-16" d="M379.68,99l-1.88.68c-.18-.88-.65-1.34-1.43-1.34-1.15,0-1.79.79-1.79,2.34s.69,2.31,1.78,2.31c.88,0,1.38-.47,1.53-1.31l1.82.59c-.31,1.31-1.46,2.22-3.32,2.22-2.44,0-3.82-1.41-3.82-3.83s1.4-3.82,3.75-3.82c2.07,0,3.02.96,3.37,2.16Z"/>
          <path class="cls-16" d="M388.05,99.52v4.82h-2.01v-4.24c0-1.26-.54-1.68-1.31-1.68-.85,0-1.69.56-1.69,2.03v3.88h-2.02v-10.58h2.02v4.47c.47-.94,1.32-1.4,2.37-1.4,1.53,0,2.65.9,2.65,2.68Z"/>
          <path class="cls-16" d="M396.87,99.52v4.82h-2.01v-4.24c0-1.26-.54-1.68-1.31-1.68-.85,0-1.69.56-1.69,2.03v3.88h-2.01v-7.35h1.81l.07,1.31c.49-.99,1.4-1.46,2.5-1.46,1.53,0,2.65.9,2.65,2.68Z"/>
          <path class="cls-16" d="M405.68,99.52v4.82h-2.01v-4.24c0-1.26-.54-1.68-1.31-1.68-.85,0-1.69.56-1.69,2.03v3.88h-2.01v-7.35h1.81l.07,1.31c.49-.99,1.4-1.46,2.5-1.46,1.53,0,2.65.9,2.65,2.68Z"/>
          <path class="cls-16" d="M414.27,101.43h-5.21c.21,1.06.85,1.56,1.84,1.56.85,0,1.41-.32,1.62-.91l1.65.6c-.47,1.18-1.6,1.81-3.27,1.81-2.44,0-3.82-1.41-3.82-3.83s1.34-3.82,3.71-3.82,3.54,1.38,3.54,3.79c0,.21-.03.6-.06.79ZM409.05,100.02h3.43c-.16-1.1-.78-1.69-1.71-1.69-.97,0-1.56.57-1.72,1.69Z"/>
          <path class="cls-16" d="M417.72,102c0,.69.18.94.72.94.34,0,.54-.04.87-.16l-.18,1.4c-.32.19-.88.31-1.37.31-1.43,0-2.06-.66-2.06-2.19v-8.53h2.02v8.24Z"/>
          <path class="cls-16" d="M368.04,115.14c0,3.12-1.78,5-4.66,5s-4.68-1.88-4.68-5,1.79-5,4.68-5,4.66,1.88,4.66,5ZM360.8,115.14c0,2.16.94,3.34,2.57,3.34s2.56-1.18,2.56-3.34-.94-3.34-2.56-3.34-2.57,1.18-2.57,3.34Z"/>
          <path class="cls-16" d="M374.5,112.66l-.25,1.76c-.21-.13-.54-.22-.93-.22-.88,0-1.77.65-1.77,1.99v3.81h-2.02v-7.35h1.75l.13,1.44c.38-1.01,1.13-1.59,2.28-1.59.32,0,.62.06.79.16Z"/>
          <path class="cls-16" d="M382.43,109.42v10.58h-1.79l-.09-1.32c-.43.88-1.29,1.47-2.43,1.47-1.96,0-3.15-1.41-3.15-3.81s1.21-3.84,3.15-3.84c1.07,0,1.87.53,2.29,1.34v-4.41h2.02ZM380.42,116.75v-.85c-.1-1.18-.72-1.85-1.69-1.85-1.07,0-1.72.78-1.72,2.28s.65,2.28,1.72,2.28c.96,0,1.59-.65,1.69-1.85Z"/>
          <path class="cls-16" d="M391.08,117.09h-5.21c.21,1.06.85,1.56,1.84,1.56.85,0,1.41-.32,1.62-.91l1.65.6c-.47,1.18-1.6,1.81-3.27,1.81-2.44,0-3.82-1.41-3.82-3.83s1.34-3.82,3.71-3.82,3.54,1.38,3.54,3.79c0,.21-.03.6-.06.79ZM385.86,115.67h3.43c-.16-1.1-.78-1.69-1.71-1.69-.97,0-1.56.57-1.72,1.69Z"/>
          <path class="cls-16" d="M397.5,112.66l-.25,1.76c-.21-.13-.54-.22-.93-.22-.88,0-1.77.65-1.77,1.99v3.81h-2.02v-7.35h1.75l.13,1.44c.38-1.01,1.13-1.59,2.28-1.59.32,0,.62.06.79.16Z"/>
          <path class="cls-16" d="M341.86,135.66h-1.82v-5.06l.09-2.84h-.03l-2.69,7.9h-1.66l-2.68-7.9h-.03l.1,2.84v5.06h-1.84v-9.71h2.94l1.75,5.29.62,2.19h.03l.63-2.18,1.74-5.31h2.85v9.71Z"/>
          <path class="cls-16" d="M351.06,134.38l-.15,1.22c-.27.13-.59.21-.96.21-.88,0-1.49-.31-1.69-1.1-.44.72-1.37,1.1-2.6,1.1-1.4,0-2.28-.65-2.28-1.88,0-1.15.9-1.96,2.87-2.32l1.76-.34v-.35c0-.78-.46-1.28-1.25-1.28-.85,0-1.47.32-1.69,1.25l-1.6-.68c.31-1.25,1.41-2.04,3.21-2.04,2.04,0,3.34.88,3.34,2.71v3.01c0,.38.16.56.54.56.18,0,.35-.01.5-.06ZM348.02,133.26v-.76l-1.57.35c-.65.15-.99.38-.99.87s.31.72.84.72c.76,0,1.72-.4,1.72-1.18Z"/>
          <path class="cls-16" d="M359.02,130.83v4.82h-2.01v-4.24c0-1.26-.54-1.68-1.31-1.68-.85,0-1.69.56-1.69,2.03v3.88h-2.02v-7.35h1.81l.07,1.31c.49-.99,1.4-1.46,2.5-1.46,1.53,0,2.65.9,2.65,2.68Z"/>
          <path class="cls-16" d="M368.03,134.38l-.15,1.22c-.27.13-.59.21-.96.21-.88,0-1.49-.31-1.69-1.1-.44.72-1.37,1.1-2.6,1.1-1.4,0-2.28-.65-2.28-1.88,0-1.15.9-1.96,2.87-2.32l1.76-.34v-.35c0-.78-.46-1.28-1.25-1.28-.85,0-1.47.32-1.69,1.25l-1.6-.68c.31-1.25,1.41-2.04,3.21-2.04,2.04,0,3.34.88,3.34,2.71v3.01c0,.38.16.56.54.56.18,0,.35-.01.5-.06ZM364.98,133.26v-.76l-1.57.35c-.65.15-.99.38-.99.87s.31.72.84.72c.76,0,1.72-.4,1.72-1.18Z"/>
          <path class="cls-16" d="M375.99,136.32c0,1.6-1.65,2.5-3.96,2.5-2.53,0-3.62-.74-3.62-1.81,0-.65.44-1.18,1.34-1.4-.6-.26-1.09-.75-1.09-1.47s.47-1.24,1.18-1.49c-.76-.43-1.16-1.12-1.16-2,0-1.54,1.29-2.5,3.38-2.5.54,0,1.04.06,1.47.19.24-1.09.91-1.85,2.24-1.79l.26,1.44c-.93-.09-1.5.21-1.72.69.72.43,1.12,1.1,1.12,1.97,0,1.53-1.28,2.49-3.37,2.49-.49,0-.93-.04-1.32-.13-.43.1-.59.32-.59.66,0,.4.32.6.84.6h2.49c1.59,0,2.51.72,2.51,2.04ZM374.34,136.52c0-.38-.26-.62-1.1-.62h-2c-.85,0-1.22.24-1.22.66,0,.53.68.87,2.18.87s2.15-.41,2.15-.91ZM370.71,130.64c0,.75.57,1.24,1.35,1.24s1.34-.49,1.34-1.24-.56-1.22-1.34-1.22-1.35.49-1.35,1.22Z"/>
          <path class="cls-16" d="M383.75,132.74h-5.21c.21,1.06.85,1.56,1.84,1.56.85,0,1.41-.32,1.62-.91l1.65.6c-.47,1.18-1.6,1.81-3.27,1.81-2.44,0-3.82-1.41-3.82-3.83s1.34-3.82,3.71-3.82,3.54,1.38,3.54,3.79c0,.21-.03.6-.06.79ZM378.53,131.33h3.43c-.16-1.1-.78-1.69-1.71-1.69-.97,0-1.56.57-1.72,1.69Z"/>
          <path class="cls-16" d="M397.04,130.83v4.82h-2.02v-4.43c0-1.07-.53-1.49-1.26-1.49-.9,0-1.62.68-1.62,1.96v3.96h-2.02v-4.43c0-1.07-.53-1.49-1.28-1.49s-1.62.57-1.62,2.01v3.9h-2.02v-7.35h1.81l.07,1.29c.49-.97,1.4-1.44,2.43-1.44s2,.49,2.4,1.49c.49-1,1.47-1.49,2.5-1.49,1.43,0,2.63.87,2.62,2.68Z"/>
          <path class="cls-16" d="M405.63,132.74h-5.21c.21,1.06.85,1.56,1.84,1.56.85,0,1.41-.32,1.62-.91l1.65.6c-.47,1.18-1.6,1.81-3.27,1.81-2.44,0-3.82-1.41-3.82-3.83s1.34-3.82,3.71-3.82,3.54,1.38,3.54,3.79c0,.21-.03.6-.06.79ZM400.41,131.33h3.43c-.16-1.1-.78-1.69-1.71-1.69s-1.56.57-1.72,1.69Z"/>
          <path class="cls-16" d="M414.12,130.83v4.82h-2.01v-4.24c0-1.26-.54-1.68-1.31-1.68-.85,0-1.69.56-1.69,2.03v3.88h-2.01v-7.35h1.81l.07,1.31c.49-.99,1.4-1.46,2.5-1.46,1.53,0,2.65.9,2.65,2.68Z"/>
          <path class="cls-16" d="M420.89,135.2c-.47.38-1.24.6-2.02.6-1.46,0-2.46-.6-2.46-2.22v-3.78h-1.34v-1.5h1.34v-1.69l2.02-.56v2.25h2.38v1.5h-2.38v3.46c0,.71.38,1.01,1.01,1.01.49,0,.82-.15,1.13-.41l.31,1.34Z"/>
          <path class="cls-16" d="M343.78,151.46c-.93,0-1.53-.15-2.5-1-.69.62-1.65,1-2.82,1-1.94,0-3.29-.99-3.29-2.59-.01-1,.49-2.06,2.12-2.75-.82-1-1.06-1.54-1.06-2.31,0-1.16.88-2.35,2.71-2.35,1.66,0,2.68.85,2.68,2.19,0,1.1-.52,1.97-2.06,2.66l.82.96c.41.47.75.87,1.06,1.21.31-.6.47-1.32.43-2.24l1.4.07c.03,1.16-.29,2.24-.94,3.06.63.57,1.06.71,1.72.65l-.25,1.44ZM338.58,150.06c.66,0,1.26-.16,1.79-.47-.32-.34-.68-.72-1.07-1.18-.47-.52-.88-.96-1.22-1.35-.96.65-1.18,1.07-1.18,1.66,0,.79.74,1.34,1.68,1.34ZM337.98,143.85c0,.44.13.75.84,1.6,1-.65,1.13-1.16,1.13-1.72,0-.59-.38-.87-1-.87s-.97.43-.97.99Z"/>
          <path class="cls-16" d="M351.25,143.24v2.46h4.13v1.65h-4.13v3.97h-2.03v-9.71h7.27v1.63h-5.24Z"/>
          <path class="cls-16" d="M364.33,143.96v7.35h-1.79l-.07-1.26c-.49.97-1.4,1.41-2.57,1.41-1.49,0-2.59-.75-2.59-2.63v-4.87h2.02v4.35c0,1.19.49,1.56,1.28,1.56.96,0,1.72-.6,1.72-1.97v-3.94h2.01Z"/>
          <path class="cls-16" d="M368.15,148.97c0,.69.18.94.72.94.34,0,.54-.04.87-.16l-.18,1.4c-.32.19-.88.31-1.37.31-1.43,0-2.06-.66-2.06-2.19v-8.53h2.02v8.24Z"/>
          <path class="cls-16" d="M373.02,143.22v.74h2.32v1.5h-2.24v5.85h-2.01v-5.85h-1.28v-1.5h1.28v-.88c0-1.66,1.13-2.49,2.78-2.49.66,0,1.22.15,1.53.38l-.28,1.34c-.22-.15-.47-.22-.84-.22-.79,0-1.26.32-1.26,1.13ZM376.31,141.82c0-.72.41-1.09,1.25-1.09s1.25.37,1.25,1.09-.41,1.07-1.25,1.07-1.25-.35-1.25-1.07ZM376.55,143.96h2.01v7.35h-2.01v-7.35Z"/>
          <path class="cls-16" d="M382.39,148.97c0,.69.18.94.72.94.34,0,.54-.04.87-.16l-.18,1.4c-.32.19-.88.31-1.37.31-1.43,0-2.06-.66-2.06-2.19v-8.53h2.02v8.24Z"/>
          <path class="cls-16" d="M396.63,146.49v4.83h-2.02v-4.43c0-1.07-.53-1.49-1.26-1.49-.9,0-1.62.68-1.62,1.96v3.96h-2.02v-4.43c0-1.07-.53-1.49-1.28-1.49s-1.62.57-1.62,2.01v3.9h-2.01v-7.35h1.81l.07,1.29c.49-.97,1.4-1.44,2.43-1.44s2,.49,2.4,1.49c.49-1,1.47-1.49,2.5-1.49,1.43,0,2.63.87,2.62,2.68Z"/>
          <path class="cls-16" d="M405.22,148.4h-5.21c.21,1.06.85,1.56,1.84,1.56.85,0,1.41-.32,1.62-.91l1.65.6c-.47,1.18-1.6,1.81-3.27,1.81-2.44,0-3.82-1.41-3.82-3.83s1.34-3.82,3.71-3.82,3.54,1.38,3.54,3.79c0,.21-.03.6-.06.79ZM400,146.99h3.43c-.16-1.1-.78-1.69-1.71-1.69-.97,0-1.56.57-1.72,1.69Z"/>
          <path class="cls-16" d="M413.71,146.49v4.83h-2.01v-4.24c0-1.26-.54-1.68-1.31-1.68-.85,0-1.69.56-1.69,2.03v3.88h-2.02v-7.35h1.81l.07,1.31c.49-.99,1.4-1.46,2.5-1.46,1.53,0,2.65.9,2.65,2.68Z"/>
          <path class="cls-16" d="M420.48,150.86c-.47.38-1.24.6-2.02.6-1.46,0-2.46-.6-2.46-2.22v-3.78h-1.34v-1.5h1.34v-1.69l2.01-.56v2.25h2.38v1.5h-2.38v3.46c0,.71.38,1.01,1.02,1.01.49,0,.82-.15,1.13-.41l.31,1.34Z"/>
        </g>
        <g>
          <path class="cls-16" d="M424.22,222.02c-2.88,0-4.68-1.88-4.68-5s1.81-5,4.65-5c1.99,0,3.47.82,4.02,2.52l-1.84.78c-.32-1.18-.97-1.63-2.09-1.63-1.62,0-2.63,1.18-2.63,3.34s.96,3.34,2.59,3.34c1.16,0,1.93-.56,2.24-1.72l1.87.56c-.59,1.9-2.15,2.82-4.12,2.82Z"/>
          <path class="cls-16" d="M436.72,218.19c0,2.4-1.4,3.83-3.77,3.83s-3.77-1.43-3.77-3.83,1.4-3.82,3.77-3.82,3.77,1.43,3.77,3.82ZM431.21,218.19c0,1.56.62,2.32,1.75,2.32s1.75-.76,1.75-2.32-.62-2.32-1.75-2.32-1.75.77-1.75,2.32Z"/>
          <path class="cls-16" d="M445.2,217.05v4.82h-2.01v-4.24c0-1.26-.54-1.68-1.31-1.68-.85,0-1.69.56-1.69,2.03v3.88h-2.02v-7.35h1.81l.07,1.31c.49-.99,1.4-1.46,2.5-1.46,1.53,0,2.65.9,2.65,2.68Z"/>
          <path class="cls-16" d="M454.01,217.05v4.82h-2.01v-4.24c0-1.26-.54-1.68-1.31-1.68-.85,0-1.69.56-1.69,2.03v3.88h-2.01v-7.35h1.81l.07,1.31c.49-.99,1.4-1.46,2.5-1.46,1.53,0,2.65.9,2.65,2.68Z"/>
          <path class="cls-16" d="M462.6,218.96h-5.21c.21,1.06.85,1.56,1.84,1.56.85,0,1.41-.32,1.62-.91l1.65.6c-.47,1.18-1.6,1.81-3.27,1.81-2.44,0-3.82-1.41-3.82-3.83s1.34-3.82,3.71-3.82,3.54,1.38,3.54,3.79c0,.21-.03.6-.06.79ZM457.38,217.55h3.43c-.16-1.1-.78-1.69-1.71-1.69s-1.56.57-1.72,1.69Z"/>
          <path class="cls-16" d="M470.8,216.53l-1.88.68c-.18-.88-.65-1.34-1.43-1.34-1.15,0-1.79.79-1.79,2.34s.69,2.31,1.78,2.31c.88,0,1.38-.47,1.53-1.31l1.82.59c-.31,1.31-1.46,2.22-3.32,2.22-2.44,0-3.82-1.41-3.82-3.83s1.4-3.82,3.75-3.82c2.07,0,3.02.96,3.37,2.16Z"/>
          <path class="cls-16" d="M477.19,221.41c-.47.38-1.24.6-2.02.6-1.46,0-2.46-.6-2.46-2.22v-3.78h-1.34v-1.5h1.34v-1.69l2.02-.56v2.25h2.38v1.5h-2.38v3.46c0,.71.38,1.01,1.01,1.01.49,0,.82-.15,1.13-.41l.31,1.34Z"/>
          <path class="cls-16" d="M484.97,218.96h-5.21c.21,1.06.85,1.56,1.84,1.56.85,0,1.41-.32,1.62-.91l1.65.6c-.47,1.18-1.6,1.81-3.27,1.81-2.44,0-3.82-1.41-3.82-3.83s1.34-3.82,3.71-3.82,3.54,1.38,3.54,3.79c0,.21-.03.6-.06.79ZM479.75,217.55h3.43c-.16-1.1-.78-1.69-1.71-1.69s-1.56.57-1.72,1.69Z"/>
          <path class="cls-16" d="M493.55,211.29v10.58h-1.79l-.09-1.32c-.43.88-1.29,1.47-2.43,1.47-1.96,0-3.15-1.41-3.15-3.81s1.21-3.84,3.15-3.84c1.07,0,1.87.53,2.29,1.34v-4.41h2.02ZM491.53,218.62v-.85c-.1-1.18-.72-1.85-1.69-1.85-1.07,0-1.72.78-1.72,2.28s.65,2.28,1.72,2.28c.96,0,1.59-.65,1.69-1.85Z"/>
          <path class="cls-16" d="M441.7,233.81h-1.82v3.72h-2v-9.71h4.28c2.21,0,3.53,1.09,3.53,3,0,1.4-.72,2.37-1.99,2.77l2.56,3.94h-2.28l-2.28-3.72ZM439.88,232.26h2.01c1.18,0,1.72-.44,1.72-1.41s-.54-1.41-1.72-1.41h-2.01v2.82Z"/>
          <path class="cls-16" d="M454.03,234.61h-5.21c.21,1.06.85,1.56,1.84,1.56.85,0,1.41-.32,1.62-.91l1.65.6c-.47,1.18-1.6,1.81-3.27,1.81-2.44,0-3.82-1.41-3.82-3.83s1.34-3.82,3.71-3.82,3.54,1.38,3.54,3.79c0,.21-.03.6-.06.79ZM448.81,233.2h3.43c-.16-1.1-.78-1.69-1.71-1.69s-1.56.57-1.72,1.69Z"/>
          <path class="cls-16" d="M460.41,237.07c-.47.38-1.24.6-2.02.6-1.46,0-2.46-.6-2.46-2.22v-3.78h-1.34v-1.5h1.34v-1.69l2.01-.56v2.25h2.38v1.5h-2.38v3.46c0,.71.38,1.01,1.02,1.01.49,0,.82-.15,1.13-.41l.31,1.34Z"/>
          <path class="cls-16" d="M468.67,236.25l-.15,1.22c-.27.13-.59.21-.96.21-.88,0-1.49-.31-1.69-1.1-.44.72-1.37,1.1-2.6,1.1-1.4,0-2.28-.65-2.28-1.88,0-1.15.9-1.96,2.87-2.32l1.76-.34v-.35c0-.78-.46-1.28-1.25-1.28-.85,0-1.47.32-1.69,1.25l-1.6-.68c.31-1.25,1.41-2.04,3.21-2.04,2.04,0,3.34.88,3.34,2.71v3.01c0,.38.16.56.54.56.18,0,.35-.01.5-.06ZM465.63,235.13v-.76l-1.57.35c-.65.15-.99.38-.99.87s.31.72.84.72c.76,0,1.72-.4,1.72-1.18Z"/>
          <path class="cls-16" d="M469.37,228.04c0-.72.41-1.09,1.25-1.09s1.25.37,1.25,1.09-.41,1.07-1.25,1.07-1.25-.35-1.25-1.07ZM471.62,237.53h-2.02v-7.35h2.02v7.35Z"/>
          <path class="cls-16" d="M475.45,235.19c0,.69.18.94.72.94.34,0,.54-.04.87-.16l-.18,1.4c-.32.19-.88.31-1.37.31-1.43,0-2.06-.66-2.06-2.19v-8.53h2.02v8.24Z"/>
          <path class="cls-16" d="M428.55,248.33c0,3.12-1.78,5-4.66,5s-4.68-1.88-4.68-5,1.79-5,4.68-5,4.66,1.88,4.66,5ZM421.31,248.33c0,2.16.94,3.34,2.57,3.34s2.56-1.18,2.56-3.34-.94-3.34-2.56-3.34-2.57,1.18-2.57,3.34Z"/>
          <path class="cls-16" d="M437.52,249.49c0,2.41-1.21,3.84-3.15,3.84-1.09,0-1.88-.54-2.31-1.37v4.31h-2.01v-10.44h1.78l.07,1.43c.41-.94,1.29-1.57,2.47-1.57,1.96,0,3.15,1.41,3.15,3.81ZM435.5,249.51c0-1.5-.65-2.28-1.72-2.28s-1.71.78-1.71,2.21v.15c0,1.4.65,2.21,1.71,2.21s1.72-.78,1.72-2.28Z"/>
          <path class="cls-16" d="M445.82,250.27h-5.21c.21,1.06.85,1.56,1.84,1.56.85,0,1.41-.32,1.62-.91l1.65.6c-.47,1.18-1.6,1.81-3.27,1.81-2.44,0-3.82-1.41-3.82-3.83s1.34-3.82,3.71-3.82,3.54,1.38,3.54,3.79c0,.21-.03.6-.06.79ZM440.6,248.86h3.43c-.16-1.1-.78-1.69-1.71-1.69s-1.56.57-1.72,1.69Z"/>
          <path class="cls-16" d="M452.24,245.84l-.25,1.76c-.21-.13-.54-.22-.93-.22-.88,0-1.77.65-1.77,1.99v3.81h-2.01v-7.35h1.75l.13,1.44c.38-1.01,1.13-1.59,2.28-1.59.32,0,.62.06.79.16Z"/>
          <path class="cls-16" d="M460.29,251.91l-.15,1.22c-.27.13-.59.21-.96.21-.88,0-1.49-.31-1.69-1.1-.44.72-1.37,1.1-2.6,1.1-1.4,0-2.28-.65-2.28-1.88,0-1.15.9-1.96,2.87-2.32l1.76-.34v-.35c0-.78-.46-1.28-1.25-1.28-.85,0-1.47.32-1.69,1.25l-1.6-.68c.31-1.25,1.41-2.04,3.21-2.04,2.04,0,3.34.88,3.34,2.71v3.01c0,.38.16.56.54.56.18,0,.35-.01.5-.06ZM457.24,250.79v-.76l-1.57.35c-.65.15-.99.38-.99.87s.31.72.84.72c.76,0,1.72-.4,1.72-1.18Z"/>
          <path class="cls-16" d="M465.97,252.73c-.47.38-1.24.6-2.02.6-1.46,0-2.46-.6-2.46-2.22v-3.78h-1.34v-1.5h1.34v-1.69l2.02-.56v2.25h2.38v1.5h-2.38v3.46c0,.71.38,1.01,1.01,1.01.49,0,.82-.15,1.13-.41l.31,1.34Z"/>
          <path class="cls-16" d="M466.7,243.7c0-.72.41-1.09,1.25-1.09s1.25.37,1.25,1.09-.41,1.07-1.25,1.07-1.25-.35-1.25-1.07ZM468.96,253.18h-2.01v-7.35h2.01v7.35Z"/>
          <path class="cls-16" d="M477.95,249.51c0,2.4-1.4,3.83-3.77,3.83s-3.77-1.43-3.77-3.83,1.4-3.82,3.77-3.82,3.77,1.43,3.77,3.82ZM472.43,249.51c0,1.56.62,2.32,1.75,2.32s1.75-.76,1.75-2.32-.62-2.32-1.75-2.32-1.75.77-1.75,2.32Z"/>
          <path class="cls-16" d="M486.42,248.36v4.82h-2.01v-4.24c0-1.26-.54-1.68-1.31-1.68-.85,0-1.69.56-1.69,2.03v3.88h-2.02v-7.35h1.81l.07,1.31c.49-.99,1.4-1.46,2.5-1.46,1.53,0,2.65.9,2.65,2.68Z"/>
          <path class="cls-16" d="M487.64,251.92l1.18-1.21c.41.88,1.21,1.15,2.21,1.15.87,0,1.35-.26,1.35-.66,0-.34-.4-.54-1.47-.77-2.29-.46-3.06-1.16-3.06-2.38s1.13-2.37,3.31-2.37c1.69,0,2.6.5,3.28,1.56l-1.25,1.06c-.43-.76-1.02-1.15-2-1.15-.82,0-1.32.32-1.32.71s.37.65,1.6.9c2.15.43,2.94,1.07,2.94,2.29,0,1.32-1.16,2.28-3.35,2.28-1.52,0-2.74-.41-3.41-1.41Z"/>
        </g>
        <path class="cls-19" d="M528.44,241.62c-.99,0-1.84-.35-2.54-1.06s-1.06-1.55-1.06-2.54.35-1.84,1.06-2.54,1.55-1.06,2.54-1.06,1.84.35,2.54,1.06,1.06,1.55,1.06,2.54-.35,1.84-1.06,2.54-1.55,1.06-2.54,1.06ZM546.44,241.62c-.99,0-1.84-.35-2.54-1.06s-1.06-1.55-1.06-2.54.35-1.84,1.06-2.54,1.55-1.06,2.54-1.06,1.84.35,2.54,1.06,1.06,1.55,1.06,2.54-.35,1.84-1.06,2.54-1.55,1.06-2.54,1.06ZM526.91,212.82l4.32,9h12.6l4.95-9h-21.87ZM525.2,209.22h26.55c.69,0,1.22.31,1.58.92s.37,1.24.05,1.87l-6.39,11.52c-.33.6-.77,1.06-1.33,1.4s-1.16.5-1.82.5h-13.41l-1.98,3.6h21.6v3.6h-21.6c-1.35,0-2.37-.59-3.06-1.78s-.72-2.36-.09-3.53l2.43-4.41-6.48-13.68h-3.6v-3.6h5.85l1.71,3.6ZM531.23,221.82h12.6-12.6Z"/>
        <g>
          <path class="cls-16" d="M131.35,370.03c-2.88,0-4.68-1.88-4.68-5s1.81-5,4.65-5c1.99,0,3.47.82,4.02,2.52l-1.84.78c-.32-1.18-.97-1.63-2.09-1.63-1.62,0-2.63,1.18-2.63,3.34s.96,3.34,2.59,3.34c1.16,0,1.93-.56,2.24-1.72l1.87.56c-.59,1.9-2.15,2.82-4.12,2.82Z"/>
          <path class="cls-16" d="M143.86,366.2c0,2.4-1.4,3.83-3.77,3.83s-3.77-1.43-3.77-3.83,1.4-3.82,3.77-3.82,3.77,1.43,3.77,3.82ZM138.34,366.2c0,1.56.62,2.32,1.75,2.32s1.75-.76,1.75-2.32-.62-2.32-1.75-2.32-1.75.77-1.75,2.32Z"/>
          <path class="cls-16" d="M152.33,365.05v4.82h-2.01v-4.24c0-1.26-.54-1.68-1.31-1.68-.85,0-1.69.56-1.69,2.03v3.88h-2.02v-7.35h1.81l.07,1.31c.49-.99,1.4-1.46,2.5-1.46,1.53,0,2.65.9,2.65,2.68Z"/>
          <path class="cls-16" d="M161.15,365.05v4.82h-2.01v-4.24c0-1.26-.54-1.68-1.31-1.68-.85,0-1.69.56-1.69,2.03v3.88h-2.01v-7.35h1.81l.07,1.31c.49-.99,1.4-1.46,2.5-1.46,1.53,0,2.65.9,2.65,2.68Z"/>
          <path class="cls-16" d="M169.74,366.97h-5.21c.21,1.06.85,1.56,1.84,1.56.85,0,1.41-.32,1.62-.91l1.65.6c-.47,1.18-1.6,1.81-3.27,1.81-2.44,0-3.82-1.41-3.82-3.83s1.34-3.82,3.71-3.82,3.54,1.38,3.54,3.79c0,.21-.03.6-.06.79ZM164.52,365.55h3.43c-.16-1.1-.78-1.69-1.71-1.69s-1.56.57-1.72,1.69Z"/>
          <path class="cls-16" d="M177.94,364.54l-1.88.68c-.18-.88-.65-1.34-1.43-1.34-1.15,0-1.79.79-1.79,2.34s.69,2.31,1.78,2.31c.88,0,1.38-.47,1.53-1.31l1.82.59c-.31,1.31-1.46,2.22-3.32,2.22-2.44,0-3.82-1.41-3.82-3.83s1.4-3.82,3.75-3.82c2.07,0,3.02.96,3.37,2.16Z"/>
          <path class="cls-16" d="M184.32,369.42c-.47.38-1.24.6-2.02.6-1.46,0-2.46-.6-2.46-2.22v-3.78h-1.34v-1.5h1.34v-1.69l2.02-.56v2.25h2.38v1.5h-2.38v3.46c0,.71.38,1.01,1.01,1.01.49,0,.82-.15,1.13-.41l.31,1.34Z"/>
          <path class="cls-16" d="M192.11,366.97h-5.21c.21,1.06.85,1.56,1.84,1.56.85,0,1.41-.32,1.62-.91l1.65.6c-.47,1.18-1.6,1.81-3.27,1.81-2.44,0-3.82-1.41-3.82-3.83s1.34-3.82,3.71-3.82,3.54,1.38,3.54,3.79c0,.21-.03.6-.06.79ZM186.88,365.55h3.43c-.16-1.1-.78-1.69-1.71-1.69s-1.56.57-1.72,1.69Z"/>
          <path class="cls-16" d="M200.68,359.3v10.58h-1.79l-.09-1.32c-.43.88-1.29,1.47-2.43,1.47-1.96,0-3.15-1.41-3.15-3.81s1.21-3.84,3.15-3.84c1.07,0,1.87.53,2.29,1.34v-4.41h2.02ZM198.67,366.63v-.85c-.1-1.18-.72-1.85-1.69-1.85-1.07,0-1.72.78-1.72,2.28s.65,2.28,1.72,2.28c.96,0,1.59-.65,1.69-1.85Z"/>
          <path class="cls-16" d="M149.85,377.55l-1.4,1.37c-.5-1.04-1.31-1.57-2.62-1.57-1.22,0-1.84.51-1.84,1.21,0,.65.53,1,2.24,1.31,2.62.49,3.6,1.29,3.6,2.91,0,1.82-1.66,2.91-3.99,2.91s-3.46-.63-4.28-1.81l1.21-1.44c.77,1.26,1.69,1.59,3,1.59s1.93-.4,1.93-1.13c0-.53-.51-.84-2.12-1.16-2.71-.54-3.74-1.37-3.74-2.99,0-1.72,1.46-3.06,3.97-3.06,1.81,0,3.04.57,4.03,1.87Z"/>
          <path class="cls-16" d="M156.29,385.08c-.47.38-1.24.6-2.02.6-1.46,0-2.46-.6-2.46-2.22v-3.78h-1.34v-1.5h1.34v-1.69l2.02-.56v2.25h2.38v1.5h-2.38v3.46c0,.71.38,1.01,1.01,1.01.49,0,.82-.15,1.13-.41l.31,1.34Z"/>
          <path class="cls-16" d="M164.41,381.86c0,2.4-1.4,3.83-3.77,3.83s-3.77-1.43-3.77-3.83,1.4-3.82,3.77-3.82,3.77,1.43,3.77,3.82ZM158.89,381.86c0,1.56.62,2.32,1.75,2.32s1.75-.76,1.75-2.32-.62-2.32-1.75-2.32-1.75.76-1.75,2.32Z"/>
          <path class="cls-16" d="M170.81,378.2l-.25,1.76c-.21-.13-.54-.22-.93-.22-.88,0-1.77.65-1.77,1.99v3.81h-2.02v-7.35h1.75l.13,1.44c.38-1.01,1.13-1.59,2.28-1.59.32,0,.62.06.79.16Z"/>
          <path class="cls-16" d="M178.43,382.62h-5.21c.21,1.06.85,1.56,1.84,1.56.85,0,1.41-.32,1.62-.91l1.65.6c-.47,1.18-1.6,1.81-3.27,1.81-2.44,0-3.82-1.41-3.82-3.83s1.34-3.82,3.71-3.82,3.54,1.38,3.54,3.79c0,.21-.03.6-.06.79ZM173.21,381.21h3.43c-.16-1.1-.78-1.69-1.71-1.69-.97,0-1.56.57-1.72,1.69Z"/>
          <path class="cls-16" d="M179.33,384.27l1.18-1.21c.41.88,1.21,1.15,2.21,1.15.87,0,1.35-.26,1.35-.66,0-.34-.4-.54-1.47-.77-2.29-.46-3.06-1.16-3.06-2.38s1.13-2.37,3.31-2.37c1.69,0,2.6.5,3.28,1.56l-1.25,1.06c-.43-.76-1.02-1.15-2-1.15-.82,0-1.32.32-1.32.71s.37.65,1.6.9c2.15.43,2.94,1.07,2.94,2.29,0,1.32-1.16,2.28-3.35,2.28-1.52,0-2.74-.41-3.41-1.41Z"/>
        </g>
        <g>
          <path class="cls-16" d="M265.76,413.51c-2.88,0-4.68-1.88-4.68-5s1.81-5,4.65-5c1.99,0,3.47.82,4.02,2.52l-1.84.78c-.32-1.18-.97-1.63-2.09-1.63-1.62,0-2.63,1.18-2.63,3.34s.96,3.34,2.59,3.34c1.16,0,1.93-.56,2.24-1.72l1.87.56c-.59,1.9-2.15,2.82-4.12,2.82Z"/>
          <path class="cls-16" d="M278.11,406v7.35h-1.79l-.07-1.26c-.49.97-1.4,1.41-2.57,1.41-1.49,0-2.59-.75-2.59-2.63v-4.87h2.02v4.35c0,1.19.49,1.56,1.28,1.56.96,0,1.72-.6,1.72-1.97v-3.94h2.01Z"/>
          <path class="cls-16" d="M279.37,412.09l1.18-1.21c.41.88,1.21,1.15,2.21,1.15.87,0,1.35-.26,1.35-.66,0-.34-.4-.54-1.47-.77-2.29-.46-3.06-1.16-3.06-2.38s1.13-2.37,3.31-2.37c1.69,0,2.6.5,3.28,1.56l-1.25,1.06c-.43-.76-1.02-1.15-2-1.15-.82,0-1.32.32-1.32.71s.37.65,1.6.9c2.15.43,2.94,1.07,2.94,2.29,0,1.32-1.16,2.28-3.35,2.28-1.52,0-2.74-.41-3.41-1.41Z"/>
          <path class="cls-16" d="M292.5,412.9c-.47.38-1.24.6-2.02.6-1.46,0-2.46-.6-2.46-2.22v-3.78h-1.34v-1.5h1.34v-1.69l2.02-.56v2.25h2.38v1.5h-2.38v3.46c0,.71.38,1.01,1.01,1.01.49,0,.82-.15,1.13-.41l.31,1.34Z"/>
          <path class="cls-16" d="M300.62,409.68c0,2.4-1.4,3.83-3.77,3.83s-3.77-1.43-3.77-3.83,1.4-3.82,3.77-3.82,3.77,1.43,3.77,3.82ZM295.1,409.68c0,1.56.62,2.32,1.75,2.32s1.75-.76,1.75-2.32-.62-2.32-1.75-2.32-1.75.77-1.75,2.32Z"/>
          <path class="cls-16" d="M313.89,408.53v4.82h-2.02v-4.43c0-1.07-.53-1.49-1.26-1.49-.9,0-1.62.68-1.62,1.96v3.96h-2.02v-4.43c0-1.07-.53-1.49-1.28-1.49s-1.62.57-1.62,2.01v3.9h-2.01v-7.35h1.81l.07,1.29c.49-.97,1.4-1.44,2.43-1.44s2,.49,2.4,1.49c.49-1,1.47-1.49,2.5-1.49,1.43,0,2.63.87,2.62,2.68Z"/>
          <path class="cls-16" d="M322.49,410.45h-5.21c.21,1.06.85,1.56,1.84,1.56.85,0,1.41-.32,1.62-.91l1.65.6c-.47,1.18-1.6,1.81-3.27,1.81-2.44,0-3.82-1.41-3.82-3.83s1.34-3.82,3.71-3.82,3.54,1.38,3.54,3.79c0,.21-.03.6-.06.79ZM317.26,409.03h3.43c-.16-1.1-.78-1.69-1.71-1.69s-1.56.57-1.72,1.69Z"/>
          <path class="cls-16" d="M328.9,406.02l-.25,1.76c-.21-.13-.54-.22-.93-.22-.88,0-1.77.65-1.77,1.99v3.81h-2.02v-7.35h1.75l.13,1.44c.38-1.01,1.13-1.59,2.28-1.59.32,0,.62.06.79.16Z"/>
          <path class="cls-16" d="M264.41,427.38v1.63h-7.49v-9.71h7.28v1.63h-5.25v2.41h4.13v1.56h-4.13v2.47h5.46Z"/>
          <path class="cls-16" d="M270.49,429.02l-1.66-2.69-1.69,2.69h-2.25l2.71-3.72-2.57-3.63h2.32l1.57,2.57,1.57-2.57h2.26l-2.6,3.62,2.65,3.74h-2.31Z"/>
          <path class="cls-16" d="M281.28,425.32c0,2.41-1.21,3.84-3.15,3.84-1.09,0-1.88-.54-2.31-1.37v4.31h-2.01v-10.44h1.78l.07,1.43c.41-.94,1.29-1.57,2.47-1.57,1.96,0,3.15,1.41,3.15,3.81ZM279.25,425.34c0-1.5-.65-2.28-1.72-2.28s-1.71.78-1.71,2.21v.15c0,1.4.65,2.21,1.71,2.21s1.72-.78,1.72-2.28Z"/>
          <path class="cls-16" d="M289.58,426.1h-5.21c.21,1.06.85,1.56,1.84,1.56.85,0,1.41-.32,1.62-.91l1.65.6c-.47,1.18-1.6,1.81-3.27,1.81-2.44,0-3.82-1.41-3.82-3.83s1.34-3.82,3.71-3.82,3.54,1.38,3.54,3.79c0,.21-.03.6-.06.79ZM284.36,424.69h3.43c-.16-1.1-.78-1.69-1.71-1.69s-1.56.57-1.72,1.69Z"/>
          <path class="cls-16" d="M296,421.68l-.25,1.76c-.21-.13-.54-.22-.93-.22-.88,0-1.77.65-1.77,1.99v3.81h-2.01v-7.35h1.75l.13,1.44c.38-1.01,1.13-1.59,2.28-1.59.32,0,.62.06.79.16Z"/>
          <path class="cls-16" d="M296.72,419.53c0-.72.41-1.09,1.25-1.09s1.25.37,1.25,1.09-.41,1.07-1.25,1.07-1.25-.35-1.25-1.07ZM298.97,429.02h-2.02v-7.35h2.02v7.35Z"/>
          <path class="cls-16" d="M307.62,426.1h-5.21c.21,1.06.85,1.56,1.84,1.56.85,0,1.41-.32,1.62-.91l1.65.6c-.47,1.18-1.6,1.81-3.27,1.81-2.44,0-3.82-1.41-3.82-3.83s1.34-3.82,3.71-3.82,3.54,1.38,3.54,3.79c0,.21-.03.6-.06.79ZM302.4,424.69h3.43c-.16-1.1-.78-1.69-1.71-1.69-.97,0-1.56.57-1.72,1.69Z"/>
          <path class="cls-16" d="M316.11,424.19v4.83h-2.01v-4.24c0-1.26-.54-1.68-1.31-1.68-.85,0-1.69.56-1.69,2.03v3.88h-2.02v-7.35h1.81l.07,1.31c.49-.99,1.4-1.46,2.5-1.46,1.53,0,2.65.9,2.65,2.68Z"/>
          <path class="cls-16" d="M324.63,423.68l-1.88.68c-.18-.88-.65-1.34-1.43-1.34-1.15,0-1.79.79-1.79,2.34s.69,2.31,1.78,2.31c.88,0,1.38-.47,1.53-1.31l1.82.59c-.31,1.31-1.46,2.22-3.32,2.22-2.44,0-3.82-1.41-3.82-3.83s1.4-3.82,3.75-3.82c2.07,0,3.02.96,3.37,2.16Z"/>
          <path class="cls-16" d="M332.78,426.1h-5.21c.21,1.06.85,1.56,1.84,1.56.85,0,1.41-.32,1.62-.91l1.65.6c-.47,1.18-1.6,1.81-3.27,1.81-2.44,0-3.82-1.41-3.82-3.83s1.34-3.82,3.71-3.82,3.54,1.38,3.54,3.79c0,.21-.03.6-.06.79ZM327.56,424.69h3.43c-.16-1.1-.78-1.69-1.71-1.69s-1.56.57-1.72,1.69Z"/>
          <path class="cls-16" d="M258.17,444.67h-1.82v-5.06l.09-2.84h-.03l-2.69,7.9h-1.66l-2.68-7.9h-.03l.1,2.84v5.06h-1.84v-9.71h2.94l1.75,5.29.62,2.19h.03l.63-2.18,1.74-5.31h2.85v9.71Z"/>
          <path class="cls-16" d="M266.92,441.76h-5.21c.21,1.06.85,1.56,1.84,1.56.85,0,1.41-.32,1.62-.91l1.65.6c-.47,1.18-1.6,1.81-3.27,1.81-2.44,0-3.82-1.41-3.82-3.83s1.34-3.82,3.71-3.82,3.54,1.38,3.54,3.79c0,.21-.03.6-.06.79ZM261.7,440.35h3.43c-.16-1.1-.78-1.69-1.71-1.69-.97,0-1.56.57-1.72,1.69Z"/>
          <path class="cls-16" d="M275.61,443.39l-.15,1.22c-.27.13-.59.21-.96.21-.88,0-1.49-.31-1.69-1.1-.44.72-1.37,1.1-2.6,1.1-1.4,0-2.28-.65-2.28-1.88,0-1.15.9-1.96,2.87-2.32l1.76-.34v-.35c0-.78-.46-1.28-1.25-1.28-.85,0-1.47.32-1.69,1.25l-1.6-.68c.31-1.25,1.41-2.04,3.21-2.04,2.04,0,3.34.88,3.34,2.71v3.01c0,.38.16.56.54.56.18,0,.35-.01.5-.06ZM272.56,442.28v-.76l-1.57.35c-.65.15-.99.38-.99.87s.31.72.84.72c.76,0,1.72-.4,1.72-1.18Z"/>
          <path class="cls-16" d="M275.98,443.41l1.18-1.21c.41.88,1.21,1.15,2.21,1.15.87,0,1.35-.26,1.35-.66,0-.34-.4-.54-1.47-.77-2.29-.46-3.06-1.16-3.06-2.38s1.13-2.37,3.31-2.37c1.69,0,2.6.5,3.28,1.56l-1.25,1.06c-.43-.76-1.02-1.15-2-1.15-.82,0-1.32.32-1.32.71s.37.65,1.6.9c2.15.43,2.94,1.07,2.94,2.29,0,1.32-1.16,2.28-3.35,2.28-1.52,0-2.74-.41-3.41-1.41Z"/>
          <path class="cls-16" d="M291.04,437.32v7.35h-1.79l-.07-1.26c-.49.97-1.4,1.41-2.57,1.41-1.49,0-2.59-.75-2.59-2.63v-4.87h2.02v4.35c0,1.19.49,1.56,1.28,1.56.96,0,1.72-.6,1.72-1.97v-3.94h2.01Z"/>
          <path class="cls-16" d="M297.83,437.33l-.25,1.76c-.21-.13-.54-.22-.93-.22-.88,0-1.77.65-1.77,1.99v3.81h-2.02v-7.35h1.75l.13,1.44c.38-1.01,1.13-1.59,2.28-1.59.32,0,.62.06.79.16Z"/>
          <path class="cls-16" d="M305.45,441.76h-5.21c.21,1.06.85,1.56,1.84,1.56.85,0,1.41-.32,1.62-.91l1.65.6c-.47,1.18-1.6,1.81-3.27,1.81-2.44,0-3.82-1.41-3.82-3.83s1.34-3.82,3.71-3.82,3.54,1.38,3.54,3.79c0,.21-.03.6-.06.79ZM300.22,440.35h3.43c-.16-1.1-.78-1.69-1.71-1.69s-1.56.57-1.72,1.69Z"/>
          <path class="cls-16" d="M318.73,439.85v4.82h-2.02v-4.43c0-1.07-.53-1.49-1.26-1.49-.9,0-1.62.68-1.62,1.96v3.96h-2.02v-4.43c0-1.07-.53-1.49-1.28-1.49s-1.62.57-1.62,2.01v3.9h-2.01v-7.35h1.81l.07,1.29c.49-.97,1.4-1.44,2.43-1.44s2,.49,2.4,1.49c.49-1,1.47-1.49,2.5-1.49,1.43,0,2.63.87,2.62,2.68Z"/>
          <path class="cls-16" d="M327.33,441.76h-5.21c.21,1.06.85,1.56,1.84,1.56.85,0,1.41-.32,1.62-.91l1.65.6c-.47,1.18-1.6,1.81-3.27,1.81-2.44,0-3.82-1.41-3.82-3.83s1.34-3.82,3.71-3.82,3.54,1.38,3.54,3.79c0,.21-.03.6-.06.79ZM322.1,440.35h3.43c-.16-1.1-.78-1.69-1.71-1.69-.97,0-1.56.57-1.72,1.69Z"/>
          <path class="cls-16" d="M335.82,439.85v4.82h-2.01v-4.24c0-1.26-.54-1.68-1.31-1.68-.85,0-1.69.56-1.69,2.03v3.88h-2.02v-7.35h1.81l.07,1.31c.49-.99,1.4-1.46,2.5-1.46,1.53,0,2.65.9,2.65,2.68Z"/>
          <path class="cls-16" d="M342.59,444.22c-.47.38-1.24.6-2.02.6-1.46,0-2.46-.6-2.46-2.22v-3.78h-1.34v-1.5h1.34v-1.69l2.01-.56v2.25h2.38v1.5h-2.38v3.46c0,.71.38,1.01,1.02,1.01.49,0,.82-.15,1.13-.41l.31,1.34Z"/>
        </g>
        <path class="cls-19" d="M273.37,515.1l-2.93-2.12,9-14.4,5.4,6.3,7.2-11.7,4.91,7.34c-.69.03-1.34.11-1.96.25s-1.22.32-1.82.56l-.99-1.49-6.84,11.12-5.45-6.35-6.53,10.49ZM307.48,523.79l-5.63-5.63c-.6.42-1.27.73-2,.95s-1.49.32-2.27.32c-2.25,0-4.16-.79-5.74-2.36s-2.36-3.49-2.36-5.74.79-4.16,2.36-5.74,3.49-2.36,5.74-2.36,4.16.79,5.74,2.36,2.36,3.49,2.36,5.74c0,.78-.1,1.54-.32,2.27-.21.73-.53,1.42-.95,2.05l5.63,5.58-2.57,2.57ZM297.58,515.82c1.26,0,2.33-.44,3.2-1.31.87-.87,1.31-1.94,1.31-3.2s-.44-2.32-1.31-3.2-1.94-1.31-3.2-1.31-2.33.43-3.2,1.31-1.31,1.94-1.31,3.2.44,2.32,1.31,3.2c.87.87,1.94,1.31,3.2,1.31ZM301.59,501.42c-.57-.24-1.16-.44-1.78-.59s-1.25-.24-1.91-.27l9.23-14.58,2.93,2.12-8.46,13.32Z"/>
        <path class="cls-19" d="M95.97,424.37c-1.5,0-2.78-.53-3.83-1.58-1.05-1.05-1.58-2.32-1.58-3.83s.53-2.78,1.58-3.83c1.05-1.05,2.33-1.58,3.83-1.58.42,0,.81.05,1.17.14s.7.21,1.04.36l2.57-3.2c-.84-.93-1.42-1.98-1.76-3.15s-.41-2.34-.23-3.51l-3.65-1.22c-.51.75-1.16,1.35-1.94,1.8s-1.65.68-2.61.68c-1.5,0-2.78-.52-3.83-1.58-1.05-1.05-1.58-2.33-1.58-3.83s.53-2.78,1.58-3.83c1.05-1.05,2.32-1.58,3.83-1.58s2.78.53,3.83,1.58,1.58,2.33,1.58,3.83v.36l3.65,1.26c.6-1.08,1.4-1.99,2.41-2.75s2.14-1.23,3.4-1.44v-3.92c-1.17-.33-2.14-.97-2.9-1.91s-1.15-2.05-1.15-3.31c0-1.5.52-2.78,1.58-3.83s2.32-1.58,3.83-1.58,2.78.53,3.83,1.58,1.58,2.33,1.58,3.83c0,1.26-.39,2.36-1.17,3.31s-1.74,1.58-2.88,1.91v3.92c1.26.21,2.39.69,3.4,1.44s1.81,1.67,2.41,2.75l3.65-1.26v-.36c0-1.5.53-2.78,1.58-3.83s2.33-1.58,3.83-1.58,2.78.53,3.83,1.58,1.58,2.33,1.58,3.83-.53,2.78-1.58,3.83c-1.05,1.05-2.33,1.58-3.83,1.58-.96,0-1.84-.23-2.63-.68s-1.43-1.05-1.91-1.8l-3.65,1.22c.18,1.17.1,2.33-.23,3.49s-.91,2.21-1.76,3.17l2.57,3.15c.33-.15.68-.26,1.04-.34s.75-.11,1.17-.11c1.5,0,2.78.52,3.83,1.58,1.05,1.05,1.58,2.33,1.58,3.83s-.53,2.77-1.58,3.83c-1.05,1.05-2.33,1.58-3.83,1.58s-2.78-.53-3.83-1.58c-1.05-1.05-1.58-2.32-1.58-3.83,0-.6.1-1.18.29-1.73s.46-1.06.79-1.51l-2.57-3.2c-1.23.69-2.54,1.04-3.94,1.04s-2.71-.34-3.94-1.04l-2.52,3.2c.33.45.59.95.79,1.51s.29,1.13.29,1.73c0,1.5-.52,2.77-1.58,3.83-1.05,1.05-2.32,1.58-3.83,1.58ZM90.57,401.87c.51,0,.94-.17,1.28-.52s.52-.77.52-1.28-.17-.94-.52-1.28-.77-.52-1.28-.52-.94.17-1.28.52-.52.77-.52,1.28.17.94.52,1.28.77.52,1.28.52ZM95.97,420.77c.51,0,.94-.17,1.28-.52.34-.35.52-.77.52-1.28s-.17-.94-.52-1.28-.77-.52-1.28-.52-.94.17-1.28.52-.52.77-.52,1.28.17.94.52,1.28c.35.34.77.52,1.28.52ZM106.77,390.17c.51,0,.94-.17,1.28-.52.35-.35.52-.77.52-1.28s-.17-.94-.52-1.28c-.34-.35-.77-.52-1.28-.52s-.94.17-1.28.52-.52.77-.52,1.28.17.94.52,1.28.77.52,1.28.52ZM106.77,409.97c1.26,0,2.33-.43,3.2-1.31s1.31-1.94,1.31-3.2-.44-2.32-1.31-3.2c-.87-.87-1.94-1.31-3.2-1.31s-2.32.44-3.2,1.31c-.87.87-1.31,1.94-1.31,3.2s.43,2.32,1.31,3.2,1.94,1.31,3.2,1.31ZM117.57,420.77c.51,0,.94-.17,1.28-.52.35-.35.52-.77.52-1.28s-.17-.94-.52-1.28-.77-.52-1.28-.52-.94.17-1.28.52-.52.77-.52,1.28.17.94.52,1.28c.35.34.77.52,1.28.52ZM122.97,401.87c.51,0,.94-.17,1.28-.52s.52-.77.52-1.28-.17-.94-.52-1.28-.77-.52-1.28-.52-.94.17-1.28.52-.52.77-.52,1.28.17.94.52,1.28.77.52,1.28.52Z"/>
        <path class="cls-19" d="M181.99,58.45v-7.2c0-1.02.35-1.87,1.06-2.57.7-.69,1.55-1.04,2.54-1.04h5.9c.6,0,1.17.15,1.71.45s.97.7,1.31,1.22c.87,1.17,1.94,2.09,3.22,2.75s2.63.99,4.07.99,2.84-.33,4.12-.99,2.33-1.58,3.17-2.75c.39-.51.85-.92,1.37-1.22s1.07-.45,1.64-.45h5.9c1.02,0,1.88.34,2.57,1.04s1.04,1.55,1.04,2.57v7.2h-12.6v-4.1c-1.05.75-2.18,1.32-3.4,1.71s-2.48.59-3.8.59-2.55-.2-3.78-.61-2.37-.98-3.42-1.73v4.14h-12.6ZM201.79,51.25c-1.14,0-2.22-.26-3.24-.79s-1.87-1.25-2.57-2.18c-.51-.75-1.15-1.34-1.91-1.78s-1.6-.65-2.5-.65c.66-1.11,2.05-1.99,4.19-2.63,2.13-.64,4.14-.97,6.03-.97s3.9.32,6.03.97c2.13.65,3.52,1.52,4.19,2.63-.87,0-1.7.22-2.48.65s-1.43,1.03-1.94,1.78c-.66.96-1.5,1.69-2.52,2.21s-2.12.77-3.29.77ZM187.39,45.85c-1.5,0-2.77-.52-3.83-1.58-1.05-1.05-1.58-2.33-1.58-3.83s.53-2.81,1.58-3.85c1.05-1.04,2.32-1.55,3.83-1.55s2.81.52,3.85,1.55,1.55,2.32,1.55,3.85-.52,2.77-1.55,3.83-2.32,1.58-3.85,1.58ZM216.19,45.85c-1.5,0-2.78-.52-3.83-1.58s-1.58-2.33-1.58-3.83.53-2.81,1.58-3.85,2.33-1.55,3.83-1.55,2.81.52,3.85,1.55,1.55,2.32,1.55,3.85-.52,2.77-1.55,3.83-2.32,1.58-3.85,1.58ZM201.79,40.45c-1.5,0-2.77-.53-3.83-1.58s-1.58-2.33-1.58-3.83.52-2.81,1.58-3.85,2.32-1.55,3.83-1.55,2.81.52,3.85,1.55,1.55,2.32,1.55,3.85-.52,2.78-1.55,3.83-2.32,1.58-3.85,1.58Z"/>
        <g>
          <path class="cls-16" d="M214.1,104.18l-1.4,1.37c-.5-1.04-1.31-1.57-2.62-1.57-1.22,0-1.84.51-1.84,1.21,0,.65.53,1,2.24,1.31,2.62.49,3.6,1.29,3.6,2.91,0,1.82-1.66,2.91-3.99,2.91s-3.46-.63-4.28-1.81l1.21-1.44c.76,1.26,1.69,1.59,3,1.59s1.93-.4,1.93-1.13c0-.53-.51-.84-2.12-1.16-2.71-.54-3.74-1.37-3.74-2.99,0-1.72,1.46-3.06,3.97-3.06,1.81,0,3.04.57,4.03,1.87Z"/>
          <path class="cls-16" d="M227.27,107.35v4.82h-2.02v-4.43c0-1.07-.53-1.49-1.26-1.49-.9,0-1.62.68-1.62,1.96v3.96h-2.02v-4.43c0-1.07-.53-1.49-1.28-1.49s-1.62.57-1.62,2.01v3.9h-2.02v-7.35h1.81l.07,1.29c.49-.97,1.4-1.44,2.43-1.44s2,.49,2.4,1.49c.49-1,1.47-1.49,2.5-1.49,1.43,0,2.63.87,2.62,2.68Z"/>
          <path class="cls-16" d="M236.28,110.89l-.15,1.22c-.27.13-.59.21-.96.21-.88,0-1.49-.31-1.69-1.1-.44.72-1.37,1.1-2.6,1.1-1.4,0-2.28-.65-2.28-1.88,0-1.15.9-1.96,2.87-2.32l1.76-.34v-.35c0-.78-.46-1.28-1.25-1.28-.85,0-1.47.32-1.69,1.25l-1.6-.68c.31-1.25,1.41-2.04,3.21-2.04,2.04,0,3.34.88,3.34,2.71v3.01c0,.38.16.56.54.56.18,0,.35-.01.5-.06ZM233.23,109.77v-.76l-1.57.35c-.65.15-.99.38-.99.87s.31.72.84.72c.76,0,1.72-.4,1.72-1.18Z"/>
          <path class="cls-16" d="M242.16,104.83l-.25,1.76c-.21-.13-.54-.22-.93-.22-.88,0-1.77.65-1.77,1.99v3.81h-2.01v-7.35h1.75l.13,1.44c.38-1.01,1.13-1.59,2.28-1.59.32,0,.62.06.79.16Z"/>
          <path class="cls-16" d="M247.89,111.71c-.47.38-1.24.6-2.02.6-1.46,0-2.46-.6-2.46-2.22v-3.78h-1.34v-1.5h1.34v-1.69l2.02-.56v2.25h2.38v1.5h-2.38v3.46c0,.71.38,1.01,1.01,1.01.49,0,.82-.15,1.13-.41l.31,1.34Z"/>
          <path class="cls-16" d="M197.87,127.97c-2.88,0-4.68-1.88-4.68-5s1.81-5,4.65-5c1.99,0,3.47.82,4.02,2.52l-1.84.78c-.32-1.18-.97-1.63-2.09-1.63-1.62,0-2.63,1.18-2.63,3.34s.96,3.34,2.59,3.34c1.16,0,1.93-.56,2.24-1.72l1.87.56c-.59,1.9-2.15,2.82-4.12,2.82Z"/>
          <path class="cls-16" d="M210.22,120.47v7.35h-1.79l-.07-1.26c-.49.97-1.4,1.41-2.57,1.41-1.49,0-2.59-.75-2.59-2.63v-4.87h2.02v4.35c0,1.19.49,1.56,1.28,1.56.96,0,1.72-.6,1.72-1.97v-3.94h2.01Z"/>
          <path class="cls-16" d="M211.49,126.56l1.18-1.21c.41.88,1.21,1.15,2.21,1.15.87,0,1.35-.26,1.35-.66,0-.34-.4-.54-1.47-.77-2.29-.46-3.06-1.16-3.06-2.38s1.13-2.37,3.31-2.37c1.69,0,2.6.5,3.28,1.56l-1.25,1.06c-.43-.76-1.02-1.15-2-1.15-.82,0-1.32.32-1.32.71s.37.65,1.6.9c2.15.43,2.94,1.07,2.94,2.29,0,1.32-1.16,2.28-3.35,2.28-1.52,0-2.74-.41-3.41-1.41Z"/>
          <path class="cls-16" d="M224.61,127.37c-.47.38-1.24.6-2.02.6-1.46,0-2.46-.6-2.46-2.22v-3.78h-1.34v-1.5h1.34v-1.69l2.02-.56v2.25h2.38v1.5h-2.38v3.46c0,.71.38,1.01,1.01,1.01.49,0,.82-.15,1.13-.41l.31,1.34Z"/>
          <path class="cls-16" d="M232.73,124.15c0,2.4-1.4,3.83-3.77,3.83s-3.77-1.43-3.77-3.83,1.4-3.82,3.77-3.82,3.77,1.43,3.77,3.82ZM227.21,124.15c0,1.56.62,2.32,1.75,2.32s1.75-.76,1.75-2.32-.62-2.32-1.75-2.32-1.75.76-1.75,2.32Z"/>
          <path class="cls-16" d="M246,123v4.83h-2.02v-4.43c0-1.07-.53-1.49-1.26-1.49-.9,0-1.62.68-1.62,1.96v3.96h-2.02v-4.43c0-1.07-.53-1.49-1.28-1.49s-1.62.57-1.62,2.01v3.9h-2.01v-7.35h1.81l.07,1.29c.49-.97,1.4-1.44,2.43-1.44s2,.49,2.4,1.49c.49-1,1.47-1.49,2.5-1.49,1.43,0,2.63.87,2.62,2.68Z"/>
          <path class="cls-16" d="M254.6,124.91h-5.21c.21,1.06.85,1.56,1.84,1.56.85,0,1.41-.32,1.62-.91l1.65.6c-.47,1.18-1.6,1.81-3.27,1.81-2.44,0-3.82-1.41-3.82-3.83s1.34-3.82,3.71-3.82,3.54,1.38,3.54,3.79c0,.21-.03.6-.06.79ZM249.37,123.5h3.43c-.16-1.1-.78-1.69-1.71-1.69s-1.56.57-1.72,1.69Z"/>
          <path class="cls-16" d="M261.01,120.49l-.25,1.76c-.21-.13-.54-.22-.93-.22-.88,0-1.77.65-1.77,1.99v3.81h-2.02v-7.35h1.75l.13,1.44c.38-1.01,1.13-1.59,2.28-1.59.32,0,.62.06.79.16Z"/>
          <path class="cls-16" d="M191.86,141.85v1.63h-7.49v-9.71h7.28v1.63h-5.25v2.41h4.13v1.56h-4.13v2.47h5.46Z"/>
          <path class="cls-16" d="M200.22,138.66v4.82h-2.01v-4.24c0-1.26-.54-1.68-1.31-1.68-.85,0-1.69.56-1.69,2.03v3.88h-2.01v-7.35h1.81l.07,1.31c.49-.99,1.4-1.46,2.5-1.46,1.53,0,2.65.9,2.65,2.68Z"/>
          <path class="cls-16" d="M208.99,144.15c0,1.6-1.65,2.5-3.96,2.5-2.53,0-3.62-.74-3.62-1.81,0-.65.44-1.18,1.34-1.4-.6-.26-1.09-.75-1.09-1.47s.47-1.24,1.18-1.49c-.76-.43-1.16-1.12-1.16-2,0-1.54,1.29-2.5,3.38-2.5.54,0,1.04.06,1.47.19.24-1.09.91-1.85,2.24-1.79l.26,1.44c-.93-.09-1.5.21-1.72.69.72.43,1.12,1.1,1.12,1.97,0,1.53-1.28,2.49-3.37,2.49-.49,0-.93-.04-1.32-.13-.43.1-.59.32-.59.66,0,.4.32.6.84.6h2.49c1.59,0,2.52.72,2.52,2.04ZM207.34,144.35c0-.38-.26-.62-1.1-.62h-2c-.85,0-1.22.24-1.22.66,0,.53.68.87,2.18.87s2.15-.41,2.15-.91ZM203.71,138.47c0,.75.57,1.24,1.35,1.24s1.34-.49,1.34-1.24-.56-1.22-1.34-1.22-1.35.49-1.35,1.22Z"/>
          <path class="cls-16" d="M217.17,142.2l-.15,1.22c-.27.13-.59.21-.96.21-.88,0-1.49-.31-1.69-1.1-.44.72-1.37,1.1-2.6,1.1-1.4,0-2.28-.65-2.28-1.88,0-1.15.9-1.96,2.87-2.32l1.76-.34v-.35c0-.78-.46-1.28-1.25-1.28-.85,0-1.47.32-1.69,1.25l-1.6-.68c.31-1.25,1.41-2.04,3.21-2.04,2.04,0,3.34.88,3.34,2.71v3.01c0,.38.16.56.54.56.18,0,.35-.01.5-.06ZM214.13,141.09v-.76l-1.57.35c-.65.15-.99.38-.99.87s.31.72.84.72c.76,0,1.72-.4,1.72-1.18Z"/>
          <path class="cls-16" d="M225.13,144.15c0,1.6-1.65,2.5-3.96,2.5-2.53,0-3.62-.74-3.62-1.81,0-.65.44-1.18,1.34-1.4-.6-.26-1.09-.75-1.09-1.47s.47-1.24,1.18-1.49c-.76-.43-1.16-1.12-1.16-2,0-1.54,1.29-2.5,3.38-2.5.54,0,1.04.06,1.47.19.24-1.09.91-1.85,2.24-1.79l.26,1.44c-.93-.09-1.5.21-1.72.69.72.43,1.12,1.1,1.12,1.97,0,1.53-1.28,2.49-3.37,2.49-.49,0-.93-.04-1.32-.13-.43.1-.59.32-.59.66,0,.4.32.6.84.6h2.49c1.59,0,2.51.72,2.51,2.04ZM223.48,144.35c0-.38-.26-.62-1.1-.62h-2c-.85,0-1.22.24-1.22.66,0,.53.68.87,2.18.87s2.15-.41,2.15-.91ZM219.85,138.47c0,.75.57,1.24,1.35,1.24s1.34-.49,1.34-1.24-.56-1.22-1.34-1.22-1.35.49-1.35,1.22Z"/>
          <path class="cls-16" d="M232.9,140.57h-5.21c.21,1.06.85,1.56,1.84,1.56.85,0,1.41-.32,1.62-.91l1.65.6c-.47,1.18-1.6,1.81-3.27,1.81-2.44,0-3.82-1.41-3.82-3.83s1.34-3.82,3.71-3.82,3.54,1.38,3.54,3.79c0,.21-.03.6-.06.79ZM227.68,139.16h3.43c-.16-1.1-.78-1.69-1.71-1.69-.97,0-1.56.57-1.72,1.69Z"/>
          <path class="cls-16" d="M246.19,138.66v4.82h-2.02v-4.43c0-1.07-.53-1.49-1.26-1.49-.9,0-1.62.68-1.62,1.96v3.96h-2.02v-4.43c0-1.07-.53-1.49-1.28-1.49s-1.62.57-1.62,2.01v3.9h-2.02v-7.35h1.81l.07,1.29c.49-.97,1.4-1.44,2.43-1.44s2,.49,2.4,1.49c.49-1,1.47-1.49,2.5-1.49,1.43,0,2.63.87,2.62,2.68Z"/>
          <path class="cls-16" d="M254.78,140.57h-5.21c.21,1.06.85,1.56,1.84,1.56.85,0,1.41-.32,1.62-.91l1.65.6c-.47,1.18-1.6,1.81-3.27,1.81-2.44,0-3.82-1.41-3.82-3.83s1.34-3.82,3.71-3.82,3.54,1.38,3.54,3.79c0,.21-.03.6-.06.79ZM249.56,139.16h3.43c-.16-1.1-.78-1.69-1.71-1.69s-1.56.57-1.72,1.69Z"/>
          <path class="cls-16" d="M263.27,138.66v4.82h-2.01v-4.24c0-1.26-.54-1.68-1.31-1.68-.85,0-1.69.56-1.69,2.03v3.88h-2.01v-7.35h1.81l.07,1.31c.49-.99,1.4-1.46,2.5-1.46,1.53,0,2.65.9,2.65,2.68Z"/>
          <path class="cls-16" d="M270.04,143.03c-.47.38-1.24.6-2.02.6-1.46,0-2.46-.6-2.46-2.22v-3.78h-1.34v-1.5h1.34v-1.69l2.02-.56v2.25h2.38v1.5h-2.38v3.46c0,.71.38,1.01,1.01,1.01.49,0,.82-.15,1.13-.41l.31,1.34Z"/>
        </g>
        <g>
          <path class="cls-16" d="M126.79,213.94h-1.82v-5.06l.09-2.84h-.03l-2.69,7.9h-1.66l-2.68-7.9h-.03l.1,2.84v5.06h-1.84v-9.71h2.94l1.75,5.29.62,2.19h.03l.63-2.18,1.74-5.31h2.85v9.71Z"/>
          <path class="cls-16" d="M135.89,210.26c0,2.4-1.4,3.83-3.77,3.83s-3.77-1.43-3.77-3.83,1.4-3.82,3.77-3.82,3.77,1.43,3.77,3.82ZM130.37,210.26c0,1.56.62,2.32,1.75,2.32s1.75-.76,1.75-2.32-.62-2.32-1.75-2.32-1.75.77-1.75,2.32Z"/>
          <path class="cls-16" d="M144.45,203.37v10.58h-1.79l-.09-1.32c-.43.88-1.29,1.47-2.43,1.47-1.96,0-3.15-1.41-3.15-3.81s1.21-3.84,3.15-3.84c1.07,0,1.87.53,2.29,1.34v-4.41h2.02ZM142.43,210.69v-.85c-.1-1.18-.72-1.85-1.69-1.85-1.07,0-1.72.78-1.72,2.28s.65,2.28,1.72,2.28c.96,0,1.59-.65,1.69-1.85Z"/>
          <path class="cls-16" d="M153.1,211.03h-5.21c.21,1.06.85,1.56,1.84,1.56.85,0,1.41-.32,1.62-.91l1.65.6c-.47,1.18-1.6,1.81-3.27,1.81-2.44,0-3.82-1.41-3.82-3.83s1.34-3.82,3.71-3.82,3.54,1.38,3.54,3.79c0,.21-.03.6-.06.79ZM147.88,209.62h3.43c-.16-1.1-.78-1.69-1.71-1.69-.97,0-1.56.57-1.72,1.69Z"/>
          <path class="cls-16" d="M159.52,206.6l-.25,1.76c-.21-.13-.54-.22-.93-.22-.88,0-1.77.65-1.77,1.99v3.81h-2.02v-7.35h1.75l.13,1.44c.38-1.01,1.13-1.59,2.28-1.59.32,0,.62.06.79.16Z"/>
          <path class="cls-16" d="M167.51,209.12v4.82h-2.01v-4.24c0-1.26-.54-1.68-1.31-1.68-.85,0-1.69.56-1.69,2.03v3.88h-2.01v-7.35h1.81l.07,1.31c.48-.99,1.4-1.46,2.5-1.46,1.53,0,2.65.9,2.65,2.68Z"/>
          <path class="cls-16" d="M129.29,224.74c0,3.1-1.74,4.85-4.78,4.85h-3.75v-9.71h3.75c3.04,0,4.78,1.75,4.78,4.85ZM127.18,224.74c0-2.09-.93-3.24-2.78-3.24h-1.62v6.47h1.62c1.85,0,2.78-1.15,2.78-3.24Z"/>
          <path class="cls-16" d="M130.56,220.11c0-.72.41-1.09,1.25-1.09s1.25.37,1.25,1.09-.41,1.07-1.25,1.07-1.25-.35-1.25-1.07ZM132.81,229.6h-2.01v-7.35h2.01v7.35Z"/>
          <path class="cls-16" d="M141.63,230.26c0,1.6-1.65,2.5-3.96,2.5-2.53,0-3.62-.74-3.62-1.81,0-.65.44-1.18,1.34-1.4-.6-.26-1.09-.75-1.09-1.47s.47-1.24,1.18-1.49c-.77-.43-1.16-1.12-1.16-2,0-1.54,1.29-2.5,3.38-2.5.54,0,1.04.06,1.47.19.24-1.09.91-1.85,2.24-1.79l.26,1.44c-.93-.09-1.5.21-1.72.69.72.43,1.12,1.1,1.12,1.97,0,1.53-1.28,2.49-3.37,2.49-.49,0-.93-.04-1.32-.13-.43.1-.59.32-.59.66,0,.4.32.6.84.6h2.49c1.59,0,2.52.72,2.52,2.04ZM139.99,230.47c0-.38-.26-.62-1.1-.62h-2c-.85,0-1.22.24-1.22.66,0,.53.68.87,2.18.87s2.15-.41,2.15-.91ZM136.35,224.58c0,.75.57,1.24,1.35,1.24s1.34-.49,1.34-1.24-.56-1.22-1.34-1.22-1.35.49-1.35,1.22Z"/>
          <path class="cls-16" d="M142.36,220.11c0-.72.41-1.09,1.25-1.09s1.25.37,1.25,1.09-.41,1.07-1.25,1.07-1.25-.35-1.25-1.07ZM144.61,229.6h-2.01v-7.35h2.01v7.35Z"/>
          <path class="cls-16" d="M151.49,229.14c-.47.38-1.24.6-2.02.6-1.46,0-2.46-.6-2.46-2.22v-3.78h-1.34v-1.5h1.34v-1.69l2.02-.56v2.25h2.38v1.5h-2.38v3.46c0,.71.38,1.01,1.02,1.01.48,0,.82-.15,1.13-.41l.31,1.34Z"/>
          <path class="cls-16" d="M159.76,228.32l-.15,1.22c-.27.13-.59.21-.96.21-.88,0-1.49-.31-1.69-1.1-.44.72-1.37,1.1-2.6,1.1-1.4,0-2.28-.65-2.28-1.88,0-1.15.9-1.96,2.87-2.32l1.76-.34v-.35c0-.78-.46-1.28-1.25-1.28-.85,0-1.47.32-1.69,1.25l-1.6-.68c.31-1.25,1.41-2.04,3.21-2.04,2.04,0,3.34.88,3.34,2.71v3.01c0,.38.16.56.54.56.18,0,.35-.01.5-.06ZM156.72,227.2v-.76l-1.57.35c-.65.15-.99.38-.99.87s.31.72.84.72c.77,0,1.72-.4,1.72-1.18Z"/>
          <path class="cls-16" d="M162.68,227.26c0,.69.18.94.72.94.34,0,.54-.04.87-.16l-.18,1.4c-.32.19-.88.31-1.37.31-1.43,0-2.06-.66-2.06-2.19v-8.53h2.02v8.24Z"/>
          <path class="cls-16" d="M131.53,237.27l-1.4,1.37c-.5-1.04-1.31-1.57-2.62-1.57-1.22,0-1.84.51-1.84,1.21,0,.65.53,1,2.24,1.31,2.62.49,3.6,1.29,3.6,2.91,0,1.82-1.66,2.91-3.99,2.91s-3.46-.63-4.28-1.81l1.21-1.44c.77,1.26,1.69,1.59,3,1.59s1.93-.4,1.93-1.13c0-.53-.52-.84-2.12-1.16-2.71-.54-3.73-1.37-3.73-2.99,0-1.72,1.46-3.06,3.97-3.06,1.81,0,3.04.57,4.03,1.87Z"/>
          <path class="cls-16" d="M137.96,244.8c-.47.38-1.23.6-2.02.6-1.46,0-2.46-.6-2.46-2.22v-3.78h-1.34v-1.5h1.34v-1.69l2.02-.56v2.25h2.38v1.5h-2.38v3.46c0,.71.38,1.01,1.01,1.01.49,0,.82-.15,1.13-.41l.31,1.34Z"/>
          <path class="cls-16" d="M146.08,241.58c0,2.4-1.4,3.83-3.77,3.83s-3.77-1.43-3.77-3.83,1.4-3.82,3.77-3.82,3.77,1.43,3.77,3.82ZM140.57,241.58c0,1.56.62,2.32,1.75,2.32s1.75-.76,1.75-2.32-.62-2.32-1.75-2.32-1.75.77-1.75,2.32Z"/>
          <path class="cls-16" d="M152.49,237.92l-.25,1.76c-.21-.13-.54-.22-.93-.22-.88,0-1.77.65-1.77,1.99v3.81h-2.02v-7.35h1.75l.13,1.44c.38-1.01,1.13-1.59,2.28-1.59.32,0,.62.06.79.16Z"/>
          <path class="cls-16" d="M160.11,242.34h-5.21c.21,1.06.85,1.56,1.84,1.56.85,0,1.41-.32,1.62-.91l1.65.6c-.47,1.18-1.6,1.81-3.27,1.81-2.44,0-3.82-1.41-3.82-3.83s1.34-3.82,3.71-3.82,3.54,1.38,3.54,3.79c0,.21-.03.6-.06.79ZM154.88,240.93h3.43c-.16-1.1-.78-1.69-1.71-1.69-.97,0-1.56.57-1.72,1.69Z"/>
        </g>
        <path class="cls-19" d="M52.59,198.34v-3.6h28.8v3.6h-28.8ZM52.59,223.54v-10.8h-1.8v-3.6l1.8-9h28.8l1.8,9v3.6h-1.8v10.8h-3.6v-10.8h-7.2v10.8h-18ZM56.19,219.94h10.8v-7.2h-10.8v7.2ZM54.48,209.14h25.02-25.02ZM54.48,209.14h25.02l-1.08-5.4h-22.86l-1.08,5.4Z"/>
        <g>
          <path class="cls-16" d="M399.66,359.68h-3.75l-.79,2.37h-2.07l3.54-9.71h2.43l3.54,9.71h-2.1l-.79-2.37ZM399.16,358.18l-.93-2.74-.44-1.47h-.03l-.41,1.44-.93,2.77h2.74Z"/>
          <path class="cls-16" d="M410.45,351.47v10.58h-1.79l-.09-1.32c-.43.88-1.29,1.47-2.43,1.47-1.96,0-3.15-1.41-3.15-3.81s1.21-3.84,3.15-3.84c1.07,0,1.87.53,2.29,1.34v-4.41h2.02ZM408.43,358.8v-.85c-.1-1.18-.72-1.85-1.69-1.85-1.07,0-1.72.78-1.72,2.28s.65,2.28,1.72,2.28c.96,0,1.59-.65,1.69-1.85Z"/>
          <path class="cls-16" d="M419.51,360.77l-.15,1.22c-.27.13-.59.21-.96.21-.88,0-1.49-.31-1.69-1.1-.44.72-1.37,1.1-2.6,1.1-1.4,0-2.28-.65-2.28-1.88,0-1.15.9-1.96,2.87-2.32l1.76-.34v-.35c0-.78-.46-1.28-1.25-1.28-.85,0-1.47.32-1.69,1.25l-1.6-.68c.31-1.25,1.41-2.04,3.21-2.04,2.04,0,3.34.88,3.34,2.71v3.01c0,.38.16.56.54.56.18,0,.35-.01.5-.06ZM416.46,359.65v-.76l-1.57.35c-.65.15-.99.38-.99.87s.31.72.84.72c.76,0,1.72-.4,1.72-1.18Z"/>
          <path class="cls-16" d="M427.91,358.36c0,2.41-1.21,3.84-3.15,3.84-1.09,0-1.88-.54-2.31-1.37v4.31h-2.01v-10.44h1.78l.07,1.43c.41-.94,1.29-1.57,2.47-1.57,1.96,0,3.15,1.41,3.15,3.81ZM425.88,358.37c0-1.5-.65-2.28-1.72-2.28s-1.71.78-1.71,2.21v.15c0,1.4.65,2.21,1.71,2.21s1.72-.78,1.72-2.28Z"/>
          <path class="cls-16" d="M434.36,361.59c-.47.38-1.24.6-2.02.6-1.46,0-2.46-.6-2.46-2.22v-3.78h-1.34v-1.5h1.34v-1.69l2.02-.56v2.25h2.38v1.5h-2.38v3.46c0,.71.38,1.01,1.01,1.01.49,0,.82-.15,1.13-.41l.31,1.34Z"/>
          <path class="cls-16" d="M435.09,352.56c0-.72.41-1.09,1.25-1.09s1.25.37,1.25,1.09-.41,1.07-1.25,1.07-1.25-.35-1.25-1.07ZM437.34,362.05h-2.01v-7.35h2.01v7.35Z"/>
          <path class="cls-16" d="M446.1,354.7l-2.79,7.35h-2.32l-2.79-7.35h2.16l1.81,5.94,1.85-5.94h2.09Z"/>
          <path class="cls-16" d="M453.63,359.14h-5.21c.21,1.06.85,1.56,1.84,1.56.85,0,1.41-.32,1.62-.91l1.65.6c-.47,1.18-1.6,1.81-3.27,1.81-2.44,0-3.82-1.41-3.82-3.83s1.34-3.82,3.71-3.82,3.54,1.38,3.54,3.79c0,.21-.03.6-.06.79ZM448.41,357.73h3.43c-.16-1.1-.78-1.69-1.71-1.69s-1.56.57-1.72,1.69Z"/>
          <path class="cls-16" d="M408.52,369.72l-1.4,1.37c-.5-1.04-1.31-1.57-2.62-1.57-1.22,0-1.84.51-1.84,1.21,0,.65.53,1,2.24,1.31,2.62.49,3.6,1.29,3.6,2.91,0,1.82-1.66,2.91-3.99,2.91s-3.46-.63-4.28-1.81l1.21-1.44c.76,1.26,1.69,1.59,3,1.59s1.93-.4,1.93-1.13c0-.53-.51-.84-2.12-1.16-2.71-.54-3.74-1.37-3.74-2.99,0-1.72,1.46-3.06,3.97-3.06,1.81,0,3.04.57,4.03,1.87Z"/>
          <path class="cls-16" d="M416.85,370.35v7.35h-1.79l-.07-1.26c-.49.97-1.4,1.41-2.57,1.41-1.49,0-2.59-.75-2.59-2.63v-4.87h2.02v4.35c0,1.19.49,1.56,1.28,1.56.96,0,1.72-.6,1.72-1.97v-3.94h2.01Z"/>
          <path class="cls-16" d="M426.15,374.01c0,2.41-1.21,3.84-3.15,3.84-1.09,0-1.88-.54-2.31-1.37v4.31h-2.01v-10.44h1.78l.07,1.43c.41-.94,1.29-1.57,2.47-1.57,1.96,0,3.15,1.41,3.15,3.81ZM424.12,374.03c0-1.5-.65-2.28-1.72-2.28s-1.71.78-1.71,2.21v.15c0,1.4.65,2.21,1.71,2.21s1.72-.78,1.72-2.28Z"/>
          <path class="cls-16" d="M435.11,374.01c0,2.41-1.21,3.84-3.15,3.84-1.09,0-1.88-.54-2.31-1.37v4.31h-2.01v-10.44h1.78l.07,1.43c.41-.94,1.29-1.57,2.47-1.57,1.96,0,3.15,1.41,3.15,3.81ZM433.08,374.03c0-1.5-.65-2.28-1.72-2.28s-1.71.78-1.71,2.21v.15c0,1.4.65,2.21,1.71,2.21s1.72-.78,1.72-2.28Z"/>
          <path class="cls-16" d="M438.59,375.37c0,.69.18.94.72.94.34,0,.54-.04.87-.16l-.18,1.4c-.32.19-.88.31-1.37.31-1.43,0-2.06-.66-2.06-2.19v-8.53h2.02v8.24Z"/>
          <path class="cls-16" d="M444.78,378.16c-.72,2-1.57,2.71-3.16,2.71-.81,0-1.4-.18-1.87-.57l.5-1.43c.32.37.71.46,1.24.46.56,0,.94-.18,1.21-.88l.26-.63-.81-1.91-2.25-5.54h2.24l1.38,4.41.4,1.47.44-1.56,1.35-4.32h2.04l-2.97,7.81Z"/>
          <path class="cls-16" d="M409.21,393.51c-2.88,0-4.68-1.88-4.68-5s1.81-5,4.65-5c1.99,0,3.47.82,4.02,2.52l-1.84.78c-.32-1.18-.97-1.63-2.09-1.63-1.62,0-2.63,1.18-2.63,3.34s.96,3.34,2.59,3.34c1.16,0,1.93-.56,2.24-1.72l1.87.56c-.59,1.9-2.15,2.82-4.12,2.82Z"/>
          <path class="cls-16" d="M421.6,388.54v4.82h-2.01v-4.24c0-1.26-.54-1.68-1.31-1.68-.85,0-1.69.56-1.69,2.03v3.88h-2.01v-10.58h2.01v4.47c.47-.94,1.32-1.4,2.37-1.4,1.53,0,2.65.9,2.65,2.68Z"/>
          <path class="cls-16" d="M430.6,392.08l-.15,1.22c-.27.13-.59.21-.96.21-.88,0-1.49-.31-1.69-1.1-.44.72-1.37,1.1-2.6,1.1-1.4,0-2.28-.65-2.28-1.88,0-1.15.9-1.96,2.87-2.32l1.76-.34v-.35c0-.78-.46-1.28-1.25-1.28-.85,0-1.47.32-1.69,1.25l-1.6-.68c.31-1.25,1.41-2.04,3.21-2.04,2.04,0,3.34.88,3.34,2.71v3.01c0,.38.16.56.54.56.18,0,.35-.01.5-.06ZM427.56,390.97v-.76l-1.57.35c-.65.15-.99.38-.99.87s.31.72.84.72c.76,0,1.72-.4,1.72-1.18Z"/>
          <path class="cls-16" d="M431.3,383.88c0-.72.41-1.09,1.25-1.09s1.25.37,1.25,1.09-.41,1.07-1.25,1.07-1.25-.35-1.25-1.07ZM433.55,393.36h-2.01v-7.35h2.01v7.35Z"/>
          <path class="cls-16" d="M442.42,388.54v4.82h-2.01v-4.24c0-1.26-.54-1.68-1.31-1.68-.85,0-1.69.56-1.69,2.03v3.88h-2.01v-7.35h1.81l.07,1.31c.49-.99,1.4-1.46,2.5-1.46,1.53,0,2.65.9,2.65,2.68Z"/>
        </g>
        <path class="cls-19" d="M463.92,431.92v-3.6h4.95l-.72-.63c-1.56-1.38-2.66-2.95-3.29-4.73s-.95-3.56-.95-5.36c0-3.33,1-6.29,2.99-8.89s4.6-4.31,7.81-5.15v3.78c-2.16.78-3.9,2.11-5.22,3.98-1.32,1.88-1.98,3.97-1.98,6.28,0,1.35.26,2.66.77,3.94s1.31,2.45,2.39,3.53l.45.45v-4.41h3.6v10.8h-10.8ZM496.18,415.72h-3.65c-.15-1.05-.47-2.06-.97-3.02s-1.16-1.88-2-2.75l-.45-.45v4.41h-3.6v-10.8h10.8v3.6h-4.95l.72.63c1.23,1.26,2.17,2.6,2.84,4.01s1.08,2.87,1.26,4.37ZM489.12,437.32l-.54-2.7c-.36-.15-.7-.31-1.01-.47s-.64-.37-.97-.61l-2.61.81-1.8-3.06,2.07-1.8c-.06-.42-.09-.81-.09-1.17s.03-.75.09-1.17l-2.07-1.8,1.8-3.06,2.61.81c.33-.24.65-.44.97-.61s.65-.32,1.01-.47l.54-2.7h3.6l.54,2.7c.36.15.7.32,1.01.5s.64.41.97.68l2.61-.9,1.8,3.15-2.07,1.8c.06.36.09.73.09,1.13s-.03.77-.09,1.13l2.07,1.8-1.8,3.06-2.61-.81c-.33.24-.65.44-.97.61s-.65.32-1.01.47l-.54,2.7h-3.6ZM490.92,431.92c.99,0,1.84-.35,2.54-1.06s1.06-1.55,1.06-2.54-.35-1.84-1.06-2.54-1.55-1.06-2.54-1.06-1.84.35-2.54,1.06-1.06,1.55-1.06,2.54.35,1.84,1.06,2.54,1.55,1.06,2.54,1.06Z"/>
        <g class="cls-20">
          <path class="cls-19" d="M246.4,250.04c0,3.27-1.87,5.25-4.89,5.25s-4.91-1.97-4.91-5.25,1.88-5.25,4.91-5.25,4.89,1.97,4.89,5.25ZM238.81,250.04c0,2.27.99,3.5,2.7,3.5s2.68-1.23,2.68-3.5-.99-3.5-2.68-3.5-2.7,1.23-2.7,3.5Z"/>
          <path class="cls-19" d="M260.69,250.07l-.02,5.06h-2.1v-4.64c0-1.13-.56-1.56-1.33-1.56-.94,0-1.7.71-1.7,2.05v4.15h-2.11v-4.64c0-1.13-.56-1.56-1.34-1.56s-1.7.6-1.7,2.11v4.09h-2.11v-7.71h1.9l.08,1.36c.51-1.02,1.47-1.51,2.55-1.51s2.1.51,2.51,1.56c.51-1.05,1.54-1.56,2.62-1.56,1.5,0,2.76.91,2.75,2.81Z"/>
          <path class="cls-19" d="M270.24,250.07v5.06h-2.11v-4.44c0-1.33-.57-1.76-1.37-1.76-.89,0-1.77.59-1.77,2.13v4.07h-2.11v-7.71h1.9l.08,1.37c.51-1.03,1.47-1.53,2.62-1.53,1.6,0,2.78.94,2.78,2.81Z"/>
          <path class="cls-19" d="M272.18,245.18c0-.76.43-1.14,1.31-1.14s1.31.39,1.31,1.14-.43,1.13-1.31,1.13-1.31-.37-1.31-1.13ZM274.54,255.13h-2.11v-7.71h2.11v7.71Z"/>
          <path class="cls-19" d="M283.84,249.53l-1.97.71c-.18-.92-.68-1.4-1.5-1.4-1.2,0-1.88.83-1.88,2.45s.72,2.42,1.87,2.42c.93,0,1.45-.49,1.6-1.37l1.91.62c-.32,1.37-1.53,2.33-3.49,2.33-2.56,0-4.01-1.48-4.01-4.01s1.46-4.01,3.93-4.01c2.17,0,3.16,1,3.53,2.27Z"/>
          <path class="cls-19" d="M292.93,250.07v5.06h-2.11v-4.44c0-1.33-.57-1.76-1.37-1.76-.89,0-1.77.59-1.77,2.13v4.07h-2.11v-11.09h2.11v4.69c.49-.99,1.39-1.46,2.48-1.46,1.6,0,2.78.94,2.78,2.81Z"/>
          <path class="cls-19" d="M302.68,253.79l-.15,1.28c-.28.14-.62.22-1,.22-.93,0-1.56-.32-1.77-1.16-.46.76-1.43,1.16-2.73,1.16-1.47,0-2.39-.68-2.39-1.97,0-1.2.94-2.05,3.01-2.44l1.85-.35v-.37c0-.82-.48-1.34-1.31-1.34-.89,0-1.54.34-1.77,1.31l-1.68-.71c.32-1.31,1.48-2.14,3.36-2.14,2.14,0,3.5.92,3.5,2.84v3.16c0,.4.17.59.57.59.18,0,.37-.02.52-.06ZM299.49,252.62v-.8l-1.65.37c-.68.15-1.03.4-1.03.91s.32.76.88.76c.8,0,1.81-.42,1.81-1.23Z"/>
          <path class="cls-19" d="M311.34,250.07v5.06h-2.11v-4.44c0-1.33-.57-1.76-1.37-1.76-.89,0-1.77.59-1.77,2.13v4.07h-2.11v-7.71h1.9l.08,1.37c.51-1.03,1.47-1.53,2.62-1.53,1.6,0,2.78.94,2.78,2.81Z"/>
          <path class="cls-19" d="M320.89,250.07v5.06h-2.11v-4.44c0-1.33-.57-1.76-1.37-1.76-.89,0-1.77.59-1.77,2.13v4.07h-2.11v-7.71h1.9l.08,1.37c.51-1.03,1.47-1.53,2.62-1.53,1.6,0,2.78.94,2.78,2.81Z"/>
          <path class="cls-19" d="M330.21,252.08h-5.46c.22,1.11.89,1.64,1.93,1.64.89,0,1.48-.34,1.7-.96l1.73.63c-.49,1.23-1.68,1.9-3.42,1.9-2.56,0-4.01-1.48-4.01-4.01s1.4-4.01,3.89-4.01,3.72,1.45,3.72,3.98c0,.22-.03.63-.06.83ZM324.74,250.6h3.59c-.17-1.16-.82-1.77-1.79-1.77s-1.64.6-1.81,1.77Z"/>
          <path class="cls-19" d="M334.14,252.68c0,.73.19.99.76.99.35,0,.57-.05.91-.17l-.19,1.46c-.34.2-.92.32-1.43.32-1.5,0-2.16-.69-2.16-2.3v-8.95h2.11v8.64Z"/>
          <path class="cls-19" d="M341.25,253.68c3.7-2.47,5.04-3.96,5.04-5.52,0-.94-.6-1.62-1.65-1.62-1.14,0-1.82.82-1.88,2.25l-1.84-.69c.14-2.08,1.64-3.3,3.84-3.3,2.47,0,3.67,1.54,3.67,3.24,0,1.96-1.43,3.53-4.52,5.43v.02c.45-.03,1.34-.06,1.87-.06h2.81v1.71h-7.34v-1.45Z"/>
          <path class="cls-19" d="M352.89,254.02c0,.77-.52,1.25-1.34,1.25s-1.34-.48-1.34-1.25.51-1.25,1.34-1.25,1.34.48,1.34,1.25Z"/>
          <path class="cls-19" d="M354.4,250.04c0-3.44,1.37-5.25,4.07-5.25s4.07,1.8,4.07,5.25-1.37,5.25-4.07,5.25-4.07-1.8-4.07-5.25ZM360.42,250.04c0-2.42-.63-3.53-1.94-3.53s-1.94,1.11-1.94,3.53.63,3.53,1.94,3.53,1.94-1.11,1.94-3.53Z"/>
          <path class="cls-19" d="M252.42,265.94l-2.45,7.71h-2.45l-1.68-5.45-1.62,5.45h-2.44l-2.45-7.71h2.24l1.54,6.02,1.73-6.02h2.08l1.73,6.02,1.54-6.02h2.24Z"/>
          <path class="cls-19" d="M253.6,263.7c0-.76.43-1.14,1.31-1.14s1.31.39,1.31,1.14-.43,1.13-1.31,1.13-1.31-.37-1.31-1.13ZM255.96,273.65h-2.11v-7.71h2.11v7.71Z"/>
          <path class="cls-19" d="M263.49,273.18c-.49.4-1.3.63-2.11.63-1.53,0-2.58-.63-2.58-2.33v-3.96h-1.4v-1.57h1.4v-1.77l2.11-.59v2.36h2.5v1.57h-2.5v3.62c0,.74.4,1.06,1.06,1.06.51,0,.86-.15,1.19-.43l.32,1.4Z"/>
          <path class="cls-19" d="M272.32,268.59v5.06h-2.11v-4.44c0-1.33-.57-1.76-1.37-1.76-.89,0-1.77.59-1.77,2.13v4.07h-2.11v-11.09h2.11v4.69c.49-.99,1.39-1.46,2.48-1.46,1.6,0,2.78.94,2.78,2.81Z"/>
          <path class="cls-19" d="M283.83,273.81c-3.02,0-4.91-1.97-4.91-5.25s1.9-5.25,4.88-5.25c2.08,0,3.64.86,4.21,2.64l-1.93.82c-.34-1.23-1.02-1.71-2.19-1.71-1.7,0-2.76,1.23-2.76,3.5s1,3.5,2.71,3.5c1.22,0,2.02-.59,2.35-1.8l1.96.59c-.62,1.99-2.25,2.96-4.32,2.96Z"/>
          <path class="cls-19" d="M297.26,269.8c0,2.51-1.47,4.01-3.95,4.01s-3.95-1.5-3.95-4.01,1.46-4.01,3.95-4.01,3.95,1.5,3.95,4.01ZM291.47,269.8c0,1.63.65,2.44,1.84,2.44s1.83-.8,1.83-2.44-.65-2.44-1.83-2.44-1.84.8-1.84,2.44Z"/>
          <path class="cls-19" d="M306.46,268.59v5.06h-2.11v-4.44c0-1.33-.57-1.76-1.37-1.76-.89,0-1.77.59-1.77,2.13v4.07h-2.11v-7.71h1.9l.08,1.37c.51-1.03,1.47-1.53,2.62-1.53,1.6,0,2.78.94,2.78,2.81Z"/>
          <path class="cls-19" d="M316.01,268.59v5.06h-2.11v-4.44c0-1.33-.57-1.76-1.37-1.76-.89,0-1.77.59-1.77,2.13v4.07h-2.11v-7.71h1.9l.08,1.37c.51-1.03,1.47-1.53,2.62-1.53,1.6,0,2.78.94,2.78,2.81Z"/>
          <path class="cls-19" d="M325.33,270.6h-5.46c.22,1.11.89,1.64,1.93,1.64.89,0,1.48-.34,1.7-.96l1.73.63c-.49,1.23-1.68,1.9-3.42,1.9-2.56,0-4.01-1.48-4.01-4.01s1.4-4.01,3.89-4.01,3.72,1.45,3.72,3.98c0,.22-.03.63-.06.83ZM319.85,269.12h3.59c-.17-1.16-.82-1.77-1.79-1.77s-1.64.6-1.81,1.77Z"/>
          <path class="cls-19" d="M334.23,268.05l-1.97.71c-.18-.92-.68-1.4-1.5-1.4-1.2,0-1.88.83-1.88,2.45s.72,2.42,1.87,2.42c.93,0,1.45-.49,1.6-1.37l1.91.62c-.32,1.37-1.53,2.33-3.49,2.33-2.56,0-4.01-1.48-4.01-4.01s1.46-4.01,3.93-4.01c2.17,0,3.16,1,3.53,2.27Z"/>
          <path class="cls-19" d="M341.24,273.18c-.49.4-1.3.63-2.11.63-1.53,0-2.58-.63-2.58-2.33v-3.96h-1.4v-1.57h1.4v-1.77l2.11-.59v2.36h2.5v1.57h-2.5v3.62c0,.74.4,1.06,1.06,1.06.51,0,.86-.15,1.19-.43l.32,1.4Z"/>
          <path class="cls-19" d="M349.71,270.6h-5.46c.22,1.11.89,1.64,1.93,1.64.89,0,1.48-.34,1.7-.96l1.73.63c-.49,1.23-1.68,1.9-3.42,1.9-2.56,0-4.01-1.48-4.01-4.01s1.4-4.01,3.89-4.01,3.72,1.45,3.72,3.98c0,.22-.03.63-.06.83ZM344.24,269.12h3.59c-.17-1.16-.82-1.77-1.79-1.77s-1.64.6-1.81,1.77Z"/>
          <path class="cls-19" d="M359.02,262.56v11.09h-1.88l-.09-1.39c-.45.93-1.36,1.54-2.54,1.54-2.05,0-3.3-1.48-3.3-4s1.26-4.03,3.3-4.03c1.13,0,1.96.55,2.41,1.4v-4.63h2.11ZM356.91,270.24v-.89c-.11-1.23-.76-1.94-1.77-1.94-1.13,0-1.8.82-1.8,2.39s.68,2.39,1.8,2.39c1,0,1.67-.68,1.77-1.94Z"/>
          <path class="cls-19" d="M283.09,288.27h-1.91v3.9h-2.1v-10.18h4.49c2.31,0,3.7,1.14,3.7,3.15,0,1.46-.76,2.48-2.08,2.9l2.68,4.13h-2.39l-2.39-3.9ZM281.18,286.65h2.11c1.23,0,1.8-.46,1.8-1.48s-.57-1.48-1.8-1.48h-2.11v2.96Z"/>
          <path class="cls-19" d="M296.33,289.12h-5.46c.22,1.11.89,1.64,1.93,1.64.89,0,1.48-.34,1.7-.96l1.73.63c-.49,1.23-1.68,1.9-3.42,1.9-2.56,0-4.01-1.48-4.01-4.01s1.4-4.01,3.89-4.01,3.72,1.45,3.72,3.98c0,.22-.03.63-.06.83ZM290.86,287.64h3.59c-.17-1.16-.82-1.77-1.79-1.77s-1.64.6-1.81,1.77Z"/>
          <path class="cls-19" d="M303.32,291.7c-.49.4-1.3.63-2.11.63-1.53,0-2.58-.63-2.58-2.33v-3.96h-1.4v-1.57h1.4v-1.77l2.11-.59v2.36h2.5v1.57h-2.5v3.62c0,.74.4,1.06,1.06,1.06.51,0,.86-.15,1.19-.43l.32,1.4Z"/>
          <path class="cls-19" d="M312.3,290.83l-.15,1.28c-.28.14-.62.22-1,.22-.93,0-1.56-.32-1.77-1.16-.46.76-1.43,1.16-2.73,1.16-1.47,0-2.39-.68-2.39-1.97,0-1.2.94-2.05,3.01-2.44l1.85-.35v-.37c0-.82-.48-1.34-1.31-1.34-.89,0-1.54.34-1.77,1.31l-1.68-.71c.32-1.31,1.48-2.14,3.36-2.14,2.14,0,3.5.92,3.5,2.84v3.16c0,.4.17.59.57.59.18,0,.37-.02.52-.06ZM309.11,289.66v-.8l-1.65.37c-.68.15-1.03.4-1.03.91s.32.76.88.76c.8,0,1.81-.42,1.81-1.23Z"/>
          <path class="cls-19" d="M313.34,282.22c0-.76.43-1.14,1.31-1.14s1.31.39,1.31,1.14-.43,1.13-1.31,1.13-1.31-.37-1.31-1.13ZM315.7,292.17h-2.11v-7.71h2.11v7.71Z"/>
          <path class="cls-19" d="M320.02,289.72c0,.73.19.99.76.99.35,0,.57-.05.91-.17l-.19,1.46c-.34.2-.92.32-1.43.32-1.5,0-2.16-.69-2.16-2.3v-8.95h2.11v8.64Z"/>
        </g>
      </g>
    </g>
  </g>
</svg>