<svg xmlns="http://www.w3.org/2000/svg" width="40.356" height="40.356" viewBox="0 0 40.356 40.356">
  <path id="Path_3" data-name="Path 3" d="M127.027,7735.443l5.223-3.169,5.223,3.169-1.384-5.937,4.643-4.018-6.116-.491-2.366-5.625L129.884,7725l-6.116.491,4.643,4.018Zm5.223,12.589-5.982-5.893h-8.3v-8.3l-5.893-5.982,5.893-5.982v-8.3h8.3l5.982-5.893,5.982,5.893h8.3v8.3l5.893,5.982-5.893,5.982v8.3h-8.3Zm0-5,4.464-4.464h6.25v-6.25l4.464-4.464-4.464-4.464v-6.25h-6.25l-4.464-4.464-4.464,4.464h-6.25v6.25l-4.464,4.464,4.464,4.464v6.25h6.25Z" transform="translate(-112.072 -7707.676)" fill="#4170ff"/>
</svg>
