<svg xmlns="http://www.w3.org/2000/svg" width="41.706" height="34.2" viewBox="0 0 41.706 34.2">
  <path id="Path_1" data-name="Path 1" d="M309.4,7744.119v-5.838a6.288,6.288,0,0,1,.886-3.233,5.789,5.789,0,0,1,2.45-2.294,32.665,32.665,0,0,1,6-2.293,27.075,27.075,0,0,1,7.35-.939,28.919,28.919,0,0,1,3.05.157,25.612,25.612,0,0,1,2.894.469l-3.65,3.649a6.318,6.318,0,0,0-1.121-.1h-1.173a23.041,23.041,0,0,0-6.647.886,24.773,24.773,0,0,0-4.822,1.929,2.03,2.03,0,0,0-.756.73,1.962,1.962,0,0,0-.287,1.043v1.668H326.6l4.17,4.17Zm28.256.835-7.194-7.2,2.919-2.919,4.275,4.275,10.531-10.531,2.919,2.919Zm-11.574-17.517a8.367,8.367,0,1,1,5.891-2.45A8.035,8.035,0,0,1,326.079,7727.437Zm0-4.171a4.183,4.183,0,1,0-2.945-1.225A4.017,4.017,0,0,0,326.079,7723.266Z" transform="translate(-309.397 -7710.754)" fill="#4170ff"/>
</svg>
