<svg xmlns="http://www.w3.org/2000/svg" width="35.422" height="35.422" viewBox="0 0 35.422 35.422">
  <path id="Path_4" data-name="Path 4" d="M18.475,7745.565a3.946,3.946,0,0,1-3.936-3.936v-27.55a3.946,3.946,0,0,1,3.936-3.936H36.186v3.936H18.475v27.55h27.55v-17.711h3.936v17.711a3.946,3.946,0,0,1-3.936,3.936Zm3.936-7.872h3.935v-13.775H22.411Zm7.871,0h3.936v-19.678H30.282Zm7.872,0h3.935v-7.871H38.154Zm3.935-15.743v-3.935H38.154v-3.936h3.935v-3.936h3.936v3.936h3.936v3.936H46.025v3.935Z" transform="translate(-14.539 -7710.143)" fill="#4170ff"/>
</svg>
