<svg xmlns="http://www.w3.org/2000/svg" width="37.174" height="37.174" viewBox="0 0 37.174 37.174">
  <path id="Path_2" data-name="Path 2" d="M237.291,7714.843a2.3,2.3,0,1,1,1.649-.674A2.239,2.239,0,0,1,237.291,7714.843Zm0,30.668a2.3,2.3,0,1,1,1.649-.673A2.243,2.243,0,0,1,237.291,7745.511Zm7.434-24.162a2.3,2.3,0,1,1,1.65-.674A2.243,2.243,0,0,1,244.725,7721.349Zm0,17.657a2.3,2.3,0,1,1,1.65-.674A2.244,2.244,0,0,1,244.725,7739.006Zm2.788-8.829a2.3,2.3,0,1,1,1.65-.673A2.242,2.242,0,0,1,247.513,7730.177Zm-16.263,16.264a18.1,18.1,0,0,1-7.249-1.464,18.562,18.562,0,0,1-9.874-9.874,18.679,18.679,0,0,1,0-14.5,18.562,18.562,0,0,1,9.874-9.874,18.1,18.1,0,0,1,7.249-1.464v3.718a14.869,14.869,0,1,0,0,29.738Zm0-14.87a3.728,3.728,0,0,1-3.717-3.717c0-.155.007-.318.023-.488a1.715,1.715,0,0,1,.116-.488l-3.857-3.857,2.6-2.6,3.857,3.857q.186-.046.976-.139a3.717,3.717,0,0,1,0,7.434Z" transform="translate(-212.663 -7709.267)" fill="#4170ff"/>
</svg>
