<svg xmlns="http://www.w3.org/2000/svg" width="38.05" height="38.021" viewBox="0 0 38.05 38.021">
  <g id="Group_5" data-name="Group 5" transform="translate(-12.975 -5197.668)">
    <path id="Path_74" data-name="Path 74" d="M50.7,5232.007l-6.983-12.389a2.465,2.465,0,0,0-4.3,0l-2.331,4.136v.006l-.547.963-1.129,2v-.006l-2.295,4.056a.618.618,0,0,1-.521.313.641.641,0,0,1-.313-.08.613.613,0,0,1-.233-.835l2.657-4.7L28,5213.555a2.465,2.465,0,0,0-4.3,0l-10.4,18.452a2.468,2.468,0,0,0,2.147,3.682h33.1A2.472,2.472,0,0,0,50.7,5232.007Z" fill="#4170ff"/>
    <path id="Path_75" data-name="Path 75" d="M26.459,5211.125v-.767H37.9a1.427,1.427,0,0,0,1.049-2.387l-2.964-3.234a.2.2,0,0,1,0-.264l2.964-3.234a1.427,1.427,0,0,0-1.049-2.387H26.459v-.57a.614.614,0,1,0-1.227,0v12.843a3.438,3.438,0,0,1,1.227,0Zm1.409-8.208,1.6-.228.717-1.443a.653.653,0,0,1,1.174,0l.717,1.443,1.6.228a.652.652,0,0,1,.358,1.116l-1.157,1.126.269,1.589a.656.656,0,0,1-.946.692l-1.426-.749-1.426.749a.651.651,0,0,1-.946-.692l.269-1.589-1.157-1.126A.651.651,0,0,1,27.868,5202.917Z" fill="#4170ff"/>
  </g>
</svg>
