<svg xmlns="http://www.w3.org/2000/svg" width="36.322" height="34.303" viewBox="0 0 36.322 34.303">
  <path id="Path_58" data-name="Path 58" d="M940.511,5214.156l7.113-7.163-1.413-1.413-5.7,5.7-2.876-2.876-1.412,1.463Zm-24.82,19.674v-4.036h24.215v4.036Zm26.232-14.125a10.076,10.076,0,1,1,7.139-2.951A9.726,9.726,0,0,1,941.923,5219.705Zm-26.232-2.018v-4.035H928.4a19.58,19.58,0,0,0,.807,2.118,10.932,10.932,0,0,0,1.11,1.917Zm0,8.072v-4.036h18.968a13.972,13.972,0,0,0,2.472,1.185,13.375,13.375,0,0,0,2.775.682v2.169Z" transform="translate(-915.691 -5199.527)" fill="#4170ff"/>
</svg>
