<svg xmlns="http://www.w3.org/2000/svg" width="38.05" height="38.043" viewBox="0 0 38.05 38.043">
  <g id="Group_4" data-name="Group 4" transform="translate(-211.975 -5197.657)">
    <path id="Path_69" data-name="Path 69" d="M241.871,5201.217v-2.548a1.019,1.019,0,0,0-2.038,0v2.548A1.019,1.019,0,0,0,241.871,5201.217Z" fill="#4170ff"/>
    <path id="Path_70" data-name="Path 70" d="M222.167,5201.217v-2.548a1.019,1.019,0,0,0-2.038,0v2.548A1.019,1.019,0,0,0,222.167,5201.217Z" fill="#4170ff"/>
    <path id="Path_71" data-name="Path 71" d="M247.307,5199.8h-3.4v1.413a3.058,3.058,0,1,1-6.115,0V5199.8h-13.59v1.413a3.058,3.058,0,1,1-6.115,0V5199.8h-3.4a2.717,2.717,0,0,0-2.718,2.717v3.792h38.05v-3.792A2.717,2.717,0,0,0,247.307,5199.8Z" fill="#4170ff"/>
    <path id="Path_72" data-name="Path 72" d="M211.975,5232.982a2.718,2.718,0,0,0,2.718,2.718h32.614a2.718,2.718,0,0,0,2.718-2.718v-24.631h-38.05Zm7.474-11.785a1.023,1.023,0,0,1,.522-.892l1.329-.746a9.344,9.344,0,0,1,5.828-7.657v5.052a1,1,0,1,0,1.994,0v-5.537a1.019,1.019,0,0,1,1.02-1.02h1.715a1.019,1.019,0,0,1,1.02,1.02v5.538a1,1,0,1,0,1.994,0V5211.9a9.346,9.346,0,0,1,5.829,7.657l1.328.746a1.022,1.022,0,0,1,.522.892v1.252h-23.1Zm6.533,3.284a5.227,5.227,0,0,0,10.035.006h6.534l-2.733,1.015a9.115,9.115,0,0,1-.826,2l.557,1.426a.684.684,0,0,1-.154.734l-1.752,1.752a.684.684,0,0,1-.734.154l-1.426-.557a9.124,9.124,0,0,1-2,.826l-.616,1.405a.684.684,0,0,1-.628.411h-2.477a.686.686,0,0,1-.628-.411l-.616-1.405a9.076,9.076,0,0,1-2-.826l-1.426.557a.685.685,0,0,1-.734-.154l-1.751-1.752a.684.684,0,0,1-.154-.734l.557-1.426a9.067,9.067,0,0,1-.826-2l-2.733-1.015Z" fill="#4170ff"/>
  </g>
</svg>
