<svg xmlns="http://www.w3.org/2000/svg" width="36.867" height="32.771" viewBox="0 0 36.867 32.771">
  <path id="Path_59" data-name="Path 59" d="M821.16,5228.967v2.049a2.012,2.012,0,0,1-2.049,2.048h-2.048a2.012,2.012,0,0,1-2.048-2.048V5214.63l4.3-12.289a2.91,2.91,0,0,1,1.1-1.485,2.985,2.985,0,0,1,1.767-.563h22.529a2.985,2.985,0,0,1,1.767.563,2.91,2.91,0,0,1,1.1,1.485l4.3,12.289v16.386a2.012,2.012,0,0,1-2.048,2.048h-2.048a2.012,2.012,0,0,1-2.049-2.048v-2.049Zm-.41-18.433h25.4l-2.15-6.145H822.9Zm3.482,12.289a3.06,3.06,0,1,0-2.176-.9A2.964,2.964,0,0,0,824.232,5222.823Zm18.433,0a3.06,3.06,0,1,0-2.176-.9A2.962,2.962,0,0,0,842.665,5222.823Z" transform="translate(-815.015 -5200.293)" fill="#4170ff"/>
</svg>
