<svg xmlns="http://www.w3.org/2000/svg" width="33.199" height="35.558" viewBox="0 0 33.199 35.558">
  <g id="Group_3" data-name="Group 3" transform="translate(-412.721 -5198.899)">
    <path id="Path_64" data-name="Path 64" d="M421.01,5234.423h-8.289V5198.9h8.289Z" fill="#4170ff" fill-rule="evenodd"/>
    <path id="Path_65" data-name="Path 65" d="M431.637,5234.451h-4.506c-1.062,0-2.124-.025-3.185.006-.481.015-.639-.119-.636-.619.019-3.264.007-6.528.007-9.793q0-6.282.005-12.564v-.683h8.315Z" fill="#4170ff" fill-rule="evenodd"/>
    <path id="Path_66" data-name="Path 66" d="M426,5201.491l2.534-2.542,14.86,14.9,2.4-2.486.126.077v7.48h-7.562c.925-.885,1.767-1.693,2.6-2.493C435.9,5211.377,430.941,5206.423,426,5201.491Z" fill="#4170ff" fill-rule="evenodd"/>
    <path id="Path_67" data-name="Path 67" d="M442.229,5234.422h-8.271V5222.61h8.271Z" fill="#4170ff" fill-rule="evenodd"/>
  </g>
</svg>
