<svg xmlns="http://www.w3.org/2000/svg" width="39.404" height="37.613" viewBox="0 0 39.404 37.613">
  <path id="Path_62" data-name="Path 62" d="M611.529,5226.843l-2.911-2.1,8.956-14.328,5.373,6.268,7.164-11.642,4.881,7.3a11.112,11.112,0,0,0-3.761.806l-.985-1.478-6.806,11.06-5.418-6.313Zm33.941,8.642-5.6-5.6a6.632,6.632,0,0,1-1.993.94,8.186,8.186,0,0,1-2.261.313,8.074,8.074,0,1,1,8.06-8.06,8.193,8.193,0,0,1-.314,2.262,7.226,7.226,0,0,1-.94,2.037l5.6,5.552Zm-9.851-7.926a4.434,4.434,0,1,0-3.179-1.3A4.326,4.326,0,0,0,635.619,5227.559Zm3.985-14.328a11.76,11.76,0,0,0-1.769-.583,9.969,9.969,0,0,0-1.9-.268l9.18-14.508,2.91,2.1Z" transform="translate(-608.618 -5197.872)" fill="#4170ff"/>
</svg>
