<svg xmlns="http://www.w3.org/2000/svg" width="35.762" height="32.185" viewBox="0 0 35.762 32.185">
  <path id="Path_73" data-name="Path 73" d="M124.848,5222.043h14.3v-.984a3.6,3.6,0,0,0-1.967-3.2,11.94,11.94,0,0,0-10.37,0,3.6,3.6,0,0,0-1.967,3.2ZM132,5214.89a3.585,3.585,0,1,0-2.526-1.05A3.446,3.446,0,0,0,132,5214.89Zm-7.152,17.881v-3.576h-7.153a3.588,3.588,0,0,1-3.576-3.576v-21.457a3.587,3.587,0,0,1,3.576-3.576H146.3a3.587,3.587,0,0,1,3.576,3.576v21.457a3.588,3.588,0,0,1-3.576,3.576h-7.153v3.576Z" transform="translate(-114.119 -5200.586)" fill="#4170ff"/>
</svg>
