<svg xmlns="http://www.w3.org/2000/svg" width="38.168" height="32.951" viewBox="0 0 38.168 32.951">
  <path id="Path_68" data-name="Path 68" d="M338.375,5233.154l-.549-2.746q-.549-.23-1.03-.481a7.906,7.906,0,0,1-.984-.617l-2.654.823-1.831-3.112,2.105-1.83a7.825,7.825,0,0,1,0-2.38l-2.105-1.831,1.831-3.112,2.654.824a8.1,8.1,0,0,1,.984-.618q.48-.253,1.03-.48l.549-2.746h3.661l.549,2.746q.551.228,1.03.48a8.093,8.093,0,0,1,.984.618l2.654-.824,1.831,3.112-2.105,1.831a7.825,7.825,0,0,1,0,2.38l2.105,1.83-1.831,3.112-2.654-.823a7.9,7.9,0,0,1-.984.617q-.48.253-1.03.481l-.549,2.746Zm1.831-5.492a3.672,3.672,0,1,0-2.586-1.075A3.524,3.524,0,0,0,340.206,5227.662Zm-25.629,1.831a3.672,3.672,0,0,1-3.661-3.662v-21.967a3.67,3.67,0,0,1,3.661-3.661h10.984l3.661,3.661h14.645a3.672,3.672,0,0,1,3.661,3.661v6a12.362,12.362,0,0,0-3.478-1.739,12.77,12.77,0,0,0-3.89-.6,12.194,12.194,0,0,0-9.085,3.775,12.792,12.792,0,0,0-3.363,11.83,12.965,12.965,0,0,0,.961,2.7Z" transform="translate(-310.916 -5200.203)" fill="#4170ff"/>
</svg>
