<svg xmlns="http://www.w3.org/2000/svg" width="30.968" height="32" viewBox="0 0 30.968 32">
  <g id="Group_46" data-name="Group 46" transform="translate(-116.587 -16)">
    <g id="Group_45" data-name="Group 45">
      <path id="Path_267" data-name="Path 267" d="M135.519,20.508a12.121,12.121,0,0,1,4.113,2.378.992.992,0,0,0,1.127.135l2.337-1.229a1,1,0,0,1,1.332.384l2.111,3.655a1,1,0,0,1-.333,1.347l-2,1.258h-1.822a1.262,1.262,0,0,0-1.12.674l-.79,1.492h-1.241a7.732,7.732,0,1,0,0,2.8h1.241l.79,1.492a1.258,1.258,0,0,0,1.12.674h1.822l2,1.258a1,1,0,0,1,.333,1.347l-2.111,3.655a1,1,0,0,1-1.332.384l-2.337-1.229a.979.979,0,0,0-1.127.135,12.187,12.187,0,0,1-4.113,2.378.984.984,0,0,0-.677.908l-.1,2.638a1,1,0,0,1-1,.962h-4.222a1,1,0,0,1-1-.962l-.1-2.635a.987.987,0,0,0-.677-.907,12.19,12.19,0,0,1-4.112-2.378.992.992,0,0,0-1.127-.136l-2.338,1.23a1,1,0,0,1-1.332-.384l-2.111-3.656a1,1,0,0,1,.333-1.346l2.232-1.409a.978.978,0,0,0,.446-1.039,12.2,12.2,0,0,1,0-4.756.985.985,0,0,0-.446-1.039l-2.232-1.409a1,1,0,0,1-.333-1.346l2.111-3.656a1,1,0,0,1,1.332-.384l2.338,1.23a.981.981,0,0,0,1.127-.136A12.19,12.19,0,0,1,127.74,20.5a.981.981,0,0,0,.677-.907l.1-2.635a1,1,0,0,1,1-.962h4.222a1,1,0,0,1,1,.962l.1,2.638a.984.984,0,0,0,.677.908Z" fill="#4170ff" fill-rule="evenodd"/>
      <g id="Group_44" data-name="Group 44">
        <line id="Line_1" data-name="Line 1" x1="13.016" transform="translate(132.11 32)" fill="none" stroke="#4170ff" stroke-width="1"/>
      </g>
      <path id="Path_268" data-name="Path 268" d="M133.648,32a2.056,2.056,0,0,1-2.094,2.116,2.134,2.134,0,0,1-2.1-2.216,2.193,2.193,0,0,1,1.986-2.006A2.013,2.013,0,0,1,133.648,32Z" fill="#4170ff"/>
      <path id="Path_269" data-name="Path 269" d="M134.759,33.143a3.3,3.3,0,0,1-3.205,2.286,3.468,3.468,0,0,1-3.408-3.6,3.563,3.563,0,0,1,3.226-3.258,3.412,3.412,0,0,1,3.451,2.286h2.485a5.714,5.714,0,1,0,0,2.286Z" fill="#4170ff" fill-rule="evenodd"/>
    </g>
    <path id="Path_270" data-name="Path 270" d="M147.52,33.874l-.884-1.929.884-1.668a.28.28,0,0,0-.006-.277.272.272,0,0,0-.239-.135H143.34a.272.272,0,0,0-.246.148l-.856,1.614v.9l.856,1.614a.27.27,0,0,0,.246.148h3.935a.279.279,0,0,0,.245-.412Z" fill="#4170ff" fill-rule="evenodd"/>
  </g>
</svg>
