<svg xmlns="http://www.w3.org/2000/svg" xmlns:xlink="http://www.w3.org/1999/xlink" width="43.78" height="20.749" viewBox="0 0 43.78 20.749">
  <defs>
    <linearGradient id="linear-gradient" x1="6.239" y1="6.236" x2="-2.126" y2="-2.137" gradientUnits="objectBoundingBox">
      <stop offset="0" stop-color="#0d0027"/>
      <stop offset="1" stop-color="#032094"/>
    </linearGradient>
  </defs>
  <g id="Group_47" data-name="Group 47" transform="translate(-11.181 -21.625)">
    <path id="Path_271" data-name="Path 271" d="M32.993,42.374a10.375,10.375,0,1,1,10.468-10.42A10.394,10.394,0,0,1,32.993,42.374Zm.057-1.467v0c.465,0,.932-.026,1.394.008a.7.7,0,0,0,.712-.392,1.6,1.6,0,0,0,.131-.6c.033-.312-.073-.717.087-.916.175-.219.58-.267.9-.352a.511.511,0,0,1,.386.08c.218.163.4.373.6.554a.662.662,0,0,0,1,.027q1.089-1.033,2.122-2.125a.654.654,0,0,0-.033-1c-.181-.2-.39-.387-.551-.6a.527.527,0,0,1-.076-.389c.062-.254.184-.494.264-.745a.279.279,0,0,1,.316-.222,6.085,6.085,0,0,0,.926-.04c.531-.071.695-.251.709-.785.025-.937.031-1.875.041-2.812a.75.75,0,0,0-.72-.788c-.327-.023-.656-.023-.984-.02a.253.253,0,0,1-.283-.191c-.1-.275-.2-.547-.324-.812a.274.274,0,0,1,.084-.357c.213-.2.422-.4.614-.621a.648.648,0,0,0,.024-.979q-1.045-1.095-2.15-2.134a.647.647,0,0,0-.98.036c-.184.163-.365.331-.536.507a.428.428,0,0,1-.538.113,6.3,6.3,0,0,0-.691-.257.262.262,0,0,1-.2-.3,9.639,9.639,0,0,0-.039-1.062.753.753,0,0,0-.628-.622c-.948.009-1.9-.006-2.843.047-1.04.059-.889.164-.95.981-.023.3.069.673-.082.864-.165.209-.551.241-.837.358a.385.385,0,0,1-.47-.088c-.18-.181-.368-.353-.559-.523a.677.677,0,0,0-1.045-.029q-1.068,1.014-2.084,2.085a.666.666,0,0,0,.018,1.022c.2.223.429.423.625.649a.339.339,0,0,1,.058.28c-.095.285-.225.557-.328.839a.258.258,0,0,1-.284.191c-.346,0-.693,0-1.038.028-.3.023-.663.354-.661.6.009,1.047.03,2.093.045,3.14a.592.592,0,0,0,.495.6,3.254,3.254,0,0,0,.511.08c.291.03.661-.049.853.1s.235.534.342.815a.168.168,0,0,1,.024.077.808.808,0,0,1-.074.345c-.172.222-.382.414-.57.625a.665.665,0,0,0-.035,1c.7.73,1.417,1.441,2.15,2.136a.631.631,0,0,0,.935-.012c.236-.2.44-.438.677-.635a.406.406,0,0,1,.323-.075c.279.081.544.209.819.3a.251.251,0,0,1,.191.281,9.892,9.892,0,0,0,.037,1.09.738.738,0,0,0,.733.626Z" fill="#4170ff"/>
    <path id="Path_272" data-name="Path 272" d="M54.961,32a38.452,38.452,0,0,1-13.868,8.957l-.078-.1c.133-.151.26-.309.4-.453A12.24,12.24,0,0,0,43.6,37.453a11.592,11.592,0,0,0,.264-10.237,11.915,11.915,0,0,0-2.793-3.911,2.045,2.045,0,0,0-.317-.209l.111-.129A38.687,38.687,0,0,1,54.961,32Z" fill="#4170ff"/>
    <path id="Path_273" data-name="Path 273" d="M25.035,40.951a38.256,38.256,0,0,1-13.854-8.944A38.657,38.657,0,0,1,25.1,23.019l.056.065c-.165.187-.32.385-.5.56a11.092,11.092,0,0,0-3.019,5.147,11.63,11.63,0,0,0,3.022,11.585c.152.159.3.324.445.486Z" fill="#4170ff"/>
    <path id="Path_274" data-name="Path 274" d="M40.5,31.257c0,.486.007.913-.009,1.339,0,.055-.117.144-.186.151-.217.022-.437.01-.656.013a.748.748,0,0,0-.726.484c-.283.66-.561,1.322-.843,1.983a.721.721,0,0,0,.139.811c.2.233.412.459.6.667L37.769,37.74c-.206-.181-.445-.387-.68-.6a.661.661,0,0,0-.776-.116c-.628.267-1.268.5-1.9.753a.822.822,0,0,0-.6.849c.009.252,0,.505,0,.778H32.342c-.008-.072-.021-.149-.025-.226-.01-.209-.006-.419-.025-.627a.781.781,0,0,0-.58-.758c-.609-.208-1.2-.484-1.785-.749a.765.765,0,0,0-.89.094c-.239.207-.475.418-.7.613l-1.032-1.04c.162-.181.339-.4.534-.6a.774.774,0,0,0,.142-.986c-.286-.6-.535-1.216-.773-1.836a.756.756,0,0,0-.789-.536c-.253,0-.506,0-.777,0v-1.5c.22,0,.434-.007.648,0a.938.938,0,0,0,1.005-.7c.207-.562.45-1.112.7-1.656a.812.812,0,0,0-.131-.98c-.2-.214-.389-.429-.57-.629l1.041-1.037c.164.147.362.3.535.484A.866.866,0,0,0,30,26.911a14.909,14.909,0,0,1,1.694-.689.8.8,0,0,0,.593-.786c.018-.27,0-.541,0-.847.495,0,.938-.005,1.382.009.045,0,.119.117.125.184.026.281.026.563.045.845a.476.476,0,0,0,.317.437c.4.164.811.327,1.211.5.283.124.562.26.837.4a.721.721,0,0,0,.863-.089c.243-.2.478-.419.7-.618l1.02,1.063c-.152.168-.343.385-.541.6a.759.759,0,0,0-.144.92c.266.6.492,1.212.737,1.819a.83.83,0,0,0,.847.6C39.951,31.251,40.205,31.257,40.5,31.257Zm-7.433,4.129a3.27,3.27,0,0,0,3.388-3.592,3.361,3.361,0,0,0-3.428-3.215,3.431,3.431,0,0,0-3.407,3.438A3.376,3.376,0,0,0,33.064,35.386Z" fill="#4170ff"/>
    <path id="Path_275" data-name="Path 275" d="M34.97,32a1.856,1.856,0,0,0-2.034-1.942,2.024,2.024,0,0,0-1.833,1.85,1.969,1.969,0,0,0,1.936,2.045A1.9,1.9,0,0,0,34.97,32Z" fill="url(#linear-gradient)"/>
    <path id="Path_276" data-name="Path 276" d="M34.97,32a1.9,1.9,0,0,1-1.931,1.953A1.969,1.969,0,0,1,31.1,31.912a2.024,2.024,0,0,1,1.833-1.85A1.856,1.856,0,0,1,34.97,32Z" fill="#4170ff"/>
  </g>
</svg>
