<svg xmlns="http://www.w3.org/2000/svg" width="30.541" height="30.54" viewBox="0 0 30.541 30.54">
  <g id="Group_21" data-name="Group 21" transform="translate(-412.975 -4058.36)">
    <path id="Path_111" data-name="Path 111" d="M435.032,4058.36H416.369a3.4,3.4,0,0,0-3.394,3.393v23.754a3.4,3.4,0,0,0,3.394,3.393h23.753a3.4,3.4,0,0,0,3.394-3.393v-18.663Zm3.441,20.308h-9v-2h9Zm0-8h-9v-2h9Zm-11.91,9.6-1.4,1.4-2.6-2.6-2.6,2.6-1.4-1.4,2.6-2.6-2.6-2.6,1.4-1.4,2.6,2.6,2.6-2.6,1.4,1.4-2.6,2.6Zm-4.625-7.6-3.55-3.55,1.4-1.4,2.125,2.125,4.25-4.25,1.4,1.425Z" fill="#4170ff"/>
  </g>
</svg>
