<svg xmlns="http://www.w3.org/2000/svg" width="43.275" height="30.311" viewBox="0 0 43.275 30.311">
  <g id="Group_24" data-name="Group 24" transform="translate(-406.608 -3888.053)">
    <path id="Path_117" data-name="Path 117" d="M408.614,3907.685v-2.577a3.277,3.277,0,0,1,1.8-2.863,8.986,8.986,0,0,1,4.744-1.1c.355,0,.7.006,1.023.02a7.037,7.037,0,0,1,.941.1,6.815,6.815,0,0,0-.859,1.8,6.7,6.7,0,0,0-.287,1.963v2.659Zm9.815,0v-2.659a4.255,4.255,0,0,1,.716-2.393,6.49,6.49,0,0,1,2.025-1.9,9.966,9.966,0,0,1,3.129-1.227,17.969,17.969,0,0,1,3.946-.409,18.177,18.177,0,0,1,3.988.409,9.985,9.985,0,0,1,3.129,1.227,6.278,6.278,0,0,1,2,1.9,4.34,4.34,0,0,1,.7,2.393v2.659Zm22.086,0v-2.659a7.306,7.306,0,0,0-.266-2,6.425,6.425,0,0,0-.8-1.759,6.976,6.976,0,0,1,.92-.1c.314-.014.634-.02.961-.02a9.129,9.129,0,0,1,4.745,1.083,3.264,3.264,0,0,1,1.8,2.884v2.577Zm-25.358-8.18a3.282,3.282,0,0,1-2.31-5.6,3.283,3.283,0,0,1,4.642,4.642A3.131,3.131,0,0,1,415.157,3899.5Zm26.176,0a3.283,3.283,0,0,1-2.311-5.6,3.283,3.283,0,0,1,4.643,4.642A3.134,3.134,0,0,1,441.333,3899.5Zm-13.088-1.636a4.854,4.854,0,1,1,3.5-1.432A4.733,4.733,0,0,1,428.245,3897.869Z" fill="#4170ff"/>
    <g id="Group_23" data-name="Group 23">
      <path id="Path_118" data-name="Path 118" d="M428.245,3909.349c-11.95,0-21.637,2.018-21.637,4.508s9.687,4.507,21.637,4.507,21.638-2.018,21.638-4.507S440.2,3909.349,428.245,3909.349Zm0,6.193c-6.894,0-12.483-1.164-12.483-2.6s5.589-2.6,12.483-2.6,12.484,1.164,12.484,2.6S435.14,3915.542,428.245,3915.542Z" fill="#4170ff"/>
    </g>
  </g>
</svg>
