<svg xmlns="http://www.w3.org/2000/svg" width="34.331" height="32.424" viewBox="0 0 34.331 32.424">
  <path id="Path_110" data-name="Path 110" d="M534.131,4071.246l6.723-6.771-1.335-1.335-5.388,5.388-2.718-2.718-1.335,1.383Zm-23.46,18.6v-3.814h22.887v3.814Zm24.8-13.351a9.522,9.522,0,1,1,6.747-2.789A9.191,9.191,0,0,1,535.466,4076.491Zm-24.8-1.907v-3.815h12.016a18.551,18.551,0,0,0,.763,2,10.319,10.319,0,0,0,1.049,1.812Zm0,7.629V4078.4H528.6a13.2,13.2,0,0,0,2.337,1.121,12.663,12.663,0,0,0,2.622.644v2.05Z" transform="translate(-510.671 -4057.418)" fill="#4170ff"/>
</svg>
