<svg xmlns="http://www.w3.org/2000/svg" width="36.904" height="38" viewBox="0 0 36.904 38">
  <path id="Path_120" data-name="Path 120" d="M212.628,3914.684v-3.809h5.238l-.761-.667a12.032,12.032,0,0,1-3.477-5,16.809,16.809,0,0,1-1-5.666,15.233,15.233,0,0,1,11.429-14.857v4a11.517,11.517,0,0,0-7.619,10.857,10.959,10.959,0,0,0,3.333,7.9l.476.476v-4.666h3.81v11.428Zm34.143-17.142h-3.857a10.01,10.01,0,0,0-1.024-3.191,12.31,12.31,0,0,0-2.119-2.9l-.476-.477v4.667h-3.81v-11.428h11.428v3.809h-5.238l.762.667a15.458,15.458,0,0,1,3,4.238A15.065,15.065,0,0,1,246.771,3897.542Zm-10.5,24.667-.68-3.4q-.681-.282-1.276-.6a9.737,9.737,0,0,1-1.218-.765l-3.287,1.02-2.267-3.853,2.607-2.267a9.663,9.663,0,0,1,0-2.947l-2.607-2.266,2.267-3.854,3.287,1.02a10,10,0,0,1,1.218-.765q.6-.312,1.276-.595l.68-3.4H240.8l.68,3.4a11.594,11.594,0,0,1,1.275.623,9,9,0,0,1,1.219.85l3.286-1.133,2.267,3.967-2.607,2.267a8.857,8.857,0,0,1,0,2.833l2.607,2.267-2.267,3.853-3.286-1.02a9.673,9.673,0,0,1-1.219.765q-.6.312-1.275.6l-.68,3.4Zm2.266-6.8a4.544,4.544,0,1,0-3.2-1.331A4.368,4.368,0,0,0,238.538,3915.408Z" transform="translate(-212.628 -3884.209)" fill="#4170ff"/>
</svg>
