<svg xmlns="http://www.w3.org/2000/svg" xmlns:xlink="http://www.w3.org/1999/xlink" width="39.624" height="32.419" viewBox="0 0 39.624 32.419">
  <defs>
    <clipPath id="clip-path">
      <rect id="Rectangle_242" data-name="Rectangle 242" width="39.624" height="32.419" transform="translate(0 0)" fill="none"/>
    </clipPath>
  </defs>
  <g id="Group_49" data-name="Group 49" transform="translate(0 0)">
    <rect id="Rectangle_241" data-name="Rectangle 241" width="39.623" height="3.602" transform="translate(0 28.817)" fill="#4170ff"/>
    <g id="Group_50" data-name="Group 50">
      <g id="Group_49-2" data-name="Group 49" clip-path="url(#clip-path)">
        <path id="Path_278" data-name="Path 278" d="M5.4,27.016H34.221a3.612,3.612,0,0,0,3.6-3.6V3.6a3.47,3.47,0,0,0-1.058-2.544A3.47,3.47,0,0,0,34.221,0H5.4A3.469,3.469,0,0,0,2.86,1.058,3.467,3.467,0,0,0,1.8,3.6V23.414A3.467,3.467,0,0,0,2.86,25.958,3.469,3.469,0,0,0,5.4,27.016M23.448,10.448h2.94l1.248,4.033.443,1.679H28.1l.456-1.668L29.8,10.448h2.821v7.92H30.791V14.733l.061-2.437h-.025l-1.956,6.072H27.2L25.247,12.3h-.023l.06,2.437v3.635H23.448Zm-8.268,0h3.78a3.306,3.306,0,0,1,2.2.666,2.207,2.207,0,0,1,.786,1.77,2.248,2.248,0,0,1-.78,1.849,2.6,2.6,0,0,1-.82.43l2.068,3.2h-2.28l-1.691-2.891H17.208v2.891H15.18ZM7.14,12.212a3.262,3.262,0,0,1,1.344-1.4,4.178,4.178,0,0,1,2.064-.487,4.74,4.74,0,0,1,1.525.235,2.965,2.965,0,0,1,1.175.713,2.708,2.708,0,0,1,.684,1.236l-1.812.732a1.664,1.664,0,0,0-.545-1.019,1.572,1.572,0,0,0-.955-.277,1.715,1.715,0,0,0-.978.277,1.743,1.743,0,0,0-.636.821,3.636,3.636,0,0,0-.221,1.362,3.918,3.918,0,0,0,.2,1.357,1.634,1.634,0,0,0,.617.827,1.81,1.81,0,0,0,1.026.276,1.522,1.522,0,0,0,.978-.318,1.643,1.643,0,0,0,.547-.978l1.872.529a3.178,3.178,0,0,1-.733,1.361,3,3,0,0,1-1.2.78,4.582,4.582,0,0,1-1.536.246A4.214,4.214,0,0,1,8.484,18,3.267,3.267,0,0,1,7.14,16.6a4.764,4.764,0,0,1-.468-2.2,4.76,4.76,0,0,1,.468-2.2" fill="#4170ff"/>
        <path id="Path_279" data-name="Path 279" d="M19.571,13.773a.927.927,0,0,0,.3-.769.91.91,0,0,0-.3-.755,1.412,1.412,0,0,0-.9-.241H17.208v2h1.464a1.419,1.419,0,0,0,.9-.239" fill="#4170ff"/>
      </g>
    </g>
  </g>
</svg>
