<svg xmlns="http://www.w3.org/2000/svg" width="38.743" height="28.177" viewBox="0 0 38.743 28.177">
  <path id="Path_119" data-name="Path 119" d="M319.514,3917.3a5.262,5.262,0,0,1-5.283-5.283h-3.522v-19.372a3.532,3.532,0,0,1,3.522-3.522h24.655v7.044h5.283l5.283,7.045v8.8H345.93a5.284,5.284,0,1,1-10.567,0H324.8a5.261,5.261,0,0,1-5.283,5.283Zm0-3.522a1.728,1.728,0,1,0-1.255-.506A1.707,1.707,0,0,0,319.514,3913.775Zm21.133,0a1.728,1.728,0,1,0-1.255-.506A1.7,1.7,0,0,0,340.647,3913.775Zm-1.761-8.8h7.484l-3.962-5.284h-3.522Z" transform="translate(-310.709 -3889.12)" fill="#4170ff"/>
</svg>
