<svg xmlns="http://www.w3.org/2000/svg" width="40.016" height="29.103" viewBox="0 0 40.016 29.103">
  <path id="Path_125" data-name="Path 125" d="M15.71,3917.76a3.65,3.65,0,0,1-3.638-3.638v-20.008H15.71v20.008H46.631v3.638Zm7.276-7.276a3.648,3.648,0,0,1-3.638-3.638v-14.551a3.65,3.65,0,0,1,3.638-3.638H48.45a3.648,3.648,0,0,1,3.638,3.638v14.551a3.646,3.646,0,0,1-3.638,3.638Zm3.638-3.638a3.648,3.648,0,0,0-3.638-3.637v3.637Zm18.189,0H48.45v-3.637a3.647,3.647,0,0,0-3.637,3.637Zm-9.1-1.819a5.434,5.434,0,1,0-3.865-1.591A5.261,5.261,0,0,0,35.718,3905.027Zm-12.732-9.094a3.65,3.65,0,0,0,3.638-3.638H22.986Zm25.464,0v-3.638H44.813a3.648,3.648,0,0,0,3.637,3.638Z" transform="translate(-12.072 -3888.657)" fill="#4170ff"/>
</svg>
