<svg xmlns="http://www.w3.org/2000/svg" width="32.294" height="32.294" viewBox="0 0 32.294 32.294">
  <g id="Group_20" data-name="Group 20" transform="translate(-611.088 -4057.483)">
    <path id="Path_109" data-name="Path 109" d="M630.868,4082.915a1.242,1.242,0,1,0-.848-.364A1.16,1.16,0,0,0,630.868,4082.915Zm4.44,0a1.244,1.244,0,1,0-.847-.364A1.16,1.16,0,0,0,635.308,4082.915Zm4.441,0a1.242,1.242,0,1,0-.848-.364A1.158,1.158,0,0,0,639.749,4082.915Zm-4.441,6.862a8.063,8.063,0,1,1,5.712-2.361A7.78,7.78,0,0,1,635.308,4089.777Zm-17.761-22.6h16.147v-3.23H617.547Zm7.549,19.376H614.318a3.24,3.24,0,0,1-3.23-3.23v-22.605a3.24,3.24,0,0,1,3.23-3.23h22.6a3.238,3.238,0,0,1,3.229,3.23v10.818a11.578,11.578,0,0,0-2.361-.848,10.739,10.739,0,0,0-2.483-.282c-.3,0-.571.007-.827.02a5.556,5.556,0,0,0-.787.1v-.121H617.547v3.229h9.89a10.635,10.635,0,0,0-1.312,1.494,11.133,11.133,0,0,0-1.029,1.736h-7.549v3.229h6.58a5.38,5.38,0,0,0-.1.787c-.014.256-.02.532-.02.828a12.006,12.006,0,0,0,.242,2.482A9.8,9.8,0,0,0,625.1,4086.548Z" fill="#4170ff"/>
  </g>
</svg>
