<svg xmlns="http://www.w3.org/2000/svg" width="33.842" height="31.961" viewBox="0 0 33.842 31.961">
  <path id="Path_4" data-name="Path 4" d="M434.873,7030.937l6.627-6.675-1.316-1.316-5.311,5.311-2.679-2.679-1.316,1.363Zm-23.125,18.33v-3.76h22.561v3.76Zm24.441-13.16a9.389,9.389,0,1,1,6.651-2.75A9.062,9.062,0,0,1,436.189,7036.107Zm-24.441-1.88v-3.761h11.845a18.33,18.33,0,0,0,.752,1.975,10.161,10.161,0,0,0,1.034,1.786Zm0,7.52v-3.76h17.673a12.982,12.982,0,0,0,2.3,1.1,12.476,12.476,0,0,0,2.585.635v2.021Z" transform="translate(-411.748 -7017.306)" fill="#4170ff"/>
</svg>
