<svg xmlns="http://www.w3.org/2000/svg" width="32.744" height="35.721" viewBox="0 0 32.744 35.721">
  <path id="Path_1" data-name="Path 1" d="M725.789,7051.147a6.385,6.385,0,0,1-5.061-10.27,6.478,6.478,0,0,1,3.36-2.275v-3.614H713.882v-6.8h-4.253v-11.907h11.907v11.907h-4.252v3.4h17.01v-3.615a6.479,6.479,0,0,1-3.36-2.275,6.378,6.378,0,1,1,10.121,0,6.48,6.48,0,0,1-3.359,2.275v7.017H727.49v3.614a6.48,6.48,0,0,1,3.359,2.275,6.36,6.36,0,0,1-5.06,10.27Zm10.206-26.365a2.977,2.977,0,1,0-2.1-.872A2.87,2.87,0,0,0,735.995,7024.782Zm-22.964,0h5.1v-5.1h-5.1Zm12.758,22.963a2.977,2.977,0,1,0-2.1-.872A2.87,2.87,0,0,0,725.789,7047.745Z" transform="translate(-709.629 -7015.426)" fill="#4170ff"/>
</svg>
