<svg xmlns="http://www.w3.org/2000/svg" width="33.78" height="36.313" viewBox="0 0 33.78 36.313">
  <path id="Path_5" data-name="Path 5" d="M326.028,7021.886a3.389,3.389,0,1,1,2.385-.992A3.254,3.254,0,0,1,326.028,7021.886Zm-10.979,29.557,4.645-23.815-2.956,1.267v5.658H313.36v-7.938l8.867-3.631a3.383,3.383,0,0,1,2.323-.106,3.059,3.059,0,0,1,1.815,1.457l1.605,2.7a8.8,8.8,0,0,0,3.061,3,8.244,8.244,0,0,0,4.286,1.14v3.378a11.492,11.492,0,0,1-5.173-1.182,11.991,11.991,0,0,1-4.032-3.209l-1.013,5.067,3.462,3.462v12.752h-3.378v-10.134l-3.631-3.378-2.956,13.512Zm23.224,0V7027.8h-6.334v-11.823h15.2V7027.8h-6.334v23.646Zm2.153-25.377,4.18-4.18-4.18-4.18-1.816,1.815,1.1,1.1h-5.236v2.534h5.236l-1.1,1.1Z" transform="translate(-313.36 -7015.13)" fill="#4170ff"/>
</svg>
