<svg xmlns="http://www.w3.org/2000/svg" width="36.904" height="38" viewBox="0 0 36.904 38">
  <path id="Path_8" data-name="Path 8" d="M13.8,7044.762v-3.809h5.238l-.762-.667a12.03,12.03,0,0,1-3.476-5,16.786,16.786,0,0,1-1-5.666,15.233,15.233,0,0,1,11.429-14.857v4a11.517,11.517,0,0,0-7.619,10.857,10.958,10.958,0,0,0,3.333,7.9l.476.476v-4.666h3.81v11.428ZM47.94,7027.62H44.083a9.981,9.981,0,0,0-1.024-3.191,12.283,12.283,0,0,0-2.119-2.9l-.476-.477v4.667H36.655v-11.428H48.083v3.809H42.845l.762.667a15.457,15.457,0,0,1,3,4.238A15.067,15.067,0,0,1,47.94,7027.62Zm-10.5,24.667-.68-3.4q-.68-.282-1.275-.6a9.6,9.6,0,0,1-1.218-.765l-3.287,1.02-2.267-3.853,2.607-2.267a9.662,9.662,0,0,1,0-2.947l-2.607-2.266,2.267-3.854,3.287,1.02a9.88,9.88,0,0,1,1.218-.765q.6-.312,1.275-.595l.68-3.4h4.534l.68,3.4a11.6,11.6,0,0,1,1.275.623,8.9,8.9,0,0,1,1.218.85l3.287-1.133,2.267,3.967-2.607,2.267a8.935,8.935,0,0,1,0,2.833l2.607,2.267-2.267,3.853-3.287-1.02a9.6,9.6,0,0,1-1.218.765q-.6.312-1.275.6l-.68,3.4Zm2.267-6.8a4.546,4.546,0,1,0-3.2-1.331A4.367,4.367,0,0,0,39.708,7045.486Z" transform="translate(-13.798 -7014.287)" fill="#4170ff"/>
</svg>
