<svg xmlns="http://www.w3.org/2000/svg" width="37.536" height="32.771" viewBox="0 0 37.536 32.771">
  <path id="Path_2" data-name="Path 2" d="M637.107,7049.672a3.173,3.173,0,0,1-.77-.1,2.1,2.1,0,0,1-.722-.337l-5.774-3.368a2.675,2.675,0,0,1-1.035-1.035,2.869,2.869,0,0,1-.361-1.42v-6.785a2.876,2.876,0,0,1,.361-1.42,2.673,2.673,0,0,1,1.035-1.034l5.774-3.369a2.139,2.139,0,0,1,.722-.337,3.174,3.174,0,0,1,.77-.1,2.348,2.348,0,0,1,.746.12,3.966,3.966,0,0,1,.7.313l5.774,3.369a2.851,2.851,0,0,1,1.059,1.034,2.736,2.736,0,0,1,.385,1.42v6.785a2.73,2.73,0,0,1-.385,1.42,2.853,2.853,0,0,1-1.059,1.035l-5.774,3.368a3.763,3.763,0,0,1-.7.313A2.348,2.348,0,0,1,637.107,7049.672ZM623.633,7032.3a7.721,7.721,0,1,1,5.438-2.262A7.414,7.414,0,0,1,623.633,7032.3Zm-15.4,15.4v-5.389a5.8,5.8,0,0,1,.819-2.984,5.333,5.333,0,0,1,2.261-2.117,30.123,30.123,0,0,1,5.534-2.118,25.051,25.051,0,0,1,6.786-.866h.673a1.824,1.824,0,0,1,.578.1,13.436,13.436,0,0,0-.65,1.805,14.965,14.965,0,0,0-.409,1.949h-.192a20.189,20.189,0,0,0-6.136.866,31.676,31.676,0,0,0-4.451,1.732,1.873,1.873,0,0,0-.7.674,1.816,1.816,0,0,0-.265.963v1.54H624.21a12.268,12.268,0,0,0,.77,2,15.98,15.98,0,0,0,1.059,1.852Zm15.4-19.249a3.862,3.862,0,1,0-2.719-1.131A3.707,3.707,0,0,0,623.633,7028.45Zm8.951,7.411,4.523,2.647,4.524-2.647-4.524-2.6Zm5.967,10.01,4.331-2.5v-5.293l-4.331,2.55Zm-7.219-2.5,4.331,2.551v-5.246l-4.331-2.55Z" transform="translate(-608.233 -7016.901)" fill="#4170ff"/>
</svg>
