<svg xmlns="http://www.w3.org/2000/svg" width="34.542" height="38.379" viewBox="0 0 34.542 38.379">
  <path id="Path_6" data-name="Path 6" d="M218.1,7048.35a17.289,17.289,0,0,1-3.046-5.157,17,17,0,0,1-1.08-6.068,17.2,17.2,0,0,1,17.271-17.271h.384l-3.071-3.07,2.687-2.687,7.676,7.676-7.676,7.676-2.735-2.735,3.023-3.022h-.288a13.432,13.432,0,0,0-13.433,13.433,13.263,13.263,0,0,0,.792,4.6,13.022,13.022,0,0,0,2.231,3.886Zm11.226-.671a3.816,3.816,0,0,0-.744-2.183q-.743-1.08-1.655-2.255a22.779,22.779,0,0,1-1.655-2.446,5.293,5.293,0,0,1-.743-2.711,6.716,6.716,0,1,1,13.432,0,5.293,5.293,0,0,1-.743,2.711,22.779,22.779,0,0,1-1.655,2.446q-.912,1.176-1.655,2.255a3.816,3.816,0,0,0-.744,2.183Zm0,4.8V7049.6h3.838v2.878Zm15.064-4.126-2.735-2.734a13.022,13.022,0,0,0,2.231-3.886,13.761,13.761,0,0,0-.528-10.482,12.883,12.883,0,0,0-3.622-4.534l2.735-2.734a17.686,17.686,0,0,1,4.414,5.781,16.729,16.729,0,0,1,1.631,7.364,17,17,0,0,1-1.08,6.068A17.289,17.289,0,0,1,244.4,7048.35Z" transform="translate(-213.979 -7014.097)" fill="#4170ff"/>
</svg>
