<svg xmlns="http://www.w3.org/2000/svg" width="41.229" height="27.279" viewBox="0 0 41.229 27.279">
  <g id="Group_30" data-name="Group 30" transform="translate(-111.466 -3483.331)">
    <path id="Path_138" data-name="Path 138" d="M131.843,3483.331c.544.086,1.093.15,1.632.261a11.763,11.763,0,0,1,8.386,16.07.334.334,0,0,1-.365.246c-1.622-.009-3.244,0-4.923,0,.073-.1.121-.165.169-.229a7.344,7.344,0,0,0-4.71-11.847,7.332,7.332,0,0,0-2.252,14.488,6.951,6.951,0,0,0,1.23.107c4.834.008,7.817,0,12.652,0,.077,0,.154-.007.285-.013l-.254-1.134c-.117-.521-.253-1.039-.343-1.564a.89.89,0,0,1,.278-.936.9.9,0,0,1,.973.048,3.807,3.807,0,0,1,.584.353q3.7,2.675,7.391,5.356c.036.026.068.055.119.1-.068.054-.125.1-.187.149q-3.641,2.641-7.287,5.276a3.729,3.729,0,0,1-.973.5.616.616,0,0,1-.883-.593,4.14,4.14,0,0,1,.094-1.039c.131-.652.3-1.3.449-1.945a.9.9,0,0,0,.009-.131h-.345c-4.8,0-7.748.006-12.547-.005a11.758,11.758,0,0,1-1.018-23.472,1.65,1.65,0,0,0,.2-.044Z" fill="#4170ff"/>
    <path id="Path_139" data-name="Path 139" d="M111.466,3506.83v-4.4h.29q4.13,0,8.259,0a.363.363,0,0,1,.367.177,14.225,14.225,0,0,0,3.835,4.1l.17.125Z" fill="#4170ff"/>
  </g>
</svg>
