<svg xmlns="http://www.w3.org/2000/svg" width="32.318" height="33.998" viewBox="0 0 32.318 33.998">
  <path id="Path_140" data-name="Path 140" d="M29.52,3502.071h3.4l.255-2.125a3.484,3.484,0,0,0,.616-.3,2.659,2.659,0,0,0,.489-.382l1.955.85,1.7-2.89-1.7-1.275a2.762,2.762,0,0,0,0-1.36l1.7-1.275-1.7-2.89-1.955.85a2.659,2.659,0,0,0-.489-.382,3.484,3.484,0,0,0-.616-.3l-.255-2.125h-3.4l-.255,2.125a3.518,3.518,0,0,0-.616.3,2.651,2.651,0,0,0-.488.382l-1.955-.85-1.7,2.89,1.7,1.275a2.762,2.762,0,0,0,0,1.36l-1.7,1.275,1.7,2.89,1.955-.85a2.651,2.651,0,0,0,.488.382,3.518,3.518,0,0,0,.616.3Zm1.7-4.25a2.54,2.54,0,1,1,1.806-.744A2.459,2.459,0,0,1,31.22,3497.821Zm-10.2,16.149v-7.31a15.681,15.681,0,0,1-3.761-5.163,14.905,14.905,0,0,1-1.339-6.226,15.235,15.235,0,0,1,15.3-15.3,15.119,15.119,0,0,1,9.414,3.123,14.213,14.213,0,0,1,5.333,8.139l2.21,8.712a1.611,1.611,0,0,1-.3,1.466,1.634,1.634,0,0,1-1.36.659h-3.4v5.1a3.411,3.411,0,0,1-3.4,3.4h-3.4v3.4Z" transform="translate(-15.921 -3479.972)" fill="#4170ff"/>
</svg>
