<svg xmlns="http://www.w3.org/2000/svg" width="32.129" height="25.703" viewBox="0 0 32.129 25.703">
  <path id="Path_131" data-name="Path 131" d="M712.15,3509.822a3.223,3.223,0,0,1-3.213-3.213v-19.277a3.223,3.223,0,0,1,3.213-3.213h25.7a3.223,3.223,0,0,1,3.213,3.213v19.277a3.223,3.223,0,0,1-3.213,3.213ZM723.4,3505h3.213l.482-2.41q.481-.2.9-.421a6.977,6.977,0,0,0,.863-.543l2.329.723,1.607-2.731-1.848-1.606a6.768,6.768,0,0,0,0-2.088l1.848-1.607-1.607-2.731-2.329.723a6.933,6.933,0,0,0-.863-.542q-.423-.22-.9-.422l-.482-2.409H723.4l-.482,2.409q-.482.2-.9.422a7.013,7.013,0,0,0-.864.542l-2.329-.723-1.606,2.731,1.847,1.607a6.855,6.855,0,0,0,0,2.088l-1.847,1.606,1.606,2.731,2.329-.723a7.059,7.059,0,0,0,.864.543q.422.22.9.421Zm1.607-4.819a3.221,3.221,0,1,1,2.269-.944A3.094,3.094,0,0,1,725,3500.184Z" transform="translate(-708.937 -3484.119)" fill="#4170ff"/>
</svg>
