<svg xmlns="http://www.w3.org/2000/svg" width="38.168" height="32.951" viewBox="0 0 38.168 32.951">
  <path id="Path_134" data-name="Path 134" d="M536.212,3513.446l-.55-2.746q-.549-.228-1.029-.48a7.92,7.92,0,0,1-.984-.618l-2.655.824-1.83-3.112,2.1-1.831a7.743,7.743,0,0,1,0-2.38l-2.1-1.83,1.83-3.112,2.655.824a7.672,7.672,0,0,1,.984-.618q.48-.252,1.029-.481l.55-2.746h3.661l.549,2.746q.549.23,1.03.481a7.813,7.813,0,0,1,.984.618l2.654-.824,1.831,3.112-2.106,1.83a7.743,7.743,0,0,1,0,2.38l2.106,1.831-1.831,3.112-2.654-.824a8.07,8.07,0,0,1-.984.618q-.482.252-1.03.48l-.549,2.746Zm1.83-5.492a3.671,3.671,0,1,0-2.586-1.075A3.525,3.525,0,0,0,538.042,3507.954Zm-25.628,1.831a3.67,3.67,0,0,1-3.661-3.661v-21.967a3.672,3.672,0,0,1,3.661-3.662H523.4l3.662,3.662H541.7a3.672,3.672,0,0,1,3.662,3.661v5.995a12.4,12.4,0,0,0-3.479-1.739,12.775,12.775,0,0,0-3.89-.595,12.192,12.192,0,0,0-9.084,3.776,12.8,12.8,0,0,0-3.364,11.83,13.032,13.032,0,0,0,.961,2.7Z" transform="translate(-508.753 -3480.495)" fill="#4170ff"/>
</svg>
