<svg xmlns="http://www.w3.org/2000/svg" width="40.394" height="40.056" viewBox="0 0 40.394 40.056">
  <g id="Group_13" data-name="Group 13" transform="translate(-12.133 -4611.404)">
    <path id="Path_96" data-name="Path 96" d="M40.4,4623.369a11.4,11.4,0,1,0,0,16.128,11.4,11.4,0,0,0,0-16.128Zm-10.234,13-4.191-4.191,1.415-1.414,2.776,2.777,6.925-6.925,1.414,1.414Z" fill="#4170ff"/>
    <path id="Path_97" data-name="Path 97" d="M50.571,4640.126h0a20.08,20.08,0,0,0-28.222-26l2.765,2.766a16.327,16.327,0,0,1,22.45,20.754.611.611,0,0,1-.08.156.566.566,0,0,1-.791.124l-.889-.646-1.293,7.782,7-3.634-.782-.568A.567.567,0,0,1,50.571,4640.126Z" fill="#4170ff"/>
    <path id="Path_98" data-name="Path 98" d="M17.629,4638.72a16.323,16.323,0,0,1-.53-13.5.569.569,0,0,1,.721-.357.551.551,0,0,1,.149.077l.889.646,1.294-7.782-7,3.635.779.566a.568.568,0,0,1,.161.739,20.08,20.08,0,0,0,28.223,26l-2.767-2.766A16.326,16.326,0,0,1,17.629,4638.72Z" fill="#4170ff"/>
  </g>
</svg>
