<svg xmlns="http://www.w3.org/2000/svg" width="37.642" height="37.563" viewBox="0 0 37.642 37.563">
  <g id="Group_12" data-name="Group 12" transform="translate(-212.509 -4612.65)">
    <path id="Path_94" data-name="Path 94" d="M249.524,4627.785l-4.941-1.176c-.157-.392-.313-.784-.549-1.255l2.667-4.234a.823.823,0,0,0-.079-.941l-4.078-4.078a.725.725,0,0,0-.941-.157l-4.313,2.666a5.9,5.9,0,0,0-1.255-.47l-1.176-4.863a.764.764,0,0,0-.784-.627H228.35a.765.765,0,0,0-.784.627l-1.1,4.863c-.392.156-.784.313-1.255.548l-4.234-2.666a.714.714,0,0,0-.941.079l-4.078,4.078a.985.985,0,0,0-.157,1.019l2.666,4.313c-.156.392-.313.784-.47,1.255l-4.862,1.176a.687.687,0,0,0-.628.706v5.725a.765.765,0,0,0,.628.784l4.862,1.176c.157.392.314.784.549,1.255l-2.588,4.234a.716.716,0,0,0,.078.942l4.078,4.077a.713.713,0,0,0,.941.079l4.313-2.667c.393.157.785.314,1.255.471l1.176,4.862a.764.764,0,0,0,.785.627h5.724a.763.763,0,0,0,.784-.627l1.177-4.94a8.792,8.792,0,0,0,1.254-.549l4.235,2.666a.725.725,0,0,0,.941-.157l4.078-4.078a.713.713,0,0,0,.078-.941l-2.666-4.313a4.119,4.119,0,0,0,.471-1.254l4.862-1.177a.843.843,0,0,0,.627-.784v-5.725A.759.759,0,0,0,249.524,4627.785Zm-8.367,6.3a2.567,2.567,0,0,1-2.349-1.516h-.832v4.434a1.067,1.067,0,0,1-1.1,1.1h-4.434v.176a2.607,2.607,0,1,1-3.721,2.347,2.567,2.567,0,0,1,1.516-2.349v-.174H225.8a1.067,1.067,0,0,1-1.1-1.1v-4.434h-.768a2.608,2.608,0,1,1-2.347-3.721,2.57,2.57,0,0,1,2.349,1.515h.766v-4.433a1.067,1.067,0,0,1,1.1-1.1h4.434v-.176a2.607,2.607,0,1,1,3.721-2.347,2.569,2.569,0,0,1-1.516,2.35v.173h4.434a1.067,1.067,0,0,1,1.1,1.1v4.433h.835a2.608,2.608,0,1,1,2.346,3.722Z" fill="#4170ff"/>
  </g>
</svg>
